%TF.GenerationSoftware,KiCad,Pcbnew,(5.1.7-0-10_14)*%
%TF.CreationDate,2020-11-26T21:17:17+01:00*%
%TF.ProjectId,nixie_board,6e697869-655f-4626-9f61-72642e6b6963,rev?*%
%TF.SameCoordinates,Original*%
%TF.FileFunction,Soldermask,Top*%
%TF.FilePolarity,Negative*%
%FSLAX46Y46*%
G04 Gerber Fmt 4.6, Leading zero omitted, Abs format (unit mm)*
G04 Created by KiCad (PCBNEW (5.1.7-0-10_14)) date 2020-11-26 21:17:17*
%MOMM*%
%LPD*%
G01*
G04 APERTURE LIST*
%ADD10C,0.375000*%
%ADD11C,0.010000*%
%ADD12C,3.000000*%
%ADD13R,3.000000X3.000000*%
%ADD14O,1.600000X2.000000*%
%ADD15R,2.000000X2.000000*%
%ADD16C,1.600000*%
%ADD17R,1.600000X1.600000*%
%ADD18C,0.800000*%
%ADD19C,6.400000*%
%ADD20R,1.500000X1.500000*%
%ADD21C,1.500000*%
%ADD22O,1.600000X1.600000*%
%ADD23R,1.500000X1.000000*%
%ADD24C,1.107440*%
%ADD25R,3.500000X3.500000*%
%ADD26C,1.346200*%
G04 APERTURE END LIST*
D10*
X60663214Y-49117619D02*
X60567976Y-49022380D01*
X60472738Y-48736666D01*
X60472738Y-48546190D01*
X60567976Y-48260476D01*
X60758452Y-48070000D01*
X60948928Y-47974761D01*
X61329880Y-47879523D01*
X61615595Y-47879523D01*
X61996547Y-47974761D01*
X62187023Y-48070000D01*
X62377500Y-48260476D01*
X62472738Y-48546190D01*
X62472738Y-48736666D01*
X62377500Y-49022380D01*
X62282261Y-49117619D01*
X60472738Y-50260476D02*
X60567976Y-50070000D01*
X60758452Y-49974761D01*
X62472738Y-49974761D01*
X60472738Y-51308095D02*
X60567976Y-51117619D01*
X60663214Y-51022380D01*
X60853690Y-50927142D01*
X61425119Y-50927142D01*
X61615595Y-51022380D01*
X61710833Y-51117619D01*
X61806071Y-51308095D01*
X61806071Y-51593809D01*
X61710833Y-51784285D01*
X61615595Y-51879523D01*
X61425119Y-51974761D01*
X60853690Y-51974761D01*
X60663214Y-51879523D01*
X60567976Y-51784285D01*
X60472738Y-51593809D01*
X60472738Y-51308095D01*
X60472738Y-52641428D02*
X61806071Y-53689047D01*
X61806071Y-52641428D02*
X60472738Y-53689047D01*
X60472738Y-54450952D02*
X61806071Y-54450952D01*
X62472738Y-54450952D02*
X62377500Y-54355714D01*
X62282261Y-54450952D01*
X62377500Y-54546190D01*
X62472738Y-54450952D01*
X62282261Y-54450952D01*
X60567976Y-56165238D02*
X60472738Y-55974761D01*
X60472738Y-55593809D01*
X60567976Y-55403333D01*
X60758452Y-55308095D01*
X61520357Y-55308095D01*
X61710833Y-55403333D01*
X61806071Y-55593809D01*
X61806071Y-55974761D01*
X61710833Y-56165238D01*
X61520357Y-56260476D01*
X61329880Y-56260476D01*
X61139404Y-55308095D01*
X59097738Y-43974761D02*
X59097738Y-45117619D01*
X57097738Y-44546190D02*
X59097738Y-44546190D01*
X58431071Y-46641428D02*
X57097738Y-46641428D01*
X58431071Y-45784285D02*
X57383452Y-45784285D01*
X57192976Y-45879523D01*
X57097738Y-46070000D01*
X57097738Y-46355714D01*
X57192976Y-46546190D01*
X57288214Y-46641428D01*
X57097738Y-47593809D02*
X59097738Y-47593809D01*
X58335833Y-47593809D02*
X58431071Y-47784285D01*
X58431071Y-48165238D01*
X58335833Y-48355714D01*
X58240595Y-48450952D01*
X58050119Y-48546190D01*
X57478690Y-48546190D01*
X57288214Y-48450952D01*
X57192976Y-48355714D01*
X57097738Y-48165238D01*
X57097738Y-47784285D01*
X57192976Y-47593809D01*
X57192976Y-50165238D02*
X57097738Y-49974761D01*
X57097738Y-49593809D01*
X57192976Y-49403333D01*
X57383452Y-49308095D01*
X58145357Y-49308095D01*
X58335833Y-49403333D01*
X58431071Y-49593809D01*
X58431071Y-49974761D01*
X58335833Y-50165238D01*
X58145357Y-50260476D01*
X57954880Y-50260476D01*
X57764404Y-49308095D01*
X57288214Y-53784285D02*
X57192976Y-53689047D01*
X57097738Y-53403333D01*
X57097738Y-53212857D01*
X57192976Y-52927142D01*
X57383452Y-52736666D01*
X57573928Y-52641428D01*
X57954880Y-52546190D01*
X58240595Y-52546190D01*
X58621547Y-52641428D01*
X58812023Y-52736666D01*
X59002500Y-52927142D01*
X59097738Y-53212857D01*
X59097738Y-53403333D01*
X59002500Y-53689047D01*
X58907261Y-53784285D01*
X57097738Y-54927142D02*
X57192976Y-54736666D01*
X57383452Y-54641428D01*
X59097738Y-54641428D01*
X57097738Y-55974761D02*
X57192976Y-55784285D01*
X57288214Y-55689047D01*
X57478690Y-55593809D01*
X58050119Y-55593809D01*
X58240595Y-55689047D01*
X58335833Y-55784285D01*
X58431071Y-55974761D01*
X58431071Y-56260476D01*
X58335833Y-56450952D01*
X58240595Y-56546190D01*
X58050119Y-56641428D01*
X57478690Y-56641428D01*
X57288214Y-56546190D01*
X57192976Y-56450952D01*
X57097738Y-56260476D01*
X57097738Y-55974761D01*
X57192976Y-58355714D02*
X57097738Y-58165238D01*
X57097738Y-57784285D01*
X57192976Y-57593809D01*
X57288214Y-57498571D01*
X57478690Y-57403333D01*
X58050119Y-57403333D01*
X58240595Y-57498571D01*
X58335833Y-57593809D01*
X58431071Y-57784285D01*
X58431071Y-58165238D01*
X58335833Y-58355714D01*
X57097738Y-59212857D02*
X59097738Y-59212857D01*
X57859642Y-59403333D02*
X57097738Y-59974761D01*
X58431071Y-59974761D02*
X57669166Y-59212857D01*
D11*
%TO.C,S13*%
G36*
X60613957Y-68087893D02*
G01*
X60537087Y-68212729D01*
X60425030Y-68305949D01*
X60290925Y-68353995D01*
X60242609Y-68357631D01*
X60140556Y-68381447D01*
X60071948Y-68455049D01*
X60033630Y-68582100D01*
X60030573Y-68603803D01*
X59981538Y-68775987D01*
X59886631Y-68942086D01*
X59760860Y-69077951D01*
X59714407Y-69112523D01*
X59583574Y-69199125D01*
X57898475Y-69208406D01*
X57507994Y-69210425D01*
X57175678Y-69211569D01*
X56896196Y-69211429D01*
X56664213Y-69209594D01*
X56474399Y-69205656D01*
X56321419Y-69199205D01*
X56199941Y-69189832D01*
X56104633Y-69177127D01*
X56030161Y-69160682D01*
X55971194Y-69140087D01*
X55922398Y-69114932D01*
X55878441Y-69084808D01*
X55834828Y-69049997D01*
X55747838Y-68961106D01*
X55670159Y-68852338D01*
X55614676Y-68744546D01*
X55594250Y-68660639D01*
X55584210Y-68637305D01*
X55546811Y-68622595D01*
X55471140Y-68614719D01*
X55346285Y-68611885D01*
X55296513Y-68611750D01*
X55146121Y-68609271D01*
X55046990Y-68600641D01*
X54987029Y-68584068D01*
X54957042Y-68561463D01*
X54932473Y-68500272D01*
X54948579Y-68458276D01*
X54978840Y-68431474D01*
X55037337Y-68413669D01*
X55136153Y-68402544D01*
X55272176Y-68396246D01*
X55562500Y-68387117D01*
X55562500Y-68042549D01*
X55252938Y-68033462D01*
X55111030Y-68028715D01*
X55020865Y-68022321D01*
X54970712Y-68010927D01*
X54948836Y-67991178D01*
X54943504Y-67959723D01*
X54943375Y-67945000D01*
X54945640Y-67908546D01*
X54960254Y-67884998D01*
X54998952Y-67871002D01*
X55073467Y-67863206D01*
X55195531Y-67858255D01*
X55252938Y-67856537D01*
X55562500Y-67847450D01*
X55562500Y-67500500D01*
X55306413Y-67500500D01*
X55126522Y-67491984D01*
X55002093Y-67467073D01*
X54934890Y-67426719D01*
X54926676Y-67371875D01*
X54965600Y-67316350D01*
X55019788Y-67295959D01*
X55129880Y-67282981D01*
X55288621Y-67278255D01*
X55295007Y-67278250D01*
X55586313Y-67278250D01*
X55603857Y-67190937D01*
X55657248Y-67056738D01*
X55757458Y-66920080D01*
X55891123Y-66798755D01*
X55907018Y-66787304D01*
X56044221Y-66690875D01*
X56291731Y-66690875D01*
X56291731Y-66929000D01*
X56154067Y-66957758D01*
X56022376Y-67034407D01*
X55914761Y-67144507D01*
X55849325Y-67273619D01*
X55846510Y-67284113D01*
X55838608Y-67348224D01*
X55832295Y-67463969D01*
X55827900Y-67619498D01*
X55825750Y-67802956D01*
X55826174Y-68002491D01*
X55826283Y-68014170D01*
X55828841Y-68230420D01*
X55832347Y-68392664D01*
X55837752Y-68510395D01*
X55846011Y-68593107D01*
X55858078Y-68650292D01*
X55874905Y-68691446D01*
X55897447Y-68726061D01*
X55897837Y-68726584D01*
X56029300Y-68861283D01*
X56179764Y-68936994D01*
X56237933Y-68950108D01*
X56356250Y-68969308D01*
X56356250Y-67949154D01*
X56356150Y-67668067D01*
X56355577Y-67444015D01*
X56354122Y-67270533D01*
X56351376Y-67141155D01*
X56346930Y-67049415D01*
X56340375Y-66988849D01*
X56331303Y-66952992D01*
X56319305Y-66935377D01*
X56303971Y-66929540D01*
X56291731Y-66929000D01*
X56291731Y-66690875D01*
X59086750Y-66690875D01*
X59086750Y-66929000D01*
X56578500Y-66929000D01*
X56578500Y-67405250D01*
X56924271Y-67405250D01*
X56927750Y-67351134D01*
X56927750Y-67595750D01*
X56578500Y-67595750D01*
X56578500Y-68230750D01*
X56927750Y-68230750D01*
X56927750Y-67595750D01*
X56927750Y-67351134D01*
X56933948Y-67254723D01*
X56952948Y-67151785D01*
X56988350Y-67094973D01*
X57031740Y-67089276D01*
X57074705Y-67139680D01*
X57085622Y-67164814D01*
X57116679Y-67246500D01*
X57655006Y-67246500D01*
X57851240Y-67246264D01*
X57993046Y-67244773D01*
X58089497Y-67240851D01*
X58149665Y-67233320D01*
X58182624Y-67221005D01*
X58197446Y-67202730D01*
X58197750Y-67201389D01*
X58197750Y-67405250D01*
X57082283Y-67405250D01*
X57092329Y-67492562D01*
X57102375Y-67579875D01*
X57650063Y-67588562D01*
X58197750Y-67597249D01*
X58197750Y-67754500D01*
X57086500Y-67754500D01*
X57086500Y-68072000D01*
X58197750Y-68072000D01*
X58197750Y-68230750D01*
X57663292Y-68230750D01*
X57485156Y-68231949D01*
X57329632Y-68235269D01*
X57207635Y-68240295D01*
X57130078Y-68246611D01*
X57107667Y-68251916D01*
X57090961Y-68297347D01*
X57086500Y-68347166D01*
X57086500Y-68421250D01*
X58197750Y-68421250D01*
X58197750Y-68230750D01*
X58197750Y-68072000D01*
X58197750Y-67754500D01*
X58197750Y-67597249D01*
X58197750Y-67405250D01*
X58197750Y-67201389D01*
X58203203Y-67177318D01*
X58203480Y-67175386D01*
X58234847Y-67116298D01*
X58291024Y-67091135D01*
X58346492Y-67108216D01*
X58360147Y-67124313D01*
X58378312Y-67183107D01*
X58387510Y-67271570D01*
X58387764Y-67286187D01*
X58391741Y-67363221D01*
X58415271Y-67396844D01*
X58477034Y-67405051D01*
X58511363Y-67405250D01*
X58615188Y-67419497D01*
X58679015Y-67457027D01*
X58693946Y-67510024D01*
X58674000Y-67548125D01*
X58615130Y-67580849D01*
X58522313Y-67595589D01*
X58511363Y-67595750D01*
X58388250Y-67595750D01*
X58388250Y-68230750D01*
X58511363Y-68230750D01*
X58615188Y-68244997D01*
X58679015Y-68282527D01*
X58693946Y-68335524D01*
X58674000Y-68373625D01*
X58615130Y-68406349D01*
X58522313Y-68421089D01*
X58511363Y-68421250D01*
X58431675Y-68424986D01*
X58396887Y-68447109D01*
X58388429Y-68503987D01*
X58388250Y-68529778D01*
X58382772Y-68619661D01*
X58369534Y-68687035D01*
X58368979Y-68688528D01*
X58325884Y-68731708D01*
X58265344Y-68733774D01*
X58216197Y-68697087D01*
X58206950Y-68675250D01*
X58197749Y-68652238D01*
X58177968Y-68635574D01*
X58138534Y-68624237D01*
X58070373Y-68617206D01*
X57964412Y-68613462D01*
X57811577Y-68611985D01*
X57642125Y-68611750D01*
X57443563Y-68612071D01*
X57299402Y-68613746D01*
X57200541Y-68617841D01*
X57137883Y-68625421D01*
X57102328Y-68637554D01*
X57084777Y-68655304D01*
X57076579Y-68678011D01*
X57040253Y-68729513D01*
X57001438Y-68733288D01*
X56963198Y-68709998D01*
X56942084Y-68648921D01*
X56933948Y-68571776D01*
X56924271Y-68421250D01*
X56578500Y-68421250D01*
X56578500Y-68961000D01*
X59086750Y-68961000D01*
X59086750Y-66929000D01*
X59086750Y-66690875D01*
X59341770Y-66690875D01*
X59341770Y-66929000D01*
X59323960Y-66930589D01*
X59309772Y-66939678D01*
X59298793Y-66962743D01*
X59290612Y-67006264D01*
X59284818Y-67076719D01*
X59280999Y-67180586D01*
X59278745Y-67324344D01*
X59277643Y-67514472D01*
X59277282Y-67757447D01*
X59277250Y-67945000D01*
X59277351Y-68225453D01*
X59277929Y-68448886D01*
X59279393Y-68621775D01*
X59282157Y-68750599D01*
X59286631Y-68841838D01*
X59293227Y-68901968D01*
X59302356Y-68937470D01*
X59314430Y-68954821D01*
X59329860Y-68960499D01*
X59341770Y-68961000D01*
X59459531Y-68937216D01*
X59582008Y-68876222D01*
X59678562Y-68793549D01*
X59683059Y-68787987D01*
X59729512Y-68702570D01*
X59764835Y-68591660D01*
X59771888Y-68553952D01*
X59795156Y-68442200D01*
X59827327Y-68341730D01*
X59838540Y-68316658D01*
X59917600Y-68218567D01*
X60031837Y-68142557D01*
X60154632Y-68105237D01*
X60179625Y-68103868D01*
X60274102Y-68083030D01*
X60350346Y-68030946D01*
X60387553Y-67962889D01*
X60388500Y-67950516D01*
X60360114Y-67873060D01*
X60288394Y-67812896D01*
X60193499Y-67786319D01*
X60185142Y-67786131D01*
X60058710Y-67758881D01*
X59937553Y-67688337D01*
X59848339Y-67590873D01*
X59838540Y-67573341D01*
X59805814Y-67485746D01*
X59778244Y-67373525D01*
X59771888Y-67336047D01*
X59743835Y-67225166D01*
X59699631Y-67126547D01*
X59683059Y-67102012D01*
X59589158Y-67018496D01*
X59467407Y-66955682D01*
X59348448Y-66929103D01*
X59341770Y-66929000D01*
X59341770Y-66690875D01*
X59589280Y-66690875D01*
X59726953Y-66786321D01*
X59836701Y-66887774D01*
X59933358Y-67022291D01*
X60004612Y-67168448D01*
X60038151Y-67304821D01*
X60039250Y-67329767D01*
X60067085Y-67433515D01*
X60142871Y-67504559D01*
X60255036Y-67532307D01*
X60260628Y-67532368D01*
X60387307Y-67561881D01*
X60501292Y-67640338D01*
X60589115Y-67753190D01*
X60637312Y-67885886D01*
X60642500Y-67944999D01*
X60613957Y-68087893D01*
G37*
X60613957Y-68087893D02*
X60537087Y-68212729D01*
X60425030Y-68305949D01*
X60290925Y-68353995D01*
X60242609Y-68357631D01*
X60140556Y-68381447D01*
X60071948Y-68455049D01*
X60033630Y-68582100D01*
X60030573Y-68603803D01*
X59981538Y-68775987D01*
X59886631Y-68942086D01*
X59760860Y-69077951D01*
X59714407Y-69112523D01*
X59583574Y-69199125D01*
X57898475Y-69208406D01*
X57507994Y-69210425D01*
X57175678Y-69211569D01*
X56896196Y-69211429D01*
X56664213Y-69209594D01*
X56474399Y-69205656D01*
X56321419Y-69199205D01*
X56199941Y-69189832D01*
X56104633Y-69177127D01*
X56030161Y-69160682D01*
X55971194Y-69140087D01*
X55922398Y-69114932D01*
X55878441Y-69084808D01*
X55834828Y-69049997D01*
X55747838Y-68961106D01*
X55670159Y-68852338D01*
X55614676Y-68744546D01*
X55594250Y-68660639D01*
X55584210Y-68637305D01*
X55546811Y-68622595D01*
X55471140Y-68614719D01*
X55346285Y-68611885D01*
X55296513Y-68611750D01*
X55146121Y-68609271D01*
X55046990Y-68600641D01*
X54987029Y-68584068D01*
X54957042Y-68561463D01*
X54932473Y-68500272D01*
X54948579Y-68458276D01*
X54978840Y-68431474D01*
X55037337Y-68413669D01*
X55136153Y-68402544D01*
X55272176Y-68396246D01*
X55562500Y-68387117D01*
X55562500Y-68042549D01*
X55252938Y-68033462D01*
X55111030Y-68028715D01*
X55020865Y-68022321D01*
X54970712Y-68010927D01*
X54948836Y-67991178D01*
X54943504Y-67959723D01*
X54943375Y-67945000D01*
X54945640Y-67908546D01*
X54960254Y-67884998D01*
X54998952Y-67871002D01*
X55073467Y-67863206D01*
X55195531Y-67858255D01*
X55252938Y-67856537D01*
X55562500Y-67847450D01*
X55562500Y-67500500D01*
X55306413Y-67500500D01*
X55126522Y-67491984D01*
X55002093Y-67467073D01*
X54934890Y-67426719D01*
X54926676Y-67371875D01*
X54965600Y-67316350D01*
X55019788Y-67295959D01*
X55129880Y-67282981D01*
X55288621Y-67278255D01*
X55295007Y-67278250D01*
X55586313Y-67278250D01*
X55603857Y-67190937D01*
X55657248Y-67056738D01*
X55757458Y-66920080D01*
X55891123Y-66798755D01*
X55907018Y-66787304D01*
X56044221Y-66690875D01*
X56291731Y-66690875D01*
X56291731Y-66929000D01*
X56154067Y-66957758D01*
X56022376Y-67034407D01*
X55914761Y-67144507D01*
X55849325Y-67273619D01*
X55846510Y-67284113D01*
X55838608Y-67348224D01*
X55832295Y-67463969D01*
X55827900Y-67619498D01*
X55825750Y-67802956D01*
X55826174Y-68002491D01*
X55826283Y-68014170D01*
X55828841Y-68230420D01*
X55832347Y-68392664D01*
X55837752Y-68510395D01*
X55846011Y-68593107D01*
X55858078Y-68650292D01*
X55874905Y-68691446D01*
X55897447Y-68726061D01*
X55897837Y-68726584D01*
X56029300Y-68861283D01*
X56179764Y-68936994D01*
X56237933Y-68950108D01*
X56356250Y-68969308D01*
X56356250Y-67949154D01*
X56356150Y-67668067D01*
X56355577Y-67444015D01*
X56354122Y-67270533D01*
X56351376Y-67141155D01*
X56346930Y-67049415D01*
X56340375Y-66988849D01*
X56331303Y-66952992D01*
X56319305Y-66935377D01*
X56303971Y-66929540D01*
X56291731Y-66929000D01*
X56291731Y-66690875D01*
X59086750Y-66690875D01*
X59086750Y-66929000D01*
X56578500Y-66929000D01*
X56578500Y-67405250D01*
X56924271Y-67405250D01*
X56927750Y-67351134D01*
X56927750Y-67595750D01*
X56578500Y-67595750D01*
X56578500Y-68230750D01*
X56927750Y-68230750D01*
X56927750Y-67595750D01*
X56927750Y-67351134D01*
X56933948Y-67254723D01*
X56952948Y-67151785D01*
X56988350Y-67094973D01*
X57031740Y-67089276D01*
X57074705Y-67139680D01*
X57085622Y-67164814D01*
X57116679Y-67246500D01*
X57655006Y-67246500D01*
X57851240Y-67246264D01*
X57993046Y-67244773D01*
X58089497Y-67240851D01*
X58149665Y-67233320D01*
X58182624Y-67221005D01*
X58197446Y-67202730D01*
X58197750Y-67201389D01*
X58197750Y-67405250D01*
X57082283Y-67405250D01*
X57092329Y-67492562D01*
X57102375Y-67579875D01*
X57650063Y-67588562D01*
X58197750Y-67597249D01*
X58197750Y-67754500D01*
X57086500Y-67754500D01*
X57086500Y-68072000D01*
X58197750Y-68072000D01*
X58197750Y-68230750D01*
X57663292Y-68230750D01*
X57485156Y-68231949D01*
X57329632Y-68235269D01*
X57207635Y-68240295D01*
X57130078Y-68246611D01*
X57107667Y-68251916D01*
X57090961Y-68297347D01*
X57086500Y-68347166D01*
X57086500Y-68421250D01*
X58197750Y-68421250D01*
X58197750Y-68230750D01*
X58197750Y-68072000D01*
X58197750Y-67754500D01*
X58197750Y-67597249D01*
X58197750Y-67405250D01*
X58197750Y-67201389D01*
X58203203Y-67177318D01*
X58203480Y-67175386D01*
X58234847Y-67116298D01*
X58291024Y-67091135D01*
X58346492Y-67108216D01*
X58360147Y-67124313D01*
X58378312Y-67183107D01*
X58387510Y-67271570D01*
X58387764Y-67286187D01*
X58391741Y-67363221D01*
X58415271Y-67396844D01*
X58477034Y-67405051D01*
X58511363Y-67405250D01*
X58615188Y-67419497D01*
X58679015Y-67457027D01*
X58693946Y-67510024D01*
X58674000Y-67548125D01*
X58615130Y-67580849D01*
X58522313Y-67595589D01*
X58511363Y-67595750D01*
X58388250Y-67595750D01*
X58388250Y-68230750D01*
X58511363Y-68230750D01*
X58615188Y-68244997D01*
X58679015Y-68282527D01*
X58693946Y-68335524D01*
X58674000Y-68373625D01*
X58615130Y-68406349D01*
X58522313Y-68421089D01*
X58511363Y-68421250D01*
X58431675Y-68424986D01*
X58396887Y-68447109D01*
X58388429Y-68503987D01*
X58388250Y-68529778D01*
X58382772Y-68619661D01*
X58369534Y-68687035D01*
X58368979Y-68688528D01*
X58325884Y-68731708D01*
X58265344Y-68733774D01*
X58216197Y-68697087D01*
X58206950Y-68675250D01*
X58197749Y-68652238D01*
X58177968Y-68635574D01*
X58138534Y-68624237D01*
X58070373Y-68617206D01*
X57964412Y-68613462D01*
X57811577Y-68611985D01*
X57642125Y-68611750D01*
X57443563Y-68612071D01*
X57299402Y-68613746D01*
X57200541Y-68617841D01*
X57137883Y-68625421D01*
X57102328Y-68637554D01*
X57084777Y-68655304D01*
X57076579Y-68678011D01*
X57040253Y-68729513D01*
X57001438Y-68733288D01*
X56963198Y-68709998D01*
X56942084Y-68648921D01*
X56933948Y-68571776D01*
X56924271Y-68421250D01*
X56578500Y-68421250D01*
X56578500Y-68961000D01*
X59086750Y-68961000D01*
X59086750Y-66929000D01*
X59086750Y-66690875D01*
X59341770Y-66690875D01*
X59341770Y-66929000D01*
X59323960Y-66930589D01*
X59309772Y-66939678D01*
X59298793Y-66962743D01*
X59290612Y-67006264D01*
X59284818Y-67076719D01*
X59280999Y-67180586D01*
X59278745Y-67324344D01*
X59277643Y-67514472D01*
X59277282Y-67757447D01*
X59277250Y-67945000D01*
X59277351Y-68225453D01*
X59277929Y-68448886D01*
X59279393Y-68621775D01*
X59282157Y-68750599D01*
X59286631Y-68841838D01*
X59293227Y-68901968D01*
X59302356Y-68937470D01*
X59314430Y-68954821D01*
X59329860Y-68960499D01*
X59341770Y-68961000D01*
X59459531Y-68937216D01*
X59582008Y-68876222D01*
X59678562Y-68793549D01*
X59683059Y-68787987D01*
X59729512Y-68702570D01*
X59764835Y-68591660D01*
X59771888Y-68553952D01*
X59795156Y-68442200D01*
X59827327Y-68341730D01*
X59838540Y-68316658D01*
X59917600Y-68218567D01*
X60031837Y-68142557D01*
X60154632Y-68105237D01*
X60179625Y-68103868D01*
X60274102Y-68083030D01*
X60350346Y-68030946D01*
X60387553Y-67962889D01*
X60388500Y-67950516D01*
X60360114Y-67873060D01*
X60288394Y-67812896D01*
X60193499Y-67786319D01*
X60185142Y-67786131D01*
X60058710Y-67758881D01*
X59937553Y-67688337D01*
X59848339Y-67590873D01*
X59838540Y-67573341D01*
X59805814Y-67485746D01*
X59778244Y-67373525D01*
X59771888Y-67336047D01*
X59743835Y-67225166D01*
X59699631Y-67126547D01*
X59683059Y-67102012D01*
X59589158Y-67018496D01*
X59467407Y-66955682D01*
X59348448Y-66929103D01*
X59341770Y-66929000D01*
X59341770Y-66690875D01*
X59589280Y-66690875D01*
X59726953Y-66786321D01*
X59836701Y-66887774D01*
X59933358Y-67022291D01*
X60004612Y-67168448D01*
X60038151Y-67304821D01*
X60039250Y-67329767D01*
X60067085Y-67433515D01*
X60142871Y-67504559D01*
X60255036Y-67532307D01*
X60260628Y-67532368D01*
X60387307Y-67561881D01*
X60501292Y-67640338D01*
X60589115Y-67753190D01*
X60637312Y-67885886D01*
X60642500Y-67944999D01*
X60613957Y-68087893D01*
%TO.C,S12*%
G36*
X60613957Y-36337893D02*
G01*
X60537087Y-36462729D01*
X60425030Y-36555949D01*
X60290925Y-36603995D01*
X60242609Y-36607631D01*
X60140556Y-36631447D01*
X60071948Y-36705049D01*
X60033630Y-36832100D01*
X60030573Y-36853803D01*
X59981538Y-37025987D01*
X59886631Y-37192086D01*
X59760860Y-37327951D01*
X59714407Y-37362523D01*
X59583574Y-37449125D01*
X57898475Y-37458406D01*
X57507994Y-37460425D01*
X57175678Y-37461569D01*
X56896196Y-37461429D01*
X56664213Y-37459594D01*
X56474399Y-37455656D01*
X56321419Y-37449205D01*
X56199941Y-37439832D01*
X56104633Y-37427127D01*
X56030161Y-37410682D01*
X55971194Y-37390087D01*
X55922398Y-37364932D01*
X55878441Y-37334808D01*
X55834828Y-37299997D01*
X55747838Y-37211106D01*
X55670159Y-37102338D01*
X55614676Y-36994546D01*
X55594250Y-36910639D01*
X55584210Y-36887305D01*
X55546811Y-36872595D01*
X55471140Y-36864719D01*
X55346285Y-36861885D01*
X55296513Y-36861750D01*
X55146121Y-36859271D01*
X55046990Y-36850641D01*
X54987029Y-36834068D01*
X54957042Y-36811463D01*
X54932473Y-36750272D01*
X54948579Y-36708276D01*
X54978840Y-36681474D01*
X55037337Y-36663669D01*
X55136153Y-36652544D01*
X55272176Y-36646246D01*
X55562500Y-36637117D01*
X55562500Y-36292549D01*
X55252938Y-36283462D01*
X55111030Y-36278715D01*
X55020865Y-36272321D01*
X54970712Y-36260927D01*
X54948836Y-36241178D01*
X54943504Y-36209723D01*
X54943375Y-36195000D01*
X54945640Y-36158546D01*
X54960254Y-36134998D01*
X54998952Y-36121002D01*
X55073467Y-36113206D01*
X55195531Y-36108255D01*
X55252938Y-36106537D01*
X55562500Y-36097450D01*
X55562500Y-35750500D01*
X55306413Y-35750500D01*
X55126522Y-35741984D01*
X55002093Y-35717073D01*
X54934890Y-35676719D01*
X54926676Y-35621875D01*
X54965600Y-35566350D01*
X55019788Y-35545959D01*
X55129880Y-35532981D01*
X55288621Y-35528255D01*
X55295007Y-35528250D01*
X55586313Y-35528250D01*
X55603857Y-35440937D01*
X55657248Y-35306738D01*
X55757458Y-35170080D01*
X55891123Y-35048755D01*
X55907018Y-35037304D01*
X56044221Y-34940875D01*
X56291731Y-34940875D01*
X56291731Y-35179000D01*
X56154067Y-35207758D01*
X56022376Y-35284407D01*
X55914761Y-35394507D01*
X55849325Y-35523619D01*
X55846510Y-35534113D01*
X55838608Y-35598224D01*
X55832295Y-35713969D01*
X55827900Y-35869498D01*
X55825750Y-36052956D01*
X55826174Y-36252491D01*
X55826283Y-36264170D01*
X55828841Y-36480420D01*
X55832347Y-36642664D01*
X55837752Y-36760395D01*
X55846011Y-36843107D01*
X55858078Y-36900292D01*
X55874905Y-36941446D01*
X55897447Y-36976061D01*
X55897837Y-36976584D01*
X56029300Y-37111283D01*
X56179764Y-37186994D01*
X56237933Y-37200108D01*
X56356250Y-37219308D01*
X56356250Y-36199154D01*
X56356150Y-35918067D01*
X56355577Y-35694015D01*
X56354122Y-35520533D01*
X56351376Y-35391155D01*
X56346930Y-35299415D01*
X56340375Y-35238849D01*
X56331303Y-35202992D01*
X56319305Y-35185377D01*
X56303971Y-35179540D01*
X56291731Y-35179000D01*
X56291731Y-34940875D01*
X59086750Y-34940875D01*
X59086750Y-35179000D01*
X56578500Y-35179000D01*
X56578500Y-35655250D01*
X56924271Y-35655250D01*
X56927750Y-35601134D01*
X56927750Y-35845750D01*
X56578500Y-35845750D01*
X56578500Y-36480750D01*
X56927750Y-36480750D01*
X56927750Y-35845750D01*
X56927750Y-35601134D01*
X56933948Y-35504723D01*
X56952948Y-35401785D01*
X56988350Y-35344973D01*
X57031740Y-35339276D01*
X57074705Y-35389680D01*
X57085622Y-35414814D01*
X57116679Y-35496500D01*
X57655006Y-35496500D01*
X57851240Y-35496264D01*
X57993046Y-35494773D01*
X58089497Y-35490851D01*
X58149665Y-35483320D01*
X58182624Y-35471005D01*
X58197446Y-35452730D01*
X58197750Y-35451389D01*
X58197750Y-35655250D01*
X57082283Y-35655250D01*
X57092329Y-35742562D01*
X57102375Y-35829875D01*
X57650063Y-35838562D01*
X58197750Y-35847249D01*
X58197750Y-36004500D01*
X57086500Y-36004500D01*
X57086500Y-36322000D01*
X58197750Y-36322000D01*
X58197750Y-36480750D01*
X57663292Y-36480750D01*
X57485156Y-36481949D01*
X57329632Y-36485269D01*
X57207635Y-36490295D01*
X57130078Y-36496611D01*
X57107667Y-36501916D01*
X57090961Y-36547347D01*
X57086500Y-36597166D01*
X57086500Y-36671250D01*
X58197750Y-36671250D01*
X58197750Y-36480750D01*
X58197750Y-36322000D01*
X58197750Y-36004500D01*
X58197750Y-35847249D01*
X58197750Y-35655250D01*
X58197750Y-35451389D01*
X58203203Y-35427318D01*
X58203480Y-35425386D01*
X58234847Y-35366298D01*
X58291024Y-35341135D01*
X58346492Y-35358216D01*
X58360147Y-35374313D01*
X58378312Y-35433107D01*
X58387510Y-35521570D01*
X58387764Y-35536187D01*
X58391741Y-35613221D01*
X58415271Y-35646844D01*
X58477034Y-35655051D01*
X58511363Y-35655250D01*
X58615188Y-35669497D01*
X58679015Y-35707027D01*
X58693946Y-35760024D01*
X58674000Y-35798125D01*
X58615130Y-35830849D01*
X58522313Y-35845589D01*
X58511363Y-35845750D01*
X58388250Y-35845750D01*
X58388250Y-36480750D01*
X58511363Y-36480750D01*
X58615188Y-36494997D01*
X58679015Y-36532527D01*
X58693946Y-36585524D01*
X58674000Y-36623625D01*
X58615130Y-36656349D01*
X58522313Y-36671089D01*
X58511363Y-36671250D01*
X58431675Y-36674986D01*
X58396887Y-36697109D01*
X58388429Y-36753987D01*
X58388250Y-36779778D01*
X58382772Y-36869661D01*
X58369534Y-36937035D01*
X58368979Y-36938528D01*
X58325884Y-36981708D01*
X58265344Y-36983774D01*
X58216197Y-36947087D01*
X58206950Y-36925250D01*
X58197749Y-36902238D01*
X58177968Y-36885574D01*
X58138534Y-36874237D01*
X58070373Y-36867206D01*
X57964412Y-36863462D01*
X57811577Y-36861985D01*
X57642125Y-36861750D01*
X57443563Y-36862071D01*
X57299402Y-36863746D01*
X57200541Y-36867841D01*
X57137883Y-36875421D01*
X57102328Y-36887554D01*
X57084777Y-36905304D01*
X57076579Y-36928011D01*
X57040253Y-36979513D01*
X57001438Y-36983288D01*
X56963198Y-36959998D01*
X56942084Y-36898921D01*
X56933948Y-36821776D01*
X56924271Y-36671250D01*
X56578500Y-36671250D01*
X56578500Y-37211000D01*
X59086750Y-37211000D01*
X59086750Y-35179000D01*
X59086750Y-34940875D01*
X59341770Y-34940875D01*
X59341770Y-35179000D01*
X59323960Y-35180589D01*
X59309772Y-35189678D01*
X59298793Y-35212743D01*
X59290612Y-35256264D01*
X59284818Y-35326719D01*
X59280999Y-35430586D01*
X59278745Y-35574344D01*
X59277643Y-35764472D01*
X59277282Y-36007447D01*
X59277250Y-36195000D01*
X59277351Y-36475453D01*
X59277929Y-36698886D01*
X59279393Y-36871775D01*
X59282157Y-37000599D01*
X59286631Y-37091838D01*
X59293227Y-37151968D01*
X59302356Y-37187470D01*
X59314430Y-37204821D01*
X59329860Y-37210499D01*
X59341770Y-37211000D01*
X59459531Y-37187216D01*
X59582008Y-37126222D01*
X59678562Y-37043549D01*
X59683059Y-37037987D01*
X59729512Y-36952570D01*
X59764835Y-36841660D01*
X59771888Y-36803952D01*
X59795156Y-36692200D01*
X59827327Y-36591730D01*
X59838540Y-36566658D01*
X59917600Y-36468567D01*
X60031837Y-36392557D01*
X60154632Y-36355237D01*
X60179625Y-36353868D01*
X60274102Y-36333030D01*
X60350346Y-36280946D01*
X60387553Y-36212889D01*
X60388500Y-36200516D01*
X60360114Y-36123060D01*
X60288394Y-36062896D01*
X60193499Y-36036319D01*
X60185142Y-36036131D01*
X60058710Y-36008881D01*
X59937553Y-35938337D01*
X59848339Y-35840873D01*
X59838540Y-35823341D01*
X59805814Y-35735746D01*
X59778244Y-35623525D01*
X59771888Y-35586047D01*
X59743835Y-35475166D01*
X59699631Y-35376547D01*
X59683059Y-35352012D01*
X59589158Y-35268496D01*
X59467407Y-35205682D01*
X59348448Y-35179103D01*
X59341770Y-35179000D01*
X59341770Y-34940875D01*
X59589280Y-34940875D01*
X59726953Y-35036321D01*
X59836701Y-35137774D01*
X59933358Y-35272291D01*
X60004612Y-35418448D01*
X60038151Y-35554821D01*
X60039250Y-35579767D01*
X60067085Y-35683515D01*
X60142871Y-35754559D01*
X60255036Y-35782307D01*
X60260628Y-35782368D01*
X60387307Y-35811881D01*
X60501292Y-35890338D01*
X60589115Y-36003190D01*
X60637312Y-36135886D01*
X60642500Y-36194999D01*
X60613957Y-36337893D01*
G37*
X60613957Y-36337893D02*
X60537087Y-36462729D01*
X60425030Y-36555949D01*
X60290925Y-36603995D01*
X60242609Y-36607631D01*
X60140556Y-36631447D01*
X60071948Y-36705049D01*
X60033630Y-36832100D01*
X60030573Y-36853803D01*
X59981538Y-37025987D01*
X59886631Y-37192086D01*
X59760860Y-37327951D01*
X59714407Y-37362523D01*
X59583574Y-37449125D01*
X57898475Y-37458406D01*
X57507994Y-37460425D01*
X57175678Y-37461569D01*
X56896196Y-37461429D01*
X56664213Y-37459594D01*
X56474399Y-37455656D01*
X56321419Y-37449205D01*
X56199941Y-37439832D01*
X56104633Y-37427127D01*
X56030161Y-37410682D01*
X55971194Y-37390087D01*
X55922398Y-37364932D01*
X55878441Y-37334808D01*
X55834828Y-37299997D01*
X55747838Y-37211106D01*
X55670159Y-37102338D01*
X55614676Y-36994546D01*
X55594250Y-36910639D01*
X55584210Y-36887305D01*
X55546811Y-36872595D01*
X55471140Y-36864719D01*
X55346285Y-36861885D01*
X55296513Y-36861750D01*
X55146121Y-36859271D01*
X55046990Y-36850641D01*
X54987029Y-36834068D01*
X54957042Y-36811463D01*
X54932473Y-36750272D01*
X54948579Y-36708276D01*
X54978840Y-36681474D01*
X55037337Y-36663669D01*
X55136153Y-36652544D01*
X55272176Y-36646246D01*
X55562500Y-36637117D01*
X55562500Y-36292549D01*
X55252938Y-36283462D01*
X55111030Y-36278715D01*
X55020865Y-36272321D01*
X54970712Y-36260927D01*
X54948836Y-36241178D01*
X54943504Y-36209723D01*
X54943375Y-36195000D01*
X54945640Y-36158546D01*
X54960254Y-36134998D01*
X54998952Y-36121002D01*
X55073467Y-36113206D01*
X55195531Y-36108255D01*
X55252938Y-36106537D01*
X55562500Y-36097450D01*
X55562500Y-35750500D01*
X55306413Y-35750500D01*
X55126522Y-35741984D01*
X55002093Y-35717073D01*
X54934890Y-35676719D01*
X54926676Y-35621875D01*
X54965600Y-35566350D01*
X55019788Y-35545959D01*
X55129880Y-35532981D01*
X55288621Y-35528255D01*
X55295007Y-35528250D01*
X55586313Y-35528250D01*
X55603857Y-35440937D01*
X55657248Y-35306738D01*
X55757458Y-35170080D01*
X55891123Y-35048755D01*
X55907018Y-35037304D01*
X56044221Y-34940875D01*
X56291731Y-34940875D01*
X56291731Y-35179000D01*
X56154067Y-35207758D01*
X56022376Y-35284407D01*
X55914761Y-35394507D01*
X55849325Y-35523619D01*
X55846510Y-35534113D01*
X55838608Y-35598224D01*
X55832295Y-35713969D01*
X55827900Y-35869498D01*
X55825750Y-36052956D01*
X55826174Y-36252491D01*
X55826283Y-36264170D01*
X55828841Y-36480420D01*
X55832347Y-36642664D01*
X55837752Y-36760395D01*
X55846011Y-36843107D01*
X55858078Y-36900292D01*
X55874905Y-36941446D01*
X55897447Y-36976061D01*
X55897837Y-36976584D01*
X56029300Y-37111283D01*
X56179764Y-37186994D01*
X56237933Y-37200108D01*
X56356250Y-37219308D01*
X56356250Y-36199154D01*
X56356150Y-35918067D01*
X56355577Y-35694015D01*
X56354122Y-35520533D01*
X56351376Y-35391155D01*
X56346930Y-35299415D01*
X56340375Y-35238849D01*
X56331303Y-35202992D01*
X56319305Y-35185377D01*
X56303971Y-35179540D01*
X56291731Y-35179000D01*
X56291731Y-34940875D01*
X59086750Y-34940875D01*
X59086750Y-35179000D01*
X56578500Y-35179000D01*
X56578500Y-35655250D01*
X56924271Y-35655250D01*
X56927750Y-35601134D01*
X56927750Y-35845750D01*
X56578500Y-35845750D01*
X56578500Y-36480750D01*
X56927750Y-36480750D01*
X56927750Y-35845750D01*
X56927750Y-35601134D01*
X56933948Y-35504723D01*
X56952948Y-35401785D01*
X56988350Y-35344973D01*
X57031740Y-35339276D01*
X57074705Y-35389680D01*
X57085622Y-35414814D01*
X57116679Y-35496500D01*
X57655006Y-35496500D01*
X57851240Y-35496264D01*
X57993046Y-35494773D01*
X58089497Y-35490851D01*
X58149665Y-35483320D01*
X58182624Y-35471005D01*
X58197446Y-35452730D01*
X58197750Y-35451389D01*
X58197750Y-35655250D01*
X57082283Y-35655250D01*
X57092329Y-35742562D01*
X57102375Y-35829875D01*
X57650063Y-35838562D01*
X58197750Y-35847249D01*
X58197750Y-36004500D01*
X57086500Y-36004500D01*
X57086500Y-36322000D01*
X58197750Y-36322000D01*
X58197750Y-36480750D01*
X57663292Y-36480750D01*
X57485156Y-36481949D01*
X57329632Y-36485269D01*
X57207635Y-36490295D01*
X57130078Y-36496611D01*
X57107667Y-36501916D01*
X57090961Y-36547347D01*
X57086500Y-36597166D01*
X57086500Y-36671250D01*
X58197750Y-36671250D01*
X58197750Y-36480750D01*
X58197750Y-36322000D01*
X58197750Y-36004500D01*
X58197750Y-35847249D01*
X58197750Y-35655250D01*
X58197750Y-35451389D01*
X58203203Y-35427318D01*
X58203480Y-35425386D01*
X58234847Y-35366298D01*
X58291024Y-35341135D01*
X58346492Y-35358216D01*
X58360147Y-35374313D01*
X58378312Y-35433107D01*
X58387510Y-35521570D01*
X58387764Y-35536187D01*
X58391741Y-35613221D01*
X58415271Y-35646844D01*
X58477034Y-35655051D01*
X58511363Y-35655250D01*
X58615188Y-35669497D01*
X58679015Y-35707027D01*
X58693946Y-35760024D01*
X58674000Y-35798125D01*
X58615130Y-35830849D01*
X58522313Y-35845589D01*
X58511363Y-35845750D01*
X58388250Y-35845750D01*
X58388250Y-36480750D01*
X58511363Y-36480750D01*
X58615188Y-36494997D01*
X58679015Y-36532527D01*
X58693946Y-36585524D01*
X58674000Y-36623625D01*
X58615130Y-36656349D01*
X58522313Y-36671089D01*
X58511363Y-36671250D01*
X58431675Y-36674986D01*
X58396887Y-36697109D01*
X58388429Y-36753987D01*
X58388250Y-36779778D01*
X58382772Y-36869661D01*
X58369534Y-36937035D01*
X58368979Y-36938528D01*
X58325884Y-36981708D01*
X58265344Y-36983774D01*
X58216197Y-36947087D01*
X58206950Y-36925250D01*
X58197749Y-36902238D01*
X58177968Y-36885574D01*
X58138534Y-36874237D01*
X58070373Y-36867206D01*
X57964412Y-36863462D01*
X57811577Y-36861985D01*
X57642125Y-36861750D01*
X57443563Y-36862071D01*
X57299402Y-36863746D01*
X57200541Y-36867841D01*
X57137883Y-36875421D01*
X57102328Y-36887554D01*
X57084777Y-36905304D01*
X57076579Y-36928011D01*
X57040253Y-36979513D01*
X57001438Y-36983288D01*
X56963198Y-36959998D01*
X56942084Y-36898921D01*
X56933948Y-36821776D01*
X56924271Y-36671250D01*
X56578500Y-36671250D01*
X56578500Y-37211000D01*
X59086750Y-37211000D01*
X59086750Y-35179000D01*
X59086750Y-34940875D01*
X59341770Y-34940875D01*
X59341770Y-35179000D01*
X59323960Y-35180589D01*
X59309772Y-35189678D01*
X59298793Y-35212743D01*
X59290612Y-35256264D01*
X59284818Y-35326719D01*
X59280999Y-35430586D01*
X59278745Y-35574344D01*
X59277643Y-35764472D01*
X59277282Y-36007447D01*
X59277250Y-36195000D01*
X59277351Y-36475453D01*
X59277929Y-36698886D01*
X59279393Y-36871775D01*
X59282157Y-37000599D01*
X59286631Y-37091838D01*
X59293227Y-37151968D01*
X59302356Y-37187470D01*
X59314430Y-37204821D01*
X59329860Y-37210499D01*
X59341770Y-37211000D01*
X59459531Y-37187216D01*
X59582008Y-37126222D01*
X59678562Y-37043549D01*
X59683059Y-37037987D01*
X59729512Y-36952570D01*
X59764835Y-36841660D01*
X59771888Y-36803952D01*
X59795156Y-36692200D01*
X59827327Y-36591730D01*
X59838540Y-36566658D01*
X59917600Y-36468567D01*
X60031837Y-36392557D01*
X60154632Y-36355237D01*
X60179625Y-36353868D01*
X60274102Y-36333030D01*
X60350346Y-36280946D01*
X60387553Y-36212889D01*
X60388500Y-36200516D01*
X60360114Y-36123060D01*
X60288394Y-36062896D01*
X60193499Y-36036319D01*
X60185142Y-36036131D01*
X60058710Y-36008881D01*
X59937553Y-35938337D01*
X59848339Y-35840873D01*
X59838540Y-35823341D01*
X59805814Y-35735746D01*
X59778244Y-35623525D01*
X59771888Y-35586047D01*
X59743835Y-35475166D01*
X59699631Y-35376547D01*
X59683059Y-35352012D01*
X59589158Y-35268496D01*
X59467407Y-35205682D01*
X59348448Y-35179103D01*
X59341770Y-35179000D01*
X59341770Y-34940875D01*
X59589280Y-34940875D01*
X59726953Y-35036321D01*
X59836701Y-35137774D01*
X59933358Y-35272291D01*
X60004612Y-35418448D01*
X60038151Y-35554821D01*
X60039250Y-35579767D01*
X60067085Y-35683515D01*
X60142871Y-35754559D01*
X60255036Y-35782307D01*
X60260628Y-35782368D01*
X60387307Y-35811881D01*
X60501292Y-35890338D01*
X60589115Y-36003190D01*
X60637312Y-36135886D01*
X60642500Y-36194999D01*
X60613957Y-36337893D01*
%TD*%
D12*
%TO.C,J1*%
X249555000Y-66040000D03*
X249555000Y-60960000D03*
D13*
X249555000Y-45720000D03*
D12*
X249555000Y-55880000D03*
X249555000Y-50800000D03*
%TD*%
D14*
%TO.C,U3*%
X62992000Y-63500000D03*
X65532000Y-63500000D03*
X68072000Y-63500000D03*
X70612000Y-63500000D03*
X73152000Y-63500000D03*
X75692000Y-63500000D03*
X78232000Y-63500000D03*
X80772000Y-63500000D03*
X80772000Y-40640000D03*
X78232000Y-40640000D03*
X75692000Y-40640000D03*
X73152000Y-40640000D03*
X70612000Y-40640000D03*
X68072000Y-40640000D03*
D15*
X62992000Y-40640000D03*
D14*
X65532000Y-40640000D03*
%TD*%
D16*
%TO.C,C16*%
X71025000Y-71120000D03*
D17*
X73025000Y-71120000D03*
%TD*%
D18*
%TO.C,H4*%
X60117056Y-71962944D03*
X58420000Y-71260000D03*
X56722944Y-71962944D03*
X56020000Y-73660000D03*
X56722944Y-75357056D03*
X58420000Y-76060000D03*
X60117056Y-75357056D03*
X60820000Y-73660000D03*
D19*
X58420000Y-73660000D03*
%TD*%
D18*
%TO.C,H3*%
X251887056Y-71962944D03*
X250190000Y-71260000D03*
X248492944Y-71962944D03*
X247790000Y-73660000D03*
X248492944Y-75357056D03*
X250190000Y-76060000D03*
X251887056Y-75357056D03*
X252590000Y-73660000D03*
D19*
X250190000Y-73660000D03*
%TD*%
D18*
%TO.C,H2*%
X60117056Y-28782944D03*
X58420000Y-28080000D03*
X56722944Y-28782944D03*
X56020000Y-30480000D03*
X56722944Y-32177056D03*
X58420000Y-32880000D03*
X60117056Y-32177056D03*
X60820000Y-30480000D03*
D19*
X58420000Y-30480000D03*
%TD*%
D18*
%TO.C,H1*%
X251887056Y-28782944D03*
X250190000Y-28080000D03*
X248492944Y-28782944D03*
X247790000Y-30480000D03*
X248492944Y-32177056D03*
X250190000Y-32880000D03*
X251887056Y-32177056D03*
X252590000Y-30480000D03*
D19*
X250190000Y-30480000D03*
%TD*%
D16*
%TO.C,C17*%
X240570000Y-61595000D03*
D17*
X242570000Y-61595000D03*
%TD*%
D16*
%TO.C,C15*%
X184055000Y-61595000D03*
D17*
X186055000Y-61595000D03*
%TD*%
D16*
%TO.C,C8*%
X125635000Y-62230000D03*
D17*
X127635000Y-62230000D03*
%TD*%
D20*
%TO.C,U15*%
X69215000Y-33020000D03*
D21*
X64135000Y-33020000D03*
X66675000Y-33020000D03*
%TD*%
D17*
%TO.C,C7*%
X243205000Y-49530000D03*
D16*
X240705000Y-49530000D03*
%TD*%
D22*
%TO.C,U14*%
X235585000Y-66675000D03*
X217805000Y-74295000D03*
X233045000Y-66675000D03*
X220345000Y-74295000D03*
X230505000Y-66675000D03*
X222885000Y-74295000D03*
X227965000Y-66675000D03*
X225425000Y-74295000D03*
X225425000Y-66675000D03*
X227965000Y-74295000D03*
X222885000Y-66675000D03*
X230505000Y-74295000D03*
X220345000Y-66675000D03*
X233045000Y-74295000D03*
X217805000Y-66675000D03*
D17*
X235585000Y-74295000D03*
%TD*%
D22*
%TO.C,U13*%
X210820000Y-36830000D03*
X228600000Y-29210000D03*
X213360000Y-36830000D03*
X226060000Y-29210000D03*
X215900000Y-36830000D03*
X223520000Y-29210000D03*
X218440000Y-36830000D03*
X220980000Y-29210000D03*
X220980000Y-36830000D03*
X218440000Y-29210000D03*
X223520000Y-36830000D03*
X215900000Y-29210000D03*
X226060000Y-36830000D03*
X213360000Y-29210000D03*
X228600000Y-36830000D03*
D17*
X210820000Y-29210000D03*
%TD*%
D22*
%TO.C,U11*%
X210820000Y-66675000D03*
X193040000Y-74295000D03*
X208280000Y-66675000D03*
X195580000Y-74295000D03*
X205740000Y-66675000D03*
X198120000Y-74295000D03*
X203200000Y-66675000D03*
X200660000Y-74295000D03*
X200660000Y-66675000D03*
X203200000Y-74295000D03*
X198120000Y-66675000D03*
X205740000Y-74295000D03*
X195580000Y-66675000D03*
X208280000Y-74295000D03*
X193040000Y-66675000D03*
D17*
X210820000Y-74295000D03*
%TD*%
D22*
%TO.C,U9*%
X176530000Y-66675000D03*
X158750000Y-74295000D03*
X173990000Y-66675000D03*
X161290000Y-74295000D03*
X171450000Y-66675000D03*
X163830000Y-74295000D03*
X168910000Y-66675000D03*
X166370000Y-74295000D03*
X166370000Y-66675000D03*
X168910000Y-74295000D03*
X163830000Y-66675000D03*
X171450000Y-74295000D03*
X161290000Y-66675000D03*
X173990000Y-74295000D03*
X158750000Y-66675000D03*
D17*
X176530000Y-74295000D03*
%TD*%
D22*
%TO.C,U8*%
X156845000Y-36830000D03*
X174625000Y-29210000D03*
X159385000Y-36830000D03*
X172085000Y-29210000D03*
X161925000Y-36830000D03*
X169545000Y-29210000D03*
X164465000Y-36830000D03*
X167005000Y-29210000D03*
X167005000Y-36830000D03*
X164465000Y-29210000D03*
X169545000Y-36830000D03*
X161925000Y-29210000D03*
X172085000Y-36830000D03*
X159385000Y-29210000D03*
X174625000Y-36830000D03*
D17*
X156845000Y-29210000D03*
%TD*%
D22*
%TO.C,U7*%
X149860000Y-67310000D03*
X132080000Y-74930000D03*
X147320000Y-67310000D03*
X134620000Y-74930000D03*
X144780000Y-67310000D03*
X137160000Y-74930000D03*
X142240000Y-67310000D03*
X139700000Y-74930000D03*
X139700000Y-67310000D03*
X142240000Y-74930000D03*
X137160000Y-67310000D03*
X144780000Y-74930000D03*
X134620000Y-67310000D03*
X147320000Y-74930000D03*
X132080000Y-67310000D03*
D17*
X149860000Y-74930000D03*
%TD*%
D22*
%TO.C,U5*%
X120650000Y-67310000D03*
X102870000Y-74930000D03*
X118110000Y-67310000D03*
X105410000Y-74930000D03*
X115570000Y-67310000D03*
X107950000Y-74930000D03*
X113030000Y-67310000D03*
X110490000Y-74930000D03*
X110490000Y-67310000D03*
X113030000Y-74930000D03*
X107950000Y-67310000D03*
X115570000Y-74930000D03*
X105410000Y-67310000D03*
X118110000Y-74930000D03*
X102870000Y-67310000D03*
D17*
X120650000Y-74930000D03*
%TD*%
D22*
%TO.C,U4*%
X97155000Y-36830000D03*
X114935000Y-29210000D03*
X99695000Y-36830000D03*
X112395000Y-29210000D03*
X102235000Y-36830000D03*
X109855000Y-29210000D03*
X104775000Y-36830000D03*
X107315000Y-29210000D03*
X107315000Y-36830000D03*
X104775000Y-29210000D03*
X109855000Y-36830000D03*
X102235000Y-29210000D03*
X112395000Y-36830000D03*
X99695000Y-29210000D03*
X114935000Y-36830000D03*
D17*
X97155000Y-29210000D03*
%TD*%
D22*
%TO.C,U2*%
X96520000Y-67310000D03*
X78740000Y-74930000D03*
X93980000Y-67310000D03*
X81280000Y-74930000D03*
X91440000Y-67310000D03*
X83820000Y-74930000D03*
X88900000Y-67310000D03*
X86360000Y-74930000D03*
X86360000Y-67310000D03*
X88900000Y-74930000D03*
X83820000Y-67310000D03*
X91440000Y-74930000D03*
X81280000Y-67310000D03*
X93980000Y-74930000D03*
X78740000Y-67310000D03*
D17*
X96520000Y-74930000D03*
%TD*%
D22*
%TO.C,U1*%
X89535000Y-29210000D03*
X74295000Y-36830000D03*
X86995000Y-29210000D03*
X76835000Y-36830000D03*
X84455000Y-29210000D03*
X79375000Y-36830000D03*
X81915000Y-29210000D03*
X81915000Y-36830000D03*
X79375000Y-29210000D03*
X84455000Y-36830000D03*
X76835000Y-29210000D03*
X86995000Y-36830000D03*
X74295000Y-29210000D03*
D17*
X89535000Y-36830000D03*
%TD*%
%TO.C,U10*%
X203200000Y-36830000D03*
D22*
X187960000Y-29210000D03*
X200660000Y-36830000D03*
X190500000Y-29210000D03*
X198120000Y-36830000D03*
X193040000Y-29210000D03*
X195580000Y-36830000D03*
X195580000Y-29210000D03*
X193040000Y-36830000D03*
X198120000Y-29210000D03*
X190500000Y-36830000D03*
X200660000Y-29210000D03*
X187960000Y-36830000D03*
X203200000Y-29210000D03*
%TD*%
%TO.C,U6*%
X147320000Y-29210000D03*
X132080000Y-36830000D03*
X144780000Y-29210000D03*
X134620000Y-36830000D03*
X142240000Y-29210000D03*
X137160000Y-36830000D03*
X139700000Y-29210000D03*
X139700000Y-36830000D03*
X137160000Y-29210000D03*
X142240000Y-36830000D03*
X134620000Y-29210000D03*
X144780000Y-36830000D03*
X132080000Y-29210000D03*
D17*
X147320000Y-36830000D03*
%TD*%
D22*
%TO.C,R16*%
X71755000Y-58420000D03*
D16*
X64135000Y-58420000D03*
%TD*%
D22*
%TO.C,R15*%
X179070000Y-59690000D03*
D16*
X179070000Y-52070000D03*
%TD*%
D22*
%TO.C,R10*%
X130175000Y-50165000D03*
D16*
X130175000Y-42545000D03*
%TD*%
D20*
%TO.C,Q2*%
X185420000Y-40005000D03*
D21*
X185420000Y-45085000D03*
X182880000Y-42545000D03*
%TD*%
D20*
%TO.C,Q1*%
X124460000Y-40005000D03*
D21*
X124460000Y-45085000D03*
X121920000Y-42545000D03*
%TD*%
D23*
%TO.C,D6*%
X231050000Y-53670000D03*
X231050000Y-50470000D03*
X226150000Y-53670000D03*
X226150000Y-50470000D03*
%TD*%
%TO.C,D5*%
X205650000Y-53670000D03*
X205650000Y-50470000D03*
X200750000Y-53670000D03*
X200750000Y-50470000D03*
%TD*%
%TO.C,D4*%
X169455000Y-53670000D03*
X169455000Y-50470000D03*
X164555000Y-53670000D03*
X164555000Y-50470000D03*
%TD*%
%TO.C,D3*%
X144055000Y-53670000D03*
X144055000Y-50470000D03*
X139155000Y-53670000D03*
X139155000Y-50470000D03*
%TD*%
%TO.C,D2*%
X107860000Y-53670000D03*
X107860000Y-50470000D03*
X102960000Y-53670000D03*
X102960000Y-50470000D03*
%TD*%
%TO.C,D1*%
X82460000Y-53670000D03*
X82460000Y-50470000D03*
X77560000Y-53670000D03*
X77560000Y-50470000D03*
%TD*%
D16*
%TO.C,C14*%
X233680000Y-30480000D03*
X233680000Y-35480000D03*
%TD*%
%TO.C,C13*%
X177800000Y-41990000D03*
X177800000Y-46990000D03*
%TD*%
%TO.C,C12*%
X213360000Y-62150000D03*
X213360000Y-57150000D03*
%TD*%
%TO.C,C11*%
X117475000Y-41990000D03*
X117475000Y-46990000D03*
%TD*%
%TO.C,C10*%
X151765000Y-62150000D03*
X151765000Y-57150000D03*
%TD*%
%TO.C,C9*%
X90170000Y-62150000D03*
X90170000Y-57150000D03*
%TD*%
%TO.C,C6*%
X95250000Y-62150000D03*
X95250000Y-57150000D03*
%TD*%
%TO.C,C5*%
X185420000Y-68660000D03*
X185420000Y-73660000D03*
%TD*%
%TO.C,C4*%
X156845000Y-62150000D03*
X156845000Y-57150000D03*
%TD*%
%TO.C,C3*%
X127000000Y-68660000D03*
X127000000Y-73660000D03*
%TD*%
%TO.C,C2*%
X218440000Y-62150000D03*
X218440000Y-57150000D03*
%TD*%
%TO.C,C1*%
X244268000Y-68580000D03*
X239268000Y-68580000D03*
%TD*%
D22*
%TO.C,R14*%
X191770000Y-50165000D03*
D16*
X191770000Y-42545000D03*
%TD*%
D22*
%TO.C,R13*%
X182880000Y-29210000D03*
D16*
X182880000Y-36830000D03*
%TD*%
D22*
%TO.C,R12*%
X117475000Y-59690000D03*
D16*
X117475000Y-52070000D03*
%TD*%
D22*
%TO.C,R11*%
X121920000Y-29210000D03*
D16*
X121920000Y-36830000D03*
%TD*%
D22*
%TO.C,R9*%
X64135000Y-52070000D03*
D16*
X64135000Y-44450000D03*
%TD*%
D22*
%TO.C,R8*%
X69215000Y-52070000D03*
D16*
X69215000Y-44450000D03*
%TD*%
%TO.C,R6*%
G36*
G01*
X222627469Y-42802531D02*
X222627469Y-42802531D01*
G75*
G02*
X222627469Y-41671161I565685J565685D01*
G01*
X222627469Y-41671161D01*
G75*
G02*
X223758839Y-41671161I565685J-565685D01*
G01*
X223758839Y-41671161D01*
G75*
G02*
X223758839Y-42802531I-565685J-565685D01*
G01*
X223758839Y-42802531D01*
G75*
G02*
X222627469Y-42802531I-565685J565685D01*
G01*
G37*
X217805000Y-47625000D03*
%TD*%
%TO.C,R5*%
G36*
G01*
X209172531Y-42802531D02*
X209172531Y-42802531D01*
G75*
G02*
X208041161Y-42802531I-565685J565685D01*
G01*
X208041161Y-42802531D01*
G75*
G02*
X208041161Y-41671161I565685J565685D01*
G01*
X208041161Y-41671161D01*
G75*
G02*
X209172531Y-41671161I565685J-565685D01*
G01*
X209172531Y-41671161D01*
G75*
G02*
X209172531Y-42802531I-565685J-565685D01*
G01*
G37*
X213995000Y-47625000D03*
%TD*%
%TO.C,R4*%
G36*
G01*
X161032469Y-42802531D02*
X161032469Y-42802531D01*
G75*
G02*
X161032469Y-41671161I565685J565685D01*
G01*
X161032469Y-41671161D01*
G75*
G02*
X162163839Y-41671161I565685J-565685D01*
G01*
X162163839Y-41671161D01*
G75*
G02*
X162163839Y-42802531I-565685J-565685D01*
G01*
X162163839Y-42802531D01*
G75*
G02*
X161032469Y-42802531I-565685J565685D01*
G01*
G37*
X156210000Y-47625000D03*
%TD*%
%TO.C,R3*%
G36*
G01*
X147577531Y-42802531D02*
X147577531Y-42802531D01*
G75*
G02*
X146446161Y-42802531I-565685J565685D01*
G01*
X146446161Y-42802531D01*
G75*
G02*
X146446161Y-41671161I565685J565685D01*
G01*
X146446161Y-41671161D01*
G75*
G02*
X147577531Y-41671161I565685J-565685D01*
G01*
X147577531Y-41671161D01*
G75*
G02*
X147577531Y-42802531I-565685J-565685D01*
G01*
G37*
X152400000Y-47625000D03*
%TD*%
%TO.C,R2*%
G36*
G01*
X99437469Y-42802531D02*
X99437469Y-42802531D01*
G75*
G02*
X99437469Y-41671161I565685J565685D01*
G01*
X99437469Y-41671161D01*
G75*
G02*
X100568839Y-41671161I565685J-565685D01*
G01*
X100568839Y-41671161D01*
G75*
G02*
X100568839Y-42802531I-565685J-565685D01*
G01*
X100568839Y-42802531D01*
G75*
G02*
X99437469Y-42802531I-565685J565685D01*
G01*
G37*
X94615000Y-47625000D03*
%TD*%
%TO.C,R1*%
G36*
G01*
X85982531Y-42802531D02*
X85982531Y-42802531D01*
G75*
G02*
X84851161Y-42802531I-565685J565685D01*
G01*
X84851161Y-42802531D01*
G75*
G02*
X84851161Y-41671161I565685J565685D01*
G01*
X84851161Y-41671161D01*
G75*
G02*
X85982531Y-41671161I565685J-565685D01*
G01*
X85982531Y-41671161D01*
G75*
G02*
X85982531Y-42802531I-565685J-565685D01*
G01*
G37*
X90805000Y-47625000D03*
%TD*%
D24*
%TO.C,NR1*%
X183514500Y-52070000D03*
X186689500Y-52070000D03*
%TD*%
%TO.C,NL1*%
X125158500Y-52070000D03*
X121983500Y-52070000D03*
%TD*%
%TO.C,J5*%
G36*
G01*
X245505000Y-35890000D02*
X247255000Y-35890000D01*
G75*
G02*
X248130000Y-36765000I0J-875000D01*
G01*
X248130000Y-38515000D01*
G75*
G02*
X247255000Y-39390000I-875000J0D01*
G01*
X245505000Y-39390000D01*
G75*
G02*
X244630000Y-38515000I0J875000D01*
G01*
X244630000Y-36765000D01*
G75*
G02*
X245505000Y-35890000I875000J0D01*
G01*
G37*
G36*
G01*
X240680000Y-33140000D02*
X242680000Y-33140000D01*
G75*
G02*
X243430000Y-33890000I0J-750000D01*
G01*
X243430000Y-35390000D01*
G75*
G02*
X242680000Y-36140000I-750000J0D01*
G01*
X240680000Y-36140000D01*
G75*
G02*
X239930000Y-35390000I0J750000D01*
G01*
X239930000Y-33890000D01*
G75*
G02*
X240680000Y-33140000I750000J0D01*
G01*
G37*
D25*
X241680000Y-40640000D03*
%TD*%
D26*
%TO.C,N6*%
X231475280Y-46591220D03*
X225724720Y-46591220D03*
X228600000Y-45882560D03*
X222455740Y-51325780D03*
X222813880Y-54264560D03*
X224495360Y-56702960D03*
X227119180Y-58079640D03*
X230080820Y-58079640D03*
X232704640Y-56702960D03*
X234386120Y-54264560D03*
X234744260Y-51325780D03*
X233692700Y-48554640D03*
X223507300Y-48554640D03*
%TD*%
%TO.C,N5*%
X206075280Y-46591220D03*
X200324720Y-46591220D03*
X203200000Y-45882560D03*
X197055740Y-51325780D03*
X197413880Y-54264560D03*
X199095360Y-56702960D03*
X201719180Y-58079640D03*
X204680820Y-58079640D03*
X207304640Y-56702960D03*
X208986120Y-54264560D03*
X209344260Y-51325780D03*
X208292700Y-48554640D03*
X198107300Y-48554640D03*
%TD*%
%TO.C,N4*%
X169880280Y-46591220D03*
X164129720Y-46591220D03*
X167005000Y-45882560D03*
X160860740Y-51325780D03*
X161218880Y-54264560D03*
X162900360Y-56702960D03*
X165524180Y-58079640D03*
X168485820Y-58079640D03*
X171109640Y-56702960D03*
X172791120Y-54264560D03*
X173149260Y-51325780D03*
X172097700Y-48554640D03*
X161912300Y-48554640D03*
%TD*%
%TO.C,N3*%
X144480280Y-46591220D03*
X138729720Y-46591220D03*
X141605000Y-45882560D03*
X135460740Y-51325780D03*
X135818880Y-54264560D03*
X137500360Y-56702960D03*
X140124180Y-58079640D03*
X143085820Y-58079640D03*
X145709640Y-56702960D03*
X147391120Y-54264560D03*
X147749260Y-51325780D03*
X146697700Y-48554640D03*
X136512300Y-48554640D03*
%TD*%
%TO.C,N2*%
X108285280Y-46591220D03*
X102534720Y-46591220D03*
X105410000Y-45882560D03*
X99265740Y-51325780D03*
X99623880Y-54264560D03*
X101305360Y-56702960D03*
X103929180Y-58079640D03*
X106890820Y-58079640D03*
X109514640Y-56702960D03*
X111196120Y-54264560D03*
X111554260Y-51325780D03*
X110502700Y-48554640D03*
X100317300Y-48554640D03*
%TD*%
%TO.C,N1*%
X82885280Y-46591220D03*
X77134720Y-46591220D03*
X80010000Y-45882560D03*
X73865740Y-51325780D03*
X74223880Y-54264560D03*
X75905360Y-56702960D03*
X78529180Y-58079640D03*
X81490820Y-58079640D03*
X84114640Y-56702960D03*
X85796120Y-54264560D03*
X86154260Y-51325780D03*
X85102700Y-48554640D03*
X74917300Y-48554640D03*
%TD*%
D21*
%TO.C,R7*%
X63910000Y-71120000D03*
X67310000Y-71120000D03*
%TD*%
M02*
