M48
; DRILL file {KiCad (5.1.7-0-10_14)} date Thursday, November 26, 2020 at 09:17:14 PM
; FORMAT={-:-/ absolute / inch / decimal}
; #@! TF.CreationDate,2020-11-26T21:17:14+01:00
; #@! TF.GenerationSoftware,Kicad,Pcbnew,(5.1.7-0-10_14)
FMAT,2
INCH
T1C0.0157
T2C0.0197
T3C0.0236
T4C0.0315
T5C0.0330
T6C0.0394
T7C0.0598
T8C0.1260
%
G90
G05
T1
X2.7525Y-2.3725
X2.7801Y-2.9125
X2.8256Y-2.203
X3.3713Y-1.3974
X3.4547Y-1.2979
X3.8909Y-2.5195
X4.9733Y-2.0174
X5.2607Y-1.3249
X5.5799Y-1.3065
X5.6896Y-1.7527
X5.9351Y-2.5044
X5.9578Y-2.8933
X6.0758Y-2.5
X6.4204Y-2.4513
X6.7079Y-1.3927
X6.9097Y-1.7372
X7.8433Y-1.3268
X7.92Y-2.05
X8.67Y-1.9177
X8.71Y-1.8959
X8.8899Y-2.7484
X9.3923Y-2.5439
T2
X2.2055Y-1.2
X2.2332Y-1.1332
X2.2332Y-1.2668
X2.3Y-1.1055
X2.3Y-1.2945
X2.3668Y-1.1332
X2.3668Y-1.2668
X2.3945Y-1.2
X2.2055Y-2.9
X2.2332Y-2.8332
X2.2332Y-2.9668
X2.3Y-2.8055
X2.3Y-2.9945
X2.3668Y-2.8332
X2.3668Y-2.9668
X2.3945Y-2.9
X9.7555Y-1.2
X9.7832Y-1.1332
X9.7832Y-1.2668
X9.85Y-1.1055
X9.85Y-1.2945
X9.9168Y-1.1332
X9.9168Y-1.2668
X9.9445Y-1.2
X9.7555Y-2.9
X9.7832Y-2.8332
X9.7832Y-2.9668
X9.85Y-2.8055
X9.85Y-2.9945
X9.9168Y-2.8332
X9.9168Y-2.9668
X9.9445Y-2.9
T3
X4.8025Y-2.05
X4.9275Y-2.05
X7.225Y-2.05
X7.35Y-2.05
T4
X5.7879Y-1.6629
X6.0Y-1.875
X4.625Y-2.05
X4.625Y-2.35
X5.125Y-1.675
X5.125Y-1.975
X3.725Y-1.875
X3.9371Y-1.6629
X4.05Y-2.65
X4.05Y-2.95
X4.15Y-2.65
X4.15Y-2.95
X4.25Y-2.65
X4.25Y-2.95
X4.35Y-2.65
X4.35Y-2.95
X4.45Y-2.65
X4.45Y-2.95
X4.55Y-2.65
X4.55Y-2.95
X4.65Y-2.65
X4.65Y-2.95
X4.75Y-2.65
X4.75Y-2.95
X9.2Y-1.2
X9.2Y-1.3969
X5.2Y-2.65
X5.2Y-2.95
X5.3Y-2.65
X5.3Y-2.95
X5.4Y-2.65
X5.4Y-2.95
X5.5Y-2.65
X5.5Y-2.95
X5.6Y-2.65
X5.6Y-2.95
X5.7Y-2.65
X5.7Y-2.95
X5.8Y-2.65
X5.8Y-2.95
X5.9Y-2.65
X5.9Y-2.95
X8.4Y-2.25
X8.4Y-2.4469
X4.8Y-1.15
X4.8Y-1.45
X2.7963Y-2.8
X2.875Y-2.8
X7.2Y-1.675
X7.3Y-1.575
X7.3Y-1.775
X5.975Y-2.25
X5.975Y-2.4469
X6.25Y-2.625
X6.25Y-2.925
X6.35Y-2.625
X6.35Y-2.925
X6.45Y-2.625
X6.45Y-2.925
X6.55Y-2.625
X6.55Y-2.925
X6.65Y-2.625
X6.65Y-2.925
X6.75Y-2.625
X6.75Y-2.925
X6.85Y-2.625
X6.85Y-2.925
X6.95Y-2.625
X6.95Y-2.925
X2.925Y-1.15
X2.925Y-1.45
X3.025Y-1.15
X3.025Y-1.45
X3.125Y-1.15
X3.125Y-1.45
X3.225Y-1.15
X3.225Y-1.45
X3.325Y-1.15
X3.325Y-1.45
X3.425Y-1.15
X3.425Y-1.45
X3.525Y-1.15
X3.525Y-1.45
X7.4Y-1.15
X7.4Y-1.45
X7.5Y-1.15
X7.5Y-1.45
X7.6Y-1.15
X7.6Y-1.45
X7.7Y-1.15
X7.7Y-1.45
X7.8Y-1.15
X7.8Y-1.45
X7.9Y-1.15
X7.9Y-1.45
X8.0Y-1.15
X8.0Y-1.45
X2.525Y-1.3
X2.625Y-1.3
X2.725Y-1.3
X7.6Y-2.625
X7.6Y-2.925
X7.7Y-2.625
X7.7Y-2.925
X7.8Y-2.625
X7.8Y-2.925
X7.9Y-2.625
X7.9Y-2.925
X8.0Y-2.625
X8.0Y-2.925
X8.1Y-2.625
X8.1Y-2.925
X8.2Y-2.625
X8.2Y-2.925
X8.3Y-2.625
X8.3Y-2.925
X3.75Y-2.25
X3.75Y-2.4469
X6.175Y-1.15
X6.175Y-1.45
X6.275Y-1.15
X6.275Y-1.45
X6.375Y-1.15
X6.375Y-1.45
X6.475Y-1.15
X6.475Y-1.45
X6.575Y-1.15
X6.575Y-1.45
X6.675Y-1.15
X6.675Y-1.45
X6.775Y-1.15
X6.775Y-1.45
X6.875Y-1.15
X6.875Y-1.45
X5.0Y-2.7031
X5.0Y-2.9
X4.625Y-1.6531
X4.625Y-1.85
X7.2463Y-2.425
X7.325Y-2.425
X3.825Y-1.15
X3.825Y-1.45
X3.925Y-1.15
X3.925Y-1.45
X4.025Y-1.15
X4.025Y-1.45
X4.125Y-1.15
X4.125Y-1.45
X4.225Y-1.15
X4.225Y-1.45
X4.325Y-1.15
X4.325Y-1.45
X4.425Y-1.15
X4.425Y-1.45
X4.525Y-1.15
X4.525Y-1.45
X3.55Y-2.25
X3.55Y-2.4469
X4.8Y-1.675
X4.9Y-1.575
X4.9Y-1.775
X6.175Y-2.25
X6.175Y-2.4469
X3.1Y-2.65
X3.1Y-2.95
X3.2Y-2.65
X3.2Y-2.95
X3.3Y-2.65
X3.3Y-2.95
X3.4Y-2.65
X3.4Y-2.95
X3.5Y-2.65
X3.5Y-2.95
X3.6Y-2.65
X3.6Y-2.95
X3.7Y-2.65
X3.7Y-2.95
X3.8Y-2.65
X3.8Y-2.95
X7.3Y-2.7031
X7.3Y-2.9
X9.4766Y-1.95
X9.575Y-1.95
X4.9463Y-2.45
X5.025Y-2.45
X2.5161Y-2.8
X2.65Y-2.8
X2.525Y-1.75
X2.525Y-2.05
X8.6Y-2.25
X8.6Y-2.4469
X3.3629Y-1.6629
X3.575Y-1.875
X7.55Y-1.675
X7.55Y-1.975
X2.525Y-2.3
X2.825Y-2.3
X8.3Y-1.15
X8.3Y-1.45
X8.4Y-1.15
X8.4Y-1.45
X8.5Y-1.15
X8.5Y-1.45
X8.6Y-1.15
X8.6Y-1.45
X8.7Y-1.15
X8.7Y-1.45
X8.8Y-1.15
X8.8Y-1.45
X8.9Y-1.15
X8.9Y-1.45
X9.0Y-1.15
X9.0Y-1.45
X8.575Y-2.625
X8.575Y-2.925
X8.675Y-2.625
X8.675Y-2.925
X8.775Y-2.625
X8.775Y-2.925
X8.875Y-2.625
X8.875Y-2.925
X8.975Y-2.625
X8.975Y-2.925
X9.075Y-2.625
X9.075Y-2.925
X9.175Y-2.625
X9.175Y-2.925
X9.275Y-2.625
X9.275Y-2.925
X8.575Y-1.875
X8.7871Y-1.6629
X2.725Y-1.75
X2.725Y-2.05
X5.2Y-1.15
X5.2Y-1.45
X5.3Y-1.15
X5.3Y-1.45
X5.4Y-1.15
X5.4Y-1.45
X5.5Y-1.15
X5.5Y-1.45
X5.6Y-1.15
X5.6Y-1.45
X5.7Y-1.15
X5.7Y-1.45
X5.8Y-1.15
X5.8Y-1.45
X7.0Y-1.6531
X7.0Y-1.85
X6.15Y-1.875
X6.3621Y-1.6629
X7.2Y-1.15
X7.2Y-1.45
X7.05Y-2.05
X7.05Y-2.35
X9.4713Y-2.425
X9.55Y-2.425
X8.2129Y-1.6629
X8.425Y-1.875
X9.42Y-2.7
X9.6169Y-2.7
T5
X5.3331Y-2.0207
X5.3472Y-2.1364
X5.3745Y-1.9116
X5.4134Y-2.2324
X5.4618Y-1.8343
X5.5167Y-2.2866
X5.575Y-1.8064
X5.6333Y-2.2866
X5.6882Y-1.8343
X5.7366Y-2.2324
X5.7755Y-1.9116
X5.8028Y-2.1364
X5.8169Y-2.0207
X8.7581Y-2.0207
X8.7722Y-2.1364
X8.7995Y-1.9116
X8.8384Y-2.2324
X8.8868Y-1.8343
X8.9417Y-2.2866
X9.0Y-1.8064
X9.0583Y-2.2866
X9.1132Y-1.8343
X9.1616Y-2.2324
X9.2005Y-1.9116
X9.2278Y-2.1364
X9.2419Y-2.0207
X3.9081Y-2.0207
X3.9222Y-2.1364
X3.9495Y-1.9116
X3.9884Y-2.2324
X4.0368Y-1.8343
X4.0917Y-2.2866
X4.15Y-1.8064
X4.2083Y-2.2866
X4.2632Y-1.8343
X4.3116Y-2.2324
X4.3505Y-1.9116
X4.3778Y-2.1364
X4.3919Y-2.0207
X7.7581Y-2.0207
X7.7722Y-2.1364
X7.7995Y-1.9116
X7.8384Y-2.2324
X7.8868Y-1.8343
X7.9417Y-2.2866
X8.0Y-1.8064
X8.0583Y-2.2866
X8.1132Y-1.8343
X8.1616Y-2.2324
X8.2005Y-1.9116
X8.2278Y-2.1364
X8.2419Y-2.0207
X2.9081Y-2.0207
X2.9222Y-2.1364
X2.9495Y-1.9116
X2.9884Y-2.2324
X3.0368Y-1.8343
X3.0917Y-2.2866
X3.15Y-1.8064
X3.2083Y-2.2866
X3.2632Y-1.8343
X3.3116Y-2.2324
X3.3505Y-1.9116
X3.3778Y-2.1364
X3.3919Y-2.0207
X6.3331Y-2.0207
X6.3472Y-2.1364
X6.3745Y-1.9116
X6.4134Y-2.2324
X6.4618Y-1.8343
X6.5167Y-2.2866
X6.575Y-1.8064
X6.6333Y-2.2866
X6.6882Y-1.8343
X6.7366Y-2.2324
X6.7755Y-1.9116
X6.8028Y-2.1364
X6.8169Y-2.0207
T6
X2.48Y-1.6
X2.48Y-2.5
X2.58Y-1.6
X2.58Y-2.5
X2.68Y-1.6
X2.68Y-2.5
X2.78Y-1.6
X2.78Y-2.5
X2.88Y-1.6
X2.88Y-2.5
X2.98Y-1.6
X2.98Y-2.5
X3.08Y-1.6
X3.08Y-2.5
X3.18Y-1.6
X3.18Y-2.5
T7
X9.825Y-1.8
X9.825Y-2.0
X9.825Y-2.2
X9.825Y-2.4
X9.825Y-2.6
T8
X2.3Y-1.2
X2.3Y-2.9
X9.85Y-1.2
X9.85Y-2.9
T6
G00X9.5543Y-1.3638
M15
G01X9.4756Y-1.3638
M16
G05
G00X9.5543Y-1.6
M15
G01X9.4756Y-1.6
M16
G05
G00X9.7Y-1.4425
M15
G01X9.7Y-1.5213
M16
G05
T0
M30
