M48
; DRILL file {KiCad (5.1.7-0-10_14)} date Sunday, October 11, 2020 at 06:02:42 PM
; FORMAT={-:-/ absolute / inch / decimal}
; #@! TF.CreationDate,2020-10-11T18:02:42+02:00
; #@! TF.GenerationSoftware,Kicad,Pcbnew,(5.1.7-0-10_14)
FMAT,2
INCH
T1C0.0157
T2C0.0295
T3C0.0315
T4C0.0330
T5C0.0394
T6C0.0394
T7C0.0433
T8C0.1260
T9C0.1378
%
G90
G05
T1
X2.775Y-2.0
X2.775Y-2.075
X2.775Y-2.15
X3.4Y-1.65
X3.588Y-1.6059
X4.475Y-1.1
X4.525Y-1.15
X5.4859Y-1.3354
X6.65Y-1.06
X6.65Y-1.115
X6.95Y-1.06
X6.95Y-1.115
X8.9Y-1.025
X9.0Y-1.025
T2
X2.125Y-1.05
X2.175Y-1.05
X2.225Y-1.05
T3
X6.3Y-1.5
X6.3Y-1.8
X6.4Y-1.5
X6.4Y-1.8
X6.5Y-1.5
X6.5Y-1.8
X6.6Y-1.5
X6.6Y-1.8
X6.7Y-1.5
X6.7Y-1.8
X6.8Y-1.5
X6.8Y-1.8
X6.9Y-1.5
X6.9Y-1.8
X7.0Y-1.5
X7.0Y-1.8
X8.1379Y-2.7621
X8.35Y-2.55
X4.0Y-1.5
X4.0Y-1.8
X4.1Y-1.5
X4.1Y-1.8
X4.2Y-1.5
X4.2Y-1.8
X4.3Y-1.5
X4.3Y-1.8
X4.4Y-1.5
X4.4Y-1.8
X4.5Y-1.5
X4.5Y-1.8
X4.6Y-1.5
X4.6Y-1.8
X4.7Y-1.5
X4.7Y-1.8
X9.55Y-2.1531
X9.55Y-2.35
X9.8Y-2.6
X9.8787Y-2.6
X5.15Y-0.95
X5.15Y-1.25
X5.25Y-0.95
X5.25Y-1.25
X5.35Y-0.95
X5.35Y-1.25
X5.45Y-0.95
X5.45Y-1.25
X5.55Y-0.95
X5.55Y-1.25
X5.65Y-0.95
X5.65Y-1.25
X5.75Y-0.95
X5.75Y-1.25
X7.225Y-1.55
X7.225Y-1.7469
X2.85Y-0.95
X2.85Y-1.25
X2.95Y-0.95
X2.95Y-1.25
X3.05Y-0.95
X3.05Y-1.25
X3.15Y-0.95
X3.15Y-1.25
X3.25Y-0.95
X3.25Y-1.25
X3.35Y-0.95
X3.35Y-1.25
X3.45Y-0.95
X3.45Y-1.25
X8.375Y-1.55
X8.375Y-1.7469
X6.225Y-2.55
X6.4371Y-2.7621
X2.5213Y-1.05
X2.6Y-1.05
X2.025Y-2.25
X2.325Y-2.25
X4.925Y-1.55
X4.925Y-1.7469
X7.45Y-0.95
X7.45Y-1.25
X7.55Y-0.95
X7.55Y-1.25
X7.65Y-0.95
X7.65Y-1.25
X7.75Y-0.95
X7.75Y-1.25
X7.85Y-0.95
X7.85Y-1.25
X7.95Y-0.95
X7.95Y-1.25
X8.05Y-0.95
X8.05Y-1.25
X2.85Y-1.5
X2.85Y-1.8
X2.95Y-1.5
X2.95Y-1.8
X3.05Y-1.5
X3.05Y-1.8
X3.15Y-1.5
X3.15Y-1.8
X3.25Y-1.5
X3.25Y-1.8
X3.35Y-1.5
X3.35Y-1.8
X3.45Y-1.5
X3.45Y-1.8
X3.55Y-1.5
X3.55Y-1.8
X5.725Y-2.7621
X5.9371Y-2.55
X3.775Y-1.5531
X3.775Y-1.75
X7.1Y-2.1531
X7.1Y-2.35
X8.6Y-1.5
X8.6Y-1.8
X8.7Y-1.5
X8.7Y-1.8
X8.8Y-1.5
X8.8Y-1.8
X8.9Y-1.5
X8.9Y-1.8
X9.0Y-1.5
X9.0Y-1.8
X9.1Y-1.5
X9.1Y-1.8
X9.2Y-1.5
X9.2Y-1.8
X9.3Y-1.5
X9.3Y-1.8
X6.075Y-1.55
X6.075Y-1.7469
X7.45Y-1.5
X7.45Y-1.8
X7.55Y-1.5
X7.55Y-1.8
X7.65Y-1.5
X7.65Y-1.8
X7.75Y-1.5
X7.75Y-1.8
X7.85Y-1.5
X7.85Y-1.8
X7.95Y-1.5
X7.95Y-1.8
X8.05Y-1.5
X8.05Y-1.8
X8.15Y-1.5
X8.15Y-1.8
X9.55Y-1.5531
X9.55Y-1.75
X5.15Y-1.5
X5.15Y-1.8
X5.25Y-1.5
X5.25Y-1.8
X5.35Y-1.5
X5.35Y-1.8
X5.45Y-1.5
X5.45Y-1.8
X5.55Y-1.5
X5.55Y-1.8
X5.65Y-1.5
X5.65Y-1.8
X5.75Y-1.5
X5.75Y-1.8
X5.85Y-1.5
X5.85Y-1.8
X3.7879Y-2.55
X4.0Y-2.7621
X3.65Y-2.1531
X3.65Y-2.35
X10.3016Y-1.4
X10.4Y-1.4
X8.6Y-0.95
X8.6Y-1.25
X8.7Y-0.95
X8.7Y-1.25
X8.8Y-0.95
X8.8Y-1.25
X8.9Y-0.95
X8.9Y-1.25
X9.0Y-0.95
X9.0Y-1.25
X9.1Y-0.95
X9.1Y-1.25
X9.2Y-0.95
X9.2Y-1.25
X9.3Y-0.95
X9.3Y-1.25
X3.3Y-2.7621
X3.5121Y-2.55
X8.5Y-2.1531
X8.5Y-2.35
X2.025Y-1.55
X2.325Y-1.55
X6.075Y-2.1531
X6.075Y-2.35
X2.1086Y-2.725
X2.2425Y-2.725
X4.825Y-2.6
X4.9037Y-2.6
X6.3Y-0.95
X6.3Y-1.25
X6.4Y-0.95
X6.4Y-1.25
X6.5Y-0.95
X6.5Y-1.25
X6.6Y-0.95
X6.6Y-1.25
X6.7Y-0.95
X6.7Y-1.25
X6.8Y-0.95
X6.8Y-1.25
X6.9Y-0.95
X6.9Y-1.25
X7.0Y-0.95
X7.0Y-1.25
X4.0Y-0.95
X4.0Y-1.25
X4.1Y-0.95
X4.1Y-1.25
X4.2Y-0.95
X4.2Y-1.25
X4.3Y-0.95
X4.3Y-1.25
X4.4Y-0.95
X4.4Y-1.25
X4.5Y-0.95
X4.5Y-1.25
X4.6Y-0.95
X4.6Y-1.25
X4.7Y-0.95
X4.7Y-1.25
X8.6379Y-2.55
X8.85Y-2.7621
X7.25Y-2.6
X7.3287Y-2.6
X4.65Y-2.1531
X4.65Y-2.35
T4
X3.9081Y-2.2793
X3.9222Y-2.1636
X3.9495Y-2.3884
X3.9884Y-2.0676
X4.0368Y-2.4657
X4.0917Y-2.0134
X4.15Y-2.4936
X4.2083Y-2.0134
X4.2632Y-2.4657
X4.3116Y-2.0676
X4.3505Y-2.3884
X4.3778Y-2.1636
X4.3919Y-2.2793
X6.3331Y-2.2793
X6.3472Y-2.1636
X6.3745Y-2.3884
X6.4134Y-2.0676
X6.4618Y-2.4657
X6.5167Y-2.0134
X6.575Y-2.4936
X6.6333Y-2.0134
X6.6882Y-2.4657
X6.7366Y-2.0676
X6.7755Y-2.3884
X6.8028Y-2.1636
X6.8169Y-2.2793
X8.7581Y-2.2793
X8.7722Y-2.1636
X8.7995Y-2.3884
X8.8384Y-2.0676
X8.8868Y-2.4657
X8.9417Y-2.0134
X9.0Y-2.4936
X9.0583Y-2.0134
X9.1132Y-2.4657
X9.1616Y-2.0676
X9.2005Y-2.3884
X9.2278Y-2.1636
X9.2419Y-2.2793
X5.3331Y-2.2793
X5.3472Y-2.1636
X5.3745Y-2.3884
X5.4134Y-2.0676
X5.4618Y-2.4657
X5.5167Y-2.0134
X5.575Y-2.4936
X5.6333Y-2.0134
X5.6882Y-2.4657
X5.7366Y-2.0676
X5.7755Y-2.3884
X5.8028Y-2.1636
X5.8169Y-2.2793
X7.7581Y-2.2793
X7.7722Y-2.1636
X7.7995Y-2.3884
X7.8384Y-2.0676
X7.8868Y-2.4657
X7.9417Y-2.0134
X8.0Y-2.4936
X8.0583Y-2.0134
X8.1132Y-2.4657
X8.1616Y-2.0676
X8.2005Y-2.3884
X8.2278Y-2.1636
X8.2419Y-2.2793
X2.9081Y-2.2793
X2.9222Y-2.1636
X2.9495Y-2.3884
X2.9884Y-2.0676
X3.0368Y-2.4657
X3.0917Y-2.0134
X3.15Y-2.4936
X3.2083Y-2.0134
X3.2632Y-2.4657
X3.3116Y-2.0676
X3.3505Y-2.3884
X3.3778Y-2.1636
X3.3919Y-2.2793
T5
X1.725Y-1.55
X1.725Y-1.65
X1.725Y-1.75
X1.725Y-1.85
X1.725Y-1.95
X1.725Y-2.05
X1.725Y-2.15
X1.725Y-2.25
X2.625Y-1.55
X2.625Y-1.65
X2.625Y-1.75
X2.625Y-1.85
X2.625Y-1.95
X2.625Y-2.05
X2.625Y-2.15
X2.625Y-2.25
T6
X10.4Y-2.05
X10.4Y-2.25
X10.4Y-2.45
X10.4Y-1.85
T7
X9.8Y-2.35
X9.9Y-2.35
X10.0Y-2.35
T8
X1.75Y-1.0
X10.4Y-1.0
X1.75Y-2.7
X10.4Y-2.7
T9
X9.9Y-1.6941
T5
G00X9.9394Y-1.1638
M15
G01X9.8606Y-1.1638
M16
G05
G00X9.9394Y-1.4
M15
G01X9.8606Y-1.4
M16
G05
G00X10.085Y-1.2425
M15
G01X10.085Y-1.3213
M16
G05
T0
M30
