%TF.GenerationSoftware,KiCad,Pcbnew,(5.1.7-0-10_14)*%
%TF.CreationDate,2020-10-11T18:19:48+02:00*%
%TF.ProjectId,nixie_board,6e697869-655f-4626-9f61-72642e6b6963,rev?*%
%TF.SameCoordinates,Original*%
%TF.FileFunction,Legend,Top*%
%TF.FilePolarity,Positive*%
%FSLAX46Y46*%
G04 Gerber Fmt 4.6, Leading zero omitted, Abs format (unit mm)*
G04 Created by KiCad (PCBNEW (5.1.7-0-10_14)) date 2020-10-11 18:19:48*
%MOMM*%
%LPD*%
G01*
G04 APERTURE LIST*
%ADD10C,0.300000*%
%ADD11C,0.175000*%
%ADD12C,0.375000*%
%ADD13C,0.120000*%
%ADD14C,0.010000*%
%ADD15C,0.254000*%
%ADD16C,0.150000*%
%ADD17C,0.101600*%
G04 APERTURE END LIST*
D10*
X238760000Y-22860000D02*
X238760000Y-71120000D01*
X69850000Y-22860000D02*
X69850000Y-71120000D01*
D11*
X43054523Y-70927142D02*
X43054523Y-71655714D01*
X43016428Y-71741428D01*
X42978333Y-71784285D01*
X42902142Y-71827142D01*
X42787857Y-71827142D01*
X42711666Y-71784285D01*
X43054523Y-71484285D02*
X42978333Y-71527142D01*
X42825952Y-71527142D01*
X42749761Y-71484285D01*
X42711666Y-71441428D01*
X42673571Y-71355714D01*
X42673571Y-71098571D01*
X42711666Y-71012857D01*
X42749761Y-70970000D01*
X42825952Y-70927142D01*
X42978333Y-70927142D01*
X43054523Y-70970000D01*
X43435476Y-71527142D02*
X43435476Y-70927142D01*
X43435476Y-70627142D02*
X43397380Y-70670000D01*
X43435476Y-70712857D01*
X43473571Y-70670000D01*
X43435476Y-70627142D01*
X43435476Y-70712857D01*
X43702142Y-70927142D02*
X44006904Y-70927142D01*
X43816428Y-70627142D02*
X43816428Y-71398571D01*
X43854523Y-71484285D01*
X43930714Y-71527142D01*
X44006904Y-71527142D01*
X44273571Y-71527142D02*
X44273571Y-70627142D01*
X44616428Y-71527142D02*
X44616428Y-71055714D01*
X44578333Y-70970000D01*
X44502142Y-70927142D01*
X44387857Y-70927142D01*
X44311666Y-70970000D01*
X44273571Y-71012857D01*
X45340238Y-70927142D02*
X45340238Y-71527142D01*
X44997380Y-70927142D02*
X44997380Y-71398571D01*
X45035476Y-71484285D01*
X45111666Y-71527142D01*
X45225952Y-71527142D01*
X45302142Y-71484285D01*
X45340238Y-71441428D01*
X45721190Y-71527142D02*
X45721190Y-70627142D01*
X45721190Y-70970000D02*
X45797380Y-70927142D01*
X45949761Y-70927142D01*
X46025952Y-70970000D01*
X46064047Y-71012857D01*
X46102142Y-71098571D01*
X46102142Y-71355714D01*
X46064047Y-71441428D01*
X46025952Y-71484285D01*
X45949761Y-71527142D01*
X45797380Y-71527142D01*
X45721190Y-71484285D01*
X46445000Y-71441428D02*
X46483095Y-71484285D01*
X46445000Y-71527142D01*
X46406904Y-71484285D01*
X46445000Y-71441428D01*
X46445000Y-71527142D01*
X47168809Y-71484285D02*
X47092619Y-71527142D01*
X46940238Y-71527142D01*
X46864047Y-71484285D01*
X46825952Y-71441428D01*
X46787857Y-71355714D01*
X46787857Y-71098571D01*
X46825952Y-71012857D01*
X46864047Y-70970000D01*
X46940238Y-70927142D01*
X47092619Y-70927142D01*
X47168809Y-70970000D01*
X47625952Y-71527142D02*
X47549761Y-71484285D01*
X47511666Y-71441428D01*
X47473571Y-71355714D01*
X47473571Y-71098571D01*
X47511666Y-71012857D01*
X47549761Y-70970000D01*
X47625952Y-70927142D01*
X47740238Y-70927142D01*
X47816428Y-70970000D01*
X47854523Y-71012857D01*
X47892619Y-71098571D01*
X47892619Y-71355714D01*
X47854523Y-71441428D01*
X47816428Y-71484285D01*
X47740238Y-71527142D01*
X47625952Y-71527142D01*
X48235476Y-71527142D02*
X48235476Y-70927142D01*
X48235476Y-71012857D02*
X48273571Y-70970000D01*
X48349761Y-70927142D01*
X48464047Y-70927142D01*
X48540238Y-70970000D01*
X48578333Y-71055714D01*
X48578333Y-71527142D01*
X48578333Y-71055714D02*
X48616428Y-70970000D01*
X48692619Y-70927142D01*
X48806904Y-70927142D01*
X48883095Y-70970000D01*
X48921190Y-71055714D01*
X48921190Y-71527142D01*
X49873571Y-70584285D02*
X49187857Y-71741428D01*
X50064047Y-70927142D02*
X50254523Y-71527142D01*
X50445000Y-70927142D01*
X51092619Y-71527142D02*
X51092619Y-71055714D01*
X51054523Y-70970000D01*
X50978333Y-70927142D01*
X50825952Y-70927142D01*
X50749761Y-70970000D01*
X51092619Y-71484285D02*
X51016428Y-71527142D01*
X50825952Y-71527142D01*
X50749761Y-71484285D01*
X50711666Y-71398571D01*
X50711666Y-71312857D01*
X50749761Y-71227142D01*
X50825952Y-71184285D01*
X51016428Y-71184285D01*
X51092619Y-71141428D01*
X51435476Y-71484285D02*
X51511666Y-71527142D01*
X51664047Y-71527142D01*
X51740238Y-71484285D01*
X51778333Y-71398571D01*
X51778333Y-71355714D01*
X51740238Y-71270000D01*
X51664047Y-71227142D01*
X51549761Y-71227142D01*
X51473571Y-71184285D01*
X51435476Y-71098571D01*
X51435476Y-71055714D01*
X51473571Y-70970000D01*
X51549761Y-70927142D01*
X51664047Y-70927142D01*
X51740238Y-70970000D01*
X52464047Y-71484285D02*
X52387857Y-71527142D01*
X52235476Y-71527142D01*
X52159285Y-71484285D01*
X52121190Y-71441428D01*
X52083095Y-71355714D01*
X52083095Y-71098571D01*
X52121190Y-71012857D01*
X52159285Y-70970000D01*
X52235476Y-70927142D01*
X52387857Y-70927142D01*
X52464047Y-70970000D01*
X52921190Y-71527142D02*
X52845000Y-71484285D01*
X52806904Y-71441428D01*
X52768809Y-71355714D01*
X52768809Y-71098571D01*
X52806904Y-71012857D01*
X52845000Y-70970000D01*
X52921190Y-70927142D01*
X53035476Y-70927142D01*
X53111666Y-70970000D01*
X53149761Y-71012857D01*
X53187857Y-71098571D01*
X53187857Y-71355714D01*
X53149761Y-71441428D01*
X53111666Y-71484285D01*
X53035476Y-71527142D01*
X52921190Y-71527142D01*
X53416428Y-70927142D02*
X53721190Y-70927142D01*
X53530714Y-71527142D02*
X53530714Y-70755714D01*
X53568809Y-70670000D01*
X53645000Y-70627142D01*
X53721190Y-70627142D01*
X54330714Y-71527142D02*
X54330714Y-71055714D01*
X54292619Y-70970000D01*
X54216428Y-70927142D01*
X54064047Y-70927142D01*
X53987857Y-70970000D01*
X54330714Y-71484285D02*
X54254523Y-71527142D01*
X54064047Y-71527142D01*
X53987857Y-71484285D01*
X53949761Y-71398571D01*
X53949761Y-71312857D01*
X53987857Y-71227142D01*
X54064047Y-71184285D01*
X54254523Y-71184285D01*
X54330714Y-71141428D01*
X54635476Y-70927142D02*
X55054523Y-70927142D01*
X54635476Y-71527142D01*
X55054523Y-71527142D01*
X55283095Y-70927142D02*
X55702142Y-70927142D01*
X55283095Y-71527142D01*
X55702142Y-71527142D01*
X56349761Y-71527142D02*
X56349761Y-71055714D01*
X56311666Y-70970000D01*
X56235476Y-70927142D01*
X56083095Y-70927142D01*
X56006904Y-70970000D01*
X56349761Y-71484285D02*
X56273571Y-71527142D01*
X56083095Y-71527142D01*
X56006904Y-71484285D01*
X55968809Y-71398571D01*
X55968809Y-71312857D01*
X56006904Y-71227142D01*
X56083095Y-71184285D01*
X56273571Y-71184285D01*
X56349761Y-71141428D01*
X57302142Y-70584285D02*
X56616428Y-71741428D01*
X57530714Y-71484285D02*
X57606904Y-71527142D01*
X57759285Y-71527142D01*
X57835476Y-71484285D01*
X57873571Y-71398571D01*
X57873571Y-71355714D01*
X57835476Y-71270000D01*
X57759285Y-71227142D01*
X57645000Y-71227142D01*
X57568809Y-71184285D01*
X57530714Y-71098571D01*
X57530714Y-71055714D01*
X57568809Y-70970000D01*
X57645000Y-70927142D01*
X57759285Y-70927142D01*
X57835476Y-70970000D01*
X58216428Y-71527142D02*
X58216428Y-70927142D01*
X58216428Y-71012857D02*
X58254523Y-70970000D01*
X58330714Y-70927142D01*
X58445000Y-70927142D01*
X58521190Y-70970000D01*
X58559285Y-71055714D01*
X58559285Y-71527142D01*
X58559285Y-71055714D02*
X58597380Y-70970000D01*
X58673571Y-70927142D01*
X58787857Y-70927142D01*
X58864047Y-70970000D01*
X58902142Y-71055714D01*
X58902142Y-71527142D01*
X59625952Y-71527142D02*
X59625952Y-71055714D01*
X59587857Y-70970000D01*
X59511666Y-70927142D01*
X59359285Y-70927142D01*
X59283095Y-70970000D01*
X59625952Y-71484285D02*
X59549761Y-71527142D01*
X59359285Y-71527142D01*
X59283095Y-71484285D01*
X59245000Y-71398571D01*
X59245000Y-71312857D01*
X59283095Y-71227142D01*
X59359285Y-71184285D01*
X59549761Y-71184285D01*
X59625952Y-71141428D01*
X60006904Y-71527142D02*
X60006904Y-70927142D01*
X60006904Y-71098571D02*
X60045000Y-71012857D01*
X60083095Y-70970000D01*
X60159285Y-70927142D01*
X60235476Y-70927142D01*
X60387857Y-70927142D02*
X60692619Y-70927142D01*
X60502142Y-70627142D02*
X60502142Y-71398571D01*
X60540238Y-71484285D01*
X60616428Y-71527142D01*
X60692619Y-71527142D01*
X60768809Y-71612857D02*
X61378333Y-71612857D01*
X61568809Y-70927142D02*
X61568809Y-71527142D01*
X61568809Y-71012857D02*
X61606904Y-70970000D01*
X61683095Y-70927142D01*
X61797380Y-70927142D01*
X61873571Y-70970000D01*
X61911666Y-71055714D01*
X61911666Y-71527142D01*
X62292619Y-71527142D02*
X62292619Y-70927142D01*
X62292619Y-70627142D02*
X62254523Y-70670000D01*
X62292619Y-70712857D01*
X62330714Y-70670000D01*
X62292619Y-70627142D01*
X62292619Y-70712857D01*
X62597380Y-71527142D02*
X63016428Y-70927142D01*
X62597380Y-70927142D02*
X63016428Y-71527142D01*
X63321190Y-71527142D02*
X63321190Y-70927142D01*
X63321190Y-70627142D02*
X63283095Y-70670000D01*
X63321190Y-70712857D01*
X63359285Y-70670000D01*
X63321190Y-70627142D01*
X63321190Y-70712857D01*
X64006904Y-71484285D02*
X63930714Y-71527142D01*
X63778333Y-71527142D01*
X63702142Y-71484285D01*
X63664047Y-71398571D01*
X63664047Y-71055714D01*
X63702142Y-70970000D01*
X63778333Y-70927142D01*
X63930714Y-70927142D01*
X64006904Y-70970000D01*
X64045000Y-71055714D01*
X64045000Y-71141428D01*
X63664047Y-71227142D01*
X64197380Y-71612857D02*
X64806904Y-71612857D01*
X65340238Y-71484285D02*
X65264047Y-71527142D01*
X65111666Y-71527142D01*
X65035476Y-71484285D01*
X64997380Y-71441428D01*
X64959285Y-71355714D01*
X64959285Y-71098571D01*
X64997380Y-71012857D01*
X65035476Y-70970000D01*
X65111666Y-70927142D01*
X65264047Y-70927142D01*
X65340238Y-70970000D01*
X65797380Y-71527142D02*
X65721190Y-71484285D01*
X65683095Y-71398571D01*
X65683095Y-70627142D01*
X66216428Y-71527142D02*
X66140238Y-71484285D01*
X66102142Y-71441428D01*
X66064047Y-71355714D01*
X66064047Y-71098571D01*
X66102142Y-71012857D01*
X66140238Y-70970000D01*
X66216428Y-70927142D01*
X66330714Y-70927142D01*
X66406904Y-70970000D01*
X66445000Y-71012857D01*
X66483095Y-71098571D01*
X66483095Y-71355714D01*
X66445000Y-71441428D01*
X66406904Y-71484285D01*
X66330714Y-71527142D01*
X66216428Y-71527142D01*
X67168809Y-71484285D02*
X67092619Y-71527142D01*
X66940238Y-71527142D01*
X66864047Y-71484285D01*
X66825952Y-71441428D01*
X66787857Y-71355714D01*
X66787857Y-71098571D01*
X66825952Y-71012857D01*
X66864047Y-70970000D01*
X66940238Y-70927142D01*
X67092619Y-70927142D01*
X67168809Y-70970000D01*
X67511666Y-71527142D02*
X67511666Y-70627142D01*
X67587857Y-71184285D02*
X67816428Y-71527142D01*
X67816428Y-70927142D02*
X67511666Y-71270000D01*
D10*
X44437142Y-60212857D02*
X43937142Y-60212857D01*
X43838928Y-60998571D02*
X44026428Y-59498571D01*
X44740714Y-59498571D01*
X45705000Y-60927142D02*
X45553214Y-60998571D01*
X45267500Y-60998571D01*
X45133571Y-60927142D01*
X45080000Y-60784285D01*
X45151428Y-60212857D01*
X45240714Y-60070000D01*
X45392500Y-59998571D01*
X45678214Y-59998571D01*
X45812142Y-60070000D01*
X45865714Y-60212857D01*
X45847857Y-60355714D01*
X45115714Y-60498571D01*
X47053214Y-60998571D02*
X47240714Y-59498571D01*
X47062142Y-60927142D02*
X46910357Y-60998571D01*
X46624642Y-60998571D01*
X46490714Y-60927142D01*
X46428214Y-60855714D01*
X46374642Y-60712857D01*
X46428214Y-60284285D01*
X46517500Y-60141428D01*
X46597857Y-60070000D01*
X46749642Y-59998571D01*
X47035357Y-59998571D01*
X47169285Y-60070000D01*
X48347857Y-60927142D02*
X48196071Y-60998571D01*
X47910357Y-60998571D01*
X47776428Y-60927142D01*
X47722857Y-60784285D01*
X47794285Y-60212857D01*
X47883571Y-60070000D01*
X48035357Y-59998571D01*
X48321071Y-59998571D01*
X48455000Y-60070000D01*
X48508571Y-60212857D01*
X48490714Y-60355714D01*
X47758571Y-60498571D01*
X49053214Y-60998571D02*
X49178214Y-59998571D01*
X49142500Y-60284285D02*
X49231785Y-60141428D01*
X49312142Y-60070000D01*
X49463928Y-59998571D01*
X49606785Y-59998571D01*
X49981785Y-60998571D02*
X50106785Y-59998571D01*
X50169285Y-59498571D02*
X50088928Y-59570000D01*
X50151428Y-59641428D01*
X50231785Y-59570000D01*
X50169285Y-59498571D01*
X50151428Y-59641428D01*
X51347857Y-60927142D02*
X51196071Y-60998571D01*
X50910357Y-60998571D01*
X50776428Y-60927142D01*
X50713928Y-60855714D01*
X50660357Y-60712857D01*
X50713928Y-60284285D01*
X50803214Y-60141428D01*
X50883571Y-60070000D01*
X51035357Y-59998571D01*
X51321071Y-59998571D01*
X51455000Y-60070000D01*
X52196071Y-60998571D02*
X52062142Y-60927142D01*
X51999642Y-60855714D01*
X51946071Y-60712857D01*
X51999642Y-60284285D01*
X52088928Y-60141428D01*
X52169285Y-60070000D01*
X52321071Y-59998571D01*
X52535357Y-59998571D01*
X52669285Y-60070000D01*
X52731785Y-60141428D01*
X52785357Y-60284285D01*
X52731785Y-60712857D01*
X52642500Y-60855714D01*
X52562142Y-60927142D01*
X52410357Y-60998571D01*
X52196071Y-60998571D01*
X54419285Y-60927142D02*
X54624642Y-60998571D01*
X54981785Y-60998571D01*
X55133571Y-60927142D01*
X55213928Y-60855714D01*
X55303214Y-60712857D01*
X55321071Y-60570000D01*
X55267500Y-60427142D01*
X55205000Y-60355714D01*
X55071071Y-60284285D01*
X54794285Y-60212857D01*
X54660357Y-60141428D01*
X54597857Y-60070000D01*
X54544285Y-59927142D01*
X54562142Y-59784285D01*
X54651428Y-59641428D01*
X54731785Y-59570000D01*
X54883571Y-59498571D01*
X55240714Y-59498571D01*
X55446071Y-59570000D01*
X56562142Y-60927142D02*
X56410357Y-60998571D01*
X56124642Y-60998571D01*
X55990714Y-60927142D01*
X55928214Y-60855714D01*
X55874642Y-60712857D01*
X55928214Y-60284285D01*
X56017500Y-60141428D01*
X56097857Y-60070000D01*
X56249642Y-59998571D01*
X56535357Y-59998571D01*
X56669285Y-60070000D01*
X57410357Y-60998571D02*
X57276428Y-60927142D01*
X57213928Y-60855714D01*
X57160357Y-60712857D01*
X57213928Y-60284285D01*
X57303214Y-60141428D01*
X57383571Y-60070000D01*
X57535357Y-59998571D01*
X57749642Y-59998571D01*
X57883571Y-60070000D01*
X57946071Y-60141428D01*
X57999642Y-60284285D01*
X57946071Y-60712857D01*
X57856785Y-60855714D01*
X57776428Y-60927142D01*
X57624642Y-60998571D01*
X57410357Y-60998571D01*
X58535357Y-59998571D02*
X59321071Y-59998571D01*
X58410357Y-60998571D01*
X59196071Y-60998571D01*
X59749642Y-59998571D02*
X60535357Y-59998571D01*
X59624642Y-60998571D01*
X60410357Y-60998571D01*
X61624642Y-60998571D02*
X61722857Y-60212857D01*
X61669285Y-60070000D01*
X61535357Y-59998571D01*
X61249642Y-59998571D01*
X61097857Y-60070000D01*
X61633571Y-60927142D02*
X61481785Y-60998571D01*
X61124642Y-60998571D01*
X60990714Y-60927142D01*
X60937142Y-60784285D01*
X60955000Y-60641428D01*
X61044285Y-60498571D01*
X61196071Y-60427142D01*
X61553214Y-60427142D01*
X61705000Y-60355714D01*
X62249642Y-59998571D02*
X62821071Y-59998571D01*
X62338928Y-60998571D02*
X62499642Y-59712857D01*
X62588928Y-59570000D01*
X62740714Y-59498571D01*
X62883571Y-59498571D01*
X63838928Y-60998571D02*
X63937142Y-60212857D01*
X63883571Y-60070000D01*
X63749642Y-59998571D01*
X63463928Y-59998571D01*
X63312142Y-60070000D01*
X63847857Y-60927142D02*
X63696071Y-60998571D01*
X63338928Y-60998571D01*
X63205000Y-60927142D01*
X63151428Y-60784285D01*
X63169285Y-60641428D01*
X63258571Y-60498571D01*
X63410357Y-60427142D01*
X63767500Y-60427142D01*
X63919285Y-60355714D01*
X64535357Y-59998571D02*
X64767500Y-60998571D01*
X65249642Y-59998571D01*
X66338928Y-60998571D02*
X66437142Y-60212857D01*
X66383571Y-60070000D01*
X66249642Y-59998571D01*
X65963928Y-59998571D01*
X65812142Y-60070000D01*
X66347857Y-60927142D02*
X66196071Y-60998571D01*
X65838928Y-60998571D01*
X65705000Y-60927142D01*
X65651428Y-60784285D01*
X65669285Y-60641428D01*
X65758571Y-60498571D01*
X65910357Y-60427142D01*
X66267500Y-60427142D01*
X66419285Y-60355714D01*
X44285357Y-63405714D02*
X44204999Y-63477142D01*
X43981785Y-63548571D01*
X43838928Y-63548571D01*
X43633571Y-63477142D01*
X43508571Y-63334285D01*
X43454999Y-63191428D01*
X43419285Y-62905714D01*
X43446071Y-62691428D01*
X43553214Y-62405714D01*
X43642499Y-62262857D01*
X43803214Y-62120000D01*
X44026428Y-62048571D01*
X44169285Y-62048571D01*
X44374642Y-62120000D01*
X44437142Y-62191428D01*
X45553214Y-63548571D02*
X45651428Y-62762857D01*
X45597857Y-62620000D01*
X45463928Y-62548571D01*
X45178214Y-62548571D01*
X45026428Y-62620000D01*
X45562142Y-63477142D02*
X45410357Y-63548571D01*
X45053214Y-63548571D01*
X44919285Y-63477142D01*
X44865714Y-63334285D01*
X44883571Y-63191428D01*
X44972857Y-63048571D01*
X45124642Y-62977142D01*
X45481785Y-62977142D01*
X45633571Y-62905714D01*
X46267499Y-63548571D02*
X46392499Y-62548571D01*
X46356785Y-62834285D02*
X46446071Y-62691428D01*
X46526428Y-62620000D01*
X46678214Y-62548571D01*
X46821071Y-62548571D01*
X47410357Y-63548571D02*
X47276428Y-63477142D01*
X47222857Y-63334285D01*
X47383571Y-62048571D01*
X48196071Y-63548571D02*
X48062142Y-63477142D01*
X47999642Y-63405714D01*
X47946071Y-63262857D01*
X47999642Y-62834285D01*
X48088928Y-62691428D01*
X48169285Y-62620000D01*
X48321071Y-62548571D01*
X48535357Y-62548571D01*
X48669285Y-62620000D01*
X48731785Y-62691428D01*
X48785357Y-62834285D01*
X48731785Y-63262857D01*
X48642499Y-63405714D01*
X48562142Y-63477142D01*
X48410357Y-63548571D01*
X48196071Y-63548571D01*
X49276428Y-63477142D02*
X49410357Y-63548571D01*
X49696071Y-63548571D01*
X49847857Y-63477142D01*
X49937142Y-63334285D01*
X49946071Y-63262857D01*
X49892499Y-63120000D01*
X49758571Y-63048571D01*
X49544285Y-63048571D01*
X49410357Y-62977142D01*
X49356785Y-62834285D01*
X49365714Y-62762857D01*
X49454999Y-62620000D01*
X49606785Y-62548571D01*
X49821071Y-62548571D01*
X49954999Y-62620000D01*
X51678214Y-63120000D02*
X52392500Y-63120000D01*
X51481785Y-63548571D02*
X52169285Y-62048571D01*
X52481785Y-63548571D01*
X52981785Y-63548571D02*
X53169285Y-62048571D01*
X53097857Y-62620000D02*
X53249642Y-62548571D01*
X53535357Y-62548571D01*
X53669285Y-62620000D01*
X53731785Y-62691428D01*
X53785357Y-62834285D01*
X53731785Y-63262857D01*
X53642500Y-63405714D01*
X53562142Y-63477142D01*
X53410357Y-63548571D01*
X53124642Y-63548571D01*
X52990714Y-63477142D01*
X54981785Y-63548571D02*
X55079999Y-62762857D01*
X55026428Y-62620000D01*
X54892499Y-62548571D01*
X54606785Y-62548571D01*
X54454999Y-62620000D01*
X54990714Y-63477142D02*
X54838928Y-63548571D01*
X54481785Y-63548571D01*
X54347857Y-63477142D01*
X54294285Y-63334285D01*
X54312142Y-63191428D01*
X54401428Y-63048571D01*
X54553214Y-62977142D01*
X54910357Y-62977142D01*
X55062142Y-62905714D01*
X56338928Y-63548571D02*
X56526428Y-62048571D01*
X56347857Y-63477142D02*
X56196071Y-63548571D01*
X55910357Y-63548571D01*
X55776428Y-63477142D01*
X55713928Y-63405714D01*
X55660357Y-63262857D01*
X55713928Y-62834285D01*
X55803214Y-62691428D01*
X55883571Y-62620000D01*
X56035357Y-62548571D01*
X56321071Y-62548571D01*
X56454999Y-62620000D01*
X58133571Y-63477142D02*
X58338928Y-63548571D01*
X58696071Y-63548571D01*
X58847857Y-63477142D01*
X58928214Y-63405714D01*
X59017499Y-63262857D01*
X59035357Y-63120000D01*
X58981785Y-62977142D01*
X58919285Y-62905714D01*
X58785357Y-62834285D01*
X58508571Y-62762857D01*
X58374642Y-62691428D01*
X58312142Y-62620000D01*
X58258571Y-62477142D01*
X58276428Y-62334285D01*
X58365714Y-62191428D01*
X58446071Y-62120000D01*
X58597857Y-62048571D01*
X58954999Y-62048571D01*
X59160357Y-62120000D01*
X60267499Y-63548571D02*
X60365714Y-62762857D01*
X60312142Y-62620000D01*
X60178214Y-62548571D01*
X59892499Y-62548571D01*
X59740714Y-62620000D01*
X60276428Y-63477142D02*
X60124642Y-63548571D01*
X59767499Y-63548571D01*
X59633571Y-63477142D01*
X59579999Y-63334285D01*
X59597857Y-63191428D01*
X59687142Y-63048571D01*
X59838928Y-62977142D01*
X60196071Y-62977142D01*
X60347857Y-62905714D01*
X60249642Y-61977142D02*
X60008571Y-62191428D01*
X61106785Y-62548571D02*
X60981785Y-63548571D01*
X61088928Y-62691428D02*
X61169285Y-62620000D01*
X61321071Y-62548571D01*
X61535357Y-62548571D01*
X61669285Y-62620000D01*
X61722857Y-62762857D01*
X61624642Y-63548571D01*
X62990714Y-63477142D02*
X62838928Y-63548571D01*
X62553214Y-63548571D01*
X62419285Y-63477142D01*
X62356785Y-63405714D01*
X62303214Y-63262857D01*
X62356785Y-62834285D01*
X62446071Y-62691428D01*
X62526428Y-62620000D01*
X62678214Y-62548571D01*
X62963928Y-62548571D01*
X63097857Y-62620000D01*
X63624642Y-63548571D02*
X63812142Y-62048571D01*
X64267500Y-63548571D02*
X64365714Y-62762857D01*
X64312142Y-62620000D01*
X64178214Y-62548571D01*
X63963928Y-62548571D01*
X63812142Y-62620000D01*
X63731785Y-62691428D01*
X65562142Y-63477142D02*
X65410357Y-63548571D01*
X65124642Y-63548571D01*
X64990714Y-63477142D01*
X64937142Y-63334285D01*
X65008571Y-62762857D01*
X65097857Y-62620000D01*
X65249642Y-62548571D01*
X65535357Y-62548571D01*
X65669285Y-62620000D01*
X65722857Y-62762857D01*
X65705000Y-62905714D01*
X64972857Y-63048571D01*
X66249642Y-62548571D02*
X67035357Y-62548571D01*
X66124642Y-63548571D01*
X66910357Y-63548571D01*
D12*
X50673571Y-31928928D02*
X50578333Y-32038452D01*
X50292619Y-32147976D01*
X50102142Y-32147976D01*
X49816428Y-32038452D01*
X49625952Y-31819404D01*
X49530714Y-31600357D01*
X49435476Y-31162261D01*
X49435476Y-30833690D01*
X49530714Y-30395595D01*
X49625952Y-30176547D01*
X49816428Y-29957500D01*
X50102142Y-29847976D01*
X50292619Y-29847976D01*
X50578333Y-29957500D01*
X50673571Y-30067023D01*
X51530714Y-32147976D02*
X51530714Y-30614642D01*
X51530714Y-31052738D02*
X51625952Y-30833690D01*
X51721190Y-30724166D01*
X51911666Y-30614642D01*
X52102142Y-30614642D01*
X53054523Y-32147976D02*
X52864047Y-32038452D01*
X52768809Y-31928928D01*
X52673571Y-31709880D01*
X52673571Y-31052738D01*
X52768809Y-30833690D01*
X52864047Y-30724166D01*
X53054523Y-30614642D01*
X53340238Y-30614642D01*
X53530714Y-30724166D01*
X53625952Y-30833690D01*
X53721190Y-31052738D01*
X53721190Y-31709880D01*
X53625952Y-31928928D01*
X53530714Y-32038452D01*
X53340238Y-32147976D01*
X53054523Y-32147976D01*
X54578333Y-32147976D02*
X54578333Y-29847976D01*
X55721190Y-32147976D01*
X55721190Y-29847976D01*
X56673571Y-32147976D02*
X56673571Y-30614642D01*
X56673571Y-29847976D02*
X56578333Y-29957500D01*
X56673571Y-30067023D01*
X56768809Y-29957500D01*
X56673571Y-29847976D01*
X56673571Y-30067023D01*
X57435476Y-32147976D02*
X58483095Y-30614642D01*
X57435476Y-30614642D02*
X58483095Y-32147976D01*
X59245000Y-32147976D02*
X59245000Y-30614642D01*
X59245000Y-29847976D02*
X59149761Y-29957500D01*
X59245000Y-30067023D01*
X59340238Y-29957500D01*
X59245000Y-29847976D01*
X59245000Y-30067023D01*
X60959285Y-32038452D02*
X60768809Y-32147976D01*
X60387857Y-32147976D01*
X60197380Y-32038452D01*
X60102142Y-31819404D01*
X60102142Y-30943214D01*
X60197380Y-30724166D01*
X60387857Y-30614642D01*
X60768809Y-30614642D01*
X60959285Y-30724166D01*
X61054523Y-30943214D01*
X61054523Y-31162261D01*
X60102142Y-31381309D01*
X47149761Y-33672976D02*
X48292619Y-33672976D01*
X47721190Y-35972976D02*
X47721190Y-33672976D01*
X49816428Y-34439642D02*
X49816428Y-35972976D01*
X48959285Y-34439642D02*
X48959285Y-35644404D01*
X49054523Y-35863452D01*
X49245000Y-35972976D01*
X49530714Y-35972976D01*
X49721190Y-35863452D01*
X49816428Y-35753928D01*
X50768809Y-35972976D02*
X50768809Y-33672976D01*
X50768809Y-34549166D02*
X50959285Y-34439642D01*
X51340238Y-34439642D01*
X51530714Y-34549166D01*
X51625952Y-34658690D01*
X51721190Y-34877738D01*
X51721190Y-35534880D01*
X51625952Y-35753928D01*
X51530714Y-35863452D01*
X51340238Y-35972976D01*
X50959285Y-35972976D01*
X50768809Y-35863452D01*
X53340238Y-35863452D02*
X53149761Y-35972976D01*
X52768809Y-35972976D01*
X52578333Y-35863452D01*
X52483095Y-35644404D01*
X52483095Y-34768214D01*
X52578333Y-34549166D01*
X52768809Y-34439642D01*
X53149761Y-34439642D01*
X53340238Y-34549166D01*
X53435476Y-34768214D01*
X53435476Y-34987261D01*
X52483095Y-35206309D01*
X56959285Y-35753928D02*
X56864047Y-35863452D01*
X56578333Y-35972976D01*
X56387857Y-35972976D01*
X56102142Y-35863452D01*
X55911666Y-35644404D01*
X55816428Y-35425357D01*
X55721190Y-34987261D01*
X55721190Y-34658690D01*
X55816428Y-34220595D01*
X55911666Y-34001547D01*
X56102142Y-33782500D01*
X56387857Y-33672976D01*
X56578333Y-33672976D01*
X56864047Y-33782500D01*
X56959285Y-33892023D01*
X58102142Y-35972976D02*
X57911666Y-35863452D01*
X57816428Y-35644404D01*
X57816428Y-33672976D01*
X59149761Y-35972976D02*
X58959285Y-35863452D01*
X58864047Y-35753928D01*
X58768809Y-35534880D01*
X58768809Y-34877738D01*
X58864047Y-34658690D01*
X58959285Y-34549166D01*
X59149761Y-34439642D01*
X59435476Y-34439642D01*
X59625952Y-34549166D01*
X59721190Y-34658690D01*
X59816428Y-34877738D01*
X59816428Y-35534880D01*
X59721190Y-35753928D01*
X59625952Y-35863452D01*
X59435476Y-35972976D01*
X59149761Y-35972976D01*
X61530714Y-35863452D02*
X61340238Y-35972976D01*
X60959285Y-35972976D01*
X60768809Y-35863452D01*
X60673571Y-35753928D01*
X60578333Y-35534880D01*
X60578333Y-34877738D01*
X60673571Y-34658690D01*
X60768809Y-34549166D01*
X60959285Y-34439642D01*
X61340238Y-34439642D01*
X61530714Y-34549166D01*
X62387857Y-35972976D02*
X62387857Y-33672976D01*
X62578333Y-35096785D02*
X63149761Y-35972976D01*
X63149761Y-34439642D02*
X62387857Y-35315833D01*
D13*
%TO.C,D6*%
X224950000Y-54400000D02*
X224950000Y-55550000D01*
X232250000Y-54400000D02*
X224950000Y-54400000D01*
X232250000Y-59900000D02*
X224950000Y-59900000D01*
X227076000Y-54660800D02*
X226110800Y-54660800D01*
X226110800Y-54660800D02*
X226110800Y-55600600D01*
X226110800Y-55600600D02*
X227076000Y-54660800D01*
%TO.C,D5*%
X199550000Y-54400000D02*
X199550000Y-55550000D01*
X206850000Y-54400000D02*
X199550000Y-54400000D01*
X206850000Y-59900000D02*
X199550000Y-59900000D01*
X201676000Y-54660800D02*
X200710800Y-54660800D01*
X200710800Y-54660800D02*
X200710800Y-55600600D01*
X200710800Y-55600600D02*
X201676000Y-54660800D01*
%TO.C,D4*%
X163355000Y-54400000D02*
X163355000Y-55550000D01*
X170655000Y-54400000D02*
X163355000Y-54400000D01*
X170655000Y-59900000D02*
X163355000Y-59900000D01*
X165481000Y-54660800D02*
X164515800Y-54660800D01*
X164515800Y-54660800D02*
X164515800Y-55600600D01*
X164515800Y-55600600D02*
X165481000Y-54660800D01*
%TO.C,D3*%
X137955000Y-54400000D02*
X137955000Y-55550000D01*
X145255000Y-54400000D02*
X137955000Y-54400000D01*
X145255000Y-59900000D02*
X137955000Y-59900000D01*
X140081000Y-54660800D02*
X139115800Y-54660800D01*
X139115800Y-54660800D02*
X139115800Y-55600600D01*
X139115800Y-55600600D02*
X140081000Y-54660800D01*
%TO.C,D2*%
X101760000Y-54400000D02*
X101760000Y-55550000D01*
X109060000Y-54400000D02*
X101760000Y-54400000D01*
X109060000Y-59900000D02*
X101760000Y-59900000D01*
X103886000Y-54660800D02*
X102920800Y-54660800D01*
X102920800Y-54660800D02*
X102920800Y-55600600D01*
X102920800Y-55600600D02*
X103886000Y-54660800D01*
%TO.C,D1*%
X76360000Y-54400000D02*
X76360000Y-55550000D01*
X83660000Y-54400000D02*
X76360000Y-54400000D01*
X83660000Y-59900000D02*
X76360000Y-59900000D01*
X78486000Y-54660800D02*
X77520800Y-54660800D01*
X77520800Y-54660800D02*
X77520800Y-55600600D01*
X77520800Y-55600600D02*
X78486000Y-54660800D01*
D14*
%TO.C,S14*%
G36*
X51265499Y-53350811D02*
G01*
X52305017Y-53352611D01*
X53490542Y-53355269D01*
X54831926Y-53358619D01*
X55366135Y-53359992D01*
X56563897Y-53363749D01*
X57714017Y-53368665D01*
X58805174Y-53374620D01*
X59826043Y-53381493D01*
X60765302Y-53389164D01*
X61611626Y-53397514D01*
X62353693Y-53406423D01*
X62980179Y-53415770D01*
X63479762Y-53425435D01*
X63841117Y-53435298D01*
X64052922Y-53445240D01*
X64106793Y-53452647D01*
X64136014Y-53560076D01*
X64164141Y-53801602D01*
X64188062Y-54142003D01*
X64204668Y-54546053D01*
X64205261Y-54567719D01*
X64214925Y-55009181D01*
X64213425Y-55314311D01*
X64196776Y-55515960D01*
X64160990Y-55646976D01*
X64102081Y-55740209D01*
X64057095Y-55788572D01*
X64026943Y-55817086D01*
X63990318Y-55842343D01*
X63937340Y-55864540D01*
X63858127Y-55883875D01*
X63742800Y-55900546D01*
X63581477Y-55914749D01*
X63364279Y-55926683D01*
X63081325Y-55936545D01*
X62722735Y-55944533D01*
X62278627Y-55950843D01*
X61739122Y-55955675D01*
X61094339Y-55959225D01*
X60334398Y-55961691D01*
X59449418Y-55963270D01*
X58429518Y-55964160D01*
X57264819Y-55964558D01*
X55945439Y-55964663D01*
X55249801Y-55964667D01*
X46618602Y-55964667D01*
X46486801Y-55776495D01*
X46424096Y-55640484D01*
X46383541Y-55426366D01*
X46361666Y-55104052D01*
X46355002Y-54643450D01*
X46355000Y-54633495D01*
X46356853Y-54388972D01*
X47061637Y-54388972D01*
X47073233Y-54436148D01*
X47185331Y-54580525D01*
X47351318Y-54610140D01*
X47511179Y-54535534D01*
X47604901Y-54367246D01*
X47608756Y-54342101D01*
X47607765Y-54332128D01*
X47986984Y-54332128D01*
X47993565Y-54437385D01*
X48082738Y-54512657D01*
X48272057Y-54562748D01*
X48579079Y-54592463D01*
X49021360Y-54606608D01*
X49572334Y-54610000D01*
X50119997Y-54607143D01*
X50521023Y-54597363D01*
X50798031Y-54578852D01*
X50973639Y-54549800D01*
X51070467Y-54508396D01*
X51091842Y-54488412D01*
X51149237Y-54337199D01*
X51099230Y-54192079D01*
X51056323Y-54128159D01*
X50989701Y-54082058D01*
X50874030Y-54050877D01*
X50683975Y-54031716D01*
X50394203Y-54021676D01*
X49979379Y-54017858D01*
X49572334Y-54017334D01*
X49047451Y-54018394D01*
X48666564Y-54023508D01*
X48404338Y-54035575D01*
X48235438Y-54057495D01*
X48134530Y-54092167D01*
X48076280Y-54142490D01*
X48045437Y-54192079D01*
X47986984Y-54332128D01*
X47607765Y-54332128D01*
X47590118Y-54154581D01*
X47456270Y-54059885D01*
X47451148Y-54058233D01*
X47239192Y-54061576D01*
X47094073Y-54187104D01*
X47061637Y-54388972D01*
X46356853Y-54388972D01*
X46358218Y-54208865D01*
X46371369Y-53918893D01*
X46399697Y-53728969D01*
X46448445Y-53604481D01*
X46522858Y-53510821D01*
X46525508Y-53508159D01*
X46555448Y-53480610D01*
X46593460Y-53456232D01*
X46649396Y-53434857D01*
X46733109Y-53416323D01*
X46854451Y-53400462D01*
X47023275Y-53387110D01*
X47249433Y-53376103D01*
X47542777Y-53367274D01*
X47913161Y-53360459D01*
X48370436Y-53355493D01*
X48924454Y-53352210D01*
X49585069Y-53350446D01*
X50362133Y-53350034D01*
X51265499Y-53350811D01*
G37*
X51265499Y-53350811D02*
X52305017Y-53352611D01*
X53490542Y-53355269D01*
X54831926Y-53358619D01*
X55366135Y-53359992D01*
X56563897Y-53363749D01*
X57714017Y-53368665D01*
X58805174Y-53374620D01*
X59826043Y-53381493D01*
X60765302Y-53389164D01*
X61611626Y-53397514D01*
X62353693Y-53406423D01*
X62980179Y-53415770D01*
X63479762Y-53425435D01*
X63841117Y-53435298D01*
X64052922Y-53445240D01*
X64106793Y-53452647D01*
X64136014Y-53560076D01*
X64164141Y-53801602D01*
X64188062Y-54142003D01*
X64204668Y-54546053D01*
X64205261Y-54567719D01*
X64214925Y-55009181D01*
X64213425Y-55314311D01*
X64196776Y-55515960D01*
X64160990Y-55646976D01*
X64102081Y-55740209D01*
X64057095Y-55788572D01*
X64026943Y-55817086D01*
X63990318Y-55842343D01*
X63937340Y-55864540D01*
X63858127Y-55883875D01*
X63742800Y-55900546D01*
X63581477Y-55914749D01*
X63364279Y-55926683D01*
X63081325Y-55936545D01*
X62722735Y-55944533D01*
X62278627Y-55950843D01*
X61739122Y-55955675D01*
X61094339Y-55959225D01*
X60334398Y-55961691D01*
X59449418Y-55963270D01*
X58429518Y-55964160D01*
X57264819Y-55964558D01*
X55945439Y-55964663D01*
X55249801Y-55964667D01*
X46618602Y-55964667D01*
X46486801Y-55776495D01*
X46424096Y-55640484D01*
X46383541Y-55426366D01*
X46361666Y-55104052D01*
X46355002Y-54643450D01*
X46355000Y-54633495D01*
X46356853Y-54388972D01*
X47061637Y-54388972D01*
X47073233Y-54436148D01*
X47185331Y-54580525D01*
X47351318Y-54610140D01*
X47511179Y-54535534D01*
X47604901Y-54367246D01*
X47608756Y-54342101D01*
X47607765Y-54332128D01*
X47986984Y-54332128D01*
X47993565Y-54437385D01*
X48082738Y-54512657D01*
X48272057Y-54562748D01*
X48579079Y-54592463D01*
X49021360Y-54606608D01*
X49572334Y-54610000D01*
X50119997Y-54607143D01*
X50521023Y-54597363D01*
X50798031Y-54578852D01*
X50973639Y-54549800D01*
X51070467Y-54508396D01*
X51091842Y-54488412D01*
X51149237Y-54337199D01*
X51099230Y-54192079D01*
X51056323Y-54128159D01*
X50989701Y-54082058D01*
X50874030Y-54050877D01*
X50683975Y-54031716D01*
X50394203Y-54021676D01*
X49979379Y-54017858D01*
X49572334Y-54017334D01*
X49047451Y-54018394D01*
X48666564Y-54023508D01*
X48404338Y-54035575D01*
X48235438Y-54057495D01*
X48134530Y-54092167D01*
X48076280Y-54142490D01*
X48045437Y-54192079D01*
X47986984Y-54332128D01*
X47607765Y-54332128D01*
X47590118Y-54154581D01*
X47456270Y-54059885D01*
X47451148Y-54058233D01*
X47239192Y-54061576D01*
X47094073Y-54187104D01*
X47061637Y-54388972D01*
X46356853Y-54388972D01*
X46358218Y-54208865D01*
X46371369Y-53918893D01*
X46399697Y-53728969D01*
X46448445Y-53604481D01*
X46522858Y-53510821D01*
X46525508Y-53508159D01*
X46555448Y-53480610D01*
X46593460Y-53456232D01*
X46649396Y-53434857D01*
X46733109Y-53416323D01*
X46854451Y-53400462D01*
X47023275Y-53387110D01*
X47249433Y-53376103D01*
X47542777Y-53367274D01*
X47913161Y-53360459D01*
X48370436Y-53355493D01*
X48924454Y-53352210D01*
X49585069Y-53350446D01*
X50362133Y-53350034D01*
X51265499Y-53350811D01*
G36*
X52437536Y-50321760D02*
G01*
X52461800Y-50348023D01*
X52631223Y-50479712D01*
X52923500Y-50634126D01*
X53297307Y-50792525D01*
X53711320Y-50936170D01*
X53848000Y-50976654D01*
X54168786Y-51036413D01*
X54623152Y-51076792D01*
X55176160Y-51094981D01*
X55329667Y-51095730D01*
X55802983Y-51091236D01*
X56158936Y-51073650D01*
X56449388Y-51035875D01*
X56726202Y-50970817D01*
X57041241Y-50871380D01*
X57089425Y-50854970D01*
X57443336Y-50719863D01*
X57762889Y-50573430D01*
X57992130Y-50441995D01*
X58032980Y-50411073D01*
X58322521Y-50243608D01*
X58597052Y-50226296D01*
X58828502Y-50360544D01*
X58838011Y-50370786D01*
X59036968Y-50518102D01*
X59359495Y-50677649D01*
X59762318Y-50832732D01*
X60202164Y-50966653D01*
X60627745Y-51061330D01*
X61184902Y-51118857D01*
X61815920Y-51120604D01*
X62455669Y-51070759D01*
X63039019Y-50973509D01*
X63360933Y-50885581D01*
X63636678Y-50799062D01*
X63841549Y-50745733D01*
X63931011Y-50737123D01*
X63961454Y-50840730D01*
X63997303Y-51069602D01*
X64034462Y-51379940D01*
X64068833Y-51727942D01*
X64096320Y-52069808D01*
X64112825Y-52361737D01*
X64114252Y-52559927D01*
X64106616Y-52614512D01*
X64086104Y-52636085D01*
X64035767Y-52655210D01*
X63946110Y-52672031D01*
X63807634Y-52686691D01*
X63610843Y-52699332D01*
X63346241Y-52710096D01*
X63004330Y-52719128D01*
X62575613Y-52726568D01*
X62050594Y-52732561D01*
X61419776Y-52737248D01*
X60673661Y-52740773D01*
X59802753Y-52743278D01*
X58797555Y-52744905D01*
X57648570Y-52745798D01*
X56346302Y-52746100D01*
X55353491Y-52746037D01*
X54062705Y-52745112D01*
X52841122Y-52742788D01*
X51698379Y-52739150D01*
X50644109Y-52734283D01*
X49687948Y-52728270D01*
X48839531Y-52721198D01*
X48108492Y-52713151D01*
X47504467Y-52704213D01*
X47037090Y-52694470D01*
X46715997Y-52684006D01*
X46550823Y-52672906D01*
X46530706Y-52668397D01*
X46478893Y-52610754D01*
X46453103Y-52499690D01*
X46452674Y-52304506D01*
X46476944Y-51994499D01*
X46509445Y-51682009D01*
X46552684Y-51309093D01*
X46592843Y-51003801D01*
X46624888Y-50802095D01*
X46641357Y-50739421D01*
X46731607Y-50747991D01*
X46936927Y-50801741D01*
X47212874Y-50889035D01*
X47212951Y-50889061D01*
X47707083Y-51012142D01*
X48301819Y-51093097D01*
X48932731Y-51127729D01*
X49535394Y-51111843D01*
X49922670Y-51065553D01*
X50342430Y-50970129D01*
X50782871Y-50833148D01*
X51196121Y-50672991D01*
X51534310Y-50508039D01*
X51736790Y-50368972D01*
X51972633Y-50236893D01*
X52227715Y-50220535D01*
X52437536Y-50321760D01*
G37*
X52437536Y-50321760D02*
X52461800Y-50348023D01*
X52631223Y-50479712D01*
X52923500Y-50634126D01*
X53297307Y-50792525D01*
X53711320Y-50936170D01*
X53848000Y-50976654D01*
X54168786Y-51036413D01*
X54623152Y-51076792D01*
X55176160Y-51094981D01*
X55329667Y-51095730D01*
X55802983Y-51091236D01*
X56158936Y-51073650D01*
X56449388Y-51035875D01*
X56726202Y-50970817D01*
X57041241Y-50871380D01*
X57089425Y-50854970D01*
X57443336Y-50719863D01*
X57762889Y-50573430D01*
X57992130Y-50441995D01*
X58032980Y-50411073D01*
X58322521Y-50243608D01*
X58597052Y-50226296D01*
X58828502Y-50360544D01*
X58838011Y-50370786D01*
X59036968Y-50518102D01*
X59359495Y-50677649D01*
X59762318Y-50832732D01*
X60202164Y-50966653D01*
X60627745Y-51061330D01*
X61184902Y-51118857D01*
X61815920Y-51120604D01*
X62455669Y-51070759D01*
X63039019Y-50973509D01*
X63360933Y-50885581D01*
X63636678Y-50799062D01*
X63841549Y-50745733D01*
X63931011Y-50737123D01*
X63961454Y-50840730D01*
X63997303Y-51069602D01*
X64034462Y-51379940D01*
X64068833Y-51727942D01*
X64096320Y-52069808D01*
X64112825Y-52361737D01*
X64114252Y-52559927D01*
X64106616Y-52614512D01*
X64086104Y-52636085D01*
X64035767Y-52655210D01*
X63946110Y-52672031D01*
X63807634Y-52686691D01*
X63610843Y-52699332D01*
X63346241Y-52710096D01*
X63004330Y-52719128D01*
X62575613Y-52726568D01*
X62050594Y-52732561D01*
X61419776Y-52737248D01*
X60673661Y-52740773D01*
X59802753Y-52743278D01*
X58797555Y-52744905D01*
X57648570Y-52745798D01*
X56346302Y-52746100D01*
X55353491Y-52746037D01*
X54062705Y-52745112D01*
X52841122Y-52742788D01*
X51698379Y-52739150D01*
X50644109Y-52734283D01*
X49687948Y-52728270D01*
X48839531Y-52721198D01*
X48108492Y-52713151D01*
X47504467Y-52704213D01*
X47037090Y-52694470D01*
X46715997Y-52684006D01*
X46550823Y-52672906D01*
X46530706Y-52668397D01*
X46478893Y-52610754D01*
X46453103Y-52499690D01*
X46452674Y-52304506D01*
X46476944Y-51994499D01*
X46509445Y-51682009D01*
X46552684Y-51309093D01*
X46592843Y-51003801D01*
X46624888Y-50802095D01*
X46641357Y-50739421D01*
X46731607Y-50747991D01*
X46936927Y-50801741D01*
X47212874Y-50889035D01*
X47212951Y-50889061D01*
X47707083Y-51012142D01*
X48301819Y-51093097D01*
X48932731Y-51127729D01*
X49535394Y-51111843D01*
X49922670Y-51065553D01*
X50342430Y-50970129D01*
X50782871Y-50833148D01*
X51196121Y-50672991D01*
X51534310Y-50508039D01*
X51736790Y-50368972D01*
X51972633Y-50236893D01*
X52227715Y-50220535D01*
X52437536Y-50321760D01*
G36*
X51098552Y-48967167D02*
G01*
X51161010Y-49080844D01*
X51171760Y-49293456D01*
X51163702Y-49505613D01*
X51138667Y-50073892D01*
X50561816Y-50271481D01*
X50013115Y-50410647D01*
X49380131Y-50493890D01*
X48729819Y-50517430D01*
X48129133Y-50477487D01*
X47836667Y-50425346D01*
X47498883Y-50335841D01*
X47174778Y-50233125D01*
X47011167Y-50171097D01*
X46693667Y-50035728D01*
X46693667Y-49486531D01*
X46696666Y-49202595D01*
X46726252Y-49031162D01*
X46813312Y-48956020D01*
X46988731Y-48960959D01*
X47283393Y-49029768D01*
X47469995Y-49079068D01*
X47953821Y-49166770D01*
X48538270Y-49211787D01*
X49160111Y-49214163D01*
X49756113Y-49173942D01*
X50263046Y-49091170D01*
X50320005Y-49077053D01*
X50706143Y-48979541D01*
X50956294Y-48938156D01*
X51098552Y-48967167D01*
G37*
X51098552Y-48967167D02*
X51161010Y-49080844D01*
X51171760Y-49293456D01*
X51163702Y-49505613D01*
X51138667Y-50073892D01*
X50561816Y-50271481D01*
X50013115Y-50410647D01*
X49380131Y-50493890D01*
X48729819Y-50517430D01*
X48129133Y-50477487D01*
X47836667Y-50425346D01*
X47498883Y-50335841D01*
X47174778Y-50233125D01*
X47011167Y-50171097D01*
X46693667Y-50035728D01*
X46693667Y-49486531D01*
X46696666Y-49202595D01*
X46726252Y-49031162D01*
X46813312Y-48956020D01*
X46988731Y-48960959D01*
X47283393Y-49029768D01*
X47469995Y-49079068D01*
X47953821Y-49166770D01*
X48538270Y-49211787D01*
X49160111Y-49214163D01*
X49756113Y-49173942D01*
X50263046Y-49091170D01*
X50320005Y-49077053D01*
X50706143Y-48979541D01*
X50956294Y-48938156D01*
X51098552Y-48967167D01*
G36*
X57461748Y-48976175D02*
G01*
X57516804Y-49085666D01*
X57522952Y-49292299D01*
X57513702Y-49505613D01*
X57488667Y-50073892D01*
X56900394Y-50275399D01*
X56269027Y-50431980D01*
X55559976Y-50510103D01*
X54847652Y-50505739D01*
X54229000Y-50420023D01*
X53883808Y-50331246D01*
X53554775Y-50228490D01*
X53361167Y-50154215D01*
X53043667Y-50012283D01*
X53043667Y-49474808D01*
X53045816Y-49204084D01*
X53072498Y-49037292D01*
X53154066Y-48959565D01*
X53320874Y-48956037D01*
X53603274Y-49011840D01*
X53863913Y-49073054D01*
X54242342Y-49138665D01*
X54712189Y-49186145D01*
X55195875Y-49208099D01*
X55287334Y-49208775D01*
X55764489Y-49192807D01*
X56243300Y-49149835D01*
X56646190Y-49087254D01*
X56710754Y-49073054D01*
X57087959Y-48985619D01*
X57328545Y-48948076D01*
X57461748Y-48976175D01*
G37*
X57461748Y-48976175D02*
X57516804Y-49085666D01*
X57522952Y-49292299D01*
X57513702Y-49505613D01*
X57488667Y-50073892D01*
X56900394Y-50275399D01*
X56269027Y-50431980D01*
X55559976Y-50510103D01*
X54847652Y-50505739D01*
X54229000Y-50420023D01*
X53883808Y-50331246D01*
X53554775Y-50228490D01*
X53361167Y-50154215D01*
X53043667Y-50012283D01*
X53043667Y-49474808D01*
X53045816Y-49204084D01*
X53072498Y-49037292D01*
X53154066Y-48959565D01*
X53320874Y-48956037D01*
X53603274Y-49011840D01*
X53863913Y-49073054D01*
X54242342Y-49138665D01*
X54712189Y-49186145D01*
X55195875Y-49208099D01*
X55287334Y-49208775D01*
X55764489Y-49192807D01*
X56243300Y-49149835D01*
X56646190Y-49087254D01*
X56710754Y-49073054D01*
X57087959Y-48985619D01*
X57328545Y-48948076D01*
X57461748Y-48976175D01*
G36*
X63807173Y-48977485D02*
G01*
X63866161Y-49084531D01*
X63880840Y-49285775D01*
X63881000Y-49474808D01*
X63881000Y-50012283D01*
X63563500Y-50153677D01*
X62905444Y-50373054D01*
X62164389Y-50496197D01*
X61400277Y-50517660D01*
X60673049Y-50431996D01*
X60621334Y-50421028D01*
X60271764Y-50332728D01*
X59925794Y-50227133D01*
X59753500Y-50164566D01*
X59393667Y-50019614D01*
X59393667Y-49478474D01*
X59395732Y-49206247D01*
X59422181Y-49038421D01*
X59503395Y-48959924D01*
X59669755Y-48955687D01*
X59951642Y-49010639D01*
X60213913Y-49071588D01*
X60752729Y-49158108D01*
X61384521Y-49198966D01*
X62041514Y-49194135D01*
X62655931Y-49143588D01*
X63060754Y-49072706D01*
X63434828Y-48986455D01*
X63673515Y-48949754D01*
X63807173Y-48977485D01*
G37*
X63807173Y-48977485D02*
X63866161Y-49084531D01*
X63880840Y-49285775D01*
X63881000Y-49474808D01*
X63881000Y-50012283D01*
X63563500Y-50153677D01*
X62905444Y-50373054D01*
X62164389Y-50496197D01*
X61400277Y-50517660D01*
X60673049Y-50431996D01*
X60621334Y-50421028D01*
X60271764Y-50332728D01*
X59925794Y-50227133D01*
X59753500Y-50164566D01*
X59393667Y-50019614D01*
X59393667Y-49478474D01*
X59395732Y-49206247D01*
X59422181Y-49038421D01*
X59503395Y-48959924D01*
X59669755Y-48955687D01*
X59951642Y-49010639D01*
X60213913Y-49071588D01*
X60752729Y-49158108D01*
X61384521Y-49198966D01*
X62041514Y-49194135D01*
X62655931Y-49143588D01*
X63060754Y-49072706D01*
X63434828Y-48986455D01*
X63673515Y-48949754D01*
X63807173Y-48977485D01*
G36*
X50503667Y-48415302D02*
G01*
X50076166Y-48506984D01*
X49721431Y-48555944D01*
X49261858Y-48582057D01*
X48758871Y-48585508D01*
X48273892Y-48566481D01*
X47868345Y-48525160D01*
X47730834Y-48499950D01*
X47371000Y-48419368D01*
X47371000Y-47333883D01*
X48083452Y-47333883D01*
X48119283Y-47472369D01*
X48372886Y-47777968D01*
X48733734Y-47954942D01*
X48979667Y-47995862D01*
X49131143Y-47960303D01*
X49342757Y-47860413D01*
X49386928Y-47834496D01*
X49615316Y-47632396D01*
X49788359Y-47372821D01*
X49796265Y-47354705D01*
X49873553Y-47130288D01*
X49872751Y-46948754D01*
X49797981Y-46721559D01*
X49722359Y-46488807D01*
X49723099Y-46303327D01*
X49800658Y-46066295D01*
X49801006Y-46065410D01*
X49877471Y-45837935D01*
X49878362Y-45668607D01*
X49799719Y-45464577D01*
X49773028Y-45409243D01*
X49521456Y-45079724D01*
X49291906Y-44927347D01*
X49063008Y-44831530D01*
X48886409Y-44818918D01*
X48670589Y-44883328D01*
X48666000Y-44885072D01*
X48394417Y-45031378D01*
X48195161Y-45219283D01*
X48095192Y-45413392D01*
X48121468Y-45578310D01*
X48129755Y-45589090D01*
X48320678Y-45707778D01*
X48531720Y-45679861D01*
X48644553Y-45588720D01*
X48808612Y-45496307D01*
X48972420Y-45482886D01*
X49146267Y-45547962D01*
X49215597Y-45720275D01*
X49217801Y-45737816D01*
X49209504Y-45902267D01*
X49109036Y-46012261D01*
X48942634Y-46093329D01*
X48714863Y-46247080D01*
X48639025Y-46428465D01*
X48710618Y-46600292D01*
X48925143Y-46725369D01*
X49022000Y-46749215D01*
X49151102Y-46826621D01*
X49191230Y-47018316D01*
X49191334Y-47033493D01*
X49164410Y-47219725D01*
X49053982Y-47297734D01*
X48972420Y-47311781D01*
X48763220Y-47283708D01*
X48644553Y-47205947D01*
X48474856Y-47093116D01*
X48292541Y-47093176D01*
X48145957Y-47181606D01*
X48083452Y-47333883D01*
X47371000Y-47333883D01*
X47371000Y-43695978D01*
X47815500Y-43755489D01*
X48329966Y-43799486D01*
X48928822Y-43812459D01*
X49530023Y-43794584D01*
X50016834Y-43750761D01*
X50503667Y-43686521D01*
X50503667Y-48415302D01*
G37*
X50503667Y-48415302D02*
X50076166Y-48506984D01*
X49721431Y-48555944D01*
X49261858Y-48582057D01*
X48758871Y-48585508D01*
X48273892Y-48566481D01*
X47868345Y-48525160D01*
X47730834Y-48499950D01*
X47371000Y-48419368D01*
X47371000Y-47333883D01*
X48083452Y-47333883D01*
X48119283Y-47472369D01*
X48372886Y-47777968D01*
X48733734Y-47954942D01*
X48979667Y-47995862D01*
X49131143Y-47960303D01*
X49342757Y-47860413D01*
X49386928Y-47834496D01*
X49615316Y-47632396D01*
X49788359Y-47372821D01*
X49796265Y-47354705D01*
X49873553Y-47130288D01*
X49872751Y-46948754D01*
X49797981Y-46721559D01*
X49722359Y-46488807D01*
X49723099Y-46303327D01*
X49800658Y-46066295D01*
X49801006Y-46065410D01*
X49877471Y-45837935D01*
X49878362Y-45668607D01*
X49799719Y-45464577D01*
X49773028Y-45409243D01*
X49521456Y-45079724D01*
X49291906Y-44927347D01*
X49063008Y-44831530D01*
X48886409Y-44818918D01*
X48670589Y-44883328D01*
X48666000Y-44885072D01*
X48394417Y-45031378D01*
X48195161Y-45219283D01*
X48095192Y-45413392D01*
X48121468Y-45578310D01*
X48129755Y-45589090D01*
X48320678Y-45707778D01*
X48531720Y-45679861D01*
X48644553Y-45588720D01*
X48808612Y-45496307D01*
X48972420Y-45482886D01*
X49146267Y-45547962D01*
X49215597Y-45720275D01*
X49217801Y-45737816D01*
X49209504Y-45902267D01*
X49109036Y-46012261D01*
X48942634Y-46093329D01*
X48714863Y-46247080D01*
X48639025Y-46428465D01*
X48710618Y-46600292D01*
X48925143Y-46725369D01*
X49022000Y-46749215D01*
X49151102Y-46826621D01*
X49191230Y-47018316D01*
X49191334Y-47033493D01*
X49164410Y-47219725D01*
X49053982Y-47297734D01*
X48972420Y-47311781D01*
X48763220Y-47283708D01*
X48644553Y-47205947D01*
X48474856Y-47093116D01*
X48292541Y-47093176D01*
X48145957Y-47181606D01*
X48083452Y-47333883D01*
X47371000Y-47333883D01*
X47371000Y-43695978D01*
X47815500Y-43755489D01*
X48329966Y-43799486D01*
X48928822Y-43812459D01*
X49530023Y-43794584D01*
X50016834Y-43750761D01*
X50503667Y-43686521D01*
X50503667Y-48415302D01*
G36*
X56853667Y-48415302D02*
G01*
X56426166Y-48506984D01*
X56071431Y-48555944D01*
X55611858Y-48582057D01*
X55108871Y-48585508D01*
X54623892Y-48566481D01*
X54218345Y-48525160D01*
X54080834Y-48499950D01*
X53721000Y-48419368D01*
X53721000Y-46388688D01*
X54313983Y-46388688D01*
X54320875Y-46801614D01*
X54345781Y-47089803D01*
X54395623Y-47297487D01*
X54477321Y-47468899D01*
X54484984Y-47481622D01*
X54754095Y-47781911D01*
X55088526Y-47935572D01*
X55458150Y-47935843D01*
X55823572Y-47782014D01*
X56035458Y-47566976D01*
X56175199Y-47234543D01*
X56247614Y-46769250D01*
X56260869Y-46378886D01*
X56233794Y-45854285D01*
X56145018Y-45464101D01*
X55982877Y-45180979D01*
X55735706Y-44977565D01*
X55641906Y-44927347D01*
X55414361Y-44831635D01*
X55238995Y-44818510D01*
X55023507Y-44882245D01*
X55008252Y-44888020D01*
X54744050Y-45045293D01*
X54520247Y-45270036D01*
X54505513Y-45291028D01*
X54413454Y-45449539D01*
X54356202Y-45622363D01*
X54325932Y-45854348D01*
X54314819Y-46190340D01*
X54313983Y-46388688D01*
X53721000Y-46388688D01*
X53721000Y-43677625D01*
X54123167Y-43746312D01*
X54534891Y-43791531D01*
X55047447Y-43811368D01*
X55594252Y-43805850D01*
X56108722Y-43775004D01*
X56366834Y-43745408D01*
X56853667Y-43675816D01*
X56853667Y-48415302D01*
G37*
X56853667Y-48415302D02*
X56426166Y-48506984D01*
X56071431Y-48555944D01*
X55611858Y-48582057D01*
X55108871Y-48585508D01*
X54623892Y-48566481D01*
X54218345Y-48525160D01*
X54080834Y-48499950D01*
X53721000Y-48419368D01*
X53721000Y-46388688D01*
X54313983Y-46388688D01*
X54320875Y-46801614D01*
X54345781Y-47089803D01*
X54395623Y-47297487D01*
X54477321Y-47468899D01*
X54484984Y-47481622D01*
X54754095Y-47781911D01*
X55088526Y-47935572D01*
X55458150Y-47935843D01*
X55823572Y-47782014D01*
X56035458Y-47566976D01*
X56175199Y-47234543D01*
X56247614Y-46769250D01*
X56260869Y-46378886D01*
X56233794Y-45854285D01*
X56145018Y-45464101D01*
X55982877Y-45180979D01*
X55735706Y-44977565D01*
X55641906Y-44927347D01*
X55414361Y-44831635D01*
X55238995Y-44818510D01*
X55023507Y-44882245D01*
X55008252Y-44888020D01*
X54744050Y-45045293D01*
X54520247Y-45270036D01*
X54505513Y-45291028D01*
X54413454Y-45449539D01*
X54356202Y-45622363D01*
X54325932Y-45854348D01*
X54314819Y-46190340D01*
X54313983Y-46388688D01*
X53721000Y-46388688D01*
X53721000Y-43677625D01*
X54123167Y-43746312D01*
X54534891Y-43791531D01*
X55047447Y-43811368D01*
X55594252Y-43805850D01*
X56108722Y-43775004D01*
X56366834Y-43745408D01*
X56853667Y-43675816D01*
X56853667Y-48415302D01*
G36*
X63203667Y-48415302D02*
G01*
X62776166Y-48506984D01*
X62421431Y-48555944D01*
X61961858Y-48582057D01*
X61458871Y-48585508D01*
X60973892Y-48566481D01*
X60568345Y-48525160D01*
X60430834Y-48499950D01*
X60071000Y-48419368D01*
X60071000Y-47366451D01*
X60788044Y-47366451D01*
X60870334Y-47552835D01*
X61045771Y-47732442D01*
X61279901Y-47877323D01*
X61538275Y-47959526D01*
X61764334Y-47956541D01*
X62004274Y-47871812D01*
X62173572Y-47782014D01*
X62338592Y-47617884D01*
X62483252Y-47383810D01*
X62498242Y-47349973D01*
X62574154Y-47128125D01*
X62572346Y-46946799D01*
X62497981Y-46721559D01*
X62422359Y-46488807D01*
X62423099Y-46303327D01*
X62500658Y-46066295D01*
X62501006Y-46065410D01*
X62577471Y-45837935D01*
X62578362Y-45668607D01*
X62499719Y-45464577D01*
X62473028Y-45409243D01*
X62241662Y-45091252D01*
X61935740Y-44893528D01*
X61592454Y-44834414D01*
X61385161Y-44872730D01*
X61104669Y-45013043D01*
X60904300Y-45204433D01*
X60813178Y-45410342D01*
X60837843Y-45559715D01*
X60989661Y-45696315D01*
X61185993Y-45699320D01*
X61344553Y-45588720D01*
X61508612Y-45496307D01*
X61672420Y-45482886D01*
X61846267Y-45547962D01*
X61915597Y-45720275D01*
X61917801Y-45737816D01*
X61909504Y-45902267D01*
X61809036Y-46012261D01*
X61642634Y-46093329D01*
X61414863Y-46247080D01*
X61339025Y-46428465D01*
X61410618Y-46600292D01*
X61625143Y-46725369D01*
X61722000Y-46749215D01*
X61851102Y-46826621D01*
X61891230Y-47018316D01*
X61891334Y-47033493D01*
X61864410Y-47219725D01*
X61753982Y-47297734D01*
X61672420Y-47311781D01*
X61463220Y-47283708D01*
X61344553Y-47205947D01*
X61154660Y-47087378D01*
X60944933Y-47112439D01*
X60833352Y-47201243D01*
X60788044Y-47366451D01*
X60071000Y-47366451D01*
X60071000Y-43682168D01*
X60515500Y-43748584D01*
X61022896Y-43797192D01*
X61615999Y-43812267D01*
X62214560Y-43793922D01*
X62716834Y-43745408D01*
X63203667Y-43675816D01*
X63203667Y-48415302D01*
G37*
X63203667Y-48415302D02*
X62776166Y-48506984D01*
X62421431Y-48555944D01*
X61961858Y-48582057D01*
X61458871Y-48585508D01*
X60973892Y-48566481D01*
X60568345Y-48525160D01*
X60430834Y-48499950D01*
X60071000Y-48419368D01*
X60071000Y-47366451D01*
X60788044Y-47366451D01*
X60870334Y-47552835D01*
X61045771Y-47732442D01*
X61279901Y-47877323D01*
X61538275Y-47959526D01*
X61764334Y-47956541D01*
X62004274Y-47871812D01*
X62173572Y-47782014D01*
X62338592Y-47617884D01*
X62483252Y-47383810D01*
X62498242Y-47349973D01*
X62574154Y-47128125D01*
X62572346Y-46946799D01*
X62497981Y-46721559D01*
X62422359Y-46488807D01*
X62423099Y-46303327D01*
X62500658Y-46066295D01*
X62501006Y-46065410D01*
X62577471Y-45837935D01*
X62578362Y-45668607D01*
X62499719Y-45464577D01*
X62473028Y-45409243D01*
X62241662Y-45091252D01*
X61935740Y-44893528D01*
X61592454Y-44834414D01*
X61385161Y-44872730D01*
X61104669Y-45013043D01*
X60904300Y-45204433D01*
X60813178Y-45410342D01*
X60837843Y-45559715D01*
X60989661Y-45696315D01*
X61185993Y-45699320D01*
X61344553Y-45588720D01*
X61508612Y-45496307D01*
X61672420Y-45482886D01*
X61846267Y-45547962D01*
X61915597Y-45720275D01*
X61917801Y-45737816D01*
X61909504Y-45902267D01*
X61809036Y-46012261D01*
X61642634Y-46093329D01*
X61414863Y-46247080D01*
X61339025Y-46428465D01*
X61410618Y-46600292D01*
X61625143Y-46725369D01*
X61722000Y-46749215D01*
X61851102Y-46826621D01*
X61891230Y-47018316D01*
X61891334Y-47033493D01*
X61864410Y-47219725D01*
X61753982Y-47297734D01*
X61672420Y-47311781D01*
X61463220Y-47283708D01*
X61344553Y-47205947D01*
X61154660Y-47087378D01*
X60944933Y-47112439D01*
X60833352Y-47201243D01*
X60788044Y-47366451D01*
X60071000Y-47366451D01*
X60071000Y-43682168D01*
X60515500Y-43748584D01*
X61022896Y-43797192D01*
X61615999Y-43812267D01*
X62214560Y-43793922D01*
X62716834Y-43745408D01*
X63203667Y-43675816D01*
X63203667Y-48415302D01*
G36*
X49039330Y-40714225D02*
G01*
X49198716Y-40883582D01*
X49307234Y-41144342D01*
X49467281Y-41465602D01*
X49724299Y-41689539D01*
X50099558Y-41966247D01*
X50330742Y-42235808D01*
X50439173Y-42527370D01*
X50453949Y-42686890D01*
X50448714Y-42913397D01*
X50394493Y-43026755D01*
X50252310Y-43082852D01*
X50165000Y-43101198D01*
X49525583Y-43185336D01*
X48819581Y-43207555D01*
X48237539Y-43175251D01*
X47840664Y-43131308D01*
X47584596Y-43085464D01*
X47441482Y-43020745D01*
X47383465Y-42920180D01*
X47382693Y-42766794D01*
X47395452Y-42662137D01*
X47505153Y-42312643D01*
X47745939Y-41999442D01*
X48136509Y-41698377D01*
X48146316Y-41692097D01*
X48438311Y-41418083D01*
X48557824Y-41173061D01*
X48700534Y-40859667D01*
X48867153Y-40706487D01*
X49039330Y-40714225D01*
G37*
X49039330Y-40714225D02*
X49198716Y-40883582D01*
X49307234Y-41144342D01*
X49467281Y-41465602D01*
X49724299Y-41689539D01*
X50099558Y-41966247D01*
X50330742Y-42235808D01*
X50439173Y-42527370D01*
X50453949Y-42686890D01*
X50448714Y-42913397D01*
X50394493Y-43026755D01*
X50252310Y-43082852D01*
X50165000Y-43101198D01*
X49525583Y-43185336D01*
X48819581Y-43207555D01*
X48237539Y-43175251D01*
X47840664Y-43131308D01*
X47584596Y-43085464D01*
X47441482Y-43020745D01*
X47383465Y-42920180D01*
X47382693Y-42766794D01*
X47395452Y-42662137D01*
X47505153Y-42312643D01*
X47745939Y-41999442D01*
X48136509Y-41698377D01*
X48146316Y-41692097D01*
X48438311Y-41418083D01*
X48557824Y-41173061D01*
X48700534Y-40859667D01*
X48867153Y-40706487D01*
X49039330Y-40714225D01*
G36*
X55456176Y-40770635D02*
G01*
X55601116Y-40992392D01*
X55656182Y-41140828D01*
X55801303Y-41439991D01*
X56061616Y-41690211D01*
X56115580Y-41728634D01*
X56451916Y-41981390D01*
X56661041Y-42200327D01*
X56769554Y-42422448D01*
X56804055Y-42684760D01*
X56804092Y-42686488D01*
X56794879Y-42917027D01*
X56736250Y-43034904D01*
X56600594Y-43095382D01*
X56599667Y-43095636D01*
X56369281Y-43137202D01*
X56030162Y-43174185D01*
X55642909Y-43202590D01*
X55268121Y-43218419D01*
X54966398Y-43217676D01*
X54864000Y-43210102D01*
X54629338Y-43182792D01*
X54318522Y-43147905D01*
X54155319Y-43130002D01*
X53700638Y-43080605D01*
X53743140Y-42703533D01*
X53803602Y-42417444D01*
X53931993Y-42180850D01*
X54158565Y-41952555D01*
X54459087Y-41728634D01*
X54743545Y-41478168D01*
X54903475Y-41187970D01*
X54917290Y-41144817D01*
X55006354Y-40909677D01*
X55102778Y-40742386D01*
X55126291Y-40717786D01*
X55288861Y-40671882D01*
X55456176Y-40770635D01*
G37*
X55456176Y-40770635D02*
X55601116Y-40992392D01*
X55656182Y-41140828D01*
X55801303Y-41439991D01*
X56061616Y-41690211D01*
X56115580Y-41728634D01*
X56451916Y-41981390D01*
X56661041Y-42200327D01*
X56769554Y-42422448D01*
X56804055Y-42684760D01*
X56804092Y-42686488D01*
X56794879Y-42917027D01*
X56736250Y-43034904D01*
X56600594Y-43095382D01*
X56599667Y-43095636D01*
X56369281Y-43137202D01*
X56030162Y-43174185D01*
X55642909Y-43202590D01*
X55268121Y-43218419D01*
X54966398Y-43217676D01*
X54864000Y-43210102D01*
X54629338Y-43182792D01*
X54318522Y-43147905D01*
X54155319Y-43130002D01*
X53700638Y-43080605D01*
X53743140Y-42703533D01*
X53803602Y-42417444D01*
X53931993Y-42180850D01*
X54158565Y-41952555D01*
X54459087Y-41728634D01*
X54743545Y-41478168D01*
X54903475Y-41187970D01*
X54917290Y-41144817D01*
X55006354Y-40909677D01*
X55102778Y-40742386D01*
X55126291Y-40717786D01*
X55288861Y-40671882D01*
X55456176Y-40770635D01*
G36*
X61740620Y-40715216D02*
G01*
X61900081Y-40886138D01*
X62007234Y-41144342D01*
X62167281Y-41465602D01*
X62424299Y-41689539D01*
X62799558Y-41966247D01*
X63030742Y-42235808D01*
X63139173Y-42527370D01*
X63153949Y-42686890D01*
X63148705Y-42913411D01*
X63094455Y-43026814D01*
X62952220Y-43083018D01*
X62865000Y-43101407D01*
X62289963Y-43179829D01*
X61647006Y-43210340D01*
X61031633Y-43189373D01*
X60889313Y-43175210D01*
X60505769Y-43127240D01*
X60262080Y-43078727D01*
X60129708Y-43011298D01*
X60080117Y-42906576D01*
X60084769Y-42746187D01*
X60095217Y-42663887D01*
X60162071Y-42389140D01*
X60300004Y-42156869D01*
X60539553Y-41926962D01*
X60805075Y-41731394D01*
X61114782Y-41446082D01*
X61258917Y-41169749D01*
X61401443Y-40857653D01*
X61568209Y-40705932D01*
X61740620Y-40715216D01*
G37*
X61740620Y-40715216D02*
X61900081Y-40886138D01*
X62007234Y-41144342D01*
X62167281Y-41465602D01*
X62424299Y-41689539D01*
X62799558Y-41966247D01*
X63030742Y-42235808D01*
X63139173Y-42527370D01*
X63153949Y-42686890D01*
X63148705Y-42913411D01*
X63094455Y-43026814D01*
X62952220Y-43083018D01*
X62865000Y-43101407D01*
X62289963Y-43179829D01*
X61647006Y-43210340D01*
X61031633Y-43189373D01*
X60889313Y-43175210D01*
X60505769Y-43127240D01*
X60262080Y-43078727D01*
X60129708Y-43011298D01*
X60080117Y-42906576D01*
X60084769Y-42746187D01*
X60095217Y-42663887D01*
X60162071Y-42389140D01*
X60300004Y-42156869D01*
X60539553Y-41926962D01*
X60805075Y-41731394D01*
X61114782Y-41446082D01*
X61258917Y-41169749D01*
X61401443Y-40857653D01*
X61568209Y-40705932D01*
X61740620Y-40715216D01*
G36*
X55446949Y-45507162D02*
G01*
X55567773Y-45643806D01*
X55638864Y-45908289D01*
X55667141Y-46317421D01*
X55668334Y-46450745D01*
X55638853Y-46882009D01*
X55555449Y-47185144D01*
X55425681Y-47350090D01*
X55257105Y-47366788D01*
X55073746Y-47242080D01*
X54979620Y-47113167D01*
X54929880Y-46933465D01*
X54914000Y-46654043D01*
X54914773Y-46503167D01*
X54931226Y-46068488D01*
X54971638Y-45775516D01*
X55045381Y-45597256D01*
X55161829Y-45506709D01*
X55269474Y-45481547D01*
X55446949Y-45507162D01*
G37*
X55446949Y-45507162D02*
X55567773Y-45643806D01*
X55638864Y-45908289D01*
X55667141Y-46317421D01*
X55668334Y-46450745D01*
X55638853Y-46882009D01*
X55555449Y-47185144D01*
X55425681Y-47350090D01*
X55257105Y-47366788D01*
X55073746Y-47242080D01*
X54979620Y-47113167D01*
X54929880Y-46933465D01*
X54914000Y-46654043D01*
X54914773Y-46503167D01*
X54931226Y-46068488D01*
X54971638Y-45775516D01*
X55045381Y-45597256D01*
X55161829Y-45506709D01*
X55269474Y-45481547D01*
X55446949Y-45507162D01*
D15*
%TO.C,N6*%
X237472220Y-57150000D02*
G75*
G03*
X237472220Y-57150000I-8872220J0D01*
G01*
X236220000Y-57150000D02*
G75*
G03*
X220980000Y-57307480I-7620000J-78740D01*
G01*
%TO.C,N5*%
X212072220Y-57150000D02*
G75*
G03*
X212072220Y-57150000I-8872220J0D01*
G01*
X210820000Y-57150000D02*
G75*
G03*
X195580000Y-57307480I-7620000J-78740D01*
G01*
%TO.C,N4*%
X175877220Y-57150000D02*
G75*
G03*
X175877220Y-57150000I-8872220J0D01*
G01*
X174625000Y-57150000D02*
G75*
G03*
X159385000Y-57307480I-7620000J-78740D01*
G01*
%TO.C,N3*%
X150477220Y-57150000D02*
G75*
G03*
X150477220Y-57150000I-8872220J0D01*
G01*
X149225000Y-57150000D02*
G75*
G03*
X133985000Y-57307480I-7620000J-78740D01*
G01*
%TO.C,N2*%
X114282220Y-57150000D02*
G75*
G03*
X114282220Y-57150000I-8872220J0D01*
G01*
X113030000Y-57150000D02*
G75*
G03*
X97790000Y-57307480I-7620000J-78740D01*
G01*
%TO.C,N1*%
X88882220Y-57150000D02*
G75*
G03*
X88882220Y-57150000I-8872220J0D01*
G01*
X87630000Y-57150000D02*
G75*
G03*
X72390000Y-57307480I-7620000J-78740D01*
G01*
D13*
%TO.C,R6*%
X220752420Y-64183148D02*
X220519075Y-64416493D01*
X225376899Y-68807626D02*
X220752420Y-64183148D01*
X225143553Y-69040971D02*
X225376899Y-68807626D01*
X218814948Y-66120620D02*
X219048293Y-65887275D01*
X223439426Y-70745099D02*
X218814948Y-66120620D01*
X223672771Y-70511753D02*
X223439426Y-70745099D01*
%TO.C,R5*%
X212677052Y-66120620D02*
X212443707Y-65887275D01*
X208052574Y-70745099D02*
X212677052Y-66120620D01*
X207819229Y-70511753D02*
X208052574Y-70745099D01*
X210739580Y-64183148D02*
X210972925Y-64416493D01*
X206115101Y-68807626D02*
X210739580Y-64183148D01*
X206348447Y-69040971D02*
X206115101Y-68807626D01*
%TO.C,R4*%
X162385771Y-70511753D02*
X162152426Y-70745099D01*
X162152426Y-70745099D02*
X157527948Y-66120620D01*
X157527948Y-66120620D02*
X157761293Y-65887275D01*
X163856553Y-69040971D02*
X164089899Y-68807626D01*
X164089899Y-68807626D02*
X159465420Y-64183148D01*
X159465420Y-64183148D02*
X159232075Y-64416493D01*
%TO.C,R3*%
X145061447Y-69040971D02*
X144828101Y-68807626D01*
X144828101Y-68807626D02*
X149452580Y-64183148D01*
X149452580Y-64183148D02*
X149685925Y-64416493D01*
X146532229Y-70511753D02*
X146765574Y-70745099D01*
X146765574Y-70745099D02*
X151390052Y-66120620D01*
X151390052Y-66120620D02*
X151156707Y-65887275D01*
%TO.C,R2*%
X97562420Y-64183148D02*
X97329075Y-64416493D01*
X102186899Y-68807626D02*
X97562420Y-64183148D01*
X101953553Y-69040971D02*
X102186899Y-68807626D01*
X95624948Y-66120620D02*
X95858293Y-65887275D01*
X100249426Y-70745099D02*
X95624948Y-66120620D01*
X100482771Y-70511753D02*
X100249426Y-70745099D01*
%TO.C,R1*%
X83466447Y-69040971D02*
X83233101Y-68807626D01*
X83233101Y-68807626D02*
X87857580Y-64183148D01*
X87857580Y-64183148D02*
X88090925Y-64416493D01*
X84937229Y-70511753D02*
X85170574Y-70745099D01*
X85170574Y-70745099D02*
X89795052Y-66120620D01*
X89795052Y-66120620D02*
X89561707Y-65887275D01*
%TO.C,D6*%
D16*
X227861904Y-61102380D02*
X227861904Y-60102380D01*
X228100000Y-60102380D01*
X228242857Y-60150000D01*
X228338095Y-60245238D01*
X228385714Y-60340476D01*
X228433333Y-60530952D01*
X228433333Y-60673809D01*
X228385714Y-60864285D01*
X228338095Y-60959523D01*
X228242857Y-61054761D01*
X228100000Y-61102380D01*
X227861904Y-61102380D01*
X229290476Y-60102380D02*
X229100000Y-60102380D01*
X229004761Y-60150000D01*
X228957142Y-60197619D01*
X228861904Y-60340476D01*
X228814285Y-60530952D01*
X228814285Y-60911904D01*
X228861904Y-61007142D01*
X228909523Y-61054761D01*
X229004761Y-61102380D01*
X229195238Y-61102380D01*
X229290476Y-61054761D01*
X229338095Y-61007142D01*
X229385714Y-60911904D01*
X229385714Y-60673809D01*
X229338095Y-60578571D01*
X229290476Y-60530952D01*
X229195238Y-60483333D01*
X229004761Y-60483333D01*
X228909523Y-60530952D01*
X228861904Y-60578571D01*
X228814285Y-60673809D01*
X233035714Y-59202380D02*
X232464285Y-59202380D01*
X232750000Y-59202380D02*
X232750000Y-58202380D01*
X232654761Y-58345238D01*
X232559523Y-58440476D01*
X232464285Y-58488095D01*
%TO.C,D5*%
X202461904Y-61102380D02*
X202461904Y-60102380D01*
X202700000Y-60102380D01*
X202842857Y-60150000D01*
X202938095Y-60245238D01*
X202985714Y-60340476D01*
X203033333Y-60530952D01*
X203033333Y-60673809D01*
X202985714Y-60864285D01*
X202938095Y-60959523D01*
X202842857Y-61054761D01*
X202700000Y-61102380D01*
X202461904Y-61102380D01*
X203938095Y-60102380D02*
X203461904Y-60102380D01*
X203414285Y-60578571D01*
X203461904Y-60530952D01*
X203557142Y-60483333D01*
X203795238Y-60483333D01*
X203890476Y-60530952D01*
X203938095Y-60578571D01*
X203985714Y-60673809D01*
X203985714Y-60911904D01*
X203938095Y-61007142D01*
X203890476Y-61054761D01*
X203795238Y-61102380D01*
X203557142Y-61102380D01*
X203461904Y-61054761D01*
X203414285Y-61007142D01*
X207635714Y-59202380D02*
X207064285Y-59202380D01*
X207350000Y-59202380D02*
X207350000Y-58202380D01*
X207254761Y-58345238D01*
X207159523Y-58440476D01*
X207064285Y-58488095D01*
%TO.C,D4*%
X166266904Y-61102380D02*
X166266904Y-60102380D01*
X166505000Y-60102380D01*
X166647857Y-60150000D01*
X166743095Y-60245238D01*
X166790714Y-60340476D01*
X166838333Y-60530952D01*
X166838333Y-60673809D01*
X166790714Y-60864285D01*
X166743095Y-60959523D01*
X166647857Y-61054761D01*
X166505000Y-61102380D01*
X166266904Y-61102380D01*
X167695476Y-60435714D02*
X167695476Y-61102380D01*
X167457380Y-60054761D02*
X167219285Y-60769047D01*
X167838333Y-60769047D01*
X171440714Y-59202380D02*
X170869285Y-59202380D01*
X171155000Y-59202380D02*
X171155000Y-58202380D01*
X171059761Y-58345238D01*
X170964523Y-58440476D01*
X170869285Y-58488095D01*
%TO.C,D3*%
X140866904Y-61102380D02*
X140866904Y-60102380D01*
X141105000Y-60102380D01*
X141247857Y-60150000D01*
X141343095Y-60245238D01*
X141390714Y-60340476D01*
X141438333Y-60530952D01*
X141438333Y-60673809D01*
X141390714Y-60864285D01*
X141343095Y-60959523D01*
X141247857Y-61054761D01*
X141105000Y-61102380D01*
X140866904Y-61102380D01*
X141771666Y-60102380D02*
X142390714Y-60102380D01*
X142057380Y-60483333D01*
X142200238Y-60483333D01*
X142295476Y-60530952D01*
X142343095Y-60578571D01*
X142390714Y-60673809D01*
X142390714Y-60911904D01*
X142343095Y-61007142D01*
X142295476Y-61054761D01*
X142200238Y-61102380D01*
X141914523Y-61102380D01*
X141819285Y-61054761D01*
X141771666Y-61007142D01*
X146040714Y-59202380D02*
X145469285Y-59202380D01*
X145755000Y-59202380D02*
X145755000Y-58202380D01*
X145659761Y-58345238D01*
X145564523Y-58440476D01*
X145469285Y-58488095D01*
%TO.C,D2*%
X104671904Y-61102380D02*
X104671904Y-60102380D01*
X104910000Y-60102380D01*
X105052857Y-60150000D01*
X105148095Y-60245238D01*
X105195714Y-60340476D01*
X105243333Y-60530952D01*
X105243333Y-60673809D01*
X105195714Y-60864285D01*
X105148095Y-60959523D01*
X105052857Y-61054761D01*
X104910000Y-61102380D01*
X104671904Y-61102380D01*
X105624285Y-60197619D02*
X105671904Y-60150000D01*
X105767142Y-60102380D01*
X106005238Y-60102380D01*
X106100476Y-60150000D01*
X106148095Y-60197619D01*
X106195714Y-60292857D01*
X106195714Y-60388095D01*
X106148095Y-60530952D01*
X105576666Y-61102380D01*
X106195714Y-61102380D01*
X109845714Y-59202380D02*
X109274285Y-59202380D01*
X109560000Y-59202380D02*
X109560000Y-58202380D01*
X109464761Y-58345238D01*
X109369523Y-58440476D01*
X109274285Y-58488095D01*
%TO.C,D1*%
X79271904Y-61102380D02*
X79271904Y-60102380D01*
X79510000Y-60102380D01*
X79652857Y-60150000D01*
X79748095Y-60245238D01*
X79795714Y-60340476D01*
X79843333Y-60530952D01*
X79843333Y-60673809D01*
X79795714Y-60864285D01*
X79748095Y-60959523D01*
X79652857Y-61054761D01*
X79510000Y-61102380D01*
X79271904Y-61102380D01*
X80795714Y-61102380D02*
X80224285Y-61102380D01*
X80510000Y-61102380D02*
X80510000Y-60102380D01*
X80414761Y-60245238D01*
X80319523Y-60340476D01*
X80224285Y-60388095D01*
X84445714Y-59202380D02*
X83874285Y-59202380D01*
X84160000Y-59202380D02*
X84160000Y-58202380D01*
X84064761Y-58345238D01*
X83969523Y-58440476D01*
X83874285Y-58488095D01*
%TO.C,N6*%
D17*
X219014523Y-57482619D02*
X217744523Y-57482619D01*
X219014523Y-56756904D01*
X217744523Y-56756904D01*
X217744523Y-55607857D02*
X217744523Y-55849761D01*
X217805000Y-55970714D01*
X217865476Y-56031190D01*
X218046904Y-56152142D01*
X218288809Y-56212619D01*
X218772619Y-56212619D01*
X218893571Y-56152142D01*
X218954047Y-56091666D01*
X219014523Y-55970714D01*
X219014523Y-55728809D01*
X218954047Y-55607857D01*
X218893571Y-55547380D01*
X218772619Y-55486904D01*
X218470238Y-55486904D01*
X218349285Y-55547380D01*
X218288809Y-55607857D01*
X218228333Y-55728809D01*
X218228333Y-55970714D01*
X218288809Y-56091666D01*
X218349285Y-56152142D01*
X218470238Y-56212619D01*
D16*
X225939047Y-57724523D02*
X225939047Y-56454523D01*
X226543809Y-57724523D02*
X226543809Y-56454523D01*
X227269523Y-57724523D01*
X227269523Y-56454523D01*
X227874285Y-57240714D02*
X228841904Y-57240714D01*
X230111904Y-57724523D02*
X229386190Y-57724523D01*
X229749047Y-57724523D02*
X229749047Y-56454523D01*
X229628095Y-56635952D01*
X229507142Y-56756904D01*
X229386190Y-56817380D01*
X231200476Y-56877857D02*
X231200476Y-57724523D01*
X230898095Y-56394047D02*
X230595714Y-57301190D01*
X231381904Y-57301190D01*
%TO.C,N5*%
D17*
X214409503Y-57482619D02*
X213139503Y-57482619D01*
X214409503Y-56756904D01*
X213139503Y-56756904D01*
X213139503Y-55547380D02*
X213139503Y-56152142D01*
X213744265Y-56212619D01*
X213683789Y-56152142D01*
X213623313Y-56031190D01*
X213623313Y-55728809D01*
X213683789Y-55607857D01*
X213744265Y-55547380D01*
X213865218Y-55486904D01*
X214167599Y-55486904D01*
X214288551Y-55547380D01*
X214349027Y-55607857D01*
X214409503Y-55728809D01*
X214409503Y-56031190D01*
X214349027Y-56152142D01*
X214288551Y-56212619D01*
D16*
X200539047Y-57724523D02*
X200539047Y-56454523D01*
X201143809Y-57724523D02*
X201143809Y-56454523D01*
X201869523Y-57724523D01*
X201869523Y-56454523D01*
X202474285Y-57240714D02*
X203441904Y-57240714D01*
X204711904Y-57724523D02*
X203986190Y-57724523D01*
X204349047Y-57724523D02*
X204349047Y-56454523D01*
X204228095Y-56635952D01*
X204107142Y-56756904D01*
X203986190Y-56817380D01*
X205800476Y-56877857D02*
X205800476Y-57724523D01*
X205498095Y-56394047D02*
X205195714Y-57301190D01*
X205981904Y-57301190D01*
%TO.C,N4*%
D17*
X178214503Y-57482619D02*
X176944503Y-57482619D01*
X178214503Y-56756904D01*
X176944503Y-56756904D01*
X177367837Y-55607857D02*
X178214503Y-55607857D01*
X176884027Y-55910238D02*
X177791170Y-56212619D01*
X177791170Y-55426428D01*
D16*
X164344047Y-57724523D02*
X164344047Y-56454523D01*
X164948809Y-57724523D02*
X164948809Y-56454523D01*
X165674523Y-57724523D01*
X165674523Y-56454523D01*
X166279285Y-57240714D02*
X167246904Y-57240714D01*
X168516904Y-57724523D02*
X167791190Y-57724523D01*
X168154047Y-57724523D02*
X168154047Y-56454523D01*
X168033095Y-56635952D01*
X167912142Y-56756904D01*
X167791190Y-56817380D01*
X169605476Y-56877857D02*
X169605476Y-57724523D01*
X169303095Y-56394047D02*
X169000714Y-57301190D01*
X169786904Y-57301190D01*
%TO.C,N3*%
D17*
X152814503Y-57482619D02*
X151544503Y-57482619D01*
X152814503Y-56756904D01*
X151544503Y-56756904D01*
X151544503Y-56273095D02*
X151544503Y-55486904D01*
X152028313Y-55910238D01*
X152028313Y-55728809D01*
X152088789Y-55607857D01*
X152149265Y-55547380D01*
X152270218Y-55486904D01*
X152572599Y-55486904D01*
X152693551Y-55547380D01*
X152754027Y-55607857D01*
X152814503Y-55728809D01*
X152814503Y-56091666D01*
X152754027Y-56212619D01*
X152693551Y-56273095D01*
D16*
X138944047Y-57724523D02*
X138944047Y-56454523D01*
X139548809Y-57724523D02*
X139548809Y-56454523D01*
X140274523Y-57724523D01*
X140274523Y-56454523D01*
X140879285Y-57240714D02*
X141846904Y-57240714D01*
X143116904Y-57724523D02*
X142391190Y-57724523D01*
X142754047Y-57724523D02*
X142754047Y-56454523D01*
X142633095Y-56635952D01*
X142512142Y-56756904D01*
X142391190Y-56817380D01*
X144205476Y-56877857D02*
X144205476Y-57724523D01*
X143903095Y-56394047D02*
X143600714Y-57301190D01*
X144386904Y-57301190D01*
%TO.C,N2*%
D17*
X116619503Y-57482619D02*
X115349503Y-57482619D01*
X116619503Y-56756904D01*
X115349503Y-56756904D01*
X115470456Y-56212619D02*
X115409980Y-56152142D01*
X115349503Y-56031190D01*
X115349503Y-55728809D01*
X115409980Y-55607857D01*
X115470456Y-55547380D01*
X115591408Y-55486904D01*
X115712360Y-55486904D01*
X115893789Y-55547380D01*
X116619503Y-56273095D01*
X116619503Y-55486904D01*
D16*
X102749047Y-57724523D02*
X102749047Y-56454523D01*
X103353809Y-57724523D02*
X103353809Y-56454523D01*
X104079523Y-57724523D01*
X104079523Y-56454523D01*
X104684285Y-57240714D02*
X105651904Y-57240714D01*
X106921904Y-57724523D02*
X106196190Y-57724523D01*
X106559047Y-57724523D02*
X106559047Y-56454523D01*
X106438095Y-56635952D01*
X106317142Y-56756904D01*
X106196190Y-56817380D01*
X108010476Y-56877857D02*
X108010476Y-57724523D01*
X107708095Y-56394047D02*
X107405714Y-57301190D01*
X108191904Y-57301190D01*
%TO.C,N1*%
D17*
X91219503Y-57482619D02*
X89949503Y-57482619D01*
X91219503Y-56756904D01*
X89949503Y-56756904D01*
X91219503Y-55486904D02*
X91219503Y-56212619D01*
X91219503Y-55849761D02*
X89949503Y-55849761D01*
X90130932Y-55970714D01*
X90251884Y-56091666D01*
X90312360Y-56212619D01*
D16*
X77349047Y-57724523D02*
X77349047Y-56454523D01*
X77953809Y-57724523D02*
X77953809Y-56454523D01*
X78679523Y-57724523D01*
X78679523Y-56454523D01*
X79284285Y-57240714D02*
X80251904Y-57240714D01*
X81521904Y-57724523D02*
X80796190Y-57724523D01*
X81159047Y-57724523D02*
X81159047Y-56454523D01*
X81038095Y-56635952D01*
X80917142Y-56756904D01*
X80796190Y-56817380D01*
X82610476Y-56877857D02*
X82610476Y-57724523D01*
X82308095Y-56394047D02*
X82005714Y-57301190D01*
X82791904Y-57301190D01*
%TO.C,R6*%
X219982347Y-69341996D02*
X220083362Y-68769576D01*
X219578286Y-68937935D02*
X220285392Y-68230828D01*
X220554767Y-68500202D01*
X220588438Y-68601217D01*
X220588438Y-68668561D01*
X220554767Y-68769576D01*
X220453751Y-68870591D01*
X220352736Y-68904263D01*
X220285392Y-68904263D01*
X220184377Y-68870591D01*
X219915003Y-68601217D01*
X221295545Y-69240981D02*
X221160858Y-69106294D01*
X221059843Y-69072622D01*
X220992499Y-69072622D01*
X220824141Y-69106294D01*
X220655782Y-69207309D01*
X220386408Y-69476683D01*
X220352736Y-69577698D01*
X220352736Y-69645042D01*
X220386408Y-69746057D01*
X220521095Y-69880744D01*
X220622110Y-69914416D01*
X220689454Y-69914416D01*
X220790469Y-69880744D01*
X220958828Y-69712385D01*
X220992499Y-69611370D01*
X220992499Y-69544027D01*
X220958828Y-69443011D01*
X220824141Y-69308324D01*
X220723125Y-69274653D01*
X220655782Y-69274653D01*
X220554767Y-69308324D01*
%TO.C,R5*%
X207922264Y-66226012D02*
X207349844Y-66124997D01*
X207518203Y-66630073D02*
X206811096Y-65922967D01*
X207080470Y-65653592D01*
X207181485Y-65619921D01*
X207248829Y-65619921D01*
X207349844Y-65653592D01*
X207450859Y-65754608D01*
X207484531Y-65855623D01*
X207484531Y-65922967D01*
X207450859Y-66023982D01*
X207181485Y-66293356D01*
X207854921Y-64879142D02*
X207518203Y-65215860D01*
X207821249Y-65586249D01*
X207821249Y-65518905D01*
X207854921Y-65417890D01*
X208023279Y-65249531D01*
X208124295Y-65215860D01*
X208191638Y-65215860D01*
X208292653Y-65249531D01*
X208461012Y-65417890D01*
X208494684Y-65518905D01*
X208494684Y-65586249D01*
X208461012Y-65687264D01*
X208292653Y-65855623D01*
X208191638Y-65889295D01*
X208124295Y-65889295D01*
%TO.C,R4*%
X158695347Y-69341996D02*
X158796362Y-68769576D01*
X158291286Y-68937935D02*
X158998392Y-68230828D01*
X159267767Y-68500202D01*
X159301438Y-68601217D01*
X159301438Y-68668561D01*
X159267767Y-68769576D01*
X159166751Y-68870591D01*
X159065736Y-68904263D01*
X158998392Y-68904263D01*
X158897377Y-68870591D01*
X158628003Y-68601217D01*
X159772843Y-69476683D02*
X159301438Y-69948088D01*
X159873858Y-69038950D02*
X159200423Y-69375668D01*
X159638156Y-69813401D01*
%TO.C,R3*%
X146635264Y-66226012D02*
X146062844Y-66124997D01*
X146231203Y-66630073D02*
X145524096Y-65922967D01*
X145793470Y-65653592D01*
X145894485Y-65619921D01*
X145961829Y-65619921D01*
X146062844Y-65653592D01*
X146163859Y-65754608D01*
X146197531Y-65855623D01*
X146197531Y-65922967D01*
X146163859Y-66023982D01*
X145894485Y-66293356D01*
X146163859Y-65283203D02*
X146601592Y-64845470D01*
X146635264Y-65350547D01*
X146736279Y-65249531D01*
X146837295Y-65215860D01*
X146904638Y-65215860D01*
X147005653Y-65249531D01*
X147174012Y-65417890D01*
X147207684Y-65518905D01*
X147207684Y-65586249D01*
X147174012Y-65687264D01*
X146971982Y-65889295D01*
X146870966Y-65922967D01*
X146803623Y-65922967D01*
%TO.C,R2*%
X96792347Y-69341996D02*
X96893362Y-68769576D01*
X96388286Y-68937935D02*
X97095392Y-68230828D01*
X97364767Y-68500202D01*
X97398438Y-68601217D01*
X97398438Y-68668561D01*
X97364767Y-68769576D01*
X97263751Y-68870591D01*
X97162736Y-68904263D01*
X97095392Y-68904263D01*
X96994377Y-68870591D01*
X96725003Y-68601217D01*
X97701484Y-68971607D02*
X97768828Y-68971607D01*
X97869843Y-69005278D01*
X98038202Y-69173637D01*
X98071873Y-69274653D01*
X98071873Y-69341996D01*
X98038202Y-69443011D01*
X97970858Y-69510355D01*
X97836171Y-69577698D01*
X97028049Y-69577698D01*
X97465782Y-70015431D01*
%TO.C,R1*%
X85040264Y-66226012D02*
X84467844Y-66124997D01*
X84636203Y-66630073D02*
X83929096Y-65922967D01*
X84198470Y-65653592D01*
X84299485Y-65619921D01*
X84366829Y-65619921D01*
X84467844Y-65653592D01*
X84568859Y-65754608D01*
X84602531Y-65855623D01*
X84602531Y-65922967D01*
X84568859Y-66023982D01*
X84299485Y-66293356D01*
X85713699Y-65552577D02*
X85309638Y-65956638D01*
X85511669Y-65754608D02*
X84804562Y-65047501D01*
X84838234Y-65215860D01*
X84838234Y-65350547D01*
X84804562Y-65451562D01*
%TD*%
M02*
