%TF.GenerationSoftware,KiCad,Pcbnew,(5.1.7-0-10_14)*%
%TF.CreationDate,2020-10-12T21:23:20+02:00*%
%TF.ProjectId,nixie_board,6e697869-655f-4626-9f61-72642e6b6963,rev?*%
%TF.SameCoordinates,Original*%
%TF.FileFunction,Soldermask,Bot*%
%TF.FilePolarity,Negative*%
%FSLAX46Y46*%
G04 Gerber Fmt 4.6, Leading zero omitted, Abs format (unit mm)*
G04 Created by KiCad (PCBNEW (5.1.7-0-10_14)) date 2020-10-12 21:23:20*
%MOMM*%
%LPD*%
G01*
G04 APERTURE LIST*
%ADD10R,1.500000X1.500000*%
%ADD11C,1.500000*%
%ADD12C,1.600000*%
%ADD13O,1.600000X1.600000*%
%ADD14C,1.107440*%
%ADD15C,2.499360*%
%ADD16R,2.499360X2.499360*%
%ADD17O,2.000000X1.600000*%
%ADD18R,2.000000X2.000000*%
%ADD19R,3.500000X3.500000*%
%ADD20R,1.600000X1.600000*%
%ADD21C,3.200000*%
%ADD22C,1.346200*%
%ADD23O,1.905000X2.000000*%
%ADD24R,1.905000X2.000000*%
%ADD25O,3.500000X3.500000*%
G04 APERTURE END LIST*
D10*
%TO.C,U15*%
X56515000Y-26670000D03*
D11*
X51435000Y-26670000D03*
X53975000Y-26670000D03*
%TD*%
D10*
%TO.C,Q4*%
X248920000Y-44450000D03*
D11*
X248920000Y-39370000D03*
X251460000Y-41910000D03*
%TD*%
D10*
%TO.C,Q3*%
X186690000Y-44450000D03*
D11*
X181610000Y-44450000D03*
X184150000Y-41910000D03*
%TD*%
D10*
%TO.C,Q2*%
X125095000Y-44450000D03*
D11*
X120015000Y-44450000D03*
X122555000Y-41910000D03*
%TD*%
D10*
%TO.C,Q1*%
X256540000Y-44450000D03*
D11*
X256540000Y-39370000D03*
X259080000Y-41910000D03*
%TD*%
D12*
%TO.C,C14*%
X234950000Y-36910000D03*
X234950000Y-41910000D03*
%TD*%
%TO.C,C13*%
X177800000Y-41355000D03*
X177800000Y-46355000D03*
%TD*%
%TO.C,C12*%
X215900000Y-64135000D03*
X215900000Y-59135000D03*
%TD*%
%TO.C,C11*%
X116205000Y-41355000D03*
X116205000Y-46355000D03*
%TD*%
%TO.C,C10*%
X153670000Y-64055000D03*
X153670000Y-59055000D03*
%TD*%
%TO.C,C9*%
X92710000Y-64055000D03*
X92710000Y-59055000D03*
%TD*%
%TO.C,C6*%
X95885000Y-72390000D03*
X95885000Y-77390000D03*
%TD*%
%TO.C,C5*%
X183515000Y-72470000D03*
X183515000Y-77470000D03*
%TD*%
%TO.C,C4*%
X154305000Y-72470000D03*
X154305000Y-77470000D03*
%TD*%
%TO.C,C3*%
X124460000Y-72470000D03*
X124460000Y-77470000D03*
%TD*%
%TO.C,C2*%
X213360000Y-71835000D03*
X213360000Y-76835000D03*
%TD*%
%TO.C,C1*%
X242443000Y-77089000D03*
X242443000Y-72089000D03*
%TD*%
D13*
%TO.C,R15*%
X242570000Y-53340000D03*
D12*
X242570000Y-45720000D03*
%TD*%
D13*
%TO.C,R14*%
X191135000Y-49530000D03*
D12*
X191135000Y-41910000D03*
%TD*%
D13*
%TO.C,R13*%
X182880000Y-25400000D03*
D12*
X182880000Y-33020000D03*
%TD*%
D13*
%TO.C,R12*%
X129540000Y-49530000D03*
D12*
X129540000Y-41910000D03*
%TD*%
D13*
%TO.C,R11*%
X124460000Y-25400000D03*
D12*
X124460000Y-33020000D03*
%TD*%
D13*
%TO.C,R10*%
X256540000Y-48260000D03*
D12*
X248920000Y-48260000D03*
%TD*%
D13*
%TO.C,R9*%
X59055000Y-39370000D03*
D12*
X51435000Y-39370000D03*
%TD*%
D13*
%TO.C,R8*%
X59055000Y-44450000D03*
D12*
X51435000Y-44450000D03*
%TD*%
%TO.C,R6*%
G36*
G01*
X222627469Y-40262531D02*
X222627469Y-40262531D01*
G75*
G02*
X222627469Y-39131161I565685J565685D01*
G01*
X222627469Y-39131161D01*
G75*
G02*
X223758839Y-39131161I565685J-565685D01*
G01*
X223758839Y-39131161D01*
G75*
G02*
X223758839Y-40262531I-565685J-565685D01*
G01*
X223758839Y-40262531D01*
G75*
G02*
X222627469Y-40262531I-565685J565685D01*
G01*
G37*
X217805000Y-45085000D03*
%TD*%
%TO.C,R5*%
G36*
G01*
X209172531Y-40262531D02*
X209172531Y-40262531D01*
G75*
G02*
X208041161Y-40262531I-565685J565685D01*
G01*
X208041161Y-40262531D01*
G75*
G02*
X208041161Y-39131161I565685J565685D01*
G01*
X208041161Y-39131161D01*
G75*
G02*
X209172531Y-39131161I565685J-565685D01*
G01*
X209172531Y-39131161D01*
G75*
G02*
X209172531Y-40262531I-565685J-565685D01*
G01*
G37*
X213995000Y-45085000D03*
%TD*%
%TO.C,R4*%
G36*
G01*
X161032469Y-40262531D02*
X161032469Y-40262531D01*
G75*
G02*
X161032469Y-39131161I565685J565685D01*
G01*
X161032469Y-39131161D01*
G75*
G02*
X162163839Y-39131161I565685J-565685D01*
G01*
X162163839Y-39131161D01*
G75*
G02*
X162163839Y-40262531I-565685J-565685D01*
G01*
X162163839Y-40262531D01*
G75*
G02*
X161032469Y-40262531I-565685J565685D01*
G01*
G37*
X156210000Y-45085000D03*
%TD*%
%TO.C,R3*%
G36*
G01*
X147577531Y-40262531D02*
X147577531Y-40262531D01*
G75*
G02*
X146446161Y-40262531I-565685J565685D01*
G01*
X146446161Y-40262531D01*
G75*
G02*
X146446161Y-39131161I565685J565685D01*
G01*
X146446161Y-39131161D01*
G75*
G02*
X147577531Y-39131161I565685J-565685D01*
G01*
X147577531Y-39131161D01*
G75*
G02*
X147577531Y-40262531I-565685J-565685D01*
G01*
G37*
X152400000Y-45085000D03*
%TD*%
%TO.C,R2*%
G36*
G01*
X99437469Y-40262531D02*
X99437469Y-40262531D01*
G75*
G02*
X99437469Y-39131161I565685J565685D01*
G01*
X99437469Y-39131161D01*
G75*
G02*
X100568839Y-39131161I565685J-565685D01*
G01*
X100568839Y-39131161D01*
G75*
G02*
X100568839Y-40262531I-565685J-565685D01*
G01*
X100568839Y-40262531D01*
G75*
G02*
X99437469Y-40262531I-565685J565685D01*
G01*
G37*
X94615000Y-45085000D03*
%TD*%
%TO.C,R1*%
G36*
G01*
X85982531Y-40262531D02*
X85982531Y-40262531D01*
G75*
G02*
X84851161Y-40262531I-565685J565685D01*
G01*
X84851161Y-40262531D01*
G75*
G02*
X84851161Y-39131161I565685J565685D01*
G01*
X84851161Y-39131161D01*
G75*
G02*
X85982531Y-39131161I565685J-565685D01*
G01*
X85982531Y-39131161D01*
G75*
G02*
X85982531Y-40262531I-565685J-565685D01*
G01*
G37*
X90805000Y-45085000D03*
%TD*%
D14*
%TO.C,NR1*%
X186689500Y-52070000D03*
X183514500Y-52070000D03*
%TD*%
%TO.C,NL1*%
X121983500Y-52070000D03*
X125158500Y-52070000D03*
%TD*%
D15*
%TO.C,JP1*%
X242570000Y-34290000D03*
X242570000Y-37465000D03*
D16*
X242570000Y-40640000D03*
%TD*%
D17*
%TO.C,U3*%
X66675000Y-57150000D03*
X66675000Y-54610000D03*
X66675000Y-52070000D03*
X66675000Y-49530000D03*
X66675000Y-46990000D03*
X66675000Y-44450000D03*
X66675000Y-41910000D03*
X66675000Y-39370000D03*
X43815000Y-39370000D03*
X43815000Y-41910000D03*
X43815000Y-44450000D03*
X43815000Y-46990000D03*
X43815000Y-49530000D03*
X43815000Y-52070000D03*
D18*
X43815000Y-57150000D03*
D17*
X43815000Y-54610000D03*
%TD*%
%TO.C,J5*%
G36*
G01*
X255285000Y-30810000D02*
X257035000Y-30810000D01*
G75*
G02*
X257910000Y-31685000I0J-875000D01*
G01*
X257910000Y-33435000D01*
G75*
G02*
X257035000Y-34310000I-875000J0D01*
G01*
X255285000Y-34310000D01*
G75*
G02*
X254410000Y-33435000I0J875000D01*
G01*
X254410000Y-31685000D01*
G75*
G02*
X255285000Y-30810000I875000J0D01*
G01*
G37*
G36*
G01*
X250460000Y-28060000D02*
X252460000Y-28060000D01*
G75*
G02*
X253210000Y-28810000I0J-750000D01*
G01*
X253210000Y-30310000D01*
G75*
G02*
X252460000Y-31060000I-750000J0D01*
G01*
X250460000Y-31060000D01*
G75*
G02*
X249710000Y-30310000I0J750000D01*
G01*
X249710000Y-28810000D01*
G75*
G02*
X250460000Y-28060000I750000J0D01*
G01*
G37*
D19*
X251460000Y-35560000D03*
%TD*%
D12*
%TO.C,C17*%
X242570000Y-64040000D03*
D20*
X242570000Y-66040000D03*
%TD*%
D12*
%TO.C,C16*%
X64040000Y-26670000D03*
D20*
X66040000Y-26670000D03*
%TD*%
D21*
%TO.C,M4*%
X44450000Y-78740000D03*
%TD*%
%TO.C,M2*%
X264160000Y-25400000D03*
%TD*%
%TO.C,M3*%
X264160000Y-78740000D03*
%TD*%
%TO.C,M1*%
X44450000Y-25400000D03*
%TD*%
D20*
%TO.C,C15*%
X185420000Y-62230000D03*
D12*
X183420000Y-62230000D03*
%TD*%
D15*
%TO.C,J4*%
X264160000Y-57150000D03*
%TD*%
D12*
%TO.C,C7*%
X264160000Y-35560000D03*
D20*
X261660000Y-35560000D03*
%TD*%
D22*
%TO.C,N6*%
X231475280Y-46591220D03*
X225724720Y-46591220D03*
X228600000Y-45882560D03*
X222455740Y-51325780D03*
X222813880Y-54264560D03*
X224495360Y-56702960D03*
X227119180Y-58079640D03*
X230080820Y-58079640D03*
X232704640Y-56702960D03*
X234386120Y-54264560D03*
X234744260Y-51325780D03*
X233692700Y-48554640D03*
X223507300Y-48554640D03*
%TD*%
%TO.C,N5*%
X206075280Y-46591220D03*
X200324720Y-46591220D03*
X203200000Y-45882560D03*
X197055740Y-51325780D03*
X197413880Y-54264560D03*
X199095360Y-56702960D03*
X201719180Y-58079640D03*
X204680820Y-58079640D03*
X207304640Y-56702960D03*
X208986120Y-54264560D03*
X209344260Y-51325780D03*
X208292700Y-48554640D03*
X198107300Y-48554640D03*
%TD*%
%TO.C,N4*%
X169880280Y-46591220D03*
X164129720Y-46591220D03*
X167005000Y-45882560D03*
X160860740Y-51325780D03*
X161218880Y-54264560D03*
X162900360Y-56702960D03*
X165524180Y-58079640D03*
X168485820Y-58079640D03*
X171109640Y-56702960D03*
X172791120Y-54264560D03*
X173149260Y-51325780D03*
X172097700Y-48554640D03*
X161912300Y-48554640D03*
%TD*%
%TO.C,N3*%
X144480280Y-46591220D03*
X138729720Y-46591220D03*
X141605000Y-45882560D03*
X135460740Y-51325780D03*
X135818880Y-54264560D03*
X137500360Y-56702960D03*
X140124180Y-58079640D03*
X143085820Y-58079640D03*
X145709640Y-56702960D03*
X147391120Y-54264560D03*
X147749260Y-51325780D03*
X146697700Y-48554640D03*
X136512300Y-48554640D03*
%TD*%
%TO.C,N2*%
X108285280Y-46591220D03*
X102534720Y-46591220D03*
X105410000Y-45882560D03*
X99265740Y-51325780D03*
X99623880Y-54264560D03*
X101305360Y-56702960D03*
X103929180Y-58079640D03*
X106890820Y-58079640D03*
X109514640Y-56702960D03*
X111196120Y-54264560D03*
X111554260Y-51325780D03*
X110502700Y-48554640D03*
X100317300Y-48554640D03*
%TD*%
%TO.C,N1*%
X82885280Y-46591220D03*
X77134720Y-46591220D03*
X80010000Y-45882560D03*
X73865740Y-51325780D03*
X74223880Y-54264560D03*
X75905360Y-56702960D03*
X78529180Y-58079640D03*
X81490820Y-58079640D03*
X84114640Y-56702960D03*
X85796120Y-54264560D03*
X86154260Y-51325780D03*
X85102700Y-48554640D03*
X74917300Y-48554640D03*
%TD*%
D11*
%TO.C,R7*%
X53750000Y-77470000D03*
X57150000Y-77470000D03*
%TD*%
D12*
%TO.C,C8*%
X124460000Y-62230000D03*
D20*
X122460000Y-62230000D03*
%TD*%
D13*
%TO.C,U14*%
X236855000Y-70485000D03*
X219075000Y-78105000D03*
X234315000Y-70485000D03*
X221615000Y-78105000D03*
X231775000Y-70485000D03*
X224155000Y-78105000D03*
X229235000Y-70485000D03*
X226695000Y-78105000D03*
X226695000Y-70485000D03*
X229235000Y-78105000D03*
X224155000Y-70485000D03*
X231775000Y-78105000D03*
X221615000Y-70485000D03*
X234315000Y-78105000D03*
X219075000Y-70485000D03*
D20*
X236855000Y-78105000D03*
%TD*%
D13*
%TO.C,U13*%
X218440000Y-33020000D03*
X236220000Y-25400000D03*
X220980000Y-33020000D03*
X233680000Y-25400000D03*
X223520000Y-33020000D03*
X231140000Y-25400000D03*
X226060000Y-33020000D03*
X228600000Y-25400000D03*
X228600000Y-33020000D03*
X226060000Y-25400000D03*
X231140000Y-33020000D03*
X223520000Y-25400000D03*
X233680000Y-33020000D03*
X220980000Y-25400000D03*
X236220000Y-33020000D03*
D20*
X218440000Y-25400000D03*
%TD*%
D23*
%TO.C,U12*%
X255270000Y-59690000D03*
X252730000Y-59690000D03*
D24*
X250190000Y-59690000D03*
D25*
X252730000Y-76350000D03*
%TD*%
D13*
%TO.C,U11*%
X207645000Y-70485000D03*
X189865000Y-78105000D03*
X205105000Y-70485000D03*
X192405000Y-78105000D03*
X202565000Y-70485000D03*
X194945000Y-78105000D03*
X200025000Y-70485000D03*
X197485000Y-78105000D03*
X197485000Y-70485000D03*
X200025000Y-78105000D03*
X194945000Y-70485000D03*
X202565000Y-78105000D03*
X192405000Y-70485000D03*
X205105000Y-78105000D03*
X189865000Y-70485000D03*
D20*
X207645000Y-78105000D03*
%TD*%
D13*
%TO.C,U10*%
X204470000Y-25400000D03*
X189230000Y-33020000D03*
X201930000Y-25400000D03*
X191770000Y-33020000D03*
X199390000Y-25400000D03*
X194310000Y-33020000D03*
X196850000Y-25400000D03*
X196850000Y-33020000D03*
X194310000Y-25400000D03*
X199390000Y-33020000D03*
X191770000Y-25400000D03*
X201930000Y-33020000D03*
X189230000Y-25400000D03*
D20*
X204470000Y-33020000D03*
%TD*%
D13*
%TO.C,U9*%
X177800000Y-70485000D03*
X160020000Y-78105000D03*
X175260000Y-70485000D03*
X162560000Y-78105000D03*
X172720000Y-70485000D03*
X165100000Y-78105000D03*
X170180000Y-70485000D03*
X167640000Y-78105000D03*
X167640000Y-70485000D03*
X170180000Y-78105000D03*
X165100000Y-70485000D03*
X172720000Y-78105000D03*
X162560000Y-70485000D03*
X175260000Y-78105000D03*
X160020000Y-70485000D03*
D20*
X177800000Y-78105000D03*
%TD*%
D13*
%TO.C,U8*%
X160020000Y-33020000D03*
X177800000Y-25400000D03*
X162560000Y-33020000D03*
X175260000Y-25400000D03*
X165100000Y-33020000D03*
X172720000Y-25400000D03*
X167640000Y-33020000D03*
X170180000Y-25400000D03*
X170180000Y-33020000D03*
X167640000Y-25400000D03*
X172720000Y-33020000D03*
X165100000Y-25400000D03*
X175260000Y-33020000D03*
X162560000Y-25400000D03*
X177800000Y-33020000D03*
D20*
X160020000Y-25400000D03*
%TD*%
D13*
%TO.C,U7*%
X148590000Y-71120000D03*
X130810000Y-78740000D03*
X146050000Y-71120000D03*
X133350000Y-78740000D03*
X143510000Y-71120000D03*
X135890000Y-78740000D03*
X140970000Y-71120000D03*
X138430000Y-78740000D03*
X138430000Y-71120000D03*
X140970000Y-78740000D03*
X135890000Y-71120000D03*
X143510000Y-78740000D03*
X133350000Y-71120000D03*
X146050000Y-78740000D03*
X130810000Y-71120000D03*
D20*
X148590000Y-78740000D03*
%TD*%
D13*
%TO.C,U6*%
X146050000Y-25400000D03*
X130810000Y-33020000D03*
X143510000Y-25400000D03*
X133350000Y-33020000D03*
X140970000Y-25400000D03*
X135890000Y-33020000D03*
X138430000Y-25400000D03*
X138430000Y-33020000D03*
X135890000Y-25400000D03*
X140970000Y-33020000D03*
X133350000Y-25400000D03*
X143510000Y-33020000D03*
X130810000Y-25400000D03*
D20*
X146050000Y-33020000D03*
%TD*%
D13*
%TO.C,U5*%
X118745000Y-71120000D03*
X100965000Y-78740000D03*
X116205000Y-71120000D03*
X103505000Y-78740000D03*
X113665000Y-71120000D03*
X106045000Y-78740000D03*
X111125000Y-71120000D03*
X108585000Y-78740000D03*
X108585000Y-71120000D03*
X111125000Y-78740000D03*
X106045000Y-71120000D03*
X113665000Y-78740000D03*
X103505000Y-71120000D03*
X116205000Y-78740000D03*
X100965000Y-71120000D03*
D20*
X118745000Y-78740000D03*
%TD*%
D13*
%TO.C,U4*%
X101600000Y-33020000D03*
X119380000Y-25400000D03*
X104140000Y-33020000D03*
X116840000Y-25400000D03*
X106680000Y-33020000D03*
X114300000Y-25400000D03*
X109220000Y-33020000D03*
X111760000Y-25400000D03*
X111760000Y-33020000D03*
X109220000Y-25400000D03*
X114300000Y-33020000D03*
X106680000Y-25400000D03*
X116840000Y-33020000D03*
X104140000Y-25400000D03*
X119380000Y-33020000D03*
D20*
X101600000Y-25400000D03*
%TD*%
D13*
%TO.C,U2*%
X90170000Y-71120000D03*
X72390000Y-78740000D03*
X87630000Y-71120000D03*
X74930000Y-78740000D03*
X85090000Y-71120000D03*
X77470000Y-78740000D03*
X82550000Y-71120000D03*
X80010000Y-78740000D03*
X80010000Y-71120000D03*
X82550000Y-78740000D03*
X77470000Y-71120000D03*
X85090000Y-78740000D03*
X74930000Y-71120000D03*
X87630000Y-78740000D03*
X72390000Y-71120000D03*
D20*
X90170000Y-78740000D03*
%TD*%
D13*
%TO.C,U1*%
X87630000Y-25400000D03*
X72390000Y-33020000D03*
X85090000Y-25400000D03*
X74930000Y-33020000D03*
X82550000Y-25400000D03*
X77470000Y-33020000D03*
X80010000Y-25400000D03*
X80010000Y-33020000D03*
X77470000Y-25400000D03*
X82550000Y-33020000D03*
X74930000Y-25400000D03*
X85090000Y-33020000D03*
X72390000Y-25400000D03*
D20*
X87630000Y-33020000D03*
%TD*%
D15*
%TO.C,J3*%
X264160000Y-52070000D03*
%TD*%
%TO.C,J2*%
X264160000Y-62230000D03*
%TD*%
%TO.C,J1*%
X264160000Y-46990000D03*
%TD*%
M02*
