%TF.GenerationSoftware,KiCad,Pcbnew,(5.1.7-0-10_14)*%
%TF.CreationDate,2020-10-11T18:19:48+02:00*%
%TF.ProjectId,nixie_board,6e697869-655f-4626-9f61-72642e6b6963,rev?*%
%TF.SameCoordinates,Original*%
%TF.FileFunction,Legend,Bot*%
%TF.FilePolarity,Positive*%
%FSLAX46Y46*%
G04 Gerber Fmt 4.6, Leading zero omitted, Abs format (unit mm)*
G04 Created by KiCad (PCBNEW (5.1.7-0-10_14)) date 2020-10-11 18:19:48*
%MOMM*%
%LPD*%
G01*
G04 APERTURE LIST*
%ADD10C,0.200000*%
%ADD11C,0.120000*%
%ADD12C,0.150000*%
%ADD13C,0.010000*%
G04 APERTURE END LIST*
D10*
X252555952Y-70572380D02*
X252555952Y-71286666D01*
X252508333Y-71429523D01*
X252413095Y-71524761D01*
X252270238Y-71572380D01*
X252175000Y-71572380D01*
X253508333Y-71572380D02*
X253032142Y-71572380D01*
X253032142Y-70572380D01*
X254413095Y-71477142D02*
X254365476Y-71524761D01*
X254222619Y-71572380D01*
X254127380Y-71572380D01*
X253984523Y-71524761D01*
X253889285Y-71429523D01*
X253841666Y-71334285D01*
X253794047Y-71143809D01*
X253794047Y-71000952D01*
X253841666Y-70810476D01*
X253889285Y-70715238D01*
X253984523Y-70620000D01*
X254127380Y-70572380D01*
X254222619Y-70572380D01*
X254365476Y-70620000D01*
X254413095Y-70667619D01*
X255127380Y-70572380D02*
X255127380Y-71286666D01*
X255079761Y-71429523D01*
X254984523Y-71524761D01*
X254841666Y-71572380D01*
X254746428Y-71572380D01*
X256079761Y-71572380D02*
X255603571Y-71572380D01*
X255603571Y-70572380D01*
X256984523Y-71477142D02*
X256936904Y-71524761D01*
X256794047Y-71572380D01*
X256698809Y-71572380D01*
X256555952Y-71524761D01*
X256460714Y-71429523D01*
X256413095Y-71334285D01*
X256365476Y-71143809D01*
X256365476Y-71000952D01*
X256413095Y-70810476D01*
X256460714Y-70715238D01*
X256555952Y-70620000D01*
X256698809Y-70572380D01*
X256794047Y-70572380D01*
X256936904Y-70620000D01*
X256984523Y-70667619D01*
X257698809Y-70572380D02*
X257698809Y-71286666D01*
X257651190Y-71429523D01*
X257555952Y-71524761D01*
X257413095Y-71572380D01*
X257317857Y-71572380D01*
X258651190Y-71572380D02*
X258175000Y-71572380D01*
X258175000Y-70572380D01*
X259555952Y-71477142D02*
X259508333Y-71524761D01*
X259365476Y-71572380D01*
X259270238Y-71572380D01*
X259127380Y-71524761D01*
X259032142Y-71429523D01*
X258984523Y-71334285D01*
X258936904Y-71143809D01*
X258936904Y-71000952D01*
X258984523Y-70810476D01*
X259032142Y-70715238D01*
X259127380Y-70620000D01*
X259270238Y-70572380D01*
X259365476Y-70572380D01*
X259508333Y-70620000D01*
X259555952Y-70667619D01*
X260270238Y-70572380D02*
X260270238Y-71286666D01*
X260222619Y-71429523D01*
X260127380Y-71524761D01*
X259984523Y-71572380D01*
X259889285Y-71572380D01*
X261222619Y-71572380D02*
X260746428Y-71572380D01*
X260746428Y-70572380D01*
X262127380Y-71477142D02*
X262079761Y-71524761D01*
X261936904Y-71572380D01*
X261841666Y-71572380D01*
X261698809Y-71524761D01*
X261603571Y-71429523D01*
X261555952Y-71334285D01*
X261508333Y-71143809D01*
X261508333Y-71000952D01*
X261555952Y-70810476D01*
X261603571Y-70715238D01*
X261698809Y-70620000D01*
X261841666Y-70572380D01*
X261936904Y-70572380D01*
X262079761Y-70620000D01*
X262127380Y-70667619D01*
D11*
%TO.C,U3*%
X44855000Y-31030000D02*
X68175000Y-31030000D01*
X42315000Y-37930000D02*
X42315000Y-63360000D01*
X68175000Y-31030000D02*
X68175000Y-63360000D01*
X66055000Y-65490000D02*
X44445000Y-65490000D01*
D12*
G36*
X41275000Y-57785000D02*
G01*
X41275000Y-56515000D01*
X41910000Y-57150000D01*
X41275000Y-57785000D01*
G37*
X41275000Y-57785000D02*
X41275000Y-56515000D01*
X41910000Y-57150000D01*
X41275000Y-57785000D01*
D11*
X42315000Y-37930000D02*
X44855000Y-37930000D01*
X44855000Y-37930000D02*
X44855000Y-31030000D01*
X66045000Y-65490000D02*
G75*
G03*
X68175000Y-63360000I0J2130000D01*
G01*
X42315000Y-63360000D02*
G75*
G03*
X44445000Y-65490000I2130000J0D01*
G01*
%TO.C,J5*%
X247710000Y-36660000D02*
X246660000Y-36660000D01*
X246660000Y-35610000D02*
X246660000Y-36660000D01*
X256060000Y-30560000D02*
X256060000Y-21760000D01*
X256060000Y-21760000D02*
X246860000Y-21760000D01*
X253360000Y-36460000D02*
X256060000Y-36460000D01*
X256060000Y-36460000D02*
X256060000Y-34560000D01*
X246860000Y-21760000D02*
X246860000Y-36460000D01*
X246860000Y-36460000D02*
X249460000Y-36460000D01*
%TO.C,C17*%
X252540000Y-66040000D02*
G75*
G03*
X252540000Y-66040000I-2620000J0D01*
G01*
X249920000Y-65000000D02*
X249920000Y-63460000D01*
X249920000Y-68620000D02*
X249920000Y-67080000D01*
X249960000Y-65000000D02*
X249960000Y-63460000D01*
X249960000Y-68620000D02*
X249960000Y-67080000D01*
X250000000Y-68619000D02*
X250000000Y-67080000D01*
X250000000Y-65000000D02*
X250000000Y-63461000D01*
X250040000Y-68618000D02*
X250040000Y-67080000D01*
X250040000Y-65000000D02*
X250040000Y-63462000D01*
X250080000Y-68616000D02*
X250080000Y-67080000D01*
X250080000Y-65000000D02*
X250080000Y-63464000D01*
X250120000Y-68613000D02*
X250120000Y-67080000D01*
X250120000Y-65000000D02*
X250120000Y-63467000D01*
X250160000Y-68609000D02*
X250160000Y-67080000D01*
X250160000Y-65000000D02*
X250160000Y-63471000D01*
X250200000Y-68605000D02*
X250200000Y-67080000D01*
X250200000Y-65000000D02*
X250200000Y-63475000D01*
X250240000Y-68601000D02*
X250240000Y-67080000D01*
X250240000Y-65000000D02*
X250240000Y-63479000D01*
X250280000Y-68596000D02*
X250280000Y-67080000D01*
X250280000Y-65000000D02*
X250280000Y-63484000D01*
X250320000Y-68590000D02*
X250320000Y-67080000D01*
X250320000Y-65000000D02*
X250320000Y-63490000D01*
X250360000Y-68583000D02*
X250360000Y-67080000D01*
X250360000Y-65000000D02*
X250360000Y-63497000D01*
X250400000Y-68576000D02*
X250400000Y-67080000D01*
X250400000Y-65000000D02*
X250400000Y-63504000D01*
X250440000Y-68568000D02*
X250440000Y-67080000D01*
X250440000Y-65000000D02*
X250440000Y-63512000D01*
X250480000Y-68560000D02*
X250480000Y-67080000D01*
X250480000Y-65000000D02*
X250480000Y-63520000D01*
X250520000Y-68551000D02*
X250520000Y-67080000D01*
X250520000Y-65000000D02*
X250520000Y-63529000D01*
X250560000Y-68541000D02*
X250560000Y-67080000D01*
X250560000Y-65000000D02*
X250560000Y-63539000D01*
X250600000Y-68531000D02*
X250600000Y-67080000D01*
X250600000Y-65000000D02*
X250600000Y-63549000D01*
X250641000Y-68520000D02*
X250641000Y-67080000D01*
X250641000Y-65000000D02*
X250641000Y-63560000D01*
X250681000Y-68508000D02*
X250681000Y-67080000D01*
X250681000Y-65000000D02*
X250681000Y-63572000D01*
X250721000Y-68495000D02*
X250721000Y-67080000D01*
X250721000Y-65000000D02*
X250721000Y-63585000D01*
X250761000Y-68482000D02*
X250761000Y-67080000D01*
X250761000Y-65000000D02*
X250761000Y-63598000D01*
X250801000Y-68468000D02*
X250801000Y-67080000D01*
X250801000Y-65000000D02*
X250801000Y-63612000D01*
X250841000Y-68454000D02*
X250841000Y-67080000D01*
X250841000Y-65000000D02*
X250841000Y-63626000D01*
X250881000Y-68438000D02*
X250881000Y-67080000D01*
X250881000Y-65000000D02*
X250881000Y-63642000D01*
X250921000Y-68422000D02*
X250921000Y-67080000D01*
X250921000Y-65000000D02*
X250921000Y-63658000D01*
X250961000Y-68405000D02*
X250961000Y-67080000D01*
X250961000Y-65000000D02*
X250961000Y-63675000D01*
X251001000Y-68388000D02*
X251001000Y-67080000D01*
X251001000Y-65000000D02*
X251001000Y-63692000D01*
X251041000Y-68369000D02*
X251041000Y-67080000D01*
X251041000Y-65000000D02*
X251041000Y-63711000D01*
X251081000Y-68350000D02*
X251081000Y-67080000D01*
X251081000Y-65000000D02*
X251081000Y-63730000D01*
X251121000Y-68330000D02*
X251121000Y-67080000D01*
X251121000Y-65000000D02*
X251121000Y-63750000D01*
X251161000Y-68308000D02*
X251161000Y-67080000D01*
X251161000Y-65000000D02*
X251161000Y-63772000D01*
X251201000Y-68287000D02*
X251201000Y-67080000D01*
X251201000Y-65000000D02*
X251201000Y-63793000D01*
X251241000Y-68264000D02*
X251241000Y-67080000D01*
X251241000Y-65000000D02*
X251241000Y-63816000D01*
X251281000Y-68240000D02*
X251281000Y-67080000D01*
X251281000Y-65000000D02*
X251281000Y-63840000D01*
X251321000Y-68215000D02*
X251321000Y-67080000D01*
X251321000Y-65000000D02*
X251321000Y-63865000D01*
X251361000Y-68189000D02*
X251361000Y-67080000D01*
X251361000Y-65000000D02*
X251361000Y-63891000D01*
X251401000Y-68162000D02*
X251401000Y-67080000D01*
X251401000Y-65000000D02*
X251401000Y-63918000D01*
X251441000Y-68135000D02*
X251441000Y-67080000D01*
X251441000Y-65000000D02*
X251441000Y-63945000D01*
X251481000Y-68105000D02*
X251481000Y-67080000D01*
X251481000Y-65000000D02*
X251481000Y-63975000D01*
X251521000Y-68075000D02*
X251521000Y-67080000D01*
X251521000Y-65000000D02*
X251521000Y-64005000D01*
X251561000Y-68044000D02*
X251561000Y-67080000D01*
X251561000Y-65000000D02*
X251561000Y-64036000D01*
X251601000Y-68011000D02*
X251601000Y-67080000D01*
X251601000Y-65000000D02*
X251601000Y-64069000D01*
X251641000Y-67977000D02*
X251641000Y-67080000D01*
X251641000Y-65000000D02*
X251641000Y-64103000D01*
X251681000Y-67941000D02*
X251681000Y-67080000D01*
X251681000Y-65000000D02*
X251681000Y-64139000D01*
X251721000Y-67904000D02*
X251721000Y-67080000D01*
X251721000Y-65000000D02*
X251721000Y-64176000D01*
X251761000Y-67866000D02*
X251761000Y-67080000D01*
X251761000Y-65000000D02*
X251761000Y-64214000D01*
X251801000Y-67825000D02*
X251801000Y-67080000D01*
X251801000Y-65000000D02*
X251801000Y-64255000D01*
X251841000Y-67783000D02*
X251841000Y-67080000D01*
X251841000Y-65000000D02*
X251841000Y-64297000D01*
X251881000Y-67739000D02*
X251881000Y-67080000D01*
X251881000Y-65000000D02*
X251881000Y-64341000D01*
X251921000Y-67693000D02*
X251921000Y-67080000D01*
X251921000Y-65000000D02*
X251921000Y-64387000D01*
X251961000Y-67645000D02*
X251961000Y-64435000D01*
X252001000Y-67594000D02*
X252001000Y-64486000D01*
X252041000Y-67540000D02*
X252041000Y-64540000D01*
X252081000Y-67483000D02*
X252081000Y-64597000D01*
X252121000Y-67423000D02*
X252121000Y-64657000D01*
X252161000Y-67359000D02*
X252161000Y-64721000D01*
X252201000Y-67291000D02*
X252201000Y-64789000D01*
X252241000Y-67218000D02*
X252241000Y-64862000D01*
X252281000Y-67138000D02*
X252281000Y-64942000D01*
X252321000Y-67051000D02*
X252321000Y-65029000D01*
X252361000Y-66955000D02*
X252361000Y-65125000D01*
X252401000Y-66845000D02*
X252401000Y-65235000D01*
X252441000Y-66717000D02*
X252441000Y-65363000D01*
X252481000Y-66558000D02*
X252481000Y-65522000D01*
X252521000Y-66324000D02*
X252521000Y-65756000D01*
X247115225Y-67515000D02*
X247615225Y-67515000D01*
X247365225Y-67765000D02*
X247365225Y-67265000D01*
%TO.C,C16*%
X67660000Y-26670000D02*
G75*
G03*
X67660000Y-26670000I-2620000J0D01*
G01*
X65040000Y-27710000D02*
X65040000Y-29250000D01*
X65040000Y-24090000D02*
X65040000Y-25630000D01*
X65000000Y-27710000D02*
X65000000Y-29250000D01*
X65000000Y-24090000D02*
X65000000Y-25630000D01*
X64960000Y-24091000D02*
X64960000Y-25630000D01*
X64960000Y-27710000D02*
X64960000Y-29249000D01*
X64920000Y-24092000D02*
X64920000Y-25630000D01*
X64920000Y-27710000D02*
X64920000Y-29248000D01*
X64880000Y-24094000D02*
X64880000Y-25630000D01*
X64880000Y-27710000D02*
X64880000Y-29246000D01*
X64840000Y-24097000D02*
X64840000Y-25630000D01*
X64840000Y-27710000D02*
X64840000Y-29243000D01*
X64800000Y-24101000D02*
X64800000Y-25630000D01*
X64800000Y-27710000D02*
X64800000Y-29239000D01*
X64760000Y-24105000D02*
X64760000Y-25630000D01*
X64760000Y-27710000D02*
X64760000Y-29235000D01*
X64720000Y-24109000D02*
X64720000Y-25630000D01*
X64720000Y-27710000D02*
X64720000Y-29231000D01*
X64680000Y-24114000D02*
X64680000Y-25630000D01*
X64680000Y-27710000D02*
X64680000Y-29226000D01*
X64640000Y-24120000D02*
X64640000Y-25630000D01*
X64640000Y-27710000D02*
X64640000Y-29220000D01*
X64600000Y-24127000D02*
X64600000Y-25630000D01*
X64600000Y-27710000D02*
X64600000Y-29213000D01*
X64560000Y-24134000D02*
X64560000Y-25630000D01*
X64560000Y-27710000D02*
X64560000Y-29206000D01*
X64520000Y-24142000D02*
X64520000Y-25630000D01*
X64520000Y-27710000D02*
X64520000Y-29198000D01*
X64480000Y-24150000D02*
X64480000Y-25630000D01*
X64480000Y-27710000D02*
X64480000Y-29190000D01*
X64440000Y-24159000D02*
X64440000Y-25630000D01*
X64440000Y-27710000D02*
X64440000Y-29181000D01*
X64400000Y-24169000D02*
X64400000Y-25630000D01*
X64400000Y-27710000D02*
X64400000Y-29171000D01*
X64360000Y-24179000D02*
X64360000Y-25630000D01*
X64360000Y-27710000D02*
X64360000Y-29161000D01*
X64319000Y-24190000D02*
X64319000Y-25630000D01*
X64319000Y-27710000D02*
X64319000Y-29150000D01*
X64279000Y-24202000D02*
X64279000Y-25630000D01*
X64279000Y-27710000D02*
X64279000Y-29138000D01*
X64239000Y-24215000D02*
X64239000Y-25630000D01*
X64239000Y-27710000D02*
X64239000Y-29125000D01*
X64199000Y-24228000D02*
X64199000Y-25630000D01*
X64199000Y-27710000D02*
X64199000Y-29112000D01*
X64159000Y-24242000D02*
X64159000Y-25630000D01*
X64159000Y-27710000D02*
X64159000Y-29098000D01*
X64119000Y-24256000D02*
X64119000Y-25630000D01*
X64119000Y-27710000D02*
X64119000Y-29084000D01*
X64079000Y-24272000D02*
X64079000Y-25630000D01*
X64079000Y-27710000D02*
X64079000Y-29068000D01*
X64039000Y-24288000D02*
X64039000Y-25630000D01*
X64039000Y-27710000D02*
X64039000Y-29052000D01*
X63999000Y-24305000D02*
X63999000Y-25630000D01*
X63999000Y-27710000D02*
X63999000Y-29035000D01*
X63959000Y-24322000D02*
X63959000Y-25630000D01*
X63959000Y-27710000D02*
X63959000Y-29018000D01*
X63919000Y-24341000D02*
X63919000Y-25630000D01*
X63919000Y-27710000D02*
X63919000Y-28999000D01*
X63879000Y-24360000D02*
X63879000Y-25630000D01*
X63879000Y-27710000D02*
X63879000Y-28980000D01*
X63839000Y-24380000D02*
X63839000Y-25630000D01*
X63839000Y-27710000D02*
X63839000Y-28960000D01*
X63799000Y-24402000D02*
X63799000Y-25630000D01*
X63799000Y-27710000D02*
X63799000Y-28938000D01*
X63759000Y-24423000D02*
X63759000Y-25630000D01*
X63759000Y-27710000D02*
X63759000Y-28917000D01*
X63719000Y-24446000D02*
X63719000Y-25630000D01*
X63719000Y-27710000D02*
X63719000Y-28894000D01*
X63679000Y-24470000D02*
X63679000Y-25630000D01*
X63679000Y-27710000D02*
X63679000Y-28870000D01*
X63639000Y-24495000D02*
X63639000Y-25630000D01*
X63639000Y-27710000D02*
X63639000Y-28845000D01*
X63599000Y-24521000D02*
X63599000Y-25630000D01*
X63599000Y-27710000D02*
X63599000Y-28819000D01*
X63559000Y-24548000D02*
X63559000Y-25630000D01*
X63559000Y-27710000D02*
X63559000Y-28792000D01*
X63519000Y-24575000D02*
X63519000Y-25630000D01*
X63519000Y-27710000D02*
X63519000Y-28765000D01*
X63479000Y-24605000D02*
X63479000Y-25630000D01*
X63479000Y-27710000D02*
X63479000Y-28735000D01*
X63439000Y-24635000D02*
X63439000Y-25630000D01*
X63439000Y-27710000D02*
X63439000Y-28705000D01*
X63399000Y-24666000D02*
X63399000Y-25630000D01*
X63399000Y-27710000D02*
X63399000Y-28674000D01*
X63359000Y-24699000D02*
X63359000Y-25630000D01*
X63359000Y-27710000D02*
X63359000Y-28641000D01*
X63319000Y-24733000D02*
X63319000Y-25630000D01*
X63319000Y-27710000D02*
X63319000Y-28607000D01*
X63279000Y-24769000D02*
X63279000Y-25630000D01*
X63279000Y-27710000D02*
X63279000Y-28571000D01*
X63239000Y-24806000D02*
X63239000Y-25630000D01*
X63239000Y-27710000D02*
X63239000Y-28534000D01*
X63199000Y-24844000D02*
X63199000Y-25630000D01*
X63199000Y-27710000D02*
X63199000Y-28496000D01*
X63159000Y-24885000D02*
X63159000Y-25630000D01*
X63159000Y-27710000D02*
X63159000Y-28455000D01*
X63119000Y-24927000D02*
X63119000Y-25630000D01*
X63119000Y-27710000D02*
X63119000Y-28413000D01*
X63079000Y-24971000D02*
X63079000Y-25630000D01*
X63079000Y-27710000D02*
X63079000Y-28369000D01*
X63039000Y-25017000D02*
X63039000Y-25630000D01*
X63039000Y-27710000D02*
X63039000Y-28323000D01*
X62999000Y-25065000D02*
X62999000Y-28275000D01*
X62959000Y-25116000D02*
X62959000Y-28224000D01*
X62919000Y-25170000D02*
X62919000Y-28170000D01*
X62879000Y-25227000D02*
X62879000Y-28113000D01*
X62839000Y-25287000D02*
X62839000Y-28053000D01*
X62799000Y-25351000D02*
X62799000Y-27989000D01*
X62759000Y-25419000D02*
X62759000Y-27921000D01*
X62719000Y-25492000D02*
X62719000Y-27848000D01*
X62679000Y-25572000D02*
X62679000Y-27768000D01*
X62639000Y-25659000D02*
X62639000Y-27681000D01*
X62599000Y-25755000D02*
X62599000Y-27585000D01*
X62559000Y-25865000D02*
X62559000Y-27475000D01*
X62519000Y-25993000D02*
X62519000Y-27347000D01*
X62479000Y-26152000D02*
X62479000Y-27188000D01*
X62439000Y-26386000D02*
X62439000Y-26954000D01*
X67844775Y-25195000D02*
X67344775Y-25195000D01*
X67594775Y-24945000D02*
X67594775Y-25445000D01*
D13*
%TO.C,S12*%
G36*
X228457107Y-54321043D02*
G01*
X228332271Y-54397913D01*
X228239051Y-54509970D01*
X228191005Y-54644075D01*
X228187369Y-54692391D01*
X228163553Y-54794444D01*
X228089951Y-54863052D01*
X227962900Y-54901370D01*
X227941197Y-54904427D01*
X227769013Y-54953462D01*
X227602914Y-55048369D01*
X227467049Y-55174140D01*
X227432477Y-55220593D01*
X227345875Y-55351426D01*
X227336594Y-57036525D01*
X227334575Y-57427006D01*
X227333431Y-57759322D01*
X227333571Y-58038804D01*
X227335406Y-58270787D01*
X227339344Y-58460601D01*
X227345795Y-58613581D01*
X227355168Y-58735059D01*
X227367873Y-58830367D01*
X227384318Y-58904839D01*
X227404913Y-58963806D01*
X227430068Y-59012602D01*
X227460192Y-59056559D01*
X227495003Y-59100172D01*
X227583894Y-59187162D01*
X227692662Y-59264841D01*
X227800454Y-59320324D01*
X227884361Y-59340750D01*
X227907695Y-59350790D01*
X227922405Y-59388189D01*
X227930281Y-59463860D01*
X227933115Y-59588715D01*
X227933250Y-59638487D01*
X227935729Y-59788879D01*
X227944359Y-59888010D01*
X227960932Y-59947971D01*
X227983537Y-59977958D01*
X228044728Y-60002527D01*
X228086724Y-59986421D01*
X228113526Y-59956160D01*
X228131331Y-59897663D01*
X228142456Y-59798847D01*
X228148754Y-59662824D01*
X228157883Y-59372500D01*
X228502451Y-59372500D01*
X228511538Y-59682062D01*
X228516285Y-59823970D01*
X228522679Y-59914135D01*
X228534073Y-59964288D01*
X228553822Y-59986164D01*
X228585277Y-59991496D01*
X228600000Y-59991625D01*
X228636454Y-59989360D01*
X228660002Y-59974746D01*
X228673998Y-59936048D01*
X228681794Y-59861533D01*
X228686745Y-59739469D01*
X228688463Y-59682062D01*
X228697550Y-59372500D01*
X229044500Y-59372500D01*
X229044500Y-59628587D01*
X229053016Y-59808478D01*
X229077927Y-59932907D01*
X229118281Y-60000110D01*
X229173125Y-60008324D01*
X229228650Y-59969400D01*
X229249041Y-59915212D01*
X229262019Y-59805120D01*
X229266745Y-59646379D01*
X229266750Y-59639993D01*
X229266750Y-59348687D01*
X229354063Y-59331143D01*
X229488262Y-59277752D01*
X229624920Y-59177542D01*
X229746245Y-59043877D01*
X229757696Y-59027982D01*
X229854125Y-58890779D01*
X229854125Y-58643269D01*
X229616000Y-58643269D01*
X229587242Y-58780933D01*
X229510593Y-58912624D01*
X229400493Y-59020239D01*
X229271381Y-59085675D01*
X229260887Y-59088490D01*
X229196776Y-59096392D01*
X229081031Y-59102705D01*
X228925502Y-59107100D01*
X228742044Y-59109250D01*
X228542509Y-59108826D01*
X228530830Y-59108717D01*
X228314580Y-59106159D01*
X228152336Y-59102653D01*
X228034605Y-59097248D01*
X227951893Y-59088989D01*
X227894708Y-59076922D01*
X227853554Y-59060095D01*
X227818939Y-59037553D01*
X227818416Y-59037163D01*
X227683717Y-58905700D01*
X227608006Y-58755236D01*
X227594892Y-58697067D01*
X227575692Y-58578750D01*
X228595846Y-58578750D01*
X228876933Y-58578850D01*
X229100985Y-58579423D01*
X229274467Y-58580878D01*
X229403845Y-58583624D01*
X229495585Y-58588070D01*
X229556151Y-58594625D01*
X229592008Y-58603697D01*
X229609623Y-58615695D01*
X229615460Y-58631029D01*
X229616000Y-58643269D01*
X229854125Y-58643269D01*
X229854125Y-55848250D01*
X229616000Y-55848250D01*
X229616000Y-58356500D01*
X229139750Y-58356500D01*
X229139750Y-58010729D01*
X229193866Y-58007250D01*
X228949250Y-58007250D01*
X228949250Y-58356500D01*
X228314250Y-58356500D01*
X228314250Y-58007250D01*
X228949250Y-58007250D01*
X229193866Y-58007250D01*
X229290277Y-58001052D01*
X229393215Y-57982052D01*
X229450027Y-57946650D01*
X229455724Y-57903260D01*
X229405320Y-57860295D01*
X229380186Y-57849378D01*
X229298500Y-57818321D01*
X229298500Y-57279994D01*
X229298736Y-57083760D01*
X229300227Y-56941954D01*
X229304149Y-56845503D01*
X229311680Y-56785335D01*
X229323995Y-56752376D01*
X229342270Y-56737554D01*
X229343611Y-56737250D01*
X229139750Y-56737250D01*
X229139750Y-57852717D01*
X229052438Y-57842671D01*
X228965125Y-57832625D01*
X228956438Y-57284937D01*
X228947751Y-56737250D01*
X228790500Y-56737250D01*
X228790500Y-57848500D01*
X228473000Y-57848500D01*
X228473000Y-56737250D01*
X228314250Y-56737250D01*
X228314250Y-57271708D01*
X228313051Y-57449844D01*
X228309731Y-57605368D01*
X228304705Y-57727365D01*
X228298389Y-57804922D01*
X228293084Y-57827333D01*
X228247653Y-57844039D01*
X228197834Y-57848500D01*
X228123750Y-57848500D01*
X228123750Y-56737250D01*
X228314250Y-56737250D01*
X228473000Y-56737250D01*
X228790500Y-56737250D01*
X228947751Y-56737250D01*
X229139750Y-56737250D01*
X229343611Y-56737250D01*
X229367682Y-56731797D01*
X229369614Y-56731520D01*
X229428702Y-56700153D01*
X229453865Y-56643976D01*
X229436784Y-56588508D01*
X229420687Y-56574853D01*
X229361893Y-56556688D01*
X229273430Y-56547490D01*
X229258813Y-56547236D01*
X229181779Y-56543259D01*
X229148156Y-56519729D01*
X229139949Y-56457966D01*
X229139750Y-56423637D01*
X229125503Y-56319812D01*
X229087973Y-56255985D01*
X229034976Y-56241054D01*
X228996875Y-56261000D01*
X228964151Y-56319870D01*
X228949411Y-56412687D01*
X228949250Y-56423637D01*
X228949250Y-56546750D01*
X228314250Y-56546750D01*
X228314250Y-56423637D01*
X228300003Y-56319812D01*
X228262473Y-56255985D01*
X228209476Y-56241054D01*
X228171375Y-56261000D01*
X228138651Y-56319870D01*
X228123911Y-56412687D01*
X228123750Y-56423637D01*
X228120014Y-56503325D01*
X228097891Y-56538113D01*
X228041013Y-56546571D01*
X228015222Y-56546750D01*
X227925339Y-56552228D01*
X227857965Y-56565466D01*
X227856472Y-56566021D01*
X227813292Y-56609116D01*
X227811226Y-56669656D01*
X227847913Y-56718803D01*
X227869750Y-56728050D01*
X227892762Y-56737251D01*
X227909426Y-56757032D01*
X227920763Y-56796466D01*
X227927794Y-56864627D01*
X227931538Y-56970588D01*
X227933015Y-57123423D01*
X227933250Y-57292875D01*
X227932929Y-57491437D01*
X227931254Y-57635598D01*
X227927159Y-57734459D01*
X227919579Y-57797117D01*
X227907446Y-57832672D01*
X227889696Y-57850223D01*
X227866989Y-57858421D01*
X227815487Y-57894747D01*
X227811712Y-57933562D01*
X227835002Y-57971802D01*
X227896079Y-57992916D01*
X227973224Y-58001052D01*
X228123750Y-58010729D01*
X228123750Y-58356500D01*
X227584000Y-58356500D01*
X227584000Y-55848250D01*
X229616000Y-55848250D01*
X229854125Y-55848250D01*
X229854125Y-55593230D01*
X229616000Y-55593230D01*
X229614411Y-55611040D01*
X229605322Y-55625228D01*
X229582257Y-55636207D01*
X229538736Y-55644388D01*
X229468281Y-55650182D01*
X229364414Y-55654001D01*
X229220656Y-55656255D01*
X229030528Y-55657357D01*
X228787553Y-55657718D01*
X228600000Y-55657750D01*
X228319547Y-55657649D01*
X228096114Y-55657071D01*
X227923225Y-55655607D01*
X227794401Y-55652843D01*
X227703162Y-55648369D01*
X227643032Y-55641773D01*
X227607530Y-55632644D01*
X227590179Y-55620570D01*
X227584501Y-55605140D01*
X227584000Y-55593230D01*
X227607784Y-55475469D01*
X227668778Y-55352992D01*
X227751451Y-55256438D01*
X227757013Y-55251941D01*
X227842430Y-55205488D01*
X227953340Y-55170165D01*
X227991048Y-55163112D01*
X228102800Y-55139844D01*
X228203270Y-55107673D01*
X228228342Y-55096460D01*
X228326433Y-55017400D01*
X228402443Y-54903163D01*
X228439763Y-54780368D01*
X228441132Y-54755375D01*
X228461970Y-54660898D01*
X228514054Y-54584654D01*
X228582111Y-54547447D01*
X228594484Y-54546500D01*
X228671940Y-54574886D01*
X228732104Y-54646606D01*
X228758681Y-54741501D01*
X228758869Y-54749858D01*
X228786119Y-54876290D01*
X228856663Y-54997447D01*
X228954127Y-55086661D01*
X228971659Y-55096460D01*
X229059254Y-55129186D01*
X229171475Y-55156756D01*
X229208953Y-55163112D01*
X229319834Y-55191165D01*
X229418453Y-55235369D01*
X229442988Y-55251941D01*
X229526504Y-55345842D01*
X229589318Y-55467593D01*
X229615897Y-55586552D01*
X229616000Y-55593230D01*
X229854125Y-55593230D01*
X229854125Y-55345720D01*
X229758679Y-55208047D01*
X229657226Y-55098299D01*
X229522709Y-55001642D01*
X229376552Y-54930388D01*
X229240179Y-54896849D01*
X229215233Y-54895750D01*
X229111485Y-54867915D01*
X229040441Y-54792129D01*
X229012693Y-54679964D01*
X229012632Y-54674372D01*
X228983119Y-54547693D01*
X228904662Y-54433708D01*
X228791810Y-54345885D01*
X228659114Y-54297688D01*
X228600001Y-54292500D01*
X228457107Y-54321043D01*
G37*
X228457107Y-54321043D02*
X228332271Y-54397913D01*
X228239051Y-54509970D01*
X228191005Y-54644075D01*
X228187369Y-54692391D01*
X228163553Y-54794444D01*
X228089951Y-54863052D01*
X227962900Y-54901370D01*
X227941197Y-54904427D01*
X227769013Y-54953462D01*
X227602914Y-55048369D01*
X227467049Y-55174140D01*
X227432477Y-55220593D01*
X227345875Y-55351426D01*
X227336594Y-57036525D01*
X227334575Y-57427006D01*
X227333431Y-57759322D01*
X227333571Y-58038804D01*
X227335406Y-58270787D01*
X227339344Y-58460601D01*
X227345795Y-58613581D01*
X227355168Y-58735059D01*
X227367873Y-58830367D01*
X227384318Y-58904839D01*
X227404913Y-58963806D01*
X227430068Y-59012602D01*
X227460192Y-59056559D01*
X227495003Y-59100172D01*
X227583894Y-59187162D01*
X227692662Y-59264841D01*
X227800454Y-59320324D01*
X227884361Y-59340750D01*
X227907695Y-59350790D01*
X227922405Y-59388189D01*
X227930281Y-59463860D01*
X227933115Y-59588715D01*
X227933250Y-59638487D01*
X227935729Y-59788879D01*
X227944359Y-59888010D01*
X227960932Y-59947971D01*
X227983537Y-59977958D01*
X228044728Y-60002527D01*
X228086724Y-59986421D01*
X228113526Y-59956160D01*
X228131331Y-59897663D01*
X228142456Y-59798847D01*
X228148754Y-59662824D01*
X228157883Y-59372500D01*
X228502451Y-59372500D01*
X228511538Y-59682062D01*
X228516285Y-59823970D01*
X228522679Y-59914135D01*
X228534073Y-59964288D01*
X228553822Y-59986164D01*
X228585277Y-59991496D01*
X228600000Y-59991625D01*
X228636454Y-59989360D01*
X228660002Y-59974746D01*
X228673998Y-59936048D01*
X228681794Y-59861533D01*
X228686745Y-59739469D01*
X228688463Y-59682062D01*
X228697550Y-59372500D01*
X229044500Y-59372500D01*
X229044500Y-59628587D01*
X229053016Y-59808478D01*
X229077927Y-59932907D01*
X229118281Y-60000110D01*
X229173125Y-60008324D01*
X229228650Y-59969400D01*
X229249041Y-59915212D01*
X229262019Y-59805120D01*
X229266745Y-59646379D01*
X229266750Y-59639993D01*
X229266750Y-59348687D01*
X229354063Y-59331143D01*
X229488262Y-59277752D01*
X229624920Y-59177542D01*
X229746245Y-59043877D01*
X229757696Y-59027982D01*
X229854125Y-58890779D01*
X229854125Y-58643269D01*
X229616000Y-58643269D01*
X229587242Y-58780933D01*
X229510593Y-58912624D01*
X229400493Y-59020239D01*
X229271381Y-59085675D01*
X229260887Y-59088490D01*
X229196776Y-59096392D01*
X229081031Y-59102705D01*
X228925502Y-59107100D01*
X228742044Y-59109250D01*
X228542509Y-59108826D01*
X228530830Y-59108717D01*
X228314580Y-59106159D01*
X228152336Y-59102653D01*
X228034605Y-59097248D01*
X227951893Y-59088989D01*
X227894708Y-59076922D01*
X227853554Y-59060095D01*
X227818939Y-59037553D01*
X227818416Y-59037163D01*
X227683717Y-58905700D01*
X227608006Y-58755236D01*
X227594892Y-58697067D01*
X227575692Y-58578750D01*
X228595846Y-58578750D01*
X228876933Y-58578850D01*
X229100985Y-58579423D01*
X229274467Y-58580878D01*
X229403845Y-58583624D01*
X229495585Y-58588070D01*
X229556151Y-58594625D01*
X229592008Y-58603697D01*
X229609623Y-58615695D01*
X229615460Y-58631029D01*
X229616000Y-58643269D01*
X229854125Y-58643269D01*
X229854125Y-55848250D01*
X229616000Y-55848250D01*
X229616000Y-58356500D01*
X229139750Y-58356500D01*
X229139750Y-58010729D01*
X229193866Y-58007250D01*
X228949250Y-58007250D01*
X228949250Y-58356500D01*
X228314250Y-58356500D01*
X228314250Y-58007250D01*
X228949250Y-58007250D01*
X229193866Y-58007250D01*
X229290277Y-58001052D01*
X229393215Y-57982052D01*
X229450027Y-57946650D01*
X229455724Y-57903260D01*
X229405320Y-57860295D01*
X229380186Y-57849378D01*
X229298500Y-57818321D01*
X229298500Y-57279994D01*
X229298736Y-57083760D01*
X229300227Y-56941954D01*
X229304149Y-56845503D01*
X229311680Y-56785335D01*
X229323995Y-56752376D01*
X229342270Y-56737554D01*
X229343611Y-56737250D01*
X229139750Y-56737250D01*
X229139750Y-57852717D01*
X229052438Y-57842671D01*
X228965125Y-57832625D01*
X228956438Y-57284937D01*
X228947751Y-56737250D01*
X228790500Y-56737250D01*
X228790500Y-57848500D01*
X228473000Y-57848500D01*
X228473000Y-56737250D01*
X228314250Y-56737250D01*
X228314250Y-57271708D01*
X228313051Y-57449844D01*
X228309731Y-57605368D01*
X228304705Y-57727365D01*
X228298389Y-57804922D01*
X228293084Y-57827333D01*
X228247653Y-57844039D01*
X228197834Y-57848500D01*
X228123750Y-57848500D01*
X228123750Y-56737250D01*
X228314250Y-56737250D01*
X228473000Y-56737250D01*
X228790500Y-56737250D01*
X228947751Y-56737250D01*
X229139750Y-56737250D01*
X229343611Y-56737250D01*
X229367682Y-56731797D01*
X229369614Y-56731520D01*
X229428702Y-56700153D01*
X229453865Y-56643976D01*
X229436784Y-56588508D01*
X229420687Y-56574853D01*
X229361893Y-56556688D01*
X229273430Y-56547490D01*
X229258813Y-56547236D01*
X229181779Y-56543259D01*
X229148156Y-56519729D01*
X229139949Y-56457966D01*
X229139750Y-56423637D01*
X229125503Y-56319812D01*
X229087973Y-56255985D01*
X229034976Y-56241054D01*
X228996875Y-56261000D01*
X228964151Y-56319870D01*
X228949411Y-56412687D01*
X228949250Y-56423637D01*
X228949250Y-56546750D01*
X228314250Y-56546750D01*
X228314250Y-56423637D01*
X228300003Y-56319812D01*
X228262473Y-56255985D01*
X228209476Y-56241054D01*
X228171375Y-56261000D01*
X228138651Y-56319870D01*
X228123911Y-56412687D01*
X228123750Y-56423637D01*
X228120014Y-56503325D01*
X228097891Y-56538113D01*
X228041013Y-56546571D01*
X228015222Y-56546750D01*
X227925339Y-56552228D01*
X227857965Y-56565466D01*
X227856472Y-56566021D01*
X227813292Y-56609116D01*
X227811226Y-56669656D01*
X227847913Y-56718803D01*
X227869750Y-56728050D01*
X227892762Y-56737251D01*
X227909426Y-56757032D01*
X227920763Y-56796466D01*
X227927794Y-56864627D01*
X227931538Y-56970588D01*
X227933015Y-57123423D01*
X227933250Y-57292875D01*
X227932929Y-57491437D01*
X227931254Y-57635598D01*
X227927159Y-57734459D01*
X227919579Y-57797117D01*
X227907446Y-57832672D01*
X227889696Y-57850223D01*
X227866989Y-57858421D01*
X227815487Y-57894747D01*
X227811712Y-57933562D01*
X227835002Y-57971802D01*
X227896079Y-57992916D01*
X227973224Y-58001052D01*
X228123750Y-58010729D01*
X228123750Y-58356500D01*
X227584000Y-58356500D01*
X227584000Y-55848250D01*
X229616000Y-55848250D01*
X229854125Y-55848250D01*
X229854125Y-55593230D01*
X229616000Y-55593230D01*
X229614411Y-55611040D01*
X229605322Y-55625228D01*
X229582257Y-55636207D01*
X229538736Y-55644388D01*
X229468281Y-55650182D01*
X229364414Y-55654001D01*
X229220656Y-55656255D01*
X229030528Y-55657357D01*
X228787553Y-55657718D01*
X228600000Y-55657750D01*
X228319547Y-55657649D01*
X228096114Y-55657071D01*
X227923225Y-55655607D01*
X227794401Y-55652843D01*
X227703162Y-55648369D01*
X227643032Y-55641773D01*
X227607530Y-55632644D01*
X227590179Y-55620570D01*
X227584501Y-55605140D01*
X227584000Y-55593230D01*
X227607784Y-55475469D01*
X227668778Y-55352992D01*
X227751451Y-55256438D01*
X227757013Y-55251941D01*
X227842430Y-55205488D01*
X227953340Y-55170165D01*
X227991048Y-55163112D01*
X228102800Y-55139844D01*
X228203270Y-55107673D01*
X228228342Y-55096460D01*
X228326433Y-55017400D01*
X228402443Y-54903163D01*
X228439763Y-54780368D01*
X228441132Y-54755375D01*
X228461970Y-54660898D01*
X228514054Y-54584654D01*
X228582111Y-54547447D01*
X228594484Y-54546500D01*
X228671940Y-54574886D01*
X228732104Y-54646606D01*
X228758681Y-54741501D01*
X228758869Y-54749858D01*
X228786119Y-54876290D01*
X228856663Y-54997447D01*
X228954127Y-55086661D01*
X228971659Y-55096460D01*
X229059254Y-55129186D01*
X229171475Y-55156756D01*
X229208953Y-55163112D01*
X229319834Y-55191165D01*
X229418453Y-55235369D01*
X229442988Y-55251941D01*
X229526504Y-55345842D01*
X229589318Y-55467593D01*
X229615897Y-55586552D01*
X229616000Y-55593230D01*
X229854125Y-55593230D01*
X229854125Y-55345720D01*
X229758679Y-55208047D01*
X229657226Y-55098299D01*
X229522709Y-55001642D01*
X229376552Y-54930388D01*
X229240179Y-54896849D01*
X229215233Y-54895750D01*
X229111485Y-54867915D01*
X229040441Y-54792129D01*
X229012693Y-54679964D01*
X229012632Y-54674372D01*
X228983119Y-54547693D01*
X228904662Y-54433708D01*
X228791810Y-54345885D01*
X228659114Y-54297688D01*
X228600001Y-54292500D01*
X228457107Y-54321043D01*
%TO.C,S11*%
G36*
X203057107Y-54321043D02*
G01*
X202932271Y-54397913D01*
X202839051Y-54509970D01*
X202791005Y-54644075D01*
X202787369Y-54692391D01*
X202763553Y-54794444D01*
X202689951Y-54863052D01*
X202562900Y-54901370D01*
X202541197Y-54904427D01*
X202369013Y-54953462D01*
X202202914Y-55048369D01*
X202067049Y-55174140D01*
X202032477Y-55220593D01*
X201945875Y-55351426D01*
X201936594Y-57036525D01*
X201934575Y-57427006D01*
X201933431Y-57759322D01*
X201933571Y-58038804D01*
X201935406Y-58270787D01*
X201939344Y-58460601D01*
X201945795Y-58613581D01*
X201955168Y-58735059D01*
X201967873Y-58830367D01*
X201984318Y-58904839D01*
X202004913Y-58963806D01*
X202030068Y-59012602D01*
X202060192Y-59056559D01*
X202095003Y-59100172D01*
X202183894Y-59187162D01*
X202292662Y-59264841D01*
X202400454Y-59320324D01*
X202484361Y-59340750D01*
X202507695Y-59350790D01*
X202522405Y-59388189D01*
X202530281Y-59463860D01*
X202533115Y-59588715D01*
X202533250Y-59638487D01*
X202535729Y-59788879D01*
X202544359Y-59888010D01*
X202560932Y-59947971D01*
X202583537Y-59977958D01*
X202644728Y-60002527D01*
X202686724Y-59986421D01*
X202713526Y-59956160D01*
X202731331Y-59897663D01*
X202742456Y-59798847D01*
X202748754Y-59662824D01*
X202757883Y-59372500D01*
X203102451Y-59372500D01*
X203111538Y-59682062D01*
X203116285Y-59823970D01*
X203122679Y-59914135D01*
X203134073Y-59964288D01*
X203153822Y-59986164D01*
X203185277Y-59991496D01*
X203200000Y-59991625D01*
X203236454Y-59989360D01*
X203260002Y-59974746D01*
X203273998Y-59936048D01*
X203281794Y-59861533D01*
X203286745Y-59739469D01*
X203288463Y-59682062D01*
X203297550Y-59372500D01*
X203644500Y-59372500D01*
X203644500Y-59628587D01*
X203653016Y-59808478D01*
X203677927Y-59932907D01*
X203718281Y-60000110D01*
X203773125Y-60008324D01*
X203828650Y-59969400D01*
X203849041Y-59915212D01*
X203862019Y-59805120D01*
X203866745Y-59646379D01*
X203866750Y-59639993D01*
X203866750Y-59348687D01*
X203954063Y-59331143D01*
X204088262Y-59277752D01*
X204224920Y-59177542D01*
X204346245Y-59043877D01*
X204357696Y-59027982D01*
X204454125Y-58890779D01*
X204454125Y-58643269D01*
X204216000Y-58643269D01*
X204187242Y-58780933D01*
X204110593Y-58912624D01*
X204000493Y-59020239D01*
X203871381Y-59085675D01*
X203860887Y-59088490D01*
X203796776Y-59096392D01*
X203681031Y-59102705D01*
X203525502Y-59107100D01*
X203342044Y-59109250D01*
X203142509Y-59108826D01*
X203130830Y-59108717D01*
X202914580Y-59106159D01*
X202752336Y-59102653D01*
X202634605Y-59097248D01*
X202551893Y-59088989D01*
X202494708Y-59076922D01*
X202453554Y-59060095D01*
X202418939Y-59037553D01*
X202418416Y-59037163D01*
X202283717Y-58905700D01*
X202208006Y-58755236D01*
X202194892Y-58697067D01*
X202175692Y-58578750D01*
X203195846Y-58578750D01*
X203476933Y-58578850D01*
X203700985Y-58579423D01*
X203874467Y-58580878D01*
X204003845Y-58583624D01*
X204095585Y-58588070D01*
X204156151Y-58594625D01*
X204192008Y-58603697D01*
X204209623Y-58615695D01*
X204215460Y-58631029D01*
X204216000Y-58643269D01*
X204454125Y-58643269D01*
X204454125Y-55848250D01*
X204216000Y-55848250D01*
X204216000Y-58356500D01*
X203739750Y-58356500D01*
X203739750Y-58010729D01*
X203793866Y-58007250D01*
X203549250Y-58007250D01*
X203549250Y-58356500D01*
X202914250Y-58356500D01*
X202914250Y-58007250D01*
X203549250Y-58007250D01*
X203793866Y-58007250D01*
X203890277Y-58001052D01*
X203993215Y-57982052D01*
X204050027Y-57946650D01*
X204055724Y-57903260D01*
X204005320Y-57860295D01*
X203980186Y-57849378D01*
X203898500Y-57818321D01*
X203898500Y-57279994D01*
X203898736Y-57083760D01*
X203900227Y-56941954D01*
X203904149Y-56845503D01*
X203911680Y-56785335D01*
X203923995Y-56752376D01*
X203942270Y-56737554D01*
X203943611Y-56737250D01*
X203739750Y-56737250D01*
X203739750Y-57852717D01*
X203652438Y-57842671D01*
X203565125Y-57832625D01*
X203556438Y-57284937D01*
X203547751Y-56737250D01*
X203390500Y-56737250D01*
X203390500Y-57848500D01*
X203073000Y-57848500D01*
X203073000Y-56737250D01*
X202914250Y-56737250D01*
X202914250Y-57271708D01*
X202913051Y-57449844D01*
X202909731Y-57605368D01*
X202904705Y-57727365D01*
X202898389Y-57804922D01*
X202893084Y-57827333D01*
X202847653Y-57844039D01*
X202797834Y-57848500D01*
X202723750Y-57848500D01*
X202723750Y-56737250D01*
X202914250Y-56737250D01*
X203073000Y-56737250D01*
X203390500Y-56737250D01*
X203547751Y-56737250D01*
X203739750Y-56737250D01*
X203943611Y-56737250D01*
X203967682Y-56731797D01*
X203969614Y-56731520D01*
X204028702Y-56700153D01*
X204053865Y-56643976D01*
X204036784Y-56588508D01*
X204020687Y-56574853D01*
X203961893Y-56556688D01*
X203873430Y-56547490D01*
X203858813Y-56547236D01*
X203781779Y-56543259D01*
X203748156Y-56519729D01*
X203739949Y-56457966D01*
X203739750Y-56423637D01*
X203725503Y-56319812D01*
X203687973Y-56255985D01*
X203634976Y-56241054D01*
X203596875Y-56261000D01*
X203564151Y-56319870D01*
X203549411Y-56412687D01*
X203549250Y-56423637D01*
X203549250Y-56546750D01*
X202914250Y-56546750D01*
X202914250Y-56423637D01*
X202900003Y-56319812D01*
X202862473Y-56255985D01*
X202809476Y-56241054D01*
X202771375Y-56261000D01*
X202738651Y-56319870D01*
X202723911Y-56412687D01*
X202723750Y-56423637D01*
X202720014Y-56503325D01*
X202697891Y-56538113D01*
X202641013Y-56546571D01*
X202615222Y-56546750D01*
X202525339Y-56552228D01*
X202457965Y-56565466D01*
X202456472Y-56566021D01*
X202413292Y-56609116D01*
X202411226Y-56669656D01*
X202447913Y-56718803D01*
X202469750Y-56728050D01*
X202492762Y-56737251D01*
X202509426Y-56757032D01*
X202520763Y-56796466D01*
X202527794Y-56864627D01*
X202531538Y-56970588D01*
X202533015Y-57123423D01*
X202533250Y-57292875D01*
X202532929Y-57491437D01*
X202531254Y-57635598D01*
X202527159Y-57734459D01*
X202519579Y-57797117D01*
X202507446Y-57832672D01*
X202489696Y-57850223D01*
X202466989Y-57858421D01*
X202415487Y-57894747D01*
X202411712Y-57933562D01*
X202435002Y-57971802D01*
X202496079Y-57992916D01*
X202573224Y-58001052D01*
X202723750Y-58010729D01*
X202723750Y-58356500D01*
X202184000Y-58356500D01*
X202184000Y-55848250D01*
X204216000Y-55848250D01*
X204454125Y-55848250D01*
X204454125Y-55593230D01*
X204216000Y-55593230D01*
X204214411Y-55611040D01*
X204205322Y-55625228D01*
X204182257Y-55636207D01*
X204138736Y-55644388D01*
X204068281Y-55650182D01*
X203964414Y-55654001D01*
X203820656Y-55656255D01*
X203630528Y-55657357D01*
X203387553Y-55657718D01*
X203200000Y-55657750D01*
X202919547Y-55657649D01*
X202696114Y-55657071D01*
X202523225Y-55655607D01*
X202394401Y-55652843D01*
X202303162Y-55648369D01*
X202243032Y-55641773D01*
X202207530Y-55632644D01*
X202190179Y-55620570D01*
X202184501Y-55605140D01*
X202184000Y-55593230D01*
X202207784Y-55475469D01*
X202268778Y-55352992D01*
X202351451Y-55256438D01*
X202357013Y-55251941D01*
X202442430Y-55205488D01*
X202553340Y-55170165D01*
X202591048Y-55163112D01*
X202702800Y-55139844D01*
X202803270Y-55107673D01*
X202828342Y-55096460D01*
X202926433Y-55017400D01*
X203002443Y-54903163D01*
X203039763Y-54780368D01*
X203041132Y-54755375D01*
X203061970Y-54660898D01*
X203114054Y-54584654D01*
X203182111Y-54547447D01*
X203194484Y-54546500D01*
X203271940Y-54574886D01*
X203332104Y-54646606D01*
X203358681Y-54741501D01*
X203358869Y-54749858D01*
X203386119Y-54876290D01*
X203456663Y-54997447D01*
X203554127Y-55086661D01*
X203571659Y-55096460D01*
X203659254Y-55129186D01*
X203771475Y-55156756D01*
X203808953Y-55163112D01*
X203919834Y-55191165D01*
X204018453Y-55235369D01*
X204042988Y-55251941D01*
X204126504Y-55345842D01*
X204189318Y-55467593D01*
X204215897Y-55586552D01*
X204216000Y-55593230D01*
X204454125Y-55593230D01*
X204454125Y-55345720D01*
X204358679Y-55208047D01*
X204257226Y-55098299D01*
X204122709Y-55001642D01*
X203976552Y-54930388D01*
X203840179Y-54896849D01*
X203815233Y-54895750D01*
X203711485Y-54867915D01*
X203640441Y-54792129D01*
X203612693Y-54679964D01*
X203612632Y-54674372D01*
X203583119Y-54547693D01*
X203504662Y-54433708D01*
X203391810Y-54345885D01*
X203259114Y-54297688D01*
X203200001Y-54292500D01*
X203057107Y-54321043D01*
G37*
X203057107Y-54321043D02*
X202932271Y-54397913D01*
X202839051Y-54509970D01*
X202791005Y-54644075D01*
X202787369Y-54692391D01*
X202763553Y-54794444D01*
X202689951Y-54863052D01*
X202562900Y-54901370D01*
X202541197Y-54904427D01*
X202369013Y-54953462D01*
X202202914Y-55048369D01*
X202067049Y-55174140D01*
X202032477Y-55220593D01*
X201945875Y-55351426D01*
X201936594Y-57036525D01*
X201934575Y-57427006D01*
X201933431Y-57759322D01*
X201933571Y-58038804D01*
X201935406Y-58270787D01*
X201939344Y-58460601D01*
X201945795Y-58613581D01*
X201955168Y-58735059D01*
X201967873Y-58830367D01*
X201984318Y-58904839D01*
X202004913Y-58963806D01*
X202030068Y-59012602D01*
X202060192Y-59056559D01*
X202095003Y-59100172D01*
X202183894Y-59187162D01*
X202292662Y-59264841D01*
X202400454Y-59320324D01*
X202484361Y-59340750D01*
X202507695Y-59350790D01*
X202522405Y-59388189D01*
X202530281Y-59463860D01*
X202533115Y-59588715D01*
X202533250Y-59638487D01*
X202535729Y-59788879D01*
X202544359Y-59888010D01*
X202560932Y-59947971D01*
X202583537Y-59977958D01*
X202644728Y-60002527D01*
X202686724Y-59986421D01*
X202713526Y-59956160D01*
X202731331Y-59897663D01*
X202742456Y-59798847D01*
X202748754Y-59662824D01*
X202757883Y-59372500D01*
X203102451Y-59372500D01*
X203111538Y-59682062D01*
X203116285Y-59823970D01*
X203122679Y-59914135D01*
X203134073Y-59964288D01*
X203153822Y-59986164D01*
X203185277Y-59991496D01*
X203200000Y-59991625D01*
X203236454Y-59989360D01*
X203260002Y-59974746D01*
X203273998Y-59936048D01*
X203281794Y-59861533D01*
X203286745Y-59739469D01*
X203288463Y-59682062D01*
X203297550Y-59372500D01*
X203644500Y-59372500D01*
X203644500Y-59628587D01*
X203653016Y-59808478D01*
X203677927Y-59932907D01*
X203718281Y-60000110D01*
X203773125Y-60008324D01*
X203828650Y-59969400D01*
X203849041Y-59915212D01*
X203862019Y-59805120D01*
X203866745Y-59646379D01*
X203866750Y-59639993D01*
X203866750Y-59348687D01*
X203954063Y-59331143D01*
X204088262Y-59277752D01*
X204224920Y-59177542D01*
X204346245Y-59043877D01*
X204357696Y-59027982D01*
X204454125Y-58890779D01*
X204454125Y-58643269D01*
X204216000Y-58643269D01*
X204187242Y-58780933D01*
X204110593Y-58912624D01*
X204000493Y-59020239D01*
X203871381Y-59085675D01*
X203860887Y-59088490D01*
X203796776Y-59096392D01*
X203681031Y-59102705D01*
X203525502Y-59107100D01*
X203342044Y-59109250D01*
X203142509Y-59108826D01*
X203130830Y-59108717D01*
X202914580Y-59106159D01*
X202752336Y-59102653D01*
X202634605Y-59097248D01*
X202551893Y-59088989D01*
X202494708Y-59076922D01*
X202453554Y-59060095D01*
X202418939Y-59037553D01*
X202418416Y-59037163D01*
X202283717Y-58905700D01*
X202208006Y-58755236D01*
X202194892Y-58697067D01*
X202175692Y-58578750D01*
X203195846Y-58578750D01*
X203476933Y-58578850D01*
X203700985Y-58579423D01*
X203874467Y-58580878D01*
X204003845Y-58583624D01*
X204095585Y-58588070D01*
X204156151Y-58594625D01*
X204192008Y-58603697D01*
X204209623Y-58615695D01*
X204215460Y-58631029D01*
X204216000Y-58643269D01*
X204454125Y-58643269D01*
X204454125Y-55848250D01*
X204216000Y-55848250D01*
X204216000Y-58356500D01*
X203739750Y-58356500D01*
X203739750Y-58010729D01*
X203793866Y-58007250D01*
X203549250Y-58007250D01*
X203549250Y-58356500D01*
X202914250Y-58356500D01*
X202914250Y-58007250D01*
X203549250Y-58007250D01*
X203793866Y-58007250D01*
X203890277Y-58001052D01*
X203993215Y-57982052D01*
X204050027Y-57946650D01*
X204055724Y-57903260D01*
X204005320Y-57860295D01*
X203980186Y-57849378D01*
X203898500Y-57818321D01*
X203898500Y-57279994D01*
X203898736Y-57083760D01*
X203900227Y-56941954D01*
X203904149Y-56845503D01*
X203911680Y-56785335D01*
X203923995Y-56752376D01*
X203942270Y-56737554D01*
X203943611Y-56737250D01*
X203739750Y-56737250D01*
X203739750Y-57852717D01*
X203652438Y-57842671D01*
X203565125Y-57832625D01*
X203556438Y-57284937D01*
X203547751Y-56737250D01*
X203390500Y-56737250D01*
X203390500Y-57848500D01*
X203073000Y-57848500D01*
X203073000Y-56737250D01*
X202914250Y-56737250D01*
X202914250Y-57271708D01*
X202913051Y-57449844D01*
X202909731Y-57605368D01*
X202904705Y-57727365D01*
X202898389Y-57804922D01*
X202893084Y-57827333D01*
X202847653Y-57844039D01*
X202797834Y-57848500D01*
X202723750Y-57848500D01*
X202723750Y-56737250D01*
X202914250Y-56737250D01*
X203073000Y-56737250D01*
X203390500Y-56737250D01*
X203547751Y-56737250D01*
X203739750Y-56737250D01*
X203943611Y-56737250D01*
X203967682Y-56731797D01*
X203969614Y-56731520D01*
X204028702Y-56700153D01*
X204053865Y-56643976D01*
X204036784Y-56588508D01*
X204020687Y-56574853D01*
X203961893Y-56556688D01*
X203873430Y-56547490D01*
X203858813Y-56547236D01*
X203781779Y-56543259D01*
X203748156Y-56519729D01*
X203739949Y-56457966D01*
X203739750Y-56423637D01*
X203725503Y-56319812D01*
X203687973Y-56255985D01*
X203634976Y-56241054D01*
X203596875Y-56261000D01*
X203564151Y-56319870D01*
X203549411Y-56412687D01*
X203549250Y-56423637D01*
X203549250Y-56546750D01*
X202914250Y-56546750D01*
X202914250Y-56423637D01*
X202900003Y-56319812D01*
X202862473Y-56255985D01*
X202809476Y-56241054D01*
X202771375Y-56261000D01*
X202738651Y-56319870D01*
X202723911Y-56412687D01*
X202723750Y-56423637D01*
X202720014Y-56503325D01*
X202697891Y-56538113D01*
X202641013Y-56546571D01*
X202615222Y-56546750D01*
X202525339Y-56552228D01*
X202457965Y-56565466D01*
X202456472Y-56566021D01*
X202413292Y-56609116D01*
X202411226Y-56669656D01*
X202447913Y-56718803D01*
X202469750Y-56728050D01*
X202492762Y-56737251D01*
X202509426Y-56757032D01*
X202520763Y-56796466D01*
X202527794Y-56864627D01*
X202531538Y-56970588D01*
X202533015Y-57123423D01*
X202533250Y-57292875D01*
X202532929Y-57491437D01*
X202531254Y-57635598D01*
X202527159Y-57734459D01*
X202519579Y-57797117D01*
X202507446Y-57832672D01*
X202489696Y-57850223D01*
X202466989Y-57858421D01*
X202415487Y-57894747D01*
X202411712Y-57933562D01*
X202435002Y-57971802D01*
X202496079Y-57992916D01*
X202573224Y-58001052D01*
X202723750Y-58010729D01*
X202723750Y-58356500D01*
X202184000Y-58356500D01*
X202184000Y-55848250D01*
X204216000Y-55848250D01*
X204454125Y-55848250D01*
X204454125Y-55593230D01*
X204216000Y-55593230D01*
X204214411Y-55611040D01*
X204205322Y-55625228D01*
X204182257Y-55636207D01*
X204138736Y-55644388D01*
X204068281Y-55650182D01*
X203964414Y-55654001D01*
X203820656Y-55656255D01*
X203630528Y-55657357D01*
X203387553Y-55657718D01*
X203200000Y-55657750D01*
X202919547Y-55657649D01*
X202696114Y-55657071D01*
X202523225Y-55655607D01*
X202394401Y-55652843D01*
X202303162Y-55648369D01*
X202243032Y-55641773D01*
X202207530Y-55632644D01*
X202190179Y-55620570D01*
X202184501Y-55605140D01*
X202184000Y-55593230D01*
X202207784Y-55475469D01*
X202268778Y-55352992D01*
X202351451Y-55256438D01*
X202357013Y-55251941D01*
X202442430Y-55205488D01*
X202553340Y-55170165D01*
X202591048Y-55163112D01*
X202702800Y-55139844D01*
X202803270Y-55107673D01*
X202828342Y-55096460D01*
X202926433Y-55017400D01*
X203002443Y-54903163D01*
X203039763Y-54780368D01*
X203041132Y-54755375D01*
X203061970Y-54660898D01*
X203114054Y-54584654D01*
X203182111Y-54547447D01*
X203194484Y-54546500D01*
X203271940Y-54574886D01*
X203332104Y-54646606D01*
X203358681Y-54741501D01*
X203358869Y-54749858D01*
X203386119Y-54876290D01*
X203456663Y-54997447D01*
X203554127Y-55086661D01*
X203571659Y-55096460D01*
X203659254Y-55129186D01*
X203771475Y-55156756D01*
X203808953Y-55163112D01*
X203919834Y-55191165D01*
X204018453Y-55235369D01*
X204042988Y-55251941D01*
X204126504Y-55345842D01*
X204189318Y-55467593D01*
X204215897Y-55586552D01*
X204216000Y-55593230D01*
X204454125Y-55593230D01*
X204454125Y-55345720D01*
X204358679Y-55208047D01*
X204257226Y-55098299D01*
X204122709Y-55001642D01*
X203976552Y-54930388D01*
X203840179Y-54896849D01*
X203815233Y-54895750D01*
X203711485Y-54867915D01*
X203640441Y-54792129D01*
X203612693Y-54679964D01*
X203612632Y-54674372D01*
X203583119Y-54547693D01*
X203504662Y-54433708D01*
X203391810Y-54345885D01*
X203259114Y-54297688D01*
X203200001Y-54292500D01*
X203057107Y-54321043D01*
%TO.C,S10*%
G36*
X166862107Y-54321043D02*
G01*
X166737271Y-54397913D01*
X166644051Y-54509970D01*
X166596005Y-54644075D01*
X166592369Y-54692391D01*
X166568553Y-54794444D01*
X166494951Y-54863052D01*
X166367900Y-54901370D01*
X166346197Y-54904427D01*
X166174013Y-54953462D01*
X166007914Y-55048369D01*
X165872049Y-55174140D01*
X165837477Y-55220593D01*
X165750875Y-55351426D01*
X165741594Y-57036525D01*
X165739575Y-57427006D01*
X165738431Y-57759322D01*
X165738571Y-58038804D01*
X165740406Y-58270787D01*
X165744344Y-58460601D01*
X165750795Y-58613581D01*
X165760168Y-58735059D01*
X165772873Y-58830367D01*
X165789318Y-58904839D01*
X165809913Y-58963806D01*
X165835068Y-59012602D01*
X165865192Y-59056559D01*
X165900003Y-59100172D01*
X165988894Y-59187162D01*
X166097662Y-59264841D01*
X166205454Y-59320324D01*
X166289361Y-59340750D01*
X166312695Y-59350790D01*
X166327405Y-59388189D01*
X166335281Y-59463860D01*
X166338115Y-59588715D01*
X166338250Y-59638487D01*
X166340729Y-59788879D01*
X166349359Y-59888010D01*
X166365932Y-59947971D01*
X166388537Y-59977958D01*
X166449728Y-60002527D01*
X166491724Y-59986421D01*
X166518526Y-59956160D01*
X166536331Y-59897663D01*
X166547456Y-59798847D01*
X166553754Y-59662824D01*
X166562883Y-59372500D01*
X166907451Y-59372500D01*
X166916538Y-59682062D01*
X166921285Y-59823970D01*
X166927679Y-59914135D01*
X166939073Y-59964288D01*
X166958822Y-59986164D01*
X166990277Y-59991496D01*
X167005000Y-59991625D01*
X167041454Y-59989360D01*
X167065002Y-59974746D01*
X167078998Y-59936048D01*
X167086794Y-59861533D01*
X167091745Y-59739469D01*
X167093463Y-59682062D01*
X167102550Y-59372500D01*
X167449500Y-59372500D01*
X167449500Y-59628587D01*
X167458016Y-59808478D01*
X167482927Y-59932907D01*
X167523281Y-60000110D01*
X167578125Y-60008324D01*
X167633650Y-59969400D01*
X167654041Y-59915212D01*
X167667019Y-59805120D01*
X167671745Y-59646379D01*
X167671750Y-59639993D01*
X167671750Y-59348687D01*
X167759063Y-59331143D01*
X167893262Y-59277752D01*
X168029920Y-59177542D01*
X168151245Y-59043877D01*
X168162696Y-59027982D01*
X168259125Y-58890779D01*
X168259125Y-58643269D01*
X168021000Y-58643269D01*
X167992242Y-58780933D01*
X167915593Y-58912624D01*
X167805493Y-59020239D01*
X167676381Y-59085675D01*
X167665887Y-59088490D01*
X167601776Y-59096392D01*
X167486031Y-59102705D01*
X167330502Y-59107100D01*
X167147044Y-59109250D01*
X166947509Y-59108826D01*
X166935830Y-59108717D01*
X166719580Y-59106159D01*
X166557336Y-59102653D01*
X166439605Y-59097248D01*
X166356893Y-59088989D01*
X166299708Y-59076922D01*
X166258554Y-59060095D01*
X166223939Y-59037553D01*
X166223416Y-59037163D01*
X166088717Y-58905700D01*
X166013006Y-58755236D01*
X165999892Y-58697067D01*
X165980692Y-58578750D01*
X167000846Y-58578750D01*
X167281933Y-58578850D01*
X167505985Y-58579423D01*
X167679467Y-58580878D01*
X167808845Y-58583624D01*
X167900585Y-58588070D01*
X167961151Y-58594625D01*
X167997008Y-58603697D01*
X168014623Y-58615695D01*
X168020460Y-58631029D01*
X168021000Y-58643269D01*
X168259125Y-58643269D01*
X168259125Y-55848250D01*
X168021000Y-55848250D01*
X168021000Y-58356500D01*
X167544750Y-58356500D01*
X167544750Y-58010729D01*
X167598866Y-58007250D01*
X167354250Y-58007250D01*
X167354250Y-58356500D01*
X166719250Y-58356500D01*
X166719250Y-58007250D01*
X167354250Y-58007250D01*
X167598866Y-58007250D01*
X167695277Y-58001052D01*
X167798215Y-57982052D01*
X167855027Y-57946650D01*
X167860724Y-57903260D01*
X167810320Y-57860295D01*
X167785186Y-57849378D01*
X167703500Y-57818321D01*
X167703500Y-57279994D01*
X167703736Y-57083760D01*
X167705227Y-56941954D01*
X167709149Y-56845503D01*
X167716680Y-56785335D01*
X167728995Y-56752376D01*
X167747270Y-56737554D01*
X167748611Y-56737250D01*
X167544750Y-56737250D01*
X167544750Y-57852717D01*
X167457438Y-57842671D01*
X167370125Y-57832625D01*
X167361438Y-57284937D01*
X167352751Y-56737250D01*
X167195500Y-56737250D01*
X167195500Y-57848500D01*
X166878000Y-57848500D01*
X166878000Y-56737250D01*
X166719250Y-56737250D01*
X166719250Y-57271708D01*
X166718051Y-57449844D01*
X166714731Y-57605368D01*
X166709705Y-57727365D01*
X166703389Y-57804922D01*
X166698084Y-57827333D01*
X166652653Y-57844039D01*
X166602834Y-57848500D01*
X166528750Y-57848500D01*
X166528750Y-56737250D01*
X166719250Y-56737250D01*
X166878000Y-56737250D01*
X167195500Y-56737250D01*
X167352751Y-56737250D01*
X167544750Y-56737250D01*
X167748611Y-56737250D01*
X167772682Y-56731797D01*
X167774614Y-56731520D01*
X167833702Y-56700153D01*
X167858865Y-56643976D01*
X167841784Y-56588508D01*
X167825687Y-56574853D01*
X167766893Y-56556688D01*
X167678430Y-56547490D01*
X167663813Y-56547236D01*
X167586779Y-56543259D01*
X167553156Y-56519729D01*
X167544949Y-56457966D01*
X167544750Y-56423637D01*
X167530503Y-56319812D01*
X167492973Y-56255985D01*
X167439976Y-56241054D01*
X167401875Y-56261000D01*
X167369151Y-56319870D01*
X167354411Y-56412687D01*
X167354250Y-56423637D01*
X167354250Y-56546750D01*
X166719250Y-56546750D01*
X166719250Y-56423637D01*
X166705003Y-56319812D01*
X166667473Y-56255985D01*
X166614476Y-56241054D01*
X166576375Y-56261000D01*
X166543651Y-56319870D01*
X166528911Y-56412687D01*
X166528750Y-56423637D01*
X166525014Y-56503325D01*
X166502891Y-56538113D01*
X166446013Y-56546571D01*
X166420222Y-56546750D01*
X166330339Y-56552228D01*
X166262965Y-56565466D01*
X166261472Y-56566021D01*
X166218292Y-56609116D01*
X166216226Y-56669656D01*
X166252913Y-56718803D01*
X166274750Y-56728050D01*
X166297762Y-56737251D01*
X166314426Y-56757032D01*
X166325763Y-56796466D01*
X166332794Y-56864627D01*
X166336538Y-56970588D01*
X166338015Y-57123423D01*
X166338250Y-57292875D01*
X166337929Y-57491437D01*
X166336254Y-57635598D01*
X166332159Y-57734459D01*
X166324579Y-57797117D01*
X166312446Y-57832672D01*
X166294696Y-57850223D01*
X166271989Y-57858421D01*
X166220487Y-57894747D01*
X166216712Y-57933562D01*
X166240002Y-57971802D01*
X166301079Y-57992916D01*
X166378224Y-58001052D01*
X166528750Y-58010729D01*
X166528750Y-58356500D01*
X165989000Y-58356500D01*
X165989000Y-55848250D01*
X168021000Y-55848250D01*
X168259125Y-55848250D01*
X168259125Y-55593230D01*
X168021000Y-55593230D01*
X168019411Y-55611040D01*
X168010322Y-55625228D01*
X167987257Y-55636207D01*
X167943736Y-55644388D01*
X167873281Y-55650182D01*
X167769414Y-55654001D01*
X167625656Y-55656255D01*
X167435528Y-55657357D01*
X167192553Y-55657718D01*
X167005000Y-55657750D01*
X166724547Y-55657649D01*
X166501114Y-55657071D01*
X166328225Y-55655607D01*
X166199401Y-55652843D01*
X166108162Y-55648369D01*
X166048032Y-55641773D01*
X166012530Y-55632644D01*
X165995179Y-55620570D01*
X165989501Y-55605140D01*
X165989000Y-55593230D01*
X166012784Y-55475469D01*
X166073778Y-55352992D01*
X166156451Y-55256438D01*
X166162013Y-55251941D01*
X166247430Y-55205488D01*
X166358340Y-55170165D01*
X166396048Y-55163112D01*
X166507800Y-55139844D01*
X166608270Y-55107673D01*
X166633342Y-55096460D01*
X166731433Y-55017400D01*
X166807443Y-54903163D01*
X166844763Y-54780368D01*
X166846132Y-54755375D01*
X166866970Y-54660898D01*
X166919054Y-54584654D01*
X166987111Y-54547447D01*
X166999484Y-54546500D01*
X167076940Y-54574886D01*
X167137104Y-54646606D01*
X167163681Y-54741501D01*
X167163869Y-54749858D01*
X167191119Y-54876290D01*
X167261663Y-54997447D01*
X167359127Y-55086661D01*
X167376659Y-55096460D01*
X167464254Y-55129186D01*
X167576475Y-55156756D01*
X167613953Y-55163112D01*
X167724834Y-55191165D01*
X167823453Y-55235369D01*
X167847988Y-55251941D01*
X167931504Y-55345842D01*
X167994318Y-55467593D01*
X168020897Y-55586552D01*
X168021000Y-55593230D01*
X168259125Y-55593230D01*
X168259125Y-55345720D01*
X168163679Y-55208047D01*
X168062226Y-55098299D01*
X167927709Y-55001642D01*
X167781552Y-54930388D01*
X167645179Y-54896849D01*
X167620233Y-54895750D01*
X167516485Y-54867915D01*
X167445441Y-54792129D01*
X167417693Y-54679964D01*
X167417632Y-54674372D01*
X167388119Y-54547693D01*
X167309662Y-54433708D01*
X167196810Y-54345885D01*
X167064114Y-54297688D01*
X167005001Y-54292500D01*
X166862107Y-54321043D01*
G37*
X166862107Y-54321043D02*
X166737271Y-54397913D01*
X166644051Y-54509970D01*
X166596005Y-54644075D01*
X166592369Y-54692391D01*
X166568553Y-54794444D01*
X166494951Y-54863052D01*
X166367900Y-54901370D01*
X166346197Y-54904427D01*
X166174013Y-54953462D01*
X166007914Y-55048369D01*
X165872049Y-55174140D01*
X165837477Y-55220593D01*
X165750875Y-55351426D01*
X165741594Y-57036525D01*
X165739575Y-57427006D01*
X165738431Y-57759322D01*
X165738571Y-58038804D01*
X165740406Y-58270787D01*
X165744344Y-58460601D01*
X165750795Y-58613581D01*
X165760168Y-58735059D01*
X165772873Y-58830367D01*
X165789318Y-58904839D01*
X165809913Y-58963806D01*
X165835068Y-59012602D01*
X165865192Y-59056559D01*
X165900003Y-59100172D01*
X165988894Y-59187162D01*
X166097662Y-59264841D01*
X166205454Y-59320324D01*
X166289361Y-59340750D01*
X166312695Y-59350790D01*
X166327405Y-59388189D01*
X166335281Y-59463860D01*
X166338115Y-59588715D01*
X166338250Y-59638487D01*
X166340729Y-59788879D01*
X166349359Y-59888010D01*
X166365932Y-59947971D01*
X166388537Y-59977958D01*
X166449728Y-60002527D01*
X166491724Y-59986421D01*
X166518526Y-59956160D01*
X166536331Y-59897663D01*
X166547456Y-59798847D01*
X166553754Y-59662824D01*
X166562883Y-59372500D01*
X166907451Y-59372500D01*
X166916538Y-59682062D01*
X166921285Y-59823970D01*
X166927679Y-59914135D01*
X166939073Y-59964288D01*
X166958822Y-59986164D01*
X166990277Y-59991496D01*
X167005000Y-59991625D01*
X167041454Y-59989360D01*
X167065002Y-59974746D01*
X167078998Y-59936048D01*
X167086794Y-59861533D01*
X167091745Y-59739469D01*
X167093463Y-59682062D01*
X167102550Y-59372500D01*
X167449500Y-59372500D01*
X167449500Y-59628587D01*
X167458016Y-59808478D01*
X167482927Y-59932907D01*
X167523281Y-60000110D01*
X167578125Y-60008324D01*
X167633650Y-59969400D01*
X167654041Y-59915212D01*
X167667019Y-59805120D01*
X167671745Y-59646379D01*
X167671750Y-59639993D01*
X167671750Y-59348687D01*
X167759063Y-59331143D01*
X167893262Y-59277752D01*
X168029920Y-59177542D01*
X168151245Y-59043877D01*
X168162696Y-59027982D01*
X168259125Y-58890779D01*
X168259125Y-58643269D01*
X168021000Y-58643269D01*
X167992242Y-58780933D01*
X167915593Y-58912624D01*
X167805493Y-59020239D01*
X167676381Y-59085675D01*
X167665887Y-59088490D01*
X167601776Y-59096392D01*
X167486031Y-59102705D01*
X167330502Y-59107100D01*
X167147044Y-59109250D01*
X166947509Y-59108826D01*
X166935830Y-59108717D01*
X166719580Y-59106159D01*
X166557336Y-59102653D01*
X166439605Y-59097248D01*
X166356893Y-59088989D01*
X166299708Y-59076922D01*
X166258554Y-59060095D01*
X166223939Y-59037553D01*
X166223416Y-59037163D01*
X166088717Y-58905700D01*
X166013006Y-58755236D01*
X165999892Y-58697067D01*
X165980692Y-58578750D01*
X167000846Y-58578750D01*
X167281933Y-58578850D01*
X167505985Y-58579423D01*
X167679467Y-58580878D01*
X167808845Y-58583624D01*
X167900585Y-58588070D01*
X167961151Y-58594625D01*
X167997008Y-58603697D01*
X168014623Y-58615695D01*
X168020460Y-58631029D01*
X168021000Y-58643269D01*
X168259125Y-58643269D01*
X168259125Y-55848250D01*
X168021000Y-55848250D01*
X168021000Y-58356500D01*
X167544750Y-58356500D01*
X167544750Y-58010729D01*
X167598866Y-58007250D01*
X167354250Y-58007250D01*
X167354250Y-58356500D01*
X166719250Y-58356500D01*
X166719250Y-58007250D01*
X167354250Y-58007250D01*
X167598866Y-58007250D01*
X167695277Y-58001052D01*
X167798215Y-57982052D01*
X167855027Y-57946650D01*
X167860724Y-57903260D01*
X167810320Y-57860295D01*
X167785186Y-57849378D01*
X167703500Y-57818321D01*
X167703500Y-57279994D01*
X167703736Y-57083760D01*
X167705227Y-56941954D01*
X167709149Y-56845503D01*
X167716680Y-56785335D01*
X167728995Y-56752376D01*
X167747270Y-56737554D01*
X167748611Y-56737250D01*
X167544750Y-56737250D01*
X167544750Y-57852717D01*
X167457438Y-57842671D01*
X167370125Y-57832625D01*
X167361438Y-57284937D01*
X167352751Y-56737250D01*
X167195500Y-56737250D01*
X167195500Y-57848500D01*
X166878000Y-57848500D01*
X166878000Y-56737250D01*
X166719250Y-56737250D01*
X166719250Y-57271708D01*
X166718051Y-57449844D01*
X166714731Y-57605368D01*
X166709705Y-57727365D01*
X166703389Y-57804922D01*
X166698084Y-57827333D01*
X166652653Y-57844039D01*
X166602834Y-57848500D01*
X166528750Y-57848500D01*
X166528750Y-56737250D01*
X166719250Y-56737250D01*
X166878000Y-56737250D01*
X167195500Y-56737250D01*
X167352751Y-56737250D01*
X167544750Y-56737250D01*
X167748611Y-56737250D01*
X167772682Y-56731797D01*
X167774614Y-56731520D01*
X167833702Y-56700153D01*
X167858865Y-56643976D01*
X167841784Y-56588508D01*
X167825687Y-56574853D01*
X167766893Y-56556688D01*
X167678430Y-56547490D01*
X167663813Y-56547236D01*
X167586779Y-56543259D01*
X167553156Y-56519729D01*
X167544949Y-56457966D01*
X167544750Y-56423637D01*
X167530503Y-56319812D01*
X167492973Y-56255985D01*
X167439976Y-56241054D01*
X167401875Y-56261000D01*
X167369151Y-56319870D01*
X167354411Y-56412687D01*
X167354250Y-56423637D01*
X167354250Y-56546750D01*
X166719250Y-56546750D01*
X166719250Y-56423637D01*
X166705003Y-56319812D01*
X166667473Y-56255985D01*
X166614476Y-56241054D01*
X166576375Y-56261000D01*
X166543651Y-56319870D01*
X166528911Y-56412687D01*
X166528750Y-56423637D01*
X166525014Y-56503325D01*
X166502891Y-56538113D01*
X166446013Y-56546571D01*
X166420222Y-56546750D01*
X166330339Y-56552228D01*
X166262965Y-56565466D01*
X166261472Y-56566021D01*
X166218292Y-56609116D01*
X166216226Y-56669656D01*
X166252913Y-56718803D01*
X166274750Y-56728050D01*
X166297762Y-56737251D01*
X166314426Y-56757032D01*
X166325763Y-56796466D01*
X166332794Y-56864627D01*
X166336538Y-56970588D01*
X166338015Y-57123423D01*
X166338250Y-57292875D01*
X166337929Y-57491437D01*
X166336254Y-57635598D01*
X166332159Y-57734459D01*
X166324579Y-57797117D01*
X166312446Y-57832672D01*
X166294696Y-57850223D01*
X166271989Y-57858421D01*
X166220487Y-57894747D01*
X166216712Y-57933562D01*
X166240002Y-57971802D01*
X166301079Y-57992916D01*
X166378224Y-58001052D01*
X166528750Y-58010729D01*
X166528750Y-58356500D01*
X165989000Y-58356500D01*
X165989000Y-55848250D01*
X168021000Y-55848250D01*
X168259125Y-55848250D01*
X168259125Y-55593230D01*
X168021000Y-55593230D01*
X168019411Y-55611040D01*
X168010322Y-55625228D01*
X167987257Y-55636207D01*
X167943736Y-55644388D01*
X167873281Y-55650182D01*
X167769414Y-55654001D01*
X167625656Y-55656255D01*
X167435528Y-55657357D01*
X167192553Y-55657718D01*
X167005000Y-55657750D01*
X166724547Y-55657649D01*
X166501114Y-55657071D01*
X166328225Y-55655607D01*
X166199401Y-55652843D01*
X166108162Y-55648369D01*
X166048032Y-55641773D01*
X166012530Y-55632644D01*
X165995179Y-55620570D01*
X165989501Y-55605140D01*
X165989000Y-55593230D01*
X166012784Y-55475469D01*
X166073778Y-55352992D01*
X166156451Y-55256438D01*
X166162013Y-55251941D01*
X166247430Y-55205488D01*
X166358340Y-55170165D01*
X166396048Y-55163112D01*
X166507800Y-55139844D01*
X166608270Y-55107673D01*
X166633342Y-55096460D01*
X166731433Y-55017400D01*
X166807443Y-54903163D01*
X166844763Y-54780368D01*
X166846132Y-54755375D01*
X166866970Y-54660898D01*
X166919054Y-54584654D01*
X166987111Y-54547447D01*
X166999484Y-54546500D01*
X167076940Y-54574886D01*
X167137104Y-54646606D01*
X167163681Y-54741501D01*
X167163869Y-54749858D01*
X167191119Y-54876290D01*
X167261663Y-54997447D01*
X167359127Y-55086661D01*
X167376659Y-55096460D01*
X167464254Y-55129186D01*
X167576475Y-55156756D01*
X167613953Y-55163112D01*
X167724834Y-55191165D01*
X167823453Y-55235369D01*
X167847988Y-55251941D01*
X167931504Y-55345842D01*
X167994318Y-55467593D01*
X168020897Y-55586552D01*
X168021000Y-55593230D01*
X168259125Y-55593230D01*
X168259125Y-55345720D01*
X168163679Y-55208047D01*
X168062226Y-55098299D01*
X167927709Y-55001642D01*
X167781552Y-54930388D01*
X167645179Y-54896849D01*
X167620233Y-54895750D01*
X167516485Y-54867915D01*
X167445441Y-54792129D01*
X167417693Y-54679964D01*
X167417632Y-54674372D01*
X167388119Y-54547693D01*
X167309662Y-54433708D01*
X167196810Y-54345885D01*
X167064114Y-54297688D01*
X167005001Y-54292500D01*
X166862107Y-54321043D01*
%TO.C,S9*%
G36*
X141462107Y-54321043D02*
G01*
X141337271Y-54397913D01*
X141244051Y-54509970D01*
X141196005Y-54644075D01*
X141192369Y-54692391D01*
X141168553Y-54794444D01*
X141094951Y-54863052D01*
X140967900Y-54901370D01*
X140946197Y-54904427D01*
X140774013Y-54953462D01*
X140607914Y-55048369D01*
X140472049Y-55174140D01*
X140437477Y-55220593D01*
X140350875Y-55351426D01*
X140341594Y-57036525D01*
X140339575Y-57427006D01*
X140338431Y-57759322D01*
X140338571Y-58038804D01*
X140340406Y-58270787D01*
X140344344Y-58460601D01*
X140350795Y-58613581D01*
X140360168Y-58735059D01*
X140372873Y-58830367D01*
X140389318Y-58904839D01*
X140409913Y-58963806D01*
X140435068Y-59012602D01*
X140465192Y-59056559D01*
X140500003Y-59100172D01*
X140588894Y-59187162D01*
X140697662Y-59264841D01*
X140805454Y-59320324D01*
X140889361Y-59340750D01*
X140912695Y-59350790D01*
X140927405Y-59388189D01*
X140935281Y-59463860D01*
X140938115Y-59588715D01*
X140938250Y-59638487D01*
X140940729Y-59788879D01*
X140949359Y-59888010D01*
X140965932Y-59947971D01*
X140988537Y-59977958D01*
X141049728Y-60002527D01*
X141091724Y-59986421D01*
X141118526Y-59956160D01*
X141136331Y-59897663D01*
X141147456Y-59798847D01*
X141153754Y-59662824D01*
X141162883Y-59372500D01*
X141507451Y-59372500D01*
X141516538Y-59682062D01*
X141521285Y-59823970D01*
X141527679Y-59914135D01*
X141539073Y-59964288D01*
X141558822Y-59986164D01*
X141590277Y-59991496D01*
X141605000Y-59991625D01*
X141641454Y-59989360D01*
X141665002Y-59974746D01*
X141678998Y-59936048D01*
X141686794Y-59861533D01*
X141691745Y-59739469D01*
X141693463Y-59682062D01*
X141702550Y-59372500D01*
X142049500Y-59372500D01*
X142049500Y-59628587D01*
X142058016Y-59808478D01*
X142082927Y-59932907D01*
X142123281Y-60000110D01*
X142178125Y-60008324D01*
X142233650Y-59969400D01*
X142254041Y-59915212D01*
X142267019Y-59805120D01*
X142271745Y-59646379D01*
X142271750Y-59639993D01*
X142271750Y-59348687D01*
X142359063Y-59331143D01*
X142493262Y-59277752D01*
X142629920Y-59177542D01*
X142751245Y-59043877D01*
X142762696Y-59027982D01*
X142859125Y-58890779D01*
X142859125Y-58643269D01*
X142621000Y-58643269D01*
X142592242Y-58780933D01*
X142515593Y-58912624D01*
X142405493Y-59020239D01*
X142276381Y-59085675D01*
X142265887Y-59088490D01*
X142201776Y-59096392D01*
X142086031Y-59102705D01*
X141930502Y-59107100D01*
X141747044Y-59109250D01*
X141547509Y-59108826D01*
X141535830Y-59108717D01*
X141319580Y-59106159D01*
X141157336Y-59102653D01*
X141039605Y-59097248D01*
X140956893Y-59088989D01*
X140899708Y-59076922D01*
X140858554Y-59060095D01*
X140823939Y-59037553D01*
X140823416Y-59037163D01*
X140688717Y-58905700D01*
X140613006Y-58755236D01*
X140599892Y-58697067D01*
X140580692Y-58578750D01*
X141600846Y-58578750D01*
X141881933Y-58578850D01*
X142105985Y-58579423D01*
X142279467Y-58580878D01*
X142408845Y-58583624D01*
X142500585Y-58588070D01*
X142561151Y-58594625D01*
X142597008Y-58603697D01*
X142614623Y-58615695D01*
X142620460Y-58631029D01*
X142621000Y-58643269D01*
X142859125Y-58643269D01*
X142859125Y-55848250D01*
X142621000Y-55848250D01*
X142621000Y-58356500D01*
X142144750Y-58356500D01*
X142144750Y-58010729D01*
X142198866Y-58007250D01*
X141954250Y-58007250D01*
X141954250Y-58356500D01*
X141319250Y-58356500D01*
X141319250Y-58007250D01*
X141954250Y-58007250D01*
X142198866Y-58007250D01*
X142295277Y-58001052D01*
X142398215Y-57982052D01*
X142455027Y-57946650D01*
X142460724Y-57903260D01*
X142410320Y-57860295D01*
X142385186Y-57849378D01*
X142303500Y-57818321D01*
X142303500Y-57279994D01*
X142303736Y-57083760D01*
X142305227Y-56941954D01*
X142309149Y-56845503D01*
X142316680Y-56785335D01*
X142328995Y-56752376D01*
X142347270Y-56737554D01*
X142348611Y-56737250D01*
X142144750Y-56737250D01*
X142144750Y-57852717D01*
X142057438Y-57842671D01*
X141970125Y-57832625D01*
X141961438Y-57284937D01*
X141952751Y-56737250D01*
X141795500Y-56737250D01*
X141795500Y-57848500D01*
X141478000Y-57848500D01*
X141478000Y-56737250D01*
X141319250Y-56737250D01*
X141319250Y-57271708D01*
X141318051Y-57449844D01*
X141314731Y-57605368D01*
X141309705Y-57727365D01*
X141303389Y-57804922D01*
X141298084Y-57827333D01*
X141252653Y-57844039D01*
X141202834Y-57848500D01*
X141128750Y-57848500D01*
X141128750Y-56737250D01*
X141319250Y-56737250D01*
X141478000Y-56737250D01*
X141795500Y-56737250D01*
X141952751Y-56737250D01*
X142144750Y-56737250D01*
X142348611Y-56737250D01*
X142372682Y-56731797D01*
X142374614Y-56731520D01*
X142433702Y-56700153D01*
X142458865Y-56643976D01*
X142441784Y-56588508D01*
X142425687Y-56574853D01*
X142366893Y-56556688D01*
X142278430Y-56547490D01*
X142263813Y-56547236D01*
X142186779Y-56543259D01*
X142153156Y-56519729D01*
X142144949Y-56457966D01*
X142144750Y-56423637D01*
X142130503Y-56319812D01*
X142092973Y-56255985D01*
X142039976Y-56241054D01*
X142001875Y-56261000D01*
X141969151Y-56319870D01*
X141954411Y-56412687D01*
X141954250Y-56423637D01*
X141954250Y-56546750D01*
X141319250Y-56546750D01*
X141319250Y-56423637D01*
X141305003Y-56319812D01*
X141267473Y-56255985D01*
X141214476Y-56241054D01*
X141176375Y-56261000D01*
X141143651Y-56319870D01*
X141128911Y-56412687D01*
X141128750Y-56423637D01*
X141125014Y-56503325D01*
X141102891Y-56538113D01*
X141046013Y-56546571D01*
X141020222Y-56546750D01*
X140930339Y-56552228D01*
X140862965Y-56565466D01*
X140861472Y-56566021D01*
X140818292Y-56609116D01*
X140816226Y-56669656D01*
X140852913Y-56718803D01*
X140874750Y-56728050D01*
X140897762Y-56737251D01*
X140914426Y-56757032D01*
X140925763Y-56796466D01*
X140932794Y-56864627D01*
X140936538Y-56970588D01*
X140938015Y-57123423D01*
X140938250Y-57292875D01*
X140937929Y-57491437D01*
X140936254Y-57635598D01*
X140932159Y-57734459D01*
X140924579Y-57797117D01*
X140912446Y-57832672D01*
X140894696Y-57850223D01*
X140871989Y-57858421D01*
X140820487Y-57894747D01*
X140816712Y-57933562D01*
X140840002Y-57971802D01*
X140901079Y-57992916D01*
X140978224Y-58001052D01*
X141128750Y-58010729D01*
X141128750Y-58356500D01*
X140589000Y-58356500D01*
X140589000Y-55848250D01*
X142621000Y-55848250D01*
X142859125Y-55848250D01*
X142859125Y-55593230D01*
X142621000Y-55593230D01*
X142619411Y-55611040D01*
X142610322Y-55625228D01*
X142587257Y-55636207D01*
X142543736Y-55644388D01*
X142473281Y-55650182D01*
X142369414Y-55654001D01*
X142225656Y-55656255D01*
X142035528Y-55657357D01*
X141792553Y-55657718D01*
X141605000Y-55657750D01*
X141324547Y-55657649D01*
X141101114Y-55657071D01*
X140928225Y-55655607D01*
X140799401Y-55652843D01*
X140708162Y-55648369D01*
X140648032Y-55641773D01*
X140612530Y-55632644D01*
X140595179Y-55620570D01*
X140589501Y-55605140D01*
X140589000Y-55593230D01*
X140612784Y-55475469D01*
X140673778Y-55352992D01*
X140756451Y-55256438D01*
X140762013Y-55251941D01*
X140847430Y-55205488D01*
X140958340Y-55170165D01*
X140996048Y-55163112D01*
X141107800Y-55139844D01*
X141208270Y-55107673D01*
X141233342Y-55096460D01*
X141331433Y-55017400D01*
X141407443Y-54903163D01*
X141444763Y-54780368D01*
X141446132Y-54755375D01*
X141466970Y-54660898D01*
X141519054Y-54584654D01*
X141587111Y-54547447D01*
X141599484Y-54546500D01*
X141676940Y-54574886D01*
X141737104Y-54646606D01*
X141763681Y-54741501D01*
X141763869Y-54749858D01*
X141791119Y-54876290D01*
X141861663Y-54997447D01*
X141959127Y-55086661D01*
X141976659Y-55096460D01*
X142064254Y-55129186D01*
X142176475Y-55156756D01*
X142213953Y-55163112D01*
X142324834Y-55191165D01*
X142423453Y-55235369D01*
X142447988Y-55251941D01*
X142531504Y-55345842D01*
X142594318Y-55467593D01*
X142620897Y-55586552D01*
X142621000Y-55593230D01*
X142859125Y-55593230D01*
X142859125Y-55345720D01*
X142763679Y-55208047D01*
X142662226Y-55098299D01*
X142527709Y-55001642D01*
X142381552Y-54930388D01*
X142245179Y-54896849D01*
X142220233Y-54895750D01*
X142116485Y-54867915D01*
X142045441Y-54792129D01*
X142017693Y-54679964D01*
X142017632Y-54674372D01*
X141988119Y-54547693D01*
X141909662Y-54433708D01*
X141796810Y-54345885D01*
X141664114Y-54297688D01*
X141605001Y-54292500D01*
X141462107Y-54321043D01*
G37*
X141462107Y-54321043D02*
X141337271Y-54397913D01*
X141244051Y-54509970D01*
X141196005Y-54644075D01*
X141192369Y-54692391D01*
X141168553Y-54794444D01*
X141094951Y-54863052D01*
X140967900Y-54901370D01*
X140946197Y-54904427D01*
X140774013Y-54953462D01*
X140607914Y-55048369D01*
X140472049Y-55174140D01*
X140437477Y-55220593D01*
X140350875Y-55351426D01*
X140341594Y-57036525D01*
X140339575Y-57427006D01*
X140338431Y-57759322D01*
X140338571Y-58038804D01*
X140340406Y-58270787D01*
X140344344Y-58460601D01*
X140350795Y-58613581D01*
X140360168Y-58735059D01*
X140372873Y-58830367D01*
X140389318Y-58904839D01*
X140409913Y-58963806D01*
X140435068Y-59012602D01*
X140465192Y-59056559D01*
X140500003Y-59100172D01*
X140588894Y-59187162D01*
X140697662Y-59264841D01*
X140805454Y-59320324D01*
X140889361Y-59340750D01*
X140912695Y-59350790D01*
X140927405Y-59388189D01*
X140935281Y-59463860D01*
X140938115Y-59588715D01*
X140938250Y-59638487D01*
X140940729Y-59788879D01*
X140949359Y-59888010D01*
X140965932Y-59947971D01*
X140988537Y-59977958D01*
X141049728Y-60002527D01*
X141091724Y-59986421D01*
X141118526Y-59956160D01*
X141136331Y-59897663D01*
X141147456Y-59798847D01*
X141153754Y-59662824D01*
X141162883Y-59372500D01*
X141507451Y-59372500D01*
X141516538Y-59682062D01*
X141521285Y-59823970D01*
X141527679Y-59914135D01*
X141539073Y-59964288D01*
X141558822Y-59986164D01*
X141590277Y-59991496D01*
X141605000Y-59991625D01*
X141641454Y-59989360D01*
X141665002Y-59974746D01*
X141678998Y-59936048D01*
X141686794Y-59861533D01*
X141691745Y-59739469D01*
X141693463Y-59682062D01*
X141702550Y-59372500D01*
X142049500Y-59372500D01*
X142049500Y-59628587D01*
X142058016Y-59808478D01*
X142082927Y-59932907D01*
X142123281Y-60000110D01*
X142178125Y-60008324D01*
X142233650Y-59969400D01*
X142254041Y-59915212D01*
X142267019Y-59805120D01*
X142271745Y-59646379D01*
X142271750Y-59639993D01*
X142271750Y-59348687D01*
X142359063Y-59331143D01*
X142493262Y-59277752D01*
X142629920Y-59177542D01*
X142751245Y-59043877D01*
X142762696Y-59027982D01*
X142859125Y-58890779D01*
X142859125Y-58643269D01*
X142621000Y-58643269D01*
X142592242Y-58780933D01*
X142515593Y-58912624D01*
X142405493Y-59020239D01*
X142276381Y-59085675D01*
X142265887Y-59088490D01*
X142201776Y-59096392D01*
X142086031Y-59102705D01*
X141930502Y-59107100D01*
X141747044Y-59109250D01*
X141547509Y-59108826D01*
X141535830Y-59108717D01*
X141319580Y-59106159D01*
X141157336Y-59102653D01*
X141039605Y-59097248D01*
X140956893Y-59088989D01*
X140899708Y-59076922D01*
X140858554Y-59060095D01*
X140823939Y-59037553D01*
X140823416Y-59037163D01*
X140688717Y-58905700D01*
X140613006Y-58755236D01*
X140599892Y-58697067D01*
X140580692Y-58578750D01*
X141600846Y-58578750D01*
X141881933Y-58578850D01*
X142105985Y-58579423D01*
X142279467Y-58580878D01*
X142408845Y-58583624D01*
X142500585Y-58588070D01*
X142561151Y-58594625D01*
X142597008Y-58603697D01*
X142614623Y-58615695D01*
X142620460Y-58631029D01*
X142621000Y-58643269D01*
X142859125Y-58643269D01*
X142859125Y-55848250D01*
X142621000Y-55848250D01*
X142621000Y-58356500D01*
X142144750Y-58356500D01*
X142144750Y-58010729D01*
X142198866Y-58007250D01*
X141954250Y-58007250D01*
X141954250Y-58356500D01*
X141319250Y-58356500D01*
X141319250Y-58007250D01*
X141954250Y-58007250D01*
X142198866Y-58007250D01*
X142295277Y-58001052D01*
X142398215Y-57982052D01*
X142455027Y-57946650D01*
X142460724Y-57903260D01*
X142410320Y-57860295D01*
X142385186Y-57849378D01*
X142303500Y-57818321D01*
X142303500Y-57279994D01*
X142303736Y-57083760D01*
X142305227Y-56941954D01*
X142309149Y-56845503D01*
X142316680Y-56785335D01*
X142328995Y-56752376D01*
X142347270Y-56737554D01*
X142348611Y-56737250D01*
X142144750Y-56737250D01*
X142144750Y-57852717D01*
X142057438Y-57842671D01*
X141970125Y-57832625D01*
X141961438Y-57284937D01*
X141952751Y-56737250D01*
X141795500Y-56737250D01*
X141795500Y-57848500D01*
X141478000Y-57848500D01*
X141478000Y-56737250D01*
X141319250Y-56737250D01*
X141319250Y-57271708D01*
X141318051Y-57449844D01*
X141314731Y-57605368D01*
X141309705Y-57727365D01*
X141303389Y-57804922D01*
X141298084Y-57827333D01*
X141252653Y-57844039D01*
X141202834Y-57848500D01*
X141128750Y-57848500D01*
X141128750Y-56737250D01*
X141319250Y-56737250D01*
X141478000Y-56737250D01*
X141795500Y-56737250D01*
X141952751Y-56737250D01*
X142144750Y-56737250D01*
X142348611Y-56737250D01*
X142372682Y-56731797D01*
X142374614Y-56731520D01*
X142433702Y-56700153D01*
X142458865Y-56643976D01*
X142441784Y-56588508D01*
X142425687Y-56574853D01*
X142366893Y-56556688D01*
X142278430Y-56547490D01*
X142263813Y-56547236D01*
X142186779Y-56543259D01*
X142153156Y-56519729D01*
X142144949Y-56457966D01*
X142144750Y-56423637D01*
X142130503Y-56319812D01*
X142092973Y-56255985D01*
X142039976Y-56241054D01*
X142001875Y-56261000D01*
X141969151Y-56319870D01*
X141954411Y-56412687D01*
X141954250Y-56423637D01*
X141954250Y-56546750D01*
X141319250Y-56546750D01*
X141319250Y-56423637D01*
X141305003Y-56319812D01*
X141267473Y-56255985D01*
X141214476Y-56241054D01*
X141176375Y-56261000D01*
X141143651Y-56319870D01*
X141128911Y-56412687D01*
X141128750Y-56423637D01*
X141125014Y-56503325D01*
X141102891Y-56538113D01*
X141046013Y-56546571D01*
X141020222Y-56546750D01*
X140930339Y-56552228D01*
X140862965Y-56565466D01*
X140861472Y-56566021D01*
X140818292Y-56609116D01*
X140816226Y-56669656D01*
X140852913Y-56718803D01*
X140874750Y-56728050D01*
X140897762Y-56737251D01*
X140914426Y-56757032D01*
X140925763Y-56796466D01*
X140932794Y-56864627D01*
X140936538Y-56970588D01*
X140938015Y-57123423D01*
X140938250Y-57292875D01*
X140937929Y-57491437D01*
X140936254Y-57635598D01*
X140932159Y-57734459D01*
X140924579Y-57797117D01*
X140912446Y-57832672D01*
X140894696Y-57850223D01*
X140871989Y-57858421D01*
X140820487Y-57894747D01*
X140816712Y-57933562D01*
X140840002Y-57971802D01*
X140901079Y-57992916D01*
X140978224Y-58001052D01*
X141128750Y-58010729D01*
X141128750Y-58356500D01*
X140589000Y-58356500D01*
X140589000Y-55848250D01*
X142621000Y-55848250D01*
X142859125Y-55848250D01*
X142859125Y-55593230D01*
X142621000Y-55593230D01*
X142619411Y-55611040D01*
X142610322Y-55625228D01*
X142587257Y-55636207D01*
X142543736Y-55644388D01*
X142473281Y-55650182D01*
X142369414Y-55654001D01*
X142225656Y-55656255D01*
X142035528Y-55657357D01*
X141792553Y-55657718D01*
X141605000Y-55657750D01*
X141324547Y-55657649D01*
X141101114Y-55657071D01*
X140928225Y-55655607D01*
X140799401Y-55652843D01*
X140708162Y-55648369D01*
X140648032Y-55641773D01*
X140612530Y-55632644D01*
X140595179Y-55620570D01*
X140589501Y-55605140D01*
X140589000Y-55593230D01*
X140612784Y-55475469D01*
X140673778Y-55352992D01*
X140756451Y-55256438D01*
X140762013Y-55251941D01*
X140847430Y-55205488D01*
X140958340Y-55170165D01*
X140996048Y-55163112D01*
X141107800Y-55139844D01*
X141208270Y-55107673D01*
X141233342Y-55096460D01*
X141331433Y-55017400D01*
X141407443Y-54903163D01*
X141444763Y-54780368D01*
X141446132Y-54755375D01*
X141466970Y-54660898D01*
X141519054Y-54584654D01*
X141587111Y-54547447D01*
X141599484Y-54546500D01*
X141676940Y-54574886D01*
X141737104Y-54646606D01*
X141763681Y-54741501D01*
X141763869Y-54749858D01*
X141791119Y-54876290D01*
X141861663Y-54997447D01*
X141959127Y-55086661D01*
X141976659Y-55096460D01*
X142064254Y-55129186D01*
X142176475Y-55156756D01*
X142213953Y-55163112D01*
X142324834Y-55191165D01*
X142423453Y-55235369D01*
X142447988Y-55251941D01*
X142531504Y-55345842D01*
X142594318Y-55467593D01*
X142620897Y-55586552D01*
X142621000Y-55593230D01*
X142859125Y-55593230D01*
X142859125Y-55345720D01*
X142763679Y-55208047D01*
X142662226Y-55098299D01*
X142527709Y-55001642D01*
X142381552Y-54930388D01*
X142245179Y-54896849D01*
X142220233Y-54895750D01*
X142116485Y-54867915D01*
X142045441Y-54792129D01*
X142017693Y-54679964D01*
X142017632Y-54674372D01*
X141988119Y-54547693D01*
X141909662Y-54433708D01*
X141796810Y-54345885D01*
X141664114Y-54297688D01*
X141605001Y-54292500D01*
X141462107Y-54321043D01*
%TO.C,S8*%
G36*
X105267107Y-54321043D02*
G01*
X105142271Y-54397913D01*
X105049051Y-54509970D01*
X105001005Y-54644075D01*
X104997369Y-54692391D01*
X104973553Y-54794444D01*
X104899951Y-54863052D01*
X104772900Y-54901370D01*
X104751197Y-54904427D01*
X104579013Y-54953462D01*
X104412914Y-55048369D01*
X104277049Y-55174140D01*
X104242477Y-55220593D01*
X104155875Y-55351426D01*
X104146594Y-57036525D01*
X104144575Y-57427006D01*
X104143431Y-57759322D01*
X104143571Y-58038804D01*
X104145406Y-58270787D01*
X104149344Y-58460601D01*
X104155795Y-58613581D01*
X104165168Y-58735059D01*
X104177873Y-58830367D01*
X104194318Y-58904839D01*
X104214913Y-58963806D01*
X104240068Y-59012602D01*
X104270192Y-59056559D01*
X104305003Y-59100172D01*
X104393894Y-59187162D01*
X104502662Y-59264841D01*
X104610454Y-59320324D01*
X104694361Y-59340750D01*
X104717695Y-59350790D01*
X104732405Y-59388189D01*
X104740281Y-59463860D01*
X104743115Y-59588715D01*
X104743250Y-59638487D01*
X104745729Y-59788879D01*
X104754359Y-59888010D01*
X104770932Y-59947971D01*
X104793537Y-59977958D01*
X104854728Y-60002527D01*
X104896724Y-59986421D01*
X104923526Y-59956160D01*
X104941331Y-59897663D01*
X104952456Y-59798847D01*
X104958754Y-59662824D01*
X104967883Y-59372500D01*
X105312451Y-59372500D01*
X105321538Y-59682062D01*
X105326285Y-59823970D01*
X105332679Y-59914135D01*
X105344073Y-59964288D01*
X105363822Y-59986164D01*
X105395277Y-59991496D01*
X105410000Y-59991625D01*
X105446454Y-59989360D01*
X105470002Y-59974746D01*
X105483998Y-59936048D01*
X105491794Y-59861533D01*
X105496745Y-59739469D01*
X105498463Y-59682062D01*
X105507550Y-59372500D01*
X105854500Y-59372500D01*
X105854500Y-59628587D01*
X105863016Y-59808478D01*
X105887927Y-59932907D01*
X105928281Y-60000110D01*
X105983125Y-60008324D01*
X106038650Y-59969400D01*
X106059041Y-59915212D01*
X106072019Y-59805120D01*
X106076745Y-59646379D01*
X106076750Y-59639993D01*
X106076750Y-59348687D01*
X106164063Y-59331143D01*
X106298262Y-59277752D01*
X106434920Y-59177542D01*
X106556245Y-59043877D01*
X106567696Y-59027982D01*
X106664125Y-58890779D01*
X106664125Y-58643269D01*
X106426000Y-58643269D01*
X106397242Y-58780933D01*
X106320593Y-58912624D01*
X106210493Y-59020239D01*
X106081381Y-59085675D01*
X106070887Y-59088490D01*
X106006776Y-59096392D01*
X105891031Y-59102705D01*
X105735502Y-59107100D01*
X105552044Y-59109250D01*
X105352509Y-59108826D01*
X105340830Y-59108717D01*
X105124580Y-59106159D01*
X104962336Y-59102653D01*
X104844605Y-59097248D01*
X104761893Y-59088989D01*
X104704708Y-59076922D01*
X104663554Y-59060095D01*
X104628939Y-59037553D01*
X104628416Y-59037163D01*
X104493717Y-58905700D01*
X104418006Y-58755236D01*
X104404892Y-58697067D01*
X104385692Y-58578750D01*
X105405846Y-58578750D01*
X105686933Y-58578850D01*
X105910985Y-58579423D01*
X106084467Y-58580878D01*
X106213845Y-58583624D01*
X106305585Y-58588070D01*
X106366151Y-58594625D01*
X106402008Y-58603697D01*
X106419623Y-58615695D01*
X106425460Y-58631029D01*
X106426000Y-58643269D01*
X106664125Y-58643269D01*
X106664125Y-55848250D01*
X106426000Y-55848250D01*
X106426000Y-58356500D01*
X105949750Y-58356500D01*
X105949750Y-58010729D01*
X106003866Y-58007250D01*
X105759250Y-58007250D01*
X105759250Y-58356500D01*
X105124250Y-58356500D01*
X105124250Y-58007250D01*
X105759250Y-58007250D01*
X106003866Y-58007250D01*
X106100277Y-58001052D01*
X106203215Y-57982052D01*
X106260027Y-57946650D01*
X106265724Y-57903260D01*
X106215320Y-57860295D01*
X106190186Y-57849378D01*
X106108500Y-57818321D01*
X106108500Y-57279994D01*
X106108736Y-57083760D01*
X106110227Y-56941954D01*
X106114149Y-56845503D01*
X106121680Y-56785335D01*
X106133995Y-56752376D01*
X106152270Y-56737554D01*
X106153611Y-56737250D01*
X105949750Y-56737250D01*
X105949750Y-57852717D01*
X105862438Y-57842671D01*
X105775125Y-57832625D01*
X105766438Y-57284937D01*
X105757751Y-56737250D01*
X105600500Y-56737250D01*
X105600500Y-57848500D01*
X105283000Y-57848500D01*
X105283000Y-56737250D01*
X105124250Y-56737250D01*
X105124250Y-57271708D01*
X105123051Y-57449844D01*
X105119731Y-57605368D01*
X105114705Y-57727365D01*
X105108389Y-57804922D01*
X105103084Y-57827333D01*
X105057653Y-57844039D01*
X105007834Y-57848500D01*
X104933750Y-57848500D01*
X104933750Y-56737250D01*
X105124250Y-56737250D01*
X105283000Y-56737250D01*
X105600500Y-56737250D01*
X105757751Y-56737250D01*
X105949750Y-56737250D01*
X106153611Y-56737250D01*
X106177682Y-56731797D01*
X106179614Y-56731520D01*
X106238702Y-56700153D01*
X106263865Y-56643976D01*
X106246784Y-56588508D01*
X106230687Y-56574853D01*
X106171893Y-56556688D01*
X106083430Y-56547490D01*
X106068813Y-56547236D01*
X105991779Y-56543259D01*
X105958156Y-56519729D01*
X105949949Y-56457966D01*
X105949750Y-56423637D01*
X105935503Y-56319812D01*
X105897973Y-56255985D01*
X105844976Y-56241054D01*
X105806875Y-56261000D01*
X105774151Y-56319870D01*
X105759411Y-56412687D01*
X105759250Y-56423637D01*
X105759250Y-56546750D01*
X105124250Y-56546750D01*
X105124250Y-56423637D01*
X105110003Y-56319812D01*
X105072473Y-56255985D01*
X105019476Y-56241054D01*
X104981375Y-56261000D01*
X104948651Y-56319870D01*
X104933911Y-56412687D01*
X104933750Y-56423637D01*
X104930014Y-56503325D01*
X104907891Y-56538113D01*
X104851013Y-56546571D01*
X104825222Y-56546750D01*
X104735339Y-56552228D01*
X104667965Y-56565466D01*
X104666472Y-56566021D01*
X104623292Y-56609116D01*
X104621226Y-56669656D01*
X104657913Y-56718803D01*
X104679750Y-56728050D01*
X104702762Y-56737251D01*
X104719426Y-56757032D01*
X104730763Y-56796466D01*
X104737794Y-56864627D01*
X104741538Y-56970588D01*
X104743015Y-57123423D01*
X104743250Y-57292875D01*
X104742929Y-57491437D01*
X104741254Y-57635598D01*
X104737159Y-57734459D01*
X104729579Y-57797117D01*
X104717446Y-57832672D01*
X104699696Y-57850223D01*
X104676989Y-57858421D01*
X104625487Y-57894747D01*
X104621712Y-57933562D01*
X104645002Y-57971802D01*
X104706079Y-57992916D01*
X104783224Y-58001052D01*
X104933750Y-58010729D01*
X104933750Y-58356500D01*
X104394000Y-58356500D01*
X104394000Y-55848250D01*
X106426000Y-55848250D01*
X106664125Y-55848250D01*
X106664125Y-55593230D01*
X106426000Y-55593230D01*
X106424411Y-55611040D01*
X106415322Y-55625228D01*
X106392257Y-55636207D01*
X106348736Y-55644388D01*
X106278281Y-55650182D01*
X106174414Y-55654001D01*
X106030656Y-55656255D01*
X105840528Y-55657357D01*
X105597553Y-55657718D01*
X105410000Y-55657750D01*
X105129547Y-55657649D01*
X104906114Y-55657071D01*
X104733225Y-55655607D01*
X104604401Y-55652843D01*
X104513162Y-55648369D01*
X104453032Y-55641773D01*
X104417530Y-55632644D01*
X104400179Y-55620570D01*
X104394501Y-55605140D01*
X104394000Y-55593230D01*
X104417784Y-55475469D01*
X104478778Y-55352992D01*
X104561451Y-55256438D01*
X104567013Y-55251941D01*
X104652430Y-55205488D01*
X104763340Y-55170165D01*
X104801048Y-55163112D01*
X104912800Y-55139844D01*
X105013270Y-55107673D01*
X105038342Y-55096460D01*
X105136433Y-55017400D01*
X105212443Y-54903163D01*
X105249763Y-54780368D01*
X105251132Y-54755375D01*
X105271970Y-54660898D01*
X105324054Y-54584654D01*
X105392111Y-54547447D01*
X105404484Y-54546500D01*
X105481940Y-54574886D01*
X105542104Y-54646606D01*
X105568681Y-54741501D01*
X105568869Y-54749858D01*
X105596119Y-54876290D01*
X105666663Y-54997447D01*
X105764127Y-55086661D01*
X105781659Y-55096460D01*
X105869254Y-55129186D01*
X105981475Y-55156756D01*
X106018953Y-55163112D01*
X106129834Y-55191165D01*
X106228453Y-55235369D01*
X106252988Y-55251941D01*
X106336504Y-55345842D01*
X106399318Y-55467593D01*
X106425897Y-55586552D01*
X106426000Y-55593230D01*
X106664125Y-55593230D01*
X106664125Y-55345720D01*
X106568679Y-55208047D01*
X106467226Y-55098299D01*
X106332709Y-55001642D01*
X106186552Y-54930388D01*
X106050179Y-54896849D01*
X106025233Y-54895750D01*
X105921485Y-54867915D01*
X105850441Y-54792129D01*
X105822693Y-54679964D01*
X105822632Y-54674372D01*
X105793119Y-54547693D01*
X105714662Y-54433708D01*
X105601810Y-54345885D01*
X105469114Y-54297688D01*
X105410001Y-54292500D01*
X105267107Y-54321043D01*
G37*
X105267107Y-54321043D02*
X105142271Y-54397913D01*
X105049051Y-54509970D01*
X105001005Y-54644075D01*
X104997369Y-54692391D01*
X104973553Y-54794444D01*
X104899951Y-54863052D01*
X104772900Y-54901370D01*
X104751197Y-54904427D01*
X104579013Y-54953462D01*
X104412914Y-55048369D01*
X104277049Y-55174140D01*
X104242477Y-55220593D01*
X104155875Y-55351426D01*
X104146594Y-57036525D01*
X104144575Y-57427006D01*
X104143431Y-57759322D01*
X104143571Y-58038804D01*
X104145406Y-58270787D01*
X104149344Y-58460601D01*
X104155795Y-58613581D01*
X104165168Y-58735059D01*
X104177873Y-58830367D01*
X104194318Y-58904839D01*
X104214913Y-58963806D01*
X104240068Y-59012602D01*
X104270192Y-59056559D01*
X104305003Y-59100172D01*
X104393894Y-59187162D01*
X104502662Y-59264841D01*
X104610454Y-59320324D01*
X104694361Y-59340750D01*
X104717695Y-59350790D01*
X104732405Y-59388189D01*
X104740281Y-59463860D01*
X104743115Y-59588715D01*
X104743250Y-59638487D01*
X104745729Y-59788879D01*
X104754359Y-59888010D01*
X104770932Y-59947971D01*
X104793537Y-59977958D01*
X104854728Y-60002527D01*
X104896724Y-59986421D01*
X104923526Y-59956160D01*
X104941331Y-59897663D01*
X104952456Y-59798847D01*
X104958754Y-59662824D01*
X104967883Y-59372500D01*
X105312451Y-59372500D01*
X105321538Y-59682062D01*
X105326285Y-59823970D01*
X105332679Y-59914135D01*
X105344073Y-59964288D01*
X105363822Y-59986164D01*
X105395277Y-59991496D01*
X105410000Y-59991625D01*
X105446454Y-59989360D01*
X105470002Y-59974746D01*
X105483998Y-59936048D01*
X105491794Y-59861533D01*
X105496745Y-59739469D01*
X105498463Y-59682062D01*
X105507550Y-59372500D01*
X105854500Y-59372500D01*
X105854500Y-59628587D01*
X105863016Y-59808478D01*
X105887927Y-59932907D01*
X105928281Y-60000110D01*
X105983125Y-60008324D01*
X106038650Y-59969400D01*
X106059041Y-59915212D01*
X106072019Y-59805120D01*
X106076745Y-59646379D01*
X106076750Y-59639993D01*
X106076750Y-59348687D01*
X106164063Y-59331143D01*
X106298262Y-59277752D01*
X106434920Y-59177542D01*
X106556245Y-59043877D01*
X106567696Y-59027982D01*
X106664125Y-58890779D01*
X106664125Y-58643269D01*
X106426000Y-58643269D01*
X106397242Y-58780933D01*
X106320593Y-58912624D01*
X106210493Y-59020239D01*
X106081381Y-59085675D01*
X106070887Y-59088490D01*
X106006776Y-59096392D01*
X105891031Y-59102705D01*
X105735502Y-59107100D01*
X105552044Y-59109250D01*
X105352509Y-59108826D01*
X105340830Y-59108717D01*
X105124580Y-59106159D01*
X104962336Y-59102653D01*
X104844605Y-59097248D01*
X104761893Y-59088989D01*
X104704708Y-59076922D01*
X104663554Y-59060095D01*
X104628939Y-59037553D01*
X104628416Y-59037163D01*
X104493717Y-58905700D01*
X104418006Y-58755236D01*
X104404892Y-58697067D01*
X104385692Y-58578750D01*
X105405846Y-58578750D01*
X105686933Y-58578850D01*
X105910985Y-58579423D01*
X106084467Y-58580878D01*
X106213845Y-58583624D01*
X106305585Y-58588070D01*
X106366151Y-58594625D01*
X106402008Y-58603697D01*
X106419623Y-58615695D01*
X106425460Y-58631029D01*
X106426000Y-58643269D01*
X106664125Y-58643269D01*
X106664125Y-55848250D01*
X106426000Y-55848250D01*
X106426000Y-58356500D01*
X105949750Y-58356500D01*
X105949750Y-58010729D01*
X106003866Y-58007250D01*
X105759250Y-58007250D01*
X105759250Y-58356500D01*
X105124250Y-58356500D01*
X105124250Y-58007250D01*
X105759250Y-58007250D01*
X106003866Y-58007250D01*
X106100277Y-58001052D01*
X106203215Y-57982052D01*
X106260027Y-57946650D01*
X106265724Y-57903260D01*
X106215320Y-57860295D01*
X106190186Y-57849378D01*
X106108500Y-57818321D01*
X106108500Y-57279994D01*
X106108736Y-57083760D01*
X106110227Y-56941954D01*
X106114149Y-56845503D01*
X106121680Y-56785335D01*
X106133995Y-56752376D01*
X106152270Y-56737554D01*
X106153611Y-56737250D01*
X105949750Y-56737250D01*
X105949750Y-57852717D01*
X105862438Y-57842671D01*
X105775125Y-57832625D01*
X105766438Y-57284937D01*
X105757751Y-56737250D01*
X105600500Y-56737250D01*
X105600500Y-57848500D01*
X105283000Y-57848500D01*
X105283000Y-56737250D01*
X105124250Y-56737250D01*
X105124250Y-57271708D01*
X105123051Y-57449844D01*
X105119731Y-57605368D01*
X105114705Y-57727365D01*
X105108389Y-57804922D01*
X105103084Y-57827333D01*
X105057653Y-57844039D01*
X105007834Y-57848500D01*
X104933750Y-57848500D01*
X104933750Y-56737250D01*
X105124250Y-56737250D01*
X105283000Y-56737250D01*
X105600500Y-56737250D01*
X105757751Y-56737250D01*
X105949750Y-56737250D01*
X106153611Y-56737250D01*
X106177682Y-56731797D01*
X106179614Y-56731520D01*
X106238702Y-56700153D01*
X106263865Y-56643976D01*
X106246784Y-56588508D01*
X106230687Y-56574853D01*
X106171893Y-56556688D01*
X106083430Y-56547490D01*
X106068813Y-56547236D01*
X105991779Y-56543259D01*
X105958156Y-56519729D01*
X105949949Y-56457966D01*
X105949750Y-56423637D01*
X105935503Y-56319812D01*
X105897973Y-56255985D01*
X105844976Y-56241054D01*
X105806875Y-56261000D01*
X105774151Y-56319870D01*
X105759411Y-56412687D01*
X105759250Y-56423637D01*
X105759250Y-56546750D01*
X105124250Y-56546750D01*
X105124250Y-56423637D01*
X105110003Y-56319812D01*
X105072473Y-56255985D01*
X105019476Y-56241054D01*
X104981375Y-56261000D01*
X104948651Y-56319870D01*
X104933911Y-56412687D01*
X104933750Y-56423637D01*
X104930014Y-56503325D01*
X104907891Y-56538113D01*
X104851013Y-56546571D01*
X104825222Y-56546750D01*
X104735339Y-56552228D01*
X104667965Y-56565466D01*
X104666472Y-56566021D01*
X104623292Y-56609116D01*
X104621226Y-56669656D01*
X104657913Y-56718803D01*
X104679750Y-56728050D01*
X104702762Y-56737251D01*
X104719426Y-56757032D01*
X104730763Y-56796466D01*
X104737794Y-56864627D01*
X104741538Y-56970588D01*
X104743015Y-57123423D01*
X104743250Y-57292875D01*
X104742929Y-57491437D01*
X104741254Y-57635598D01*
X104737159Y-57734459D01*
X104729579Y-57797117D01*
X104717446Y-57832672D01*
X104699696Y-57850223D01*
X104676989Y-57858421D01*
X104625487Y-57894747D01*
X104621712Y-57933562D01*
X104645002Y-57971802D01*
X104706079Y-57992916D01*
X104783224Y-58001052D01*
X104933750Y-58010729D01*
X104933750Y-58356500D01*
X104394000Y-58356500D01*
X104394000Y-55848250D01*
X106426000Y-55848250D01*
X106664125Y-55848250D01*
X106664125Y-55593230D01*
X106426000Y-55593230D01*
X106424411Y-55611040D01*
X106415322Y-55625228D01*
X106392257Y-55636207D01*
X106348736Y-55644388D01*
X106278281Y-55650182D01*
X106174414Y-55654001D01*
X106030656Y-55656255D01*
X105840528Y-55657357D01*
X105597553Y-55657718D01*
X105410000Y-55657750D01*
X105129547Y-55657649D01*
X104906114Y-55657071D01*
X104733225Y-55655607D01*
X104604401Y-55652843D01*
X104513162Y-55648369D01*
X104453032Y-55641773D01*
X104417530Y-55632644D01*
X104400179Y-55620570D01*
X104394501Y-55605140D01*
X104394000Y-55593230D01*
X104417784Y-55475469D01*
X104478778Y-55352992D01*
X104561451Y-55256438D01*
X104567013Y-55251941D01*
X104652430Y-55205488D01*
X104763340Y-55170165D01*
X104801048Y-55163112D01*
X104912800Y-55139844D01*
X105013270Y-55107673D01*
X105038342Y-55096460D01*
X105136433Y-55017400D01*
X105212443Y-54903163D01*
X105249763Y-54780368D01*
X105251132Y-54755375D01*
X105271970Y-54660898D01*
X105324054Y-54584654D01*
X105392111Y-54547447D01*
X105404484Y-54546500D01*
X105481940Y-54574886D01*
X105542104Y-54646606D01*
X105568681Y-54741501D01*
X105568869Y-54749858D01*
X105596119Y-54876290D01*
X105666663Y-54997447D01*
X105764127Y-55086661D01*
X105781659Y-55096460D01*
X105869254Y-55129186D01*
X105981475Y-55156756D01*
X106018953Y-55163112D01*
X106129834Y-55191165D01*
X106228453Y-55235369D01*
X106252988Y-55251941D01*
X106336504Y-55345842D01*
X106399318Y-55467593D01*
X106425897Y-55586552D01*
X106426000Y-55593230D01*
X106664125Y-55593230D01*
X106664125Y-55345720D01*
X106568679Y-55208047D01*
X106467226Y-55098299D01*
X106332709Y-55001642D01*
X106186552Y-54930388D01*
X106050179Y-54896849D01*
X106025233Y-54895750D01*
X105921485Y-54867915D01*
X105850441Y-54792129D01*
X105822693Y-54679964D01*
X105822632Y-54674372D01*
X105793119Y-54547693D01*
X105714662Y-54433708D01*
X105601810Y-54345885D01*
X105469114Y-54297688D01*
X105410001Y-54292500D01*
X105267107Y-54321043D01*
%TO.C,S7*%
G36*
X79867107Y-54321043D02*
G01*
X79742271Y-54397913D01*
X79649051Y-54509970D01*
X79601005Y-54644075D01*
X79597369Y-54692391D01*
X79573553Y-54794444D01*
X79499951Y-54863052D01*
X79372900Y-54901370D01*
X79351197Y-54904427D01*
X79179013Y-54953462D01*
X79012914Y-55048369D01*
X78877049Y-55174140D01*
X78842477Y-55220593D01*
X78755875Y-55351426D01*
X78746594Y-57036525D01*
X78744575Y-57427006D01*
X78743431Y-57759322D01*
X78743571Y-58038804D01*
X78745406Y-58270787D01*
X78749344Y-58460601D01*
X78755795Y-58613581D01*
X78765168Y-58735059D01*
X78777873Y-58830367D01*
X78794318Y-58904839D01*
X78814913Y-58963806D01*
X78840068Y-59012602D01*
X78870192Y-59056559D01*
X78905003Y-59100172D01*
X78993894Y-59187162D01*
X79102662Y-59264841D01*
X79210454Y-59320324D01*
X79294361Y-59340750D01*
X79317695Y-59350790D01*
X79332405Y-59388189D01*
X79340281Y-59463860D01*
X79343115Y-59588715D01*
X79343250Y-59638487D01*
X79345729Y-59788879D01*
X79354359Y-59888010D01*
X79370932Y-59947971D01*
X79393537Y-59977958D01*
X79454728Y-60002527D01*
X79496724Y-59986421D01*
X79523526Y-59956160D01*
X79541331Y-59897663D01*
X79552456Y-59798847D01*
X79558754Y-59662824D01*
X79567883Y-59372500D01*
X79912451Y-59372500D01*
X79921538Y-59682062D01*
X79926285Y-59823970D01*
X79932679Y-59914135D01*
X79944073Y-59964288D01*
X79963822Y-59986164D01*
X79995277Y-59991496D01*
X80010000Y-59991625D01*
X80046454Y-59989360D01*
X80070002Y-59974746D01*
X80083998Y-59936048D01*
X80091794Y-59861533D01*
X80096745Y-59739469D01*
X80098463Y-59682062D01*
X80107550Y-59372500D01*
X80454500Y-59372500D01*
X80454500Y-59628587D01*
X80463016Y-59808478D01*
X80487927Y-59932907D01*
X80528281Y-60000110D01*
X80583125Y-60008324D01*
X80638650Y-59969400D01*
X80659041Y-59915212D01*
X80672019Y-59805120D01*
X80676745Y-59646379D01*
X80676750Y-59639993D01*
X80676750Y-59348687D01*
X80764063Y-59331143D01*
X80898262Y-59277752D01*
X81034920Y-59177542D01*
X81156245Y-59043877D01*
X81167696Y-59027982D01*
X81264125Y-58890779D01*
X81264125Y-58643269D01*
X81026000Y-58643269D01*
X80997242Y-58780933D01*
X80920593Y-58912624D01*
X80810493Y-59020239D01*
X80681381Y-59085675D01*
X80670887Y-59088490D01*
X80606776Y-59096392D01*
X80491031Y-59102705D01*
X80335502Y-59107100D01*
X80152044Y-59109250D01*
X79952509Y-59108826D01*
X79940830Y-59108717D01*
X79724580Y-59106159D01*
X79562336Y-59102653D01*
X79444605Y-59097248D01*
X79361893Y-59088989D01*
X79304708Y-59076922D01*
X79263554Y-59060095D01*
X79228939Y-59037553D01*
X79228416Y-59037163D01*
X79093717Y-58905700D01*
X79018006Y-58755236D01*
X79004892Y-58697067D01*
X78985692Y-58578750D01*
X80005846Y-58578750D01*
X80286933Y-58578850D01*
X80510985Y-58579423D01*
X80684467Y-58580878D01*
X80813845Y-58583624D01*
X80905585Y-58588070D01*
X80966151Y-58594625D01*
X81002008Y-58603697D01*
X81019623Y-58615695D01*
X81025460Y-58631029D01*
X81026000Y-58643269D01*
X81264125Y-58643269D01*
X81264125Y-55848250D01*
X81026000Y-55848250D01*
X81026000Y-58356500D01*
X80549750Y-58356500D01*
X80549750Y-58010729D01*
X80603866Y-58007250D01*
X80359250Y-58007250D01*
X80359250Y-58356500D01*
X79724250Y-58356500D01*
X79724250Y-58007250D01*
X80359250Y-58007250D01*
X80603866Y-58007250D01*
X80700277Y-58001052D01*
X80803215Y-57982052D01*
X80860027Y-57946650D01*
X80865724Y-57903260D01*
X80815320Y-57860295D01*
X80790186Y-57849378D01*
X80708500Y-57818321D01*
X80708500Y-57279994D01*
X80708736Y-57083760D01*
X80710227Y-56941954D01*
X80714149Y-56845503D01*
X80721680Y-56785335D01*
X80733995Y-56752376D01*
X80752270Y-56737554D01*
X80753611Y-56737250D01*
X80549750Y-56737250D01*
X80549750Y-57852717D01*
X80462438Y-57842671D01*
X80375125Y-57832625D01*
X80366438Y-57284937D01*
X80357751Y-56737250D01*
X80200500Y-56737250D01*
X80200500Y-57848500D01*
X79883000Y-57848500D01*
X79883000Y-56737250D01*
X79724250Y-56737250D01*
X79724250Y-57271708D01*
X79723051Y-57449844D01*
X79719731Y-57605368D01*
X79714705Y-57727365D01*
X79708389Y-57804922D01*
X79703084Y-57827333D01*
X79657653Y-57844039D01*
X79607834Y-57848500D01*
X79533750Y-57848500D01*
X79533750Y-56737250D01*
X79724250Y-56737250D01*
X79883000Y-56737250D01*
X80200500Y-56737250D01*
X80357751Y-56737250D01*
X80549750Y-56737250D01*
X80753611Y-56737250D01*
X80777682Y-56731797D01*
X80779614Y-56731520D01*
X80838702Y-56700153D01*
X80863865Y-56643976D01*
X80846784Y-56588508D01*
X80830687Y-56574853D01*
X80771893Y-56556688D01*
X80683430Y-56547490D01*
X80668813Y-56547236D01*
X80591779Y-56543259D01*
X80558156Y-56519729D01*
X80549949Y-56457966D01*
X80549750Y-56423637D01*
X80535503Y-56319812D01*
X80497973Y-56255985D01*
X80444976Y-56241054D01*
X80406875Y-56261000D01*
X80374151Y-56319870D01*
X80359411Y-56412687D01*
X80359250Y-56423637D01*
X80359250Y-56546750D01*
X79724250Y-56546750D01*
X79724250Y-56423637D01*
X79710003Y-56319812D01*
X79672473Y-56255985D01*
X79619476Y-56241054D01*
X79581375Y-56261000D01*
X79548651Y-56319870D01*
X79533911Y-56412687D01*
X79533750Y-56423637D01*
X79530014Y-56503325D01*
X79507891Y-56538113D01*
X79451013Y-56546571D01*
X79425222Y-56546750D01*
X79335339Y-56552228D01*
X79267965Y-56565466D01*
X79266472Y-56566021D01*
X79223292Y-56609116D01*
X79221226Y-56669656D01*
X79257913Y-56718803D01*
X79279750Y-56728050D01*
X79302762Y-56737251D01*
X79319426Y-56757032D01*
X79330763Y-56796466D01*
X79337794Y-56864627D01*
X79341538Y-56970588D01*
X79343015Y-57123423D01*
X79343250Y-57292875D01*
X79342929Y-57491437D01*
X79341254Y-57635598D01*
X79337159Y-57734459D01*
X79329579Y-57797117D01*
X79317446Y-57832672D01*
X79299696Y-57850223D01*
X79276989Y-57858421D01*
X79225487Y-57894747D01*
X79221712Y-57933562D01*
X79245002Y-57971802D01*
X79306079Y-57992916D01*
X79383224Y-58001052D01*
X79533750Y-58010729D01*
X79533750Y-58356500D01*
X78994000Y-58356500D01*
X78994000Y-55848250D01*
X81026000Y-55848250D01*
X81264125Y-55848250D01*
X81264125Y-55593230D01*
X81026000Y-55593230D01*
X81024411Y-55611040D01*
X81015322Y-55625228D01*
X80992257Y-55636207D01*
X80948736Y-55644388D01*
X80878281Y-55650182D01*
X80774414Y-55654001D01*
X80630656Y-55656255D01*
X80440528Y-55657357D01*
X80197553Y-55657718D01*
X80010000Y-55657750D01*
X79729547Y-55657649D01*
X79506114Y-55657071D01*
X79333225Y-55655607D01*
X79204401Y-55652843D01*
X79113162Y-55648369D01*
X79053032Y-55641773D01*
X79017530Y-55632644D01*
X79000179Y-55620570D01*
X78994501Y-55605140D01*
X78994000Y-55593230D01*
X79017784Y-55475469D01*
X79078778Y-55352992D01*
X79161451Y-55256438D01*
X79167013Y-55251941D01*
X79252430Y-55205488D01*
X79363340Y-55170165D01*
X79401048Y-55163112D01*
X79512800Y-55139844D01*
X79613270Y-55107673D01*
X79638342Y-55096460D01*
X79736433Y-55017400D01*
X79812443Y-54903163D01*
X79849763Y-54780368D01*
X79851132Y-54755375D01*
X79871970Y-54660898D01*
X79924054Y-54584654D01*
X79992111Y-54547447D01*
X80004484Y-54546500D01*
X80081940Y-54574886D01*
X80142104Y-54646606D01*
X80168681Y-54741501D01*
X80168869Y-54749858D01*
X80196119Y-54876290D01*
X80266663Y-54997447D01*
X80364127Y-55086661D01*
X80381659Y-55096460D01*
X80469254Y-55129186D01*
X80581475Y-55156756D01*
X80618953Y-55163112D01*
X80729834Y-55191165D01*
X80828453Y-55235369D01*
X80852988Y-55251941D01*
X80936504Y-55345842D01*
X80999318Y-55467593D01*
X81025897Y-55586552D01*
X81026000Y-55593230D01*
X81264125Y-55593230D01*
X81264125Y-55345720D01*
X81168679Y-55208047D01*
X81067226Y-55098299D01*
X80932709Y-55001642D01*
X80786552Y-54930388D01*
X80650179Y-54896849D01*
X80625233Y-54895750D01*
X80521485Y-54867915D01*
X80450441Y-54792129D01*
X80422693Y-54679964D01*
X80422632Y-54674372D01*
X80393119Y-54547693D01*
X80314662Y-54433708D01*
X80201810Y-54345885D01*
X80069114Y-54297688D01*
X80010001Y-54292500D01*
X79867107Y-54321043D01*
G37*
X79867107Y-54321043D02*
X79742271Y-54397913D01*
X79649051Y-54509970D01*
X79601005Y-54644075D01*
X79597369Y-54692391D01*
X79573553Y-54794444D01*
X79499951Y-54863052D01*
X79372900Y-54901370D01*
X79351197Y-54904427D01*
X79179013Y-54953462D01*
X79012914Y-55048369D01*
X78877049Y-55174140D01*
X78842477Y-55220593D01*
X78755875Y-55351426D01*
X78746594Y-57036525D01*
X78744575Y-57427006D01*
X78743431Y-57759322D01*
X78743571Y-58038804D01*
X78745406Y-58270787D01*
X78749344Y-58460601D01*
X78755795Y-58613581D01*
X78765168Y-58735059D01*
X78777873Y-58830367D01*
X78794318Y-58904839D01*
X78814913Y-58963806D01*
X78840068Y-59012602D01*
X78870192Y-59056559D01*
X78905003Y-59100172D01*
X78993894Y-59187162D01*
X79102662Y-59264841D01*
X79210454Y-59320324D01*
X79294361Y-59340750D01*
X79317695Y-59350790D01*
X79332405Y-59388189D01*
X79340281Y-59463860D01*
X79343115Y-59588715D01*
X79343250Y-59638487D01*
X79345729Y-59788879D01*
X79354359Y-59888010D01*
X79370932Y-59947971D01*
X79393537Y-59977958D01*
X79454728Y-60002527D01*
X79496724Y-59986421D01*
X79523526Y-59956160D01*
X79541331Y-59897663D01*
X79552456Y-59798847D01*
X79558754Y-59662824D01*
X79567883Y-59372500D01*
X79912451Y-59372500D01*
X79921538Y-59682062D01*
X79926285Y-59823970D01*
X79932679Y-59914135D01*
X79944073Y-59964288D01*
X79963822Y-59986164D01*
X79995277Y-59991496D01*
X80010000Y-59991625D01*
X80046454Y-59989360D01*
X80070002Y-59974746D01*
X80083998Y-59936048D01*
X80091794Y-59861533D01*
X80096745Y-59739469D01*
X80098463Y-59682062D01*
X80107550Y-59372500D01*
X80454500Y-59372500D01*
X80454500Y-59628587D01*
X80463016Y-59808478D01*
X80487927Y-59932907D01*
X80528281Y-60000110D01*
X80583125Y-60008324D01*
X80638650Y-59969400D01*
X80659041Y-59915212D01*
X80672019Y-59805120D01*
X80676745Y-59646379D01*
X80676750Y-59639993D01*
X80676750Y-59348687D01*
X80764063Y-59331143D01*
X80898262Y-59277752D01*
X81034920Y-59177542D01*
X81156245Y-59043877D01*
X81167696Y-59027982D01*
X81264125Y-58890779D01*
X81264125Y-58643269D01*
X81026000Y-58643269D01*
X80997242Y-58780933D01*
X80920593Y-58912624D01*
X80810493Y-59020239D01*
X80681381Y-59085675D01*
X80670887Y-59088490D01*
X80606776Y-59096392D01*
X80491031Y-59102705D01*
X80335502Y-59107100D01*
X80152044Y-59109250D01*
X79952509Y-59108826D01*
X79940830Y-59108717D01*
X79724580Y-59106159D01*
X79562336Y-59102653D01*
X79444605Y-59097248D01*
X79361893Y-59088989D01*
X79304708Y-59076922D01*
X79263554Y-59060095D01*
X79228939Y-59037553D01*
X79228416Y-59037163D01*
X79093717Y-58905700D01*
X79018006Y-58755236D01*
X79004892Y-58697067D01*
X78985692Y-58578750D01*
X80005846Y-58578750D01*
X80286933Y-58578850D01*
X80510985Y-58579423D01*
X80684467Y-58580878D01*
X80813845Y-58583624D01*
X80905585Y-58588070D01*
X80966151Y-58594625D01*
X81002008Y-58603697D01*
X81019623Y-58615695D01*
X81025460Y-58631029D01*
X81026000Y-58643269D01*
X81264125Y-58643269D01*
X81264125Y-55848250D01*
X81026000Y-55848250D01*
X81026000Y-58356500D01*
X80549750Y-58356500D01*
X80549750Y-58010729D01*
X80603866Y-58007250D01*
X80359250Y-58007250D01*
X80359250Y-58356500D01*
X79724250Y-58356500D01*
X79724250Y-58007250D01*
X80359250Y-58007250D01*
X80603866Y-58007250D01*
X80700277Y-58001052D01*
X80803215Y-57982052D01*
X80860027Y-57946650D01*
X80865724Y-57903260D01*
X80815320Y-57860295D01*
X80790186Y-57849378D01*
X80708500Y-57818321D01*
X80708500Y-57279994D01*
X80708736Y-57083760D01*
X80710227Y-56941954D01*
X80714149Y-56845503D01*
X80721680Y-56785335D01*
X80733995Y-56752376D01*
X80752270Y-56737554D01*
X80753611Y-56737250D01*
X80549750Y-56737250D01*
X80549750Y-57852717D01*
X80462438Y-57842671D01*
X80375125Y-57832625D01*
X80366438Y-57284937D01*
X80357751Y-56737250D01*
X80200500Y-56737250D01*
X80200500Y-57848500D01*
X79883000Y-57848500D01*
X79883000Y-56737250D01*
X79724250Y-56737250D01*
X79724250Y-57271708D01*
X79723051Y-57449844D01*
X79719731Y-57605368D01*
X79714705Y-57727365D01*
X79708389Y-57804922D01*
X79703084Y-57827333D01*
X79657653Y-57844039D01*
X79607834Y-57848500D01*
X79533750Y-57848500D01*
X79533750Y-56737250D01*
X79724250Y-56737250D01*
X79883000Y-56737250D01*
X80200500Y-56737250D01*
X80357751Y-56737250D01*
X80549750Y-56737250D01*
X80753611Y-56737250D01*
X80777682Y-56731797D01*
X80779614Y-56731520D01*
X80838702Y-56700153D01*
X80863865Y-56643976D01*
X80846784Y-56588508D01*
X80830687Y-56574853D01*
X80771893Y-56556688D01*
X80683430Y-56547490D01*
X80668813Y-56547236D01*
X80591779Y-56543259D01*
X80558156Y-56519729D01*
X80549949Y-56457966D01*
X80549750Y-56423637D01*
X80535503Y-56319812D01*
X80497973Y-56255985D01*
X80444976Y-56241054D01*
X80406875Y-56261000D01*
X80374151Y-56319870D01*
X80359411Y-56412687D01*
X80359250Y-56423637D01*
X80359250Y-56546750D01*
X79724250Y-56546750D01*
X79724250Y-56423637D01*
X79710003Y-56319812D01*
X79672473Y-56255985D01*
X79619476Y-56241054D01*
X79581375Y-56261000D01*
X79548651Y-56319870D01*
X79533911Y-56412687D01*
X79533750Y-56423637D01*
X79530014Y-56503325D01*
X79507891Y-56538113D01*
X79451013Y-56546571D01*
X79425222Y-56546750D01*
X79335339Y-56552228D01*
X79267965Y-56565466D01*
X79266472Y-56566021D01*
X79223292Y-56609116D01*
X79221226Y-56669656D01*
X79257913Y-56718803D01*
X79279750Y-56728050D01*
X79302762Y-56737251D01*
X79319426Y-56757032D01*
X79330763Y-56796466D01*
X79337794Y-56864627D01*
X79341538Y-56970588D01*
X79343015Y-57123423D01*
X79343250Y-57292875D01*
X79342929Y-57491437D01*
X79341254Y-57635598D01*
X79337159Y-57734459D01*
X79329579Y-57797117D01*
X79317446Y-57832672D01*
X79299696Y-57850223D01*
X79276989Y-57858421D01*
X79225487Y-57894747D01*
X79221712Y-57933562D01*
X79245002Y-57971802D01*
X79306079Y-57992916D01*
X79383224Y-58001052D01*
X79533750Y-58010729D01*
X79533750Y-58356500D01*
X78994000Y-58356500D01*
X78994000Y-55848250D01*
X81026000Y-55848250D01*
X81264125Y-55848250D01*
X81264125Y-55593230D01*
X81026000Y-55593230D01*
X81024411Y-55611040D01*
X81015322Y-55625228D01*
X80992257Y-55636207D01*
X80948736Y-55644388D01*
X80878281Y-55650182D01*
X80774414Y-55654001D01*
X80630656Y-55656255D01*
X80440528Y-55657357D01*
X80197553Y-55657718D01*
X80010000Y-55657750D01*
X79729547Y-55657649D01*
X79506114Y-55657071D01*
X79333225Y-55655607D01*
X79204401Y-55652843D01*
X79113162Y-55648369D01*
X79053032Y-55641773D01*
X79017530Y-55632644D01*
X79000179Y-55620570D01*
X78994501Y-55605140D01*
X78994000Y-55593230D01*
X79017784Y-55475469D01*
X79078778Y-55352992D01*
X79161451Y-55256438D01*
X79167013Y-55251941D01*
X79252430Y-55205488D01*
X79363340Y-55170165D01*
X79401048Y-55163112D01*
X79512800Y-55139844D01*
X79613270Y-55107673D01*
X79638342Y-55096460D01*
X79736433Y-55017400D01*
X79812443Y-54903163D01*
X79849763Y-54780368D01*
X79851132Y-54755375D01*
X79871970Y-54660898D01*
X79924054Y-54584654D01*
X79992111Y-54547447D01*
X80004484Y-54546500D01*
X80081940Y-54574886D01*
X80142104Y-54646606D01*
X80168681Y-54741501D01*
X80168869Y-54749858D01*
X80196119Y-54876290D01*
X80266663Y-54997447D01*
X80364127Y-55086661D01*
X80381659Y-55096460D01*
X80469254Y-55129186D01*
X80581475Y-55156756D01*
X80618953Y-55163112D01*
X80729834Y-55191165D01*
X80828453Y-55235369D01*
X80852988Y-55251941D01*
X80936504Y-55345842D01*
X80999318Y-55467593D01*
X81025897Y-55586552D01*
X81026000Y-55593230D01*
X81264125Y-55593230D01*
X81264125Y-55345720D01*
X81168679Y-55208047D01*
X81067226Y-55098299D01*
X80932709Y-55001642D01*
X80786552Y-54930388D01*
X80650179Y-54896849D01*
X80625233Y-54895750D01*
X80521485Y-54867915D01*
X80450441Y-54792129D01*
X80422693Y-54679964D01*
X80422632Y-54674372D01*
X80393119Y-54547693D01*
X80314662Y-54433708D01*
X80201810Y-54345885D01*
X80069114Y-54297688D01*
X80010001Y-54292500D01*
X79867107Y-54321043D01*
D11*
%TO.C,C15*%
X182595225Y-67765000D02*
X182595225Y-67265000D01*
X182345225Y-67515000D02*
X182845225Y-67515000D01*
X187751000Y-66324000D02*
X187751000Y-65756000D01*
X187711000Y-66558000D02*
X187711000Y-65522000D01*
X187671000Y-66717000D02*
X187671000Y-65363000D01*
X187631000Y-66845000D02*
X187631000Y-65235000D01*
X187591000Y-66955000D02*
X187591000Y-65125000D01*
X187551000Y-67051000D02*
X187551000Y-65029000D01*
X187511000Y-67138000D02*
X187511000Y-64942000D01*
X187471000Y-67218000D02*
X187471000Y-64862000D01*
X187431000Y-67291000D02*
X187431000Y-64789000D01*
X187391000Y-67359000D02*
X187391000Y-64721000D01*
X187351000Y-67423000D02*
X187351000Y-64657000D01*
X187311000Y-67483000D02*
X187311000Y-64597000D01*
X187271000Y-67540000D02*
X187271000Y-64540000D01*
X187231000Y-67594000D02*
X187231000Y-64486000D01*
X187191000Y-67645000D02*
X187191000Y-64435000D01*
X187151000Y-65000000D02*
X187151000Y-64387000D01*
X187151000Y-67693000D02*
X187151000Y-67080000D01*
X187111000Y-65000000D02*
X187111000Y-64341000D01*
X187111000Y-67739000D02*
X187111000Y-67080000D01*
X187071000Y-65000000D02*
X187071000Y-64297000D01*
X187071000Y-67783000D02*
X187071000Y-67080000D01*
X187031000Y-65000000D02*
X187031000Y-64255000D01*
X187031000Y-67825000D02*
X187031000Y-67080000D01*
X186991000Y-65000000D02*
X186991000Y-64214000D01*
X186991000Y-67866000D02*
X186991000Y-67080000D01*
X186951000Y-65000000D02*
X186951000Y-64176000D01*
X186951000Y-67904000D02*
X186951000Y-67080000D01*
X186911000Y-65000000D02*
X186911000Y-64139000D01*
X186911000Y-67941000D02*
X186911000Y-67080000D01*
X186871000Y-65000000D02*
X186871000Y-64103000D01*
X186871000Y-67977000D02*
X186871000Y-67080000D01*
X186831000Y-65000000D02*
X186831000Y-64069000D01*
X186831000Y-68011000D02*
X186831000Y-67080000D01*
X186791000Y-65000000D02*
X186791000Y-64036000D01*
X186791000Y-68044000D02*
X186791000Y-67080000D01*
X186751000Y-65000000D02*
X186751000Y-64005000D01*
X186751000Y-68075000D02*
X186751000Y-67080000D01*
X186711000Y-65000000D02*
X186711000Y-63975000D01*
X186711000Y-68105000D02*
X186711000Y-67080000D01*
X186671000Y-65000000D02*
X186671000Y-63945000D01*
X186671000Y-68135000D02*
X186671000Y-67080000D01*
X186631000Y-65000000D02*
X186631000Y-63918000D01*
X186631000Y-68162000D02*
X186631000Y-67080000D01*
X186591000Y-65000000D02*
X186591000Y-63891000D01*
X186591000Y-68189000D02*
X186591000Y-67080000D01*
X186551000Y-65000000D02*
X186551000Y-63865000D01*
X186551000Y-68215000D02*
X186551000Y-67080000D01*
X186511000Y-65000000D02*
X186511000Y-63840000D01*
X186511000Y-68240000D02*
X186511000Y-67080000D01*
X186471000Y-65000000D02*
X186471000Y-63816000D01*
X186471000Y-68264000D02*
X186471000Y-67080000D01*
X186431000Y-65000000D02*
X186431000Y-63793000D01*
X186431000Y-68287000D02*
X186431000Y-67080000D01*
X186391000Y-65000000D02*
X186391000Y-63772000D01*
X186391000Y-68308000D02*
X186391000Y-67080000D01*
X186351000Y-65000000D02*
X186351000Y-63750000D01*
X186351000Y-68330000D02*
X186351000Y-67080000D01*
X186311000Y-65000000D02*
X186311000Y-63730000D01*
X186311000Y-68350000D02*
X186311000Y-67080000D01*
X186271000Y-65000000D02*
X186271000Y-63711000D01*
X186271000Y-68369000D02*
X186271000Y-67080000D01*
X186231000Y-65000000D02*
X186231000Y-63692000D01*
X186231000Y-68388000D02*
X186231000Y-67080000D01*
X186191000Y-65000000D02*
X186191000Y-63675000D01*
X186191000Y-68405000D02*
X186191000Y-67080000D01*
X186151000Y-65000000D02*
X186151000Y-63658000D01*
X186151000Y-68422000D02*
X186151000Y-67080000D01*
X186111000Y-65000000D02*
X186111000Y-63642000D01*
X186111000Y-68438000D02*
X186111000Y-67080000D01*
X186071000Y-65000000D02*
X186071000Y-63626000D01*
X186071000Y-68454000D02*
X186071000Y-67080000D01*
X186031000Y-65000000D02*
X186031000Y-63612000D01*
X186031000Y-68468000D02*
X186031000Y-67080000D01*
X185991000Y-65000000D02*
X185991000Y-63598000D01*
X185991000Y-68482000D02*
X185991000Y-67080000D01*
X185951000Y-65000000D02*
X185951000Y-63585000D01*
X185951000Y-68495000D02*
X185951000Y-67080000D01*
X185911000Y-65000000D02*
X185911000Y-63572000D01*
X185911000Y-68508000D02*
X185911000Y-67080000D01*
X185871000Y-65000000D02*
X185871000Y-63560000D01*
X185871000Y-68520000D02*
X185871000Y-67080000D01*
X185830000Y-65000000D02*
X185830000Y-63549000D01*
X185830000Y-68531000D02*
X185830000Y-67080000D01*
X185790000Y-65000000D02*
X185790000Y-63539000D01*
X185790000Y-68541000D02*
X185790000Y-67080000D01*
X185750000Y-65000000D02*
X185750000Y-63529000D01*
X185750000Y-68551000D02*
X185750000Y-67080000D01*
X185710000Y-65000000D02*
X185710000Y-63520000D01*
X185710000Y-68560000D02*
X185710000Y-67080000D01*
X185670000Y-65000000D02*
X185670000Y-63512000D01*
X185670000Y-68568000D02*
X185670000Y-67080000D01*
X185630000Y-65000000D02*
X185630000Y-63504000D01*
X185630000Y-68576000D02*
X185630000Y-67080000D01*
X185590000Y-65000000D02*
X185590000Y-63497000D01*
X185590000Y-68583000D02*
X185590000Y-67080000D01*
X185550000Y-65000000D02*
X185550000Y-63490000D01*
X185550000Y-68590000D02*
X185550000Y-67080000D01*
X185510000Y-65000000D02*
X185510000Y-63484000D01*
X185510000Y-68596000D02*
X185510000Y-67080000D01*
X185470000Y-65000000D02*
X185470000Y-63479000D01*
X185470000Y-68601000D02*
X185470000Y-67080000D01*
X185430000Y-65000000D02*
X185430000Y-63475000D01*
X185430000Y-68605000D02*
X185430000Y-67080000D01*
X185390000Y-65000000D02*
X185390000Y-63471000D01*
X185390000Y-68609000D02*
X185390000Y-67080000D01*
X185350000Y-65000000D02*
X185350000Y-63467000D01*
X185350000Y-68613000D02*
X185350000Y-67080000D01*
X185310000Y-65000000D02*
X185310000Y-63464000D01*
X185310000Y-68616000D02*
X185310000Y-67080000D01*
X185270000Y-65000000D02*
X185270000Y-63462000D01*
X185270000Y-68618000D02*
X185270000Y-67080000D01*
X185230000Y-65000000D02*
X185230000Y-63461000D01*
X185230000Y-68619000D02*
X185230000Y-67080000D01*
X185190000Y-68620000D02*
X185190000Y-67080000D01*
X185190000Y-65000000D02*
X185190000Y-63460000D01*
X185150000Y-68620000D02*
X185150000Y-67080000D01*
X185150000Y-65000000D02*
X185150000Y-63460000D01*
X187770000Y-66040000D02*
G75*
G03*
X187770000Y-66040000I-2620000J0D01*
G01*
%TO.C,R9*%
X51975000Y-40410000D02*
X51975000Y-40740000D01*
X51975000Y-40740000D02*
X58515000Y-40740000D01*
X58515000Y-40740000D02*
X58515000Y-40410000D01*
X51975000Y-38330000D02*
X51975000Y-38000000D01*
X51975000Y-38000000D02*
X58515000Y-38000000D01*
X58515000Y-38000000D02*
X58515000Y-38330000D01*
%TO.C,R8*%
X51975000Y-58190000D02*
X51975000Y-58520000D01*
X51975000Y-58520000D02*
X58515000Y-58520000D01*
X58515000Y-58520000D02*
X58515000Y-58190000D01*
X51975000Y-56110000D02*
X51975000Y-55780000D01*
X51975000Y-55780000D02*
X58515000Y-55780000D01*
X58515000Y-55780000D02*
X58515000Y-56110000D01*
%TO.C,C7*%
X266180000Y-35560000D02*
G75*
G03*
X266180000Y-35560000I-3270000J0D01*
G01*
X262910000Y-38790000D02*
X262910000Y-32330000D01*
X262950000Y-38790000D02*
X262950000Y-32330000D01*
X262990000Y-38790000D02*
X262990000Y-32330000D01*
X263030000Y-38788000D02*
X263030000Y-32332000D01*
X263070000Y-38787000D02*
X263070000Y-32333000D01*
X263110000Y-38784000D02*
X263110000Y-32336000D01*
X263150000Y-38782000D02*
X263150000Y-36600000D01*
X263150000Y-34520000D02*
X263150000Y-32338000D01*
X263190000Y-38778000D02*
X263190000Y-36600000D01*
X263190000Y-34520000D02*
X263190000Y-32342000D01*
X263230000Y-38775000D02*
X263230000Y-36600000D01*
X263230000Y-34520000D02*
X263230000Y-32345000D01*
X263270000Y-38771000D02*
X263270000Y-36600000D01*
X263270000Y-34520000D02*
X263270000Y-32349000D01*
X263310000Y-38766000D02*
X263310000Y-36600000D01*
X263310000Y-34520000D02*
X263310000Y-32354000D01*
X263350000Y-38761000D02*
X263350000Y-36600000D01*
X263350000Y-34520000D02*
X263350000Y-32359000D01*
X263390000Y-38755000D02*
X263390000Y-36600000D01*
X263390000Y-34520000D02*
X263390000Y-32365000D01*
X263430000Y-38749000D02*
X263430000Y-36600000D01*
X263430000Y-34520000D02*
X263430000Y-32371000D01*
X263470000Y-38742000D02*
X263470000Y-36600000D01*
X263470000Y-34520000D02*
X263470000Y-32378000D01*
X263510000Y-38735000D02*
X263510000Y-36600000D01*
X263510000Y-34520000D02*
X263510000Y-32385000D01*
X263550000Y-38727000D02*
X263550000Y-36600000D01*
X263550000Y-34520000D02*
X263550000Y-32393000D01*
X263590000Y-38719000D02*
X263590000Y-36600000D01*
X263590000Y-34520000D02*
X263590000Y-32401000D01*
X263631000Y-38710000D02*
X263631000Y-36600000D01*
X263631000Y-34520000D02*
X263631000Y-32410000D01*
X263671000Y-38701000D02*
X263671000Y-36600000D01*
X263671000Y-34520000D02*
X263671000Y-32419000D01*
X263711000Y-38691000D02*
X263711000Y-36600000D01*
X263711000Y-34520000D02*
X263711000Y-32429000D01*
X263751000Y-38681000D02*
X263751000Y-36600000D01*
X263751000Y-34520000D02*
X263751000Y-32439000D01*
X263791000Y-38670000D02*
X263791000Y-36600000D01*
X263791000Y-34520000D02*
X263791000Y-32450000D01*
X263831000Y-38658000D02*
X263831000Y-36600000D01*
X263831000Y-34520000D02*
X263831000Y-32462000D01*
X263871000Y-38646000D02*
X263871000Y-36600000D01*
X263871000Y-34520000D02*
X263871000Y-32474000D01*
X263911000Y-38634000D02*
X263911000Y-36600000D01*
X263911000Y-34520000D02*
X263911000Y-32486000D01*
X263951000Y-38621000D02*
X263951000Y-36600000D01*
X263951000Y-34520000D02*
X263951000Y-32499000D01*
X263991000Y-38607000D02*
X263991000Y-36600000D01*
X263991000Y-34520000D02*
X263991000Y-32513000D01*
X264031000Y-38593000D02*
X264031000Y-36600000D01*
X264031000Y-34520000D02*
X264031000Y-32527000D01*
X264071000Y-38578000D02*
X264071000Y-36600000D01*
X264071000Y-34520000D02*
X264071000Y-32542000D01*
X264111000Y-38562000D02*
X264111000Y-36600000D01*
X264111000Y-34520000D02*
X264111000Y-32558000D01*
X264151000Y-38546000D02*
X264151000Y-36600000D01*
X264151000Y-34520000D02*
X264151000Y-32574000D01*
X264191000Y-38530000D02*
X264191000Y-36600000D01*
X264191000Y-34520000D02*
X264191000Y-32590000D01*
X264231000Y-38512000D02*
X264231000Y-36600000D01*
X264231000Y-34520000D02*
X264231000Y-32608000D01*
X264271000Y-38494000D02*
X264271000Y-36600000D01*
X264271000Y-34520000D02*
X264271000Y-32626000D01*
X264311000Y-38476000D02*
X264311000Y-36600000D01*
X264311000Y-34520000D02*
X264311000Y-32644000D01*
X264351000Y-38456000D02*
X264351000Y-36600000D01*
X264351000Y-34520000D02*
X264351000Y-32664000D01*
X264391000Y-38436000D02*
X264391000Y-36600000D01*
X264391000Y-34520000D02*
X264391000Y-32684000D01*
X264431000Y-38416000D02*
X264431000Y-36600000D01*
X264431000Y-34520000D02*
X264431000Y-32704000D01*
X264471000Y-38394000D02*
X264471000Y-36600000D01*
X264471000Y-34520000D02*
X264471000Y-32726000D01*
X264511000Y-38372000D02*
X264511000Y-36600000D01*
X264511000Y-34520000D02*
X264511000Y-32748000D01*
X264551000Y-38350000D02*
X264551000Y-36600000D01*
X264551000Y-34520000D02*
X264551000Y-32770000D01*
X264591000Y-38326000D02*
X264591000Y-36600000D01*
X264591000Y-34520000D02*
X264591000Y-32794000D01*
X264631000Y-38302000D02*
X264631000Y-36600000D01*
X264631000Y-34520000D02*
X264631000Y-32818000D01*
X264671000Y-38276000D02*
X264671000Y-36600000D01*
X264671000Y-34520000D02*
X264671000Y-32844000D01*
X264711000Y-38250000D02*
X264711000Y-36600000D01*
X264711000Y-34520000D02*
X264711000Y-32870000D01*
X264751000Y-38224000D02*
X264751000Y-36600000D01*
X264751000Y-34520000D02*
X264751000Y-32896000D01*
X264791000Y-38196000D02*
X264791000Y-36600000D01*
X264791000Y-34520000D02*
X264791000Y-32924000D01*
X264831000Y-38167000D02*
X264831000Y-36600000D01*
X264831000Y-34520000D02*
X264831000Y-32953000D01*
X264871000Y-38138000D02*
X264871000Y-36600000D01*
X264871000Y-34520000D02*
X264871000Y-32982000D01*
X264911000Y-38108000D02*
X264911000Y-36600000D01*
X264911000Y-34520000D02*
X264911000Y-33012000D01*
X264951000Y-38076000D02*
X264951000Y-36600000D01*
X264951000Y-34520000D02*
X264951000Y-33044000D01*
X264991000Y-38044000D02*
X264991000Y-36600000D01*
X264991000Y-34520000D02*
X264991000Y-33076000D01*
X265031000Y-38010000D02*
X265031000Y-36600000D01*
X265031000Y-34520000D02*
X265031000Y-33110000D01*
X265071000Y-37976000D02*
X265071000Y-36600000D01*
X265071000Y-34520000D02*
X265071000Y-33144000D01*
X265111000Y-37940000D02*
X265111000Y-36600000D01*
X265111000Y-34520000D02*
X265111000Y-33180000D01*
X265151000Y-37903000D02*
X265151000Y-36600000D01*
X265151000Y-34520000D02*
X265151000Y-33217000D01*
X265191000Y-37865000D02*
X265191000Y-36600000D01*
X265191000Y-34520000D02*
X265191000Y-33255000D01*
X265231000Y-37825000D02*
X265231000Y-33295000D01*
X265271000Y-37784000D02*
X265271000Y-33336000D01*
X265311000Y-37742000D02*
X265311000Y-33378000D01*
X265351000Y-37697000D02*
X265351000Y-33423000D01*
X265391000Y-37652000D02*
X265391000Y-33468000D01*
X265431000Y-37604000D02*
X265431000Y-33516000D01*
X265471000Y-37555000D02*
X265471000Y-33565000D01*
X265511000Y-37504000D02*
X265511000Y-33616000D01*
X265551000Y-37450000D02*
X265551000Y-33670000D01*
X265591000Y-37394000D02*
X265591000Y-33726000D01*
X265631000Y-37336000D02*
X265631000Y-33784000D01*
X265671000Y-37274000D02*
X265671000Y-33846000D01*
X265711000Y-37210000D02*
X265711000Y-33910000D01*
X265751000Y-37141000D02*
X265751000Y-33979000D01*
X265791000Y-37069000D02*
X265791000Y-34051000D01*
X265831000Y-36992000D02*
X265831000Y-34128000D01*
X265871000Y-36910000D02*
X265871000Y-34210000D01*
X265911000Y-36822000D02*
X265911000Y-34298000D01*
X265951000Y-36725000D02*
X265951000Y-34395000D01*
X265991000Y-36619000D02*
X265991000Y-34501000D01*
X266031000Y-36500000D02*
X266031000Y-34620000D01*
X266071000Y-36362000D02*
X266071000Y-34758000D01*
X266111000Y-36193000D02*
X266111000Y-34927000D01*
X266151000Y-35962000D02*
X266151000Y-35158000D01*
X259409759Y-37399000D02*
X260039759Y-37399000D01*
X259724759Y-37714000D02*
X259724759Y-37084000D01*
%TO.C,U15*%
X57045000Y-28520000D02*
X53445000Y-28520000D01*
X53406522Y-28508478D02*
G75*
G02*
X55245000Y-24070000I1838478J1838478D01*
G01*
X57083478Y-28508478D02*
G75*
G03*
X55245000Y-24070000I-1838478J1838478D01*
G01*
%TO.C,R7*%
X56809500Y-67065000D02*
X53759500Y-67065000D01*
X56809500Y-71365000D02*
X53759500Y-71365000D01*
X53714987Y-71333249D02*
G75*
G02*
X53759500Y-67065000I1544513J2118249D01*
G01*
X56787734Y-67049474D02*
G75*
G02*
X56809500Y-71365000I-1528234J-2165526D01*
G01*
%TO.C,C14*%
X243940000Y-53570000D02*
X241200000Y-53570000D01*
X243940000Y-60810000D02*
X241200000Y-60810000D01*
X241200000Y-60810000D02*
X241200000Y-53570000D01*
X243940000Y-60810000D02*
X243940000Y-53570000D01*
%TO.C,C13*%
X181710000Y-53570000D02*
X178970000Y-53570000D01*
X181710000Y-60810000D02*
X178970000Y-60810000D01*
X178970000Y-60810000D02*
X178970000Y-53570000D01*
X181710000Y-60810000D02*
X181710000Y-53570000D01*
%TO.C,C12*%
X217270000Y-53570000D02*
X214530000Y-53570000D01*
X217270000Y-60810000D02*
X214530000Y-60810000D01*
X214530000Y-60810000D02*
X214530000Y-53570000D01*
X217270000Y-60810000D02*
X217270000Y-53570000D01*
%TO.C,C11*%
X119480000Y-53570000D02*
X116740000Y-53570000D01*
X119480000Y-60810000D02*
X116740000Y-60810000D01*
X116740000Y-60810000D02*
X116740000Y-53570000D01*
X119480000Y-60810000D02*
X119480000Y-53570000D01*
%TO.C,C10*%
X155675000Y-53570000D02*
X152935000Y-53570000D01*
X155675000Y-60810000D02*
X152935000Y-60810000D01*
X152935000Y-60810000D02*
X152935000Y-53570000D01*
X155675000Y-60810000D02*
X155675000Y-53570000D01*
%TO.C,C9*%
X94080000Y-53570000D02*
X91340000Y-53570000D01*
X94080000Y-60810000D02*
X91340000Y-60810000D01*
X91340000Y-60810000D02*
X91340000Y-53570000D01*
X94080000Y-60810000D02*
X94080000Y-53570000D01*
%TO.C,C8*%
X126175000Y-66040000D02*
G75*
G03*
X126175000Y-66040000I-2620000J0D01*
G01*
X123555000Y-65000000D02*
X123555000Y-63460000D01*
X123555000Y-68620000D02*
X123555000Y-67080000D01*
X123595000Y-65000000D02*
X123595000Y-63460000D01*
X123595000Y-68620000D02*
X123595000Y-67080000D01*
X123635000Y-68619000D02*
X123635000Y-67080000D01*
X123635000Y-65000000D02*
X123635000Y-63461000D01*
X123675000Y-68618000D02*
X123675000Y-67080000D01*
X123675000Y-65000000D02*
X123675000Y-63462000D01*
X123715000Y-68616000D02*
X123715000Y-67080000D01*
X123715000Y-65000000D02*
X123715000Y-63464000D01*
X123755000Y-68613000D02*
X123755000Y-67080000D01*
X123755000Y-65000000D02*
X123755000Y-63467000D01*
X123795000Y-68609000D02*
X123795000Y-67080000D01*
X123795000Y-65000000D02*
X123795000Y-63471000D01*
X123835000Y-68605000D02*
X123835000Y-67080000D01*
X123835000Y-65000000D02*
X123835000Y-63475000D01*
X123875000Y-68601000D02*
X123875000Y-67080000D01*
X123875000Y-65000000D02*
X123875000Y-63479000D01*
X123915000Y-68596000D02*
X123915000Y-67080000D01*
X123915000Y-65000000D02*
X123915000Y-63484000D01*
X123955000Y-68590000D02*
X123955000Y-67080000D01*
X123955000Y-65000000D02*
X123955000Y-63490000D01*
X123995000Y-68583000D02*
X123995000Y-67080000D01*
X123995000Y-65000000D02*
X123995000Y-63497000D01*
X124035000Y-68576000D02*
X124035000Y-67080000D01*
X124035000Y-65000000D02*
X124035000Y-63504000D01*
X124075000Y-68568000D02*
X124075000Y-67080000D01*
X124075000Y-65000000D02*
X124075000Y-63512000D01*
X124115000Y-68560000D02*
X124115000Y-67080000D01*
X124115000Y-65000000D02*
X124115000Y-63520000D01*
X124155000Y-68551000D02*
X124155000Y-67080000D01*
X124155000Y-65000000D02*
X124155000Y-63529000D01*
X124195000Y-68541000D02*
X124195000Y-67080000D01*
X124195000Y-65000000D02*
X124195000Y-63539000D01*
X124235000Y-68531000D02*
X124235000Y-67080000D01*
X124235000Y-65000000D02*
X124235000Y-63549000D01*
X124276000Y-68520000D02*
X124276000Y-67080000D01*
X124276000Y-65000000D02*
X124276000Y-63560000D01*
X124316000Y-68508000D02*
X124316000Y-67080000D01*
X124316000Y-65000000D02*
X124316000Y-63572000D01*
X124356000Y-68495000D02*
X124356000Y-67080000D01*
X124356000Y-65000000D02*
X124356000Y-63585000D01*
X124396000Y-68482000D02*
X124396000Y-67080000D01*
X124396000Y-65000000D02*
X124396000Y-63598000D01*
X124436000Y-68468000D02*
X124436000Y-67080000D01*
X124436000Y-65000000D02*
X124436000Y-63612000D01*
X124476000Y-68454000D02*
X124476000Y-67080000D01*
X124476000Y-65000000D02*
X124476000Y-63626000D01*
X124516000Y-68438000D02*
X124516000Y-67080000D01*
X124516000Y-65000000D02*
X124516000Y-63642000D01*
X124556000Y-68422000D02*
X124556000Y-67080000D01*
X124556000Y-65000000D02*
X124556000Y-63658000D01*
X124596000Y-68405000D02*
X124596000Y-67080000D01*
X124596000Y-65000000D02*
X124596000Y-63675000D01*
X124636000Y-68388000D02*
X124636000Y-67080000D01*
X124636000Y-65000000D02*
X124636000Y-63692000D01*
X124676000Y-68369000D02*
X124676000Y-67080000D01*
X124676000Y-65000000D02*
X124676000Y-63711000D01*
X124716000Y-68350000D02*
X124716000Y-67080000D01*
X124716000Y-65000000D02*
X124716000Y-63730000D01*
X124756000Y-68330000D02*
X124756000Y-67080000D01*
X124756000Y-65000000D02*
X124756000Y-63750000D01*
X124796000Y-68308000D02*
X124796000Y-67080000D01*
X124796000Y-65000000D02*
X124796000Y-63772000D01*
X124836000Y-68287000D02*
X124836000Y-67080000D01*
X124836000Y-65000000D02*
X124836000Y-63793000D01*
X124876000Y-68264000D02*
X124876000Y-67080000D01*
X124876000Y-65000000D02*
X124876000Y-63816000D01*
X124916000Y-68240000D02*
X124916000Y-67080000D01*
X124916000Y-65000000D02*
X124916000Y-63840000D01*
X124956000Y-68215000D02*
X124956000Y-67080000D01*
X124956000Y-65000000D02*
X124956000Y-63865000D01*
X124996000Y-68189000D02*
X124996000Y-67080000D01*
X124996000Y-65000000D02*
X124996000Y-63891000D01*
X125036000Y-68162000D02*
X125036000Y-67080000D01*
X125036000Y-65000000D02*
X125036000Y-63918000D01*
X125076000Y-68135000D02*
X125076000Y-67080000D01*
X125076000Y-65000000D02*
X125076000Y-63945000D01*
X125116000Y-68105000D02*
X125116000Y-67080000D01*
X125116000Y-65000000D02*
X125116000Y-63975000D01*
X125156000Y-68075000D02*
X125156000Y-67080000D01*
X125156000Y-65000000D02*
X125156000Y-64005000D01*
X125196000Y-68044000D02*
X125196000Y-67080000D01*
X125196000Y-65000000D02*
X125196000Y-64036000D01*
X125236000Y-68011000D02*
X125236000Y-67080000D01*
X125236000Y-65000000D02*
X125236000Y-64069000D01*
X125276000Y-67977000D02*
X125276000Y-67080000D01*
X125276000Y-65000000D02*
X125276000Y-64103000D01*
X125316000Y-67941000D02*
X125316000Y-67080000D01*
X125316000Y-65000000D02*
X125316000Y-64139000D01*
X125356000Y-67904000D02*
X125356000Y-67080000D01*
X125356000Y-65000000D02*
X125356000Y-64176000D01*
X125396000Y-67866000D02*
X125396000Y-67080000D01*
X125396000Y-65000000D02*
X125396000Y-64214000D01*
X125436000Y-67825000D02*
X125436000Y-67080000D01*
X125436000Y-65000000D02*
X125436000Y-64255000D01*
X125476000Y-67783000D02*
X125476000Y-67080000D01*
X125476000Y-65000000D02*
X125476000Y-64297000D01*
X125516000Y-67739000D02*
X125516000Y-67080000D01*
X125516000Y-65000000D02*
X125516000Y-64341000D01*
X125556000Y-67693000D02*
X125556000Y-67080000D01*
X125556000Y-65000000D02*
X125556000Y-64387000D01*
X125596000Y-67645000D02*
X125596000Y-64435000D01*
X125636000Y-67594000D02*
X125636000Y-64486000D01*
X125676000Y-67540000D02*
X125676000Y-64540000D01*
X125716000Y-67483000D02*
X125716000Y-64597000D01*
X125756000Y-67423000D02*
X125756000Y-64657000D01*
X125796000Y-67359000D02*
X125796000Y-64721000D01*
X125836000Y-67291000D02*
X125836000Y-64789000D01*
X125876000Y-67218000D02*
X125876000Y-64862000D01*
X125916000Y-67138000D02*
X125916000Y-64942000D01*
X125956000Y-67051000D02*
X125956000Y-65029000D01*
X125996000Y-66955000D02*
X125996000Y-65125000D01*
X126036000Y-66845000D02*
X126036000Y-65235000D01*
X126076000Y-66717000D02*
X126076000Y-65363000D01*
X126116000Y-66558000D02*
X126116000Y-65522000D01*
X126156000Y-66324000D02*
X126156000Y-65756000D01*
X120750225Y-67515000D02*
X121250225Y-67515000D01*
X121000225Y-67765000D02*
X121000225Y-67265000D01*
%TO.C,U14*%
X217110000Y-40910000D02*
X217110000Y-39260000D01*
X217110000Y-39260000D02*
X237550000Y-39260000D01*
X237550000Y-39260000D02*
X237550000Y-44560000D01*
X237550000Y-44560000D02*
X217110000Y-44560000D01*
X217110000Y-44560000D02*
X217110000Y-42910000D01*
X217050000Y-36770000D02*
X237610000Y-36770000D01*
X237610000Y-36770000D02*
X237610000Y-47050000D01*
X237610000Y-47050000D02*
X217050000Y-47050000D01*
X217050000Y-47050000D02*
X217050000Y-36770000D01*
X217110000Y-42910000D02*
G75*
G03*
X217110000Y-40910000I0J1000000D01*
G01*
%TO.C,U13*%
X217110000Y-26940000D02*
X217110000Y-25290000D01*
X217110000Y-25290000D02*
X237550000Y-25290000D01*
X237550000Y-25290000D02*
X237550000Y-30590000D01*
X237550000Y-30590000D02*
X217110000Y-30590000D01*
X217110000Y-30590000D02*
X217110000Y-28940000D01*
X217050000Y-22800000D02*
X237610000Y-22800000D01*
X237610000Y-22800000D02*
X237610000Y-33080000D01*
X237610000Y-33080000D02*
X217050000Y-33080000D01*
X217050000Y-33080000D02*
X217050000Y-22800000D01*
X217110000Y-28940000D02*
G75*
G03*
X217110000Y-26940000I0J1000000D01*
G01*
%TO.C,U12*%
X256580000Y-56000000D02*
X246340000Y-56000000D01*
X256580000Y-40110000D02*
X246340000Y-40110000D01*
X256580000Y-40110000D02*
X256580000Y-56000000D01*
X246340000Y-40110000D02*
X246340000Y-56000000D01*
X254000000Y-56000000D02*
X254000000Y-58540000D01*
X251460000Y-56000000D02*
X251460000Y-58540000D01*
X248920000Y-56000000D02*
X248920000Y-58540000D01*
%TO.C,U11*%
X187900000Y-40910000D02*
X187900000Y-39260000D01*
X187900000Y-39260000D02*
X208340000Y-39260000D01*
X208340000Y-39260000D02*
X208340000Y-44560000D01*
X208340000Y-44560000D02*
X187900000Y-44560000D01*
X187900000Y-44560000D02*
X187900000Y-42910000D01*
X187840000Y-36770000D02*
X208400000Y-36770000D01*
X208400000Y-36770000D02*
X208400000Y-47050000D01*
X208400000Y-47050000D02*
X187840000Y-47050000D01*
X187840000Y-47050000D02*
X187840000Y-36770000D01*
X187900000Y-42910000D02*
G75*
G03*
X187900000Y-40910000I0J1000000D01*
G01*
%TO.C,U10*%
X205800000Y-28940000D02*
X205800000Y-30590000D01*
X205800000Y-30590000D02*
X187900000Y-30590000D01*
X187900000Y-30590000D02*
X187900000Y-25290000D01*
X187900000Y-25290000D02*
X205800000Y-25290000D01*
X205800000Y-25290000D02*
X205800000Y-26940000D01*
X205860000Y-33080000D02*
X187840000Y-33080000D01*
X187840000Y-33080000D02*
X187840000Y-22800000D01*
X187840000Y-22800000D02*
X205860000Y-22800000D01*
X205860000Y-22800000D02*
X205860000Y-33080000D01*
X205800000Y-26940000D02*
G75*
G03*
X205800000Y-28940000I0J-1000000D01*
G01*
%TO.C,U9*%
X158690000Y-40910000D02*
X158690000Y-39260000D01*
X158690000Y-39260000D02*
X179130000Y-39260000D01*
X179130000Y-39260000D02*
X179130000Y-44560000D01*
X179130000Y-44560000D02*
X158690000Y-44560000D01*
X158690000Y-44560000D02*
X158690000Y-42910000D01*
X158630000Y-36770000D02*
X179190000Y-36770000D01*
X179190000Y-36770000D02*
X179190000Y-47050000D01*
X179190000Y-47050000D02*
X158630000Y-47050000D01*
X158630000Y-47050000D02*
X158630000Y-36770000D01*
X158690000Y-42910000D02*
G75*
G03*
X158690000Y-40910000I0J1000000D01*
G01*
%TO.C,U8*%
X158690000Y-26940000D02*
X158690000Y-25290000D01*
X158690000Y-25290000D02*
X179130000Y-25290000D01*
X179130000Y-25290000D02*
X179130000Y-30590000D01*
X179130000Y-30590000D02*
X158690000Y-30590000D01*
X158690000Y-30590000D02*
X158690000Y-28940000D01*
X158630000Y-22800000D02*
X179190000Y-22800000D01*
X179190000Y-22800000D02*
X179190000Y-33080000D01*
X179190000Y-33080000D02*
X158630000Y-33080000D01*
X158630000Y-33080000D02*
X158630000Y-22800000D01*
X158690000Y-28940000D02*
G75*
G03*
X158690000Y-26940000I0J1000000D01*
G01*
%TO.C,U7*%
X129480000Y-40910000D02*
X129480000Y-39260000D01*
X129480000Y-39260000D02*
X149920000Y-39260000D01*
X149920000Y-39260000D02*
X149920000Y-44560000D01*
X149920000Y-44560000D02*
X129480000Y-44560000D01*
X129480000Y-44560000D02*
X129480000Y-42910000D01*
X129420000Y-36770000D02*
X149980000Y-36770000D01*
X149980000Y-36770000D02*
X149980000Y-47050000D01*
X149980000Y-47050000D02*
X129420000Y-47050000D01*
X129420000Y-47050000D02*
X129420000Y-36770000D01*
X129480000Y-42910000D02*
G75*
G03*
X129480000Y-40910000I0J1000000D01*
G01*
%TO.C,U6*%
X147380000Y-28940000D02*
X147380000Y-30590000D01*
X147380000Y-30590000D02*
X129480000Y-30590000D01*
X129480000Y-30590000D02*
X129480000Y-25290000D01*
X129480000Y-25290000D02*
X147380000Y-25290000D01*
X147380000Y-25290000D02*
X147380000Y-26940000D01*
X147440000Y-33080000D02*
X129420000Y-33080000D01*
X129420000Y-33080000D02*
X129420000Y-22800000D01*
X129420000Y-22800000D02*
X147440000Y-22800000D01*
X147440000Y-22800000D02*
X147440000Y-33080000D01*
X147380000Y-26940000D02*
G75*
G03*
X147380000Y-28940000I0J-1000000D01*
G01*
%TO.C,U5*%
X100270000Y-40910000D02*
X100270000Y-39260000D01*
X100270000Y-39260000D02*
X120710000Y-39260000D01*
X120710000Y-39260000D02*
X120710000Y-44560000D01*
X120710000Y-44560000D02*
X100270000Y-44560000D01*
X100270000Y-44560000D02*
X100270000Y-42910000D01*
X100210000Y-36770000D02*
X120770000Y-36770000D01*
X120770000Y-36770000D02*
X120770000Y-47050000D01*
X120770000Y-47050000D02*
X100210000Y-47050000D01*
X100210000Y-47050000D02*
X100210000Y-36770000D01*
X100270000Y-42910000D02*
G75*
G03*
X100270000Y-40910000I0J1000000D01*
G01*
%TO.C,U4*%
X100270000Y-26940000D02*
X100270000Y-25290000D01*
X100270000Y-25290000D02*
X120710000Y-25290000D01*
X120710000Y-25290000D02*
X120710000Y-30590000D01*
X120710000Y-30590000D02*
X100270000Y-30590000D01*
X100270000Y-30590000D02*
X100270000Y-28940000D01*
X100210000Y-22800000D02*
X120770000Y-22800000D01*
X120770000Y-22800000D02*
X120770000Y-33080000D01*
X120770000Y-33080000D02*
X100210000Y-33080000D01*
X100210000Y-33080000D02*
X100210000Y-22800000D01*
X100270000Y-28940000D02*
G75*
G03*
X100270000Y-26940000I0J1000000D01*
G01*
%TO.C,U2*%
X71060000Y-40910000D02*
X71060000Y-39260000D01*
X71060000Y-39260000D02*
X91500000Y-39260000D01*
X91500000Y-39260000D02*
X91500000Y-44560000D01*
X91500000Y-44560000D02*
X71060000Y-44560000D01*
X71060000Y-44560000D02*
X71060000Y-42910000D01*
X71000000Y-36770000D02*
X91560000Y-36770000D01*
X91560000Y-36770000D02*
X91560000Y-47050000D01*
X91560000Y-47050000D02*
X71000000Y-47050000D01*
X71000000Y-47050000D02*
X71000000Y-36770000D01*
X71060000Y-42910000D02*
G75*
G03*
X71060000Y-40910000I0J1000000D01*
G01*
%TO.C,U1*%
X88960000Y-28940000D02*
X88960000Y-30590000D01*
X88960000Y-30590000D02*
X71060000Y-30590000D01*
X71060000Y-30590000D02*
X71060000Y-25290000D01*
X71060000Y-25290000D02*
X88960000Y-25290000D01*
X88960000Y-25290000D02*
X88960000Y-26940000D01*
X89020000Y-33080000D02*
X71000000Y-33080000D01*
X71000000Y-33080000D02*
X71000000Y-22800000D01*
X71000000Y-22800000D02*
X89020000Y-22800000D01*
X89020000Y-22800000D02*
X89020000Y-33080000D01*
X88960000Y-26940000D02*
G75*
G03*
X88960000Y-28940000I0J-1000000D01*
G01*
%TO.C,C6*%
X94515000Y-38330000D02*
X94515000Y-45570000D01*
X97255000Y-38330000D02*
X97255000Y-45570000D01*
X94515000Y-38330000D02*
X97255000Y-38330000D01*
X94515000Y-45570000D02*
X97255000Y-45570000D01*
%TO.C,C5*%
X182145000Y-38250000D02*
X182145000Y-45490000D01*
X184885000Y-38250000D02*
X184885000Y-45490000D01*
X182145000Y-38250000D02*
X184885000Y-38250000D01*
X182145000Y-45490000D02*
X184885000Y-45490000D01*
%TO.C,C4*%
X152935000Y-38250000D02*
X152935000Y-45490000D01*
X155675000Y-38250000D02*
X155675000Y-45490000D01*
X152935000Y-38250000D02*
X155675000Y-38250000D01*
X152935000Y-45490000D02*
X155675000Y-45490000D01*
%TO.C,C3*%
X123725000Y-38250000D02*
X123725000Y-45490000D01*
X126465000Y-38250000D02*
X126465000Y-45490000D01*
X123725000Y-38250000D02*
X126465000Y-38250000D01*
X123725000Y-45490000D02*
X126465000Y-45490000D01*
%TO.C,C2*%
X211355000Y-38250000D02*
X211355000Y-45490000D01*
X214095000Y-38250000D02*
X214095000Y-45490000D01*
X211355000Y-38250000D02*
X214095000Y-38250000D01*
X211355000Y-45490000D02*
X214095000Y-45490000D01*
%TO.C,C1*%
X241200000Y-38330000D02*
X241200000Y-45570000D01*
X243940000Y-38330000D02*
X243940000Y-45570000D01*
X241200000Y-38330000D02*
X243940000Y-38330000D01*
X241200000Y-45570000D02*
X243940000Y-45570000D01*
%TO.C,U3*%
D12*
X68071904Y-29602380D02*
X68071904Y-30411904D01*
X68024285Y-30507142D01*
X67976666Y-30554761D01*
X67881428Y-30602380D01*
X67690952Y-30602380D01*
X67595714Y-30554761D01*
X67548095Y-30507142D01*
X67500476Y-30411904D01*
X67500476Y-29602380D01*
X67119523Y-29602380D02*
X66500476Y-29602380D01*
X66833809Y-29983333D01*
X66690952Y-29983333D01*
X66595714Y-30030952D01*
X66548095Y-30078571D01*
X66500476Y-30173809D01*
X66500476Y-30411904D01*
X66548095Y-30507142D01*
X66595714Y-30554761D01*
X66690952Y-30602380D01*
X66976666Y-30602380D01*
X67071904Y-30554761D01*
X67119523Y-30507142D01*
%TO.C,J5*%
X256662380Y-26776666D02*
X257376666Y-26776666D01*
X257519523Y-26729047D01*
X257614761Y-26633809D01*
X257662380Y-26490952D01*
X257662380Y-26395714D01*
X256662380Y-27729047D02*
X256662380Y-27252857D01*
X257138571Y-27205238D01*
X257090952Y-27252857D01*
X257043333Y-27348095D01*
X257043333Y-27586190D01*
X257090952Y-27681428D01*
X257138571Y-27729047D01*
X257233809Y-27776666D01*
X257471904Y-27776666D01*
X257567142Y-27729047D01*
X257614761Y-27681428D01*
X257662380Y-27586190D01*
X257662380Y-27348095D01*
X257614761Y-27252857D01*
X257567142Y-27205238D01*
%TO.C,C17*%
X250562857Y-70147142D02*
X250610476Y-70194761D01*
X250753333Y-70242380D01*
X250848571Y-70242380D01*
X250991428Y-70194761D01*
X251086666Y-70099523D01*
X251134285Y-70004285D01*
X251181904Y-69813809D01*
X251181904Y-69670952D01*
X251134285Y-69480476D01*
X251086666Y-69385238D01*
X250991428Y-69290000D01*
X250848571Y-69242380D01*
X250753333Y-69242380D01*
X250610476Y-69290000D01*
X250562857Y-69337619D01*
X249610476Y-70242380D02*
X250181904Y-70242380D01*
X249896190Y-70242380D02*
X249896190Y-69242380D01*
X249991428Y-69385238D01*
X250086666Y-69480476D01*
X250181904Y-69528095D01*
X249277142Y-69242380D02*
X248610476Y-69242380D01*
X249039047Y-70242380D01*
%TO.C,C16*%
X65682857Y-23277142D02*
X65730476Y-23324761D01*
X65873333Y-23372380D01*
X65968571Y-23372380D01*
X66111428Y-23324761D01*
X66206666Y-23229523D01*
X66254285Y-23134285D01*
X66301904Y-22943809D01*
X66301904Y-22800952D01*
X66254285Y-22610476D01*
X66206666Y-22515238D01*
X66111428Y-22420000D01*
X65968571Y-22372380D01*
X65873333Y-22372380D01*
X65730476Y-22420000D01*
X65682857Y-22467619D01*
X64730476Y-23372380D02*
X65301904Y-23372380D01*
X65016190Y-23372380D02*
X65016190Y-22372380D01*
X65111428Y-22515238D01*
X65206666Y-22610476D01*
X65301904Y-22658095D01*
X63873333Y-22372380D02*
X64063809Y-22372380D01*
X64159047Y-22420000D01*
X64206666Y-22467619D01*
X64301904Y-22610476D01*
X64349523Y-22800952D01*
X64349523Y-23181904D01*
X64301904Y-23277142D01*
X64254285Y-23324761D01*
X64159047Y-23372380D01*
X63968571Y-23372380D01*
X63873333Y-23324761D01*
X63825714Y-23277142D01*
X63778095Y-23181904D01*
X63778095Y-22943809D01*
X63825714Y-22848571D01*
X63873333Y-22800952D01*
X63968571Y-22753333D01*
X64159047Y-22753333D01*
X64254285Y-22800952D01*
X64301904Y-22848571D01*
X64349523Y-22943809D01*
%TO.C,C15*%
X185792857Y-70147142D02*
X185840476Y-70194761D01*
X185983333Y-70242380D01*
X186078571Y-70242380D01*
X186221428Y-70194761D01*
X186316666Y-70099523D01*
X186364285Y-70004285D01*
X186411904Y-69813809D01*
X186411904Y-69670952D01*
X186364285Y-69480476D01*
X186316666Y-69385238D01*
X186221428Y-69290000D01*
X186078571Y-69242380D01*
X185983333Y-69242380D01*
X185840476Y-69290000D01*
X185792857Y-69337619D01*
X184840476Y-70242380D02*
X185411904Y-70242380D01*
X185126190Y-70242380D02*
X185126190Y-69242380D01*
X185221428Y-69385238D01*
X185316666Y-69480476D01*
X185411904Y-69528095D01*
X183935714Y-69242380D02*
X184411904Y-69242380D01*
X184459523Y-69718571D01*
X184411904Y-69670952D01*
X184316666Y-69623333D01*
X184078571Y-69623333D01*
X183983333Y-69670952D01*
X183935714Y-69718571D01*
X183888095Y-69813809D01*
X183888095Y-70051904D01*
X183935714Y-70147142D01*
X183983333Y-70194761D01*
X184078571Y-70242380D01*
X184316666Y-70242380D01*
X184411904Y-70194761D01*
X184459523Y-70147142D01*
%TO.C,R9*%
X55411666Y-42192380D02*
X55745000Y-41716190D01*
X55983095Y-42192380D02*
X55983095Y-41192380D01*
X55602142Y-41192380D01*
X55506904Y-41240000D01*
X55459285Y-41287619D01*
X55411666Y-41382857D01*
X55411666Y-41525714D01*
X55459285Y-41620952D01*
X55506904Y-41668571D01*
X55602142Y-41716190D01*
X55983095Y-41716190D01*
X54935476Y-42192380D02*
X54745000Y-42192380D01*
X54649761Y-42144761D01*
X54602142Y-42097142D01*
X54506904Y-41954285D01*
X54459285Y-41763809D01*
X54459285Y-41382857D01*
X54506904Y-41287619D01*
X54554523Y-41240000D01*
X54649761Y-41192380D01*
X54840238Y-41192380D01*
X54935476Y-41240000D01*
X54983095Y-41287619D01*
X55030714Y-41382857D01*
X55030714Y-41620952D01*
X54983095Y-41716190D01*
X54935476Y-41763809D01*
X54840238Y-41811428D01*
X54649761Y-41811428D01*
X54554523Y-41763809D01*
X54506904Y-41716190D01*
X54459285Y-41620952D01*
%TO.C,J4*%
X262024761Y-55316666D02*
X262072380Y-55459523D01*
X262072380Y-55697619D01*
X262024761Y-55792857D01*
X261977142Y-55840476D01*
X261881904Y-55888095D01*
X261786666Y-55888095D01*
X261691428Y-55840476D01*
X261643809Y-55792857D01*
X261596190Y-55697619D01*
X261548571Y-55507142D01*
X261500952Y-55411904D01*
X261453333Y-55364285D01*
X261358095Y-55316666D01*
X261262857Y-55316666D01*
X261167619Y-55364285D01*
X261120000Y-55411904D01*
X261072380Y-55507142D01*
X261072380Y-55745238D01*
X261120000Y-55888095D01*
X262072380Y-56316666D02*
X261072380Y-56316666D01*
X261548571Y-56316666D02*
X261548571Y-56888095D01*
X262072380Y-56888095D02*
X261072380Y-56888095D01*
X262072380Y-57364285D02*
X261072380Y-57364285D01*
X261072380Y-57602380D01*
X261120000Y-57745238D01*
X261215238Y-57840476D01*
X261310476Y-57888095D01*
X261500952Y-57935714D01*
X261643809Y-57935714D01*
X261834285Y-57888095D01*
X261929523Y-57840476D01*
X262024761Y-57745238D01*
X262072380Y-57602380D01*
X262072380Y-57364285D01*
X262072380Y-58364285D02*
X261072380Y-58364285D01*
X262072380Y-58935714D01*
X261072380Y-58935714D01*
%TO.C,R8*%
X55411666Y-59972380D02*
X55745000Y-59496190D01*
X55983095Y-59972380D02*
X55983095Y-58972380D01*
X55602142Y-58972380D01*
X55506904Y-59020000D01*
X55459285Y-59067619D01*
X55411666Y-59162857D01*
X55411666Y-59305714D01*
X55459285Y-59400952D01*
X55506904Y-59448571D01*
X55602142Y-59496190D01*
X55983095Y-59496190D01*
X54840238Y-59400952D02*
X54935476Y-59353333D01*
X54983095Y-59305714D01*
X55030714Y-59210476D01*
X55030714Y-59162857D01*
X54983095Y-59067619D01*
X54935476Y-59020000D01*
X54840238Y-58972380D01*
X54649761Y-58972380D01*
X54554523Y-59020000D01*
X54506904Y-59067619D01*
X54459285Y-59162857D01*
X54459285Y-59210476D01*
X54506904Y-59305714D01*
X54554523Y-59353333D01*
X54649761Y-59400952D01*
X54840238Y-59400952D01*
X54935476Y-59448571D01*
X54983095Y-59496190D01*
X55030714Y-59591428D01*
X55030714Y-59781904D01*
X54983095Y-59877142D01*
X54935476Y-59924761D01*
X54840238Y-59972380D01*
X54649761Y-59972380D01*
X54554523Y-59924761D01*
X54506904Y-59877142D01*
X54459285Y-59781904D01*
X54459285Y-59591428D01*
X54506904Y-59496190D01*
X54554523Y-59448571D01*
X54649761Y-59400952D01*
%TO.C,C7*%
X263056666Y-40997142D02*
X263104285Y-41044761D01*
X263247142Y-41092380D01*
X263342380Y-41092380D01*
X263485238Y-41044761D01*
X263580476Y-40949523D01*
X263628095Y-40854285D01*
X263675714Y-40663809D01*
X263675714Y-40520952D01*
X263628095Y-40330476D01*
X263580476Y-40235238D01*
X263485238Y-40140000D01*
X263342380Y-40092380D01*
X263247142Y-40092380D01*
X263104285Y-40140000D01*
X263056666Y-40187619D01*
X262723333Y-40092380D02*
X262056666Y-40092380D01*
X262485238Y-41092380D01*
%TO.C,U15*%
X56483095Y-22562380D02*
X56483095Y-23371904D01*
X56435476Y-23467142D01*
X56387857Y-23514761D01*
X56292619Y-23562380D01*
X56102142Y-23562380D01*
X56006904Y-23514761D01*
X55959285Y-23467142D01*
X55911666Y-23371904D01*
X55911666Y-22562380D01*
X54911666Y-23562380D02*
X55483095Y-23562380D01*
X55197380Y-23562380D02*
X55197380Y-22562380D01*
X55292619Y-22705238D01*
X55387857Y-22800476D01*
X55483095Y-22848095D01*
X54006904Y-22562380D02*
X54483095Y-22562380D01*
X54530714Y-23038571D01*
X54483095Y-22990952D01*
X54387857Y-22943333D01*
X54149761Y-22943333D01*
X54054523Y-22990952D01*
X54006904Y-23038571D01*
X53959285Y-23133809D01*
X53959285Y-23371904D01*
X54006904Y-23467142D01*
X54054523Y-23514761D01*
X54149761Y-23562380D01*
X54387857Y-23562380D01*
X54483095Y-23514761D01*
X54530714Y-23467142D01*
%TO.C,R7*%
X55426166Y-66767380D02*
X55759500Y-66291190D01*
X55997595Y-66767380D02*
X55997595Y-65767380D01*
X55616642Y-65767380D01*
X55521404Y-65815000D01*
X55473785Y-65862619D01*
X55426166Y-65957857D01*
X55426166Y-66100714D01*
X55473785Y-66195952D01*
X55521404Y-66243571D01*
X55616642Y-66291190D01*
X55997595Y-66291190D01*
X55092833Y-65767380D02*
X54426166Y-65767380D01*
X54854738Y-66767380D01*
%TO.C,C14*%
X245427142Y-56547142D02*
X245474761Y-56499523D01*
X245522380Y-56356666D01*
X245522380Y-56261428D01*
X245474761Y-56118571D01*
X245379523Y-56023333D01*
X245284285Y-55975714D01*
X245093809Y-55928095D01*
X244950952Y-55928095D01*
X244760476Y-55975714D01*
X244665238Y-56023333D01*
X244570000Y-56118571D01*
X244522380Y-56261428D01*
X244522380Y-56356666D01*
X244570000Y-56499523D01*
X244617619Y-56547142D01*
X245522380Y-57499523D02*
X245522380Y-56928095D01*
X245522380Y-57213809D02*
X244522380Y-57213809D01*
X244665238Y-57118571D01*
X244760476Y-57023333D01*
X244808095Y-56928095D01*
X244855714Y-58356666D02*
X245522380Y-58356666D01*
X244474761Y-58118571D02*
X245189047Y-57880476D01*
X245189047Y-58499523D01*
%TO.C,C13*%
X183197142Y-56547142D02*
X183244761Y-56499523D01*
X183292380Y-56356666D01*
X183292380Y-56261428D01*
X183244761Y-56118571D01*
X183149523Y-56023333D01*
X183054285Y-55975714D01*
X182863809Y-55928095D01*
X182720952Y-55928095D01*
X182530476Y-55975714D01*
X182435238Y-56023333D01*
X182340000Y-56118571D01*
X182292380Y-56261428D01*
X182292380Y-56356666D01*
X182340000Y-56499523D01*
X182387619Y-56547142D01*
X183292380Y-57499523D02*
X183292380Y-56928095D01*
X183292380Y-57213809D02*
X182292380Y-57213809D01*
X182435238Y-57118571D01*
X182530476Y-57023333D01*
X182578095Y-56928095D01*
X182292380Y-57832857D02*
X182292380Y-58451904D01*
X182673333Y-58118571D01*
X182673333Y-58261428D01*
X182720952Y-58356666D01*
X182768571Y-58404285D01*
X182863809Y-58451904D01*
X183101904Y-58451904D01*
X183197142Y-58404285D01*
X183244761Y-58356666D01*
X183292380Y-58261428D01*
X183292380Y-57975714D01*
X183244761Y-57880476D01*
X183197142Y-57832857D01*
%TO.C,C12*%
X218757142Y-56547142D02*
X218804761Y-56499523D01*
X218852380Y-56356666D01*
X218852380Y-56261428D01*
X218804761Y-56118571D01*
X218709523Y-56023333D01*
X218614285Y-55975714D01*
X218423809Y-55928095D01*
X218280952Y-55928095D01*
X218090476Y-55975714D01*
X217995238Y-56023333D01*
X217900000Y-56118571D01*
X217852380Y-56261428D01*
X217852380Y-56356666D01*
X217900000Y-56499523D01*
X217947619Y-56547142D01*
X218852380Y-57499523D02*
X218852380Y-56928095D01*
X218852380Y-57213809D02*
X217852380Y-57213809D01*
X217995238Y-57118571D01*
X218090476Y-57023333D01*
X218138095Y-56928095D01*
X217947619Y-57880476D02*
X217900000Y-57928095D01*
X217852380Y-58023333D01*
X217852380Y-58261428D01*
X217900000Y-58356666D01*
X217947619Y-58404285D01*
X218042857Y-58451904D01*
X218138095Y-58451904D01*
X218280952Y-58404285D01*
X218852380Y-57832857D01*
X218852380Y-58451904D01*
%TO.C,C11*%
X120967142Y-56547142D02*
X121014761Y-56499523D01*
X121062380Y-56356666D01*
X121062380Y-56261428D01*
X121014761Y-56118571D01*
X120919523Y-56023333D01*
X120824285Y-55975714D01*
X120633809Y-55928095D01*
X120490952Y-55928095D01*
X120300476Y-55975714D01*
X120205238Y-56023333D01*
X120110000Y-56118571D01*
X120062380Y-56261428D01*
X120062380Y-56356666D01*
X120110000Y-56499523D01*
X120157619Y-56547142D01*
X121062380Y-57499523D02*
X121062380Y-56928095D01*
X121062380Y-57213809D02*
X120062380Y-57213809D01*
X120205238Y-57118571D01*
X120300476Y-57023333D01*
X120348095Y-56928095D01*
X121062380Y-58451904D02*
X121062380Y-57880476D01*
X121062380Y-58166190D02*
X120062380Y-58166190D01*
X120205238Y-58070952D01*
X120300476Y-57975714D01*
X120348095Y-57880476D01*
%TO.C,C10*%
X157162142Y-56547142D02*
X157209761Y-56499523D01*
X157257380Y-56356666D01*
X157257380Y-56261428D01*
X157209761Y-56118571D01*
X157114523Y-56023333D01*
X157019285Y-55975714D01*
X156828809Y-55928095D01*
X156685952Y-55928095D01*
X156495476Y-55975714D01*
X156400238Y-56023333D01*
X156305000Y-56118571D01*
X156257380Y-56261428D01*
X156257380Y-56356666D01*
X156305000Y-56499523D01*
X156352619Y-56547142D01*
X157257380Y-57499523D02*
X157257380Y-56928095D01*
X157257380Y-57213809D02*
X156257380Y-57213809D01*
X156400238Y-57118571D01*
X156495476Y-57023333D01*
X156543095Y-56928095D01*
X156257380Y-58118571D02*
X156257380Y-58213809D01*
X156305000Y-58309047D01*
X156352619Y-58356666D01*
X156447857Y-58404285D01*
X156638333Y-58451904D01*
X156876428Y-58451904D01*
X157066904Y-58404285D01*
X157162142Y-58356666D01*
X157209761Y-58309047D01*
X157257380Y-58213809D01*
X157257380Y-58118571D01*
X157209761Y-58023333D01*
X157162142Y-57975714D01*
X157066904Y-57928095D01*
X156876428Y-57880476D01*
X156638333Y-57880476D01*
X156447857Y-57928095D01*
X156352619Y-57975714D01*
X156305000Y-58023333D01*
X156257380Y-58118571D01*
%TO.C,C9*%
X95567142Y-57023333D02*
X95614761Y-56975714D01*
X95662380Y-56832857D01*
X95662380Y-56737619D01*
X95614761Y-56594761D01*
X95519523Y-56499523D01*
X95424285Y-56451904D01*
X95233809Y-56404285D01*
X95090952Y-56404285D01*
X94900476Y-56451904D01*
X94805238Y-56499523D01*
X94710000Y-56594761D01*
X94662380Y-56737619D01*
X94662380Y-56832857D01*
X94710000Y-56975714D01*
X94757619Y-57023333D01*
X95662380Y-57499523D02*
X95662380Y-57690000D01*
X95614761Y-57785238D01*
X95567142Y-57832857D01*
X95424285Y-57928095D01*
X95233809Y-57975714D01*
X94852857Y-57975714D01*
X94757619Y-57928095D01*
X94710000Y-57880476D01*
X94662380Y-57785238D01*
X94662380Y-57594761D01*
X94710000Y-57499523D01*
X94757619Y-57451904D01*
X94852857Y-57404285D01*
X95090952Y-57404285D01*
X95186190Y-57451904D01*
X95233809Y-57499523D01*
X95281428Y-57594761D01*
X95281428Y-57785238D01*
X95233809Y-57880476D01*
X95186190Y-57928095D01*
X95090952Y-57975714D01*
%TO.C,C8*%
X123721666Y-70147142D02*
X123769285Y-70194761D01*
X123912142Y-70242380D01*
X124007380Y-70242380D01*
X124150238Y-70194761D01*
X124245476Y-70099523D01*
X124293095Y-70004285D01*
X124340714Y-69813809D01*
X124340714Y-69670952D01*
X124293095Y-69480476D01*
X124245476Y-69385238D01*
X124150238Y-69290000D01*
X124007380Y-69242380D01*
X123912142Y-69242380D01*
X123769285Y-69290000D01*
X123721666Y-69337619D01*
X123150238Y-69670952D02*
X123245476Y-69623333D01*
X123293095Y-69575714D01*
X123340714Y-69480476D01*
X123340714Y-69432857D01*
X123293095Y-69337619D01*
X123245476Y-69290000D01*
X123150238Y-69242380D01*
X122959761Y-69242380D01*
X122864523Y-69290000D01*
X122816904Y-69337619D01*
X122769285Y-69432857D01*
X122769285Y-69480476D01*
X122816904Y-69575714D01*
X122864523Y-69623333D01*
X122959761Y-69670952D01*
X123150238Y-69670952D01*
X123245476Y-69718571D01*
X123293095Y-69766190D01*
X123340714Y-69861428D01*
X123340714Y-70051904D01*
X123293095Y-70147142D01*
X123245476Y-70194761D01*
X123150238Y-70242380D01*
X122959761Y-70242380D01*
X122864523Y-70194761D01*
X122816904Y-70147142D01*
X122769285Y-70051904D01*
X122769285Y-69861428D01*
X122816904Y-69766190D01*
X122864523Y-69718571D01*
X122959761Y-69670952D01*
%TO.C,U14*%
X215562380Y-40671904D02*
X216371904Y-40671904D01*
X216467142Y-40719523D01*
X216514761Y-40767142D01*
X216562380Y-40862380D01*
X216562380Y-41052857D01*
X216514761Y-41148095D01*
X216467142Y-41195714D01*
X216371904Y-41243333D01*
X215562380Y-41243333D01*
X216562380Y-42243333D02*
X216562380Y-41671904D01*
X216562380Y-41957619D02*
X215562380Y-41957619D01*
X215705238Y-41862380D01*
X215800476Y-41767142D01*
X215848095Y-41671904D01*
X215895714Y-43100476D02*
X216562380Y-43100476D01*
X215514761Y-42862380D02*
X216229047Y-42624285D01*
X216229047Y-43243333D01*
%TO.C,U13*%
X215562380Y-26701904D02*
X216371904Y-26701904D01*
X216467142Y-26749523D01*
X216514761Y-26797142D01*
X216562380Y-26892380D01*
X216562380Y-27082857D01*
X216514761Y-27178095D01*
X216467142Y-27225714D01*
X216371904Y-27273333D01*
X215562380Y-27273333D01*
X216562380Y-28273333D02*
X216562380Y-27701904D01*
X216562380Y-27987619D02*
X215562380Y-27987619D01*
X215705238Y-27892380D01*
X215800476Y-27797142D01*
X215848095Y-27701904D01*
X215562380Y-28606666D02*
X215562380Y-29225714D01*
X215943333Y-28892380D01*
X215943333Y-29035238D01*
X215990952Y-29130476D01*
X216038571Y-29178095D01*
X216133809Y-29225714D01*
X216371904Y-29225714D01*
X216467142Y-29178095D01*
X216514761Y-29130476D01*
X216562380Y-29035238D01*
X216562380Y-28749523D01*
X216514761Y-28654285D01*
X216467142Y-28606666D01*
%TO.C,U12*%
X252698095Y-38562380D02*
X252698095Y-39371904D01*
X252650476Y-39467142D01*
X252602857Y-39514761D01*
X252507619Y-39562380D01*
X252317142Y-39562380D01*
X252221904Y-39514761D01*
X252174285Y-39467142D01*
X252126666Y-39371904D01*
X252126666Y-38562380D01*
X251126666Y-39562380D02*
X251698095Y-39562380D01*
X251412380Y-39562380D02*
X251412380Y-38562380D01*
X251507619Y-38705238D01*
X251602857Y-38800476D01*
X251698095Y-38848095D01*
X250745714Y-38657619D02*
X250698095Y-38610000D01*
X250602857Y-38562380D01*
X250364761Y-38562380D01*
X250269523Y-38610000D01*
X250221904Y-38657619D01*
X250174285Y-38752857D01*
X250174285Y-38848095D01*
X250221904Y-38990952D01*
X250793333Y-39562380D01*
X250174285Y-39562380D01*
%TO.C,U11*%
X186352380Y-40671904D02*
X187161904Y-40671904D01*
X187257142Y-40719523D01*
X187304761Y-40767142D01*
X187352380Y-40862380D01*
X187352380Y-41052857D01*
X187304761Y-41148095D01*
X187257142Y-41195714D01*
X187161904Y-41243333D01*
X186352380Y-41243333D01*
X187352380Y-42243333D02*
X187352380Y-41671904D01*
X187352380Y-41957619D02*
X186352380Y-41957619D01*
X186495238Y-41862380D01*
X186590476Y-41767142D01*
X186638095Y-41671904D01*
X187352380Y-43195714D02*
X187352380Y-42624285D01*
X187352380Y-42910000D02*
X186352380Y-42910000D01*
X186495238Y-42814761D01*
X186590476Y-42719523D01*
X186638095Y-42624285D01*
%TO.C,U10*%
X206252380Y-26701904D02*
X207061904Y-26701904D01*
X207157142Y-26749523D01*
X207204761Y-26797142D01*
X207252380Y-26892380D01*
X207252380Y-27082857D01*
X207204761Y-27178095D01*
X207157142Y-27225714D01*
X207061904Y-27273333D01*
X206252380Y-27273333D01*
X207252380Y-28273333D02*
X207252380Y-27701904D01*
X207252380Y-27987619D02*
X206252380Y-27987619D01*
X206395238Y-27892380D01*
X206490476Y-27797142D01*
X206538095Y-27701904D01*
X206252380Y-28892380D02*
X206252380Y-28987619D01*
X206300000Y-29082857D01*
X206347619Y-29130476D01*
X206442857Y-29178095D01*
X206633333Y-29225714D01*
X206871428Y-29225714D01*
X207061904Y-29178095D01*
X207157142Y-29130476D01*
X207204761Y-29082857D01*
X207252380Y-28987619D01*
X207252380Y-28892380D01*
X207204761Y-28797142D01*
X207157142Y-28749523D01*
X207061904Y-28701904D01*
X206871428Y-28654285D01*
X206633333Y-28654285D01*
X206442857Y-28701904D01*
X206347619Y-28749523D01*
X206300000Y-28797142D01*
X206252380Y-28892380D01*
%TO.C,U9*%
X157142380Y-41148095D02*
X157951904Y-41148095D01*
X158047142Y-41195714D01*
X158094761Y-41243333D01*
X158142380Y-41338571D01*
X158142380Y-41529047D01*
X158094761Y-41624285D01*
X158047142Y-41671904D01*
X157951904Y-41719523D01*
X157142380Y-41719523D01*
X158142380Y-42243333D02*
X158142380Y-42433809D01*
X158094761Y-42529047D01*
X158047142Y-42576666D01*
X157904285Y-42671904D01*
X157713809Y-42719523D01*
X157332857Y-42719523D01*
X157237619Y-42671904D01*
X157190000Y-42624285D01*
X157142380Y-42529047D01*
X157142380Y-42338571D01*
X157190000Y-42243333D01*
X157237619Y-42195714D01*
X157332857Y-42148095D01*
X157570952Y-42148095D01*
X157666190Y-42195714D01*
X157713809Y-42243333D01*
X157761428Y-42338571D01*
X157761428Y-42529047D01*
X157713809Y-42624285D01*
X157666190Y-42671904D01*
X157570952Y-42719523D01*
%TO.C,U8*%
X157142380Y-27178095D02*
X157951904Y-27178095D01*
X158047142Y-27225714D01*
X158094761Y-27273333D01*
X158142380Y-27368571D01*
X158142380Y-27559047D01*
X158094761Y-27654285D01*
X158047142Y-27701904D01*
X157951904Y-27749523D01*
X157142380Y-27749523D01*
X157570952Y-28368571D02*
X157523333Y-28273333D01*
X157475714Y-28225714D01*
X157380476Y-28178095D01*
X157332857Y-28178095D01*
X157237619Y-28225714D01*
X157190000Y-28273333D01*
X157142380Y-28368571D01*
X157142380Y-28559047D01*
X157190000Y-28654285D01*
X157237619Y-28701904D01*
X157332857Y-28749523D01*
X157380476Y-28749523D01*
X157475714Y-28701904D01*
X157523333Y-28654285D01*
X157570952Y-28559047D01*
X157570952Y-28368571D01*
X157618571Y-28273333D01*
X157666190Y-28225714D01*
X157761428Y-28178095D01*
X157951904Y-28178095D01*
X158047142Y-28225714D01*
X158094761Y-28273333D01*
X158142380Y-28368571D01*
X158142380Y-28559047D01*
X158094761Y-28654285D01*
X158047142Y-28701904D01*
X157951904Y-28749523D01*
X157761428Y-28749523D01*
X157666190Y-28701904D01*
X157618571Y-28654285D01*
X157570952Y-28559047D01*
%TO.C,U7*%
X127932380Y-41148095D02*
X128741904Y-41148095D01*
X128837142Y-41195714D01*
X128884761Y-41243333D01*
X128932380Y-41338571D01*
X128932380Y-41529047D01*
X128884761Y-41624285D01*
X128837142Y-41671904D01*
X128741904Y-41719523D01*
X127932380Y-41719523D01*
X127932380Y-42100476D02*
X127932380Y-42767142D01*
X128932380Y-42338571D01*
%TO.C,U6*%
X147832380Y-27178095D02*
X148641904Y-27178095D01*
X148737142Y-27225714D01*
X148784761Y-27273333D01*
X148832380Y-27368571D01*
X148832380Y-27559047D01*
X148784761Y-27654285D01*
X148737142Y-27701904D01*
X148641904Y-27749523D01*
X147832380Y-27749523D01*
X147832380Y-28654285D02*
X147832380Y-28463809D01*
X147880000Y-28368571D01*
X147927619Y-28320952D01*
X148070476Y-28225714D01*
X148260952Y-28178095D01*
X148641904Y-28178095D01*
X148737142Y-28225714D01*
X148784761Y-28273333D01*
X148832380Y-28368571D01*
X148832380Y-28559047D01*
X148784761Y-28654285D01*
X148737142Y-28701904D01*
X148641904Y-28749523D01*
X148403809Y-28749523D01*
X148308571Y-28701904D01*
X148260952Y-28654285D01*
X148213333Y-28559047D01*
X148213333Y-28368571D01*
X148260952Y-28273333D01*
X148308571Y-28225714D01*
X148403809Y-28178095D01*
%TO.C,U5*%
X98722380Y-41148095D02*
X99531904Y-41148095D01*
X99627142Y-41195714D01*
X99674761Y-41243333D01*
X99722380Y-41338571D01*
X99722380Y-41529047D01*
X99674761Y-41624285D01*
X99627142Y-41671904D01*
X99531904Y-41719523D01*
X98722380Y-41719523D01*
X98722380Y-42671904D02*
X98722380Y-42195714D01*
X99198571Y-42148095D01*
X99150952Y-42195714D01*
X99103333Y-42290952D01*
X99103333Y-42529047D01*
X99150952Y-42624285D01*
X99198571Y-42671904D01*
X99293809Y-42719523D01*
X99531904Y-42719523D01*
X99627142Y-42671904D01*
X99674761Y-42624285D01*
X99722380Y-42529047D01*
X99722380Y-42290952D01*
X99674761Y-42195714D01*
X99627142Y-42148095D01*
%TO.C,U4*%
X98722380Y-27178095D02*
X99531904Y-27178095D01*
X99627142Y-27225714D01*
X99674761Y-27273333D01*
X99722380Y-27368571D01*
X99722380Y-27559047D01*
X99674761Y-27654285D01*
X99627142Y-27701904D01*
X99531904Y-27749523D01*
X98722380Y-27749523D01*
X99055714Y-28654285D02*
X99722380Y-28654285D01*
X98674761Y-28416190D02*
X99389047Y-28178095D01*
X99389047Y-28797142D01*
%TO.C,U2*%
X69512380Y-41148095D02*
X70321904Y-41148095D01*
X70417142Y-41195714D01*
X70464761Y-41243333D01*
X70512380Y-41338571D01*
X70512380Y-41529047D01*
X70464761Y-41624285D01*
X70417142Y-41671904D01*
X70321904Y-41719523D01*
X69512380Y-41719523D01*
X69607619Y-42148095D02*
X69560000Y-42195714D01*
X69512380Y-42290952D01*
X69512380Y-42529047D01*
X69560000Y-42624285D01*
X69607619Y-42671904D01*
X69702857Y-42719523D01*
X69798095Y-42719523D01*
X69940952Y-42671904D01*
X70512380Y-42100476D01*
X70512380Y-42719523D01*
%TO.C,U1*%
X89412380Y-27178095D02*
X90221904Y-27178095D01*
X90317142Y-27225714D01*
X90364761Y-27273333D01*
X90412380Y-27368571D01*
X90412380Y-27559047D01*
X90364761Y-27654285D01*
X90317142Y-27701904D01*
X90221904Y-27749523D01*
X89412380Y-27749523D01*
X90412380Y-28749523D02*
X90412380Y-28178095D01*
X90412380Y-28463809D02*
X89412380Y-28463809D01*
X89555238Y-28368571D01*
X89650476Y-28273333D01*
X89698095Y-28178095D01*
%TO.C,J3*%
X261120000Y-51308095D02*
X261072380Y-51212857D01*
X261072380Y-51070000D01*
X261120000Y-50927142D01*
X261215238Y-50831904D01*
X261310476Y-50784285D01*
X261500952Y-50736666D01*
X261643809Y-50736666D01*
X261834285Y-50784285D01*
X261929523Y-50831904D01*
X262024761Y-50927142D01*
X262072380Y-51070000D01*
X262072380Y-51165238D01*
X262024761Y-51308095D01*
X261977142Y-51355714D01*
X261643809Y-51355714D01*
X261643809Y-51165238D01*
X262072380Y-51784285D02*
X261072380Y-51784285D01*
X262072380Y-52355714D01*
X261072380Y-52355714D01*
X262072380Y-52831904D02*
X261072380Y-52831904D01*
X261072380Y-53070000D01*
X261120000Y-53212857D01*
X261215238Y-53308095D01*
X261310476Y-53355714D01*
X261500952Y-53403333D01*
X261643809Y-53403333D01*
X261834285Y-53355714D01*
X261929523Y-53308095D01*
X262024761Y-53212857D01*
X262072380Y-53070000D01*
X262072380Y-52831904D01*
%TO.C,J2*%
X262072380Y-61134761D02*
X262072380Y-60563333D01*
X262072380Y-60849047D02*
X261072380Y-60849047D01*
X261215238Y-60753809D01*
X261310476Y-60658571D01*
X261358095Y-60563333D01*
X261072380Y-61468095D02*
X261072380Y-62134761D01*
X262072380Y-61706190D01*
X261072380Y-62706190D02*
X261072380Y-62801428D01*
X261120000Y-62896666D01*
X261167619Y-62944285D01*
X261262857Y-62991904D01*
X261453333Y-63039523D01*
X261691428Y-63039523D01*
X261881904Y-62991904D01*
X261977142Y-62944285D01*
X262024761Y-62896666D01*
X262072380Y-62801428D01*
X262072380Y-62706190D01*
X262024761Y-62610952D01*
X261977142Y-62563333D01*
X261881904Y-62515714D01*
X261691428Y-62468095D01*
X261453333Y-62468095D01*
X261262857Y-62515714D01*
X261167619Y-62563333D01*
X261120000Y-62610952D01*
X261072380Y-62706190D01*
X261072380Y-63325238D02*
X262072380Y-63658571D01*
X261072380Y-63991904D01*
%TO.C,J1*%
X262072380Y-46370952D02*
X262072380Y-45799523D01*
X262072380Y-46085238D02*
X261072380Y-46085238D01*
X261215238Y-45990000D01*
X261310476Y-45894761D01*
X261358095Y-45799523D01*
X261167619Y-46751904D02*
X261120000Y-46799523D01*
X261072380Y-46894761D01*
X261072380Y-47132857D01*
X261120000Y-47228095D01*
X261167619Y-47275714D01*
X261262857Y-47323333D01*
X261358095Y-47323333D01*
X261500952Y-47275714D01*
X262072380Y-46704285D01*
X262072380Y-47323333D01*
X261072380Y-47609047D02*
X262072380Y-47942380D01*
X261072380Y-48275714D01*
%TO.C,C6*%
X93742142Y-41783333D02*
X93789761Y-41735714D01*
X93837380Y-41592857D01*
X93837380Y-41497619D01*
X93789761Y-41354761D01*
X93694523Y-41259523D01*
X93599285Y-41211904D01*
X93408809Y-41164285D01*
X93265952Y-41164285D01*
X93075476Y-41211904D01*
X92980238Y-41259523D01*
X92885000Y-41354761D01*
X92837380Y-41497619D01*
X92837380Y-41592857D01*
X92885000Y-41735714D01*
X92932619Y-41783333D01*
X92837380Y-42640476D02*
X92837380Y-42450000D01*
X92885000Y-42354761D01*
X92932619Y-42307142D01*
X93075476Y-42211904D01*
X93265952Y-42164285D01*
X93646904Y-42164285D01*
X93742142Y-42211904D01*
X93789761Y-42259523D01*
X93837380Y-42354761D01*
X93837380Y-42545238D01*
X93789761Y-42640476D01*
X93742142Y-42688095D01*
X93646904Y-42735714D01*
X93408809Y-42735714D01*
X93313571Y-42688095D01*
X93265952Y-42640476D01*
X93218333Y-42545238D01*
X93218333Y-42354761D01*
X93265952Y-42259523D01*
X93313571Y-42211904D01*
X93408809Y-42164285D01*
%TO.C,C5*%
X181372142Y-41703333D02*
X181419761Y-41655714D01*
X181467380Y-41512857D01*
X181467380Y-41417619D01*
X181419761Y-41274761D01*
X181324523Y-41179523D01*
X181229285Y-41131904D01*
X181038809Y-41084285D01*
X180895952Y-41084285D01*
X180705476Y-41131904D01*
X180610238Y-41179523D01*
X180515000Y-41274761D01*
X180467380Y-41417619D01*
X180467380Y-41512857D01*
X180515000Y-41655714D01*
X180562619Y-41703333D01*
X180467380Y-42608095D02*
X180467380Y-42131904D01*
X180943571Y-42084285D01*
X180895952Y-42131904D01*
X180848333Y-42227142D01*
X180848333Y-42465238D01*
X180895952Y-42560476D01*
X180943571Y-42608095D01*
X181038809Y-42655714D01*
X181276904Y-42655714D01*
X181372142Y-42608095D01*
X181419761Y-42560476D01*
X181467380Y-42465238D01*
X181467380Y-42227142D01*
X181419761Y-42131904D01*
X181372142Y-42084285D01*
%TO.C,C4*%
X152162142Y-41703333D02*
X152209761Y-41655714D01*
X152257380Y-41512857D01*
X152257380Y-41417619D01*
X152209761Y-41274761D01*
X152114523Y-41179523D01*
X152019285Y-41131904D01*
X151828809Y-41084285D01*
X151685952Y-41084285D01*
X151495476Y-41131904D01*
X151400238Y-41179523D01*
X151305000Y-41274761D01*
X151257380Y-41417619D01*
X151257380Y-41512857D01*
X151305000Y-41655714D01*
X151352619Y-41703333D01*
X151590714Y-42560476D02*
X152257380Y-42560476D01*
X151209761Y-42322380D02*
X151924047Y-42084285D01*
X151924047Y-42703333D01*
%TO.C,C3*%
X122952142Y-41703333D02*
X122999761Y-41655714D01*
X123047380Y-41512857D01*
X123047380Y-41417619D01*
X122999761Y-41274761D01*
X122904523Y-41179523D01*
X122809285Y-41131904D01*
X122618809Y-41084285D01*
X122475952Y-41084285D01*
X122285476Y-41131904D01*
X122190238Y-41179523D01*
X122095000Y-41274761D01*
X122047380Y-41417619D01*
X122047380Y-41512857D01*
X122095000Y-41655714D01*
X122142619Y-41703333D01*
X122047380Y-42036666D02*
X122047380Y-42655714D01*
X122428333Y-42322380D01*
X122428333Y-42465238D01*
X122475952Y-42560476D01*
X122523571Y-42608095D01*
X122618809Y-42655714D01*
X122856904Y-42655714D01*
X122952142Y-42608095D01*
X122999761Y-42560476D01*
X123047380Y-42465238D01*
X123047380Y-42179523D01*
X122999761Y-42084285D01*
X122952142Y-42036666D01*
%TO.C,C2*%
X210582142Y-41703333D02*
X210629761Y-41655714D01*
X210677380Y-41512857D01*
X210677380Y-41417619D01*
X210629761Y-41274761D01*
X210534523Y-41179523D01*
X210439285Y-41131904D01*
X210248809Y-41084285D01*
X210105952Y-41084285D01*
X209915476Y-41131904D01*
X209820238Y-41179523D01*
X209725000Y-41274761D01*
X209677380Y-41417619D01*
X209677380Y-41512857D01*
X209725000Y-41655714D01*
X209772619Y-41703333D01*
X209772619Y-42084285D02*
X209725000Y-42131904D01*
X209677380Y-42227142D01*
X209677380Y-42465238D01*
X209725000Y-42560476D01*
X209772619Y-42608095D01*
X209867857Y-42655714D01*
X209963095Y-42655714D01*
X210105952Y-42608095D01*
X210677380Y-42036666D01*
X210677380Y-42655714D01*
%TO.C,C1*%
X240427142Y-41783333D02*
X240474761Y-41735714D01*
X240522380Y-41592857D01*
X240522380Y-41497619D01*
X240474761Y-41354761D01*
X240379523Y-41259523D01*
X240284285Y-41211904D01*
X240093809Y-41164285D01*
X239950952Y-41164285D01*
X239760476Y-41211904D01*
X239665238Y-41259523D01*
X239570000Y-41354761D01*
X239522380Y-41497619D01*
X239522380Y-41592857D01*
X239570000Y-41735714D01*
X239617619Y-41783333D01*
X240522380Y-42735714D02*
X240522380Y-42164285D01*
X240522380Y-42450000D02*
X239522380Y-42450000D01*
X239665238Y-42354761D01*
X239760476Y-42259523D01*
X239808095Y-42164285D01*
%TD*%
M02*
