%TF.GenerationSoftware,KiCad,Pcbnew,(5.1.7-0-10_14)*%
%TF.CreationDate,2020-10-12T21:23:20+02:00*%
%TF.ProjectId,nixie_board,6e697869-655f-4626-9f61-72642e6b6963,rev?*%
%TF.SameCoordinates,Original*%
%TF.FileFunction,Legend,Top*%
%TF.FilePolarity,Positive*%
%FSLAX46Y46*%
G04 Gerber Fmt 4.6, Leading zero omitted, Abs format (unit mm)*
G04 Created by KiCad (PCBNEW (5.1.7-0-10_14)) date 2020-10-12 21:23:20*
%MOMM*%
%LPD*%
G01*
G04 APERTURE LIST*
%ADD10C,0.300000*%
%ADD11C,0.175000*%
%ADD12C,0.375000*%
%ADD13C,0.120000*%
%ADD14C,0.254000*%
%ADD15C,0.010000*%
%ADD16C,0.150000*%
%ADD17C,0.101600*%
G04 APERTURE END LIST*
D10*
X238760000Y-22860000D02*
X238760000Y-81280000D01*
X69850000Y-22860000D02*
X69850000Y-81280000D01*
D11*
X43054523Y-81087142D02*
X43054523Y-81815714D01*
X43016428Y-81901428D01*
X42978333Y-81944285D01*
X42902142Y-81987142D01*
X42787857Y-81987142D01*
X42711666Y-81944285D01*
X43054523Y-81644285D02*
X42978333Y-81687142D01*
X42825952Y-81687142D01*
X42749761Y-81644285D01*
X42711666Y-81601428D01*
X42673571Y-81515714D01*
X42673571Y-81258571D01*
X42711666Y-81172857D01*
X42749761Y-81130000D01*
X42825952Y-81087142D01*
X42978333Y-81087142D01*
X43054523Y-81130000D01*
X43435476Y-81687142D02*
X43435476Y-81087142D01*
X43435476Y-80787142D02*
X43397380Y-80830000D01*
X43435476Y-80872857D01*
X43473571Y-80830000D01*
X43435476Y-80787142D01*
X43435476Y-80872857D01*
X43702142Y-81087142D02*
X44006904Y-81087142D01*
X43816428Y-80787142D02*
X43816428Y-81558571D01*
X43854523Y-81644285D01*
X43930714Y-81687142D01*
X44006904Y-81687142D01*
X44273571Y-81687142D02*
X44273571Y-80787142D01*
X44616428Y-81687142D02*
X44616428Y-81215714D01*
X44578333Y-81130000D01*
X44502142Y-81087142D01*
X44387857Y-81087142D01*
X44311666Y-81130000D01*
X44273571Y-81172857D01*
X45340238Y-81087142D02*
X45340238Y-81687142D01*
X44997380Y-81087142D02*
X44997380Y-81558571D01*
X45035476Y-81644285D01*
X45111666Y-81687142D01*
X45225952Y-81687142D01*
X45302142Y-81644285D01*
X45340238Y-81601428D01*
X45721190Y-81687142D02*
X45721190Y-80787142D01*
X45721190Y-81130000D02*
X45797380Y-81087142D01*
X45949761Y-81087142D01*
X46025952Y-81130000D01*
X46064047Y-81172857D01*
X46102142Y-81258571D01*
X46102142Y-81515714D01*
X46064047Y-81601428D01*
X46025952Y-81644285D01*
X45949761Y-81687142D01*
X45797380Y-81687142D01*
X45721190Y-81644285D01*
X46445000Y-81601428D02*
X46483095Y-81644285D01*
X46445000Y-81687142D01*
X46406904Y-81644285D01*
X46445000Y-81601428D01*
X46445000Y-81687142D01*
X47168809Y-81644285D02*
X47092619Y-81687142D01*
X46940238Y-81687142D01*
X46864047Y-81644285D01*
X46825952Y-81601428D01*
X46787857Y-81515714D01*
X46787857Y-81258571D01*
X46825952Y-81172857D01*
X46864047Y-81130000D01*
X46940238Y-81087142D01*
X47092619Y-81087142D01*
X47168809Y-81130000D01*
X47625952Y-81687142D02*
X47549761Y-81644285D01*
X47511666Y-81601428D01*
X47473571Y-81515714D01*
X47473571Y-81258571D01*
X47511666Y-81172857D01*
X47549761Y-81130000D01*
X47625952Y-81087142D01*
X47740238Y-81087142D01*
X47816428Y-81130000D01*
X47854523Y-81172857D01*
X47892619Y-81258571D01*
X47892619Y-81515714D01*
X47854523Y-81601428D01*
X47816428Y-81644285D01*
X47740238Y-81687142D01*
X47625952Y-81687142D01*
X48235476Y-81687142D02*
X48235476Y-81087142D01*
X48235476Y-81172857D02*
X48273571Y-81130000D01*
X48349761Y-81087142D01*
X48464047Y-81087142D01*
X48540238Y-81130000D01*
X48578333Y-81215714D01*
X48578333Y-81687142D01*
X48578333Y-81215714D02*
X48616428Y-81130000D01*
X48692619Y-81087142D01*
X48806904Y-81087142D01*
X48883095Y-81130000D01*
X48921190Y-81215714D01*
X48921190Y-81687142D01*
X49873571Y-80744285D02*
X49187857Y-81901428D01*
X50064047Y-81087142D02*
X50254523Y-81687142D01*
X50445000Y-81087142D01*
X51092619Y-81687142D02*
X51092619Y-81215714D01*
X51054523Y-81130000D01*
X50978333Y-81087142D01*
X50825952Y-81087142D01*
X50749761Y-81130000D01*
X51092619Y-81644285D02*
X51016428Y-81687142D01*
X50825952Y-81687142D01*
X50749761Y-81644285D01*
X50711666Y-81558571D01*
X50711666Y-81472857D01*
X50749761Y-81387142D01*
X50825952Y-81344285D01*
X51016428Y-81344285D01*
X51092619Y-81301428D01*
X51435476Y-81644285D02*
X51511666Y-81687142D01*
X51664047Y-81687142D01*
X51740238Y-81644285D01*
X51778333Y-81558571D01*
X51778333Y-81515714D01*
X51740238Y-81430000D01*
X51664047Y-81387142D01*
X51549761Y-81387142D01*
X51473571Y-81344285D01*
X51435476Y-81258571D01*
X51435476Y-81215714D01*
X51473571Y-81130000D01*
X51549761Y-81087142D01*
X51664047Y-81087142D01*
X51740238Y-81130000D01*
X52464047Y-81644285D02*
X52387857Y-81687142D01*
X52235476Y-81687142D01*
X52159285Y-81644285D01*
X52121190Y-81601428D01*
X52083095Y-81515714D01*
X52083095Y-81258571D01*
X52121190Y-81172857D01*
X52159285Y-81130000D01*
X52235476Y-81087142D01*
X52387857Y-81087142D01*
X52464047Y-81130000D01*
X52921190Y-81687142D02*
X52845000Y-81644285D01*
X52806904Y-81601428D01*
X52768809Y-81515714D01*
X52768809Y-81258571D01*
X52806904Y-81172857D01*
X52845000Y-81130000D01*
X52921190Y-81087142D01*
X53035476Y-81087142D01*
X53111666Y-81130000D01*
X53149761Y-81172857D01*
X53187857Y-81258571D01*
X53187857Y-81515714D01*
X53149761Y-81601428D01*
X53111666Y-81644285D01*
X53035476Y-81687142D01*
X52921190Y-81687142D01*
X53416428Y-81087142D02*
X53721190Y-81087142D01*
X53530714Y-81687142D02*
X53530714Y-80915714D01*
X53568809Y-80830000D01*
X53645000Y-80787142D01*
X53721190Y-80787142D01*
X54330714Y-81687142D02*
X54330714Y-81215714D01*
X54292619Y-81130000D01*
X54216428Y-81087142D01*
X54064047Y-81087142D01*
X53987857Y-81130000D01*
X54330714Y-81644285D02*
X54254523Y-81687142D01*
X54064047Y-81687142D01*
X53987857Y-81644285D01*
X53949761Y-81558571D01*
X53949761Y-81472857D01*
X53987857Y-81387142D01*
X54064047Y-81344285D01*
X54254523Y-81344285D01*
X54330714Y-81301428D01*
X54635476Y-81087142D02*
X55054523Y-81087142D01*
X54635476Y-81687142D01*
X55054523Y-81687142D01*
X55283095Y-81087142D02*
X55702142Y-81087142D01*
X55283095Y-81687142D01*
X55702142Y-81687142D01*
X56349761Y-81687142D02*
X56349761Y-81215714D01*
X56311666Y-81130000D01*
X56235476Y-81087142D01*
X56083095Y-81087142D01*
X56006904Y-81130000D01*
X56349761Y-81644285D02*
X56273571Y-81687142D01*
X56083095Y-81687142D01*
X56006904Y-81644285D01*
X55968809Y-81558571D01*
X55968809Y-81472857D01*
X56006904Y-81387142D01*
X56083095Y-81344285D01*
X56273571Y-81344285D01*
X56349761Y-81301428D01*
X57302142Y-80744285D02*
X56616428Y-81901428D01*
X57530714Y-81644285D02*
X57606904Y-81687142D01*
X57759285Y-81687142D01*
X57835476Y-81644285D01*
X57873571Y-81558571D01*
X57873571Y-81515714D01*
X57835476Y-81430000D01*
X57759285Y-81387142D01*
X57645000Y-81387142D01*
X57568809Y-81344285D01*
X57530714Y-81258571D01*
X57530714Y-81215714D01*
X57568809Y-81130000D01*
X57645000Y-81087142D01*
X57759285Y-81087142D01*
X57835476Y-81130000D01*
X58216428Y-81687142D02*
X58216428Y-81087142D01*
X58216428Y-81172857D02*
X58254523Y-81130000D01*
X58330714Y-81087142D01*
X58445000Y-81087142D01*
X58521190Y-81130000D01*
X58559285Y-81215714D01*
X58559285Y-81687142D01*
X58559285Y-81215714D02*
X58597380Y-81130000D01*
X58673571Y-81087142D01*
X58787857Y-81087142D01*
X58864047Y-81130000D01*
X58902142Y-81215714D01*
X58902142Y-81687142D01*
X59625952Y-81687142D02*
X59625952Y-81215714D01*
X59587857Y-81130000D01*
X59511666Y-81087142D01*
X59359285Y-81087142D01*
X59283095Y-81130000D01*
X59625952Y-81644285D02*
X59549761Y-81687142D01*
X59359285Y-81687142D01*
X59283095Y-81644285D01*
X59245000Y-81558571D01*
X59245000Y-81472857D01*
X59283095Y-81387142D01*
X59359285Y-81344285D01*
X59549761Y-81344285D01*
X59625952Y-81301428D01*
X60006904Y-81687142D02*
X60006904Y-81087142D01*
X60006904Y-81258571D02*
X60045000Y-81172857D01*
X60083095Y-81130000D01*
X60159285Y-81087142D01*
X60235476Y-81087142D01*
X60387857Y-81087142D02*
X60692619Y-81087142D01*
X60502142Y-80787142D02*
X60502142Y-81558571D01*
X60540238Y-81644285D01*
X60616428Y-81687142D01*
X60692619Y-81687142D01*
X60768809Y-81772857D02*
X61378333Y-81772857D01*
X61568809Y-81087142D02*
X61568809Y-81687142D01*
X61568809Y-81172857D02*
X61606904Y-81130000D01*
X61683095Y-81087142D01*
X61797380Y-81087142D01*
X61873571Y-81130000D01*
X61911666Y-81215714D01*
X61911666Y-81687142D01*
X62292619Y-81687142D02*
X62292619Y-81087142D01*
X62292619Y-80787142D02*
X62254523Y-80830000D01*
X62292619Y-80872857D01*
X62330714Y-80830000D01*
X62292619Y-80787142D01*
X62292619Y-80872857D01*
X62597380Y-81687142D02*
X63016428Y-81087142D01*
X62597380Y-81087142D02*
X63016428Y-81687142D01*
X63321190Y-81687142D02*
X63321190Y-81087142D01*
X63321190Y-80787142D02*
X63283095Y-80830000D01*
X63321190Y-80872857D01*
X63359285Y-80830000D01*
X63321190Y-80787142D01*
X63321190Y-80872857D01*
X64006904Y-81644285D02*
X63930714Y-81687142D01*
X63778333Y-81687142D01*
X63702142Y-81644285D01*
X63664047Y-81558571D01*
X63664047Y-81215714D01*
X63702142Y-81130000D01*
X63778333Y-81087142D01*
X63930714Y-81087142D01*
X64006904Y-81130000D01*
X64045000Y-81215714D01*
X64045000Y-81301428D01*
X63664047Y-81387142D01*
X64197380Y-81772857D02*
X64806904Y-81772857D01*
X65340238Y-81644285D02*
X65264047Y-81687142D01*
X65111666Y-81687142D01*
X65035476Y-81644285D01*
X64997380Y-81601428D01*
X64959285Y-81515714D01*
X64959285Y-81258571D01*
X64997380Y-81172857D01*
X65035476Y-81130000D01*
X65111666Y-81087142D01*
X65264047Y-81087142D01*
X65340238Y-81130000D01*
X65797380Y-81687142D02*
X65721190Y-81644285D01*
X65683095Y-81558571D01*
X65683095Y-80787142D01*
X66216428Y-81687142D02*
X66140238Y-81644285D01*
X66102142Y-81601428D01*
X66064047Y-81515714D01*
X66064047Y-81258571D01*
X66102142Y-81172857D01*
X66140238Y-81130000D01*
X66216428Y-81087142D01*
X66330714Y-81087142D01*
X66406904Y-81130000D01*
X66445000Y-81172857D01*
X66483095Y-81258571D01*
X66483095Y-81515714D01*
X66445000Y-81601428D01*
X66406904Y-81644285D01*
X66330714Y-81687142D01*
X66216428Y-81687142D01*
X67168809Y-81644285D02*
X67092619Y-81687142D01*
X66940238Y-81687142D01*
X66864047Y-81644285D01*
X66825952Y-81601428D01*
X66787857Y-81515714D01*
X66787857Y-81258571D01*
X66825952Y-81172857D01*
X66864047Y-81130000D01*
X66940238Y-81087142D01*
X67092619Y-81087142D01*
X67168809Y-81130000D01*
X67511666Y-81687142D02*
X67511666Y-80787142D01*
X67587857Y-81344285D02*
X67816428Y-81687142D01*
X67816428Y-81087142D02*
X67511666Y-81430000D01*
D10*
X44437142Y-70372857D02*
X43937142Y-70372857D01*
X43838928Y-71158571D02*
X44026428Y-69658571D01*
X44740714Y-69658571D01*
X45705000Y-71087142D02*
X45553214Y-71158571D01*
X45267500Y-71158571D01*
X45133571Y-71087142D01*
X45080000Y-70944285D01*
X45151428Y-70372857D01*
X45240714Y-70230000D01*
X45392500Y-70158571D01*
X45678214Y-70158571D01*
X45812142Y-70230000D01*
X45865714Y-70372857D01*
X45847857Y-70515714D01*
X45115714Y-70658571D01*
X47053214Y-71158571D02*
X47240714Y-69658571D01*
X47062142Y-71087142D02*
X46910357Y-71158571D01*
X46624642Y-71158571D01*
X46490714Y-71087142D01*
X46428214Y-71015714D01*
X46374642Y-70872857D01*
X46428214Y-70444285D01*
X46517500Y-70301428D01*
X46597857Y-70230000D01*
X46749642Y-70158571D01*
X47035357Y-70158571D01*
X47169285Y-70230000D01*
X48347857Y-71087142D02*
X48196071Y-71158571D01*
X47910357Y-71158571D01*
X47776428Y-71087142D01*
X47722857Y-70944285D01*
X47794285Y-70372857D01*
X47883571Y-70230000D01*
X48035357Y-70158571D01*
X48321071Y-70158571D01*
X48455000Y-70230000D01*
X48508571Y-70372857D01*
X48490714Y-70515714D01*
X47758571Y-70658571D01*
X49053214Y-71158571D02*
X49178214Y-70158571D01*
X49142500Y-70444285D02*
X49231785Y-70301428D01*
X49312142Y-70230000D01*
X49463928Y-70158571D01*
X49606785Y-70158571D01*
X49981785Y-71158571D02*
X50106785Y-70158571D01*
X50169285Y-69658571D02*
X50088928Y-69730000D01*
X50151428Y-69801428D01*
X50231785Y-69730000D01*
X50169285Y-69658571D01*
X50151428Y-69801428D01*
X51347857Y-71087142D02*
X51196071Y-71158571D01*
X50910357Y-71158571D01*
X50776428Y-71087142D01*
X50713928Y-71015714D01*
X50660357Y-70872857D01*
X50713928Y-70444285D01*
X50803214Y-70301428D01*
X50883571Y-70230000D01*
X51035357Y-70158571D01*
X51321071Y-70158571D01*
X51455000Y-70230000D01*
X52196071Y-71158571D02*
X52062142Y-71087142D01*
X51999642Y-71015714D01*
X51946071Y-70872857D01*
X51999642Y-70444285D01*
X52088928Y-70301428D01*
X52169285Y-70230000D01*
X52321071Y-70158571D01*
X52535357Y-70158571D01*
X52669285Y-70230000D01*
X52731785Y-70301428D01*
X52785357Y-70444285D01*
X52731785Y-70872857D01*
X52642500Y-71015714D01*
X52562142Y-71087142D01*
X52410357Y-71158571D01*
X52196071Y-71158571D01*
X54419285Y-71087142D02*
X54624642Y-71158571D01*
X54981785Y-71158571D01*
X55133571Y-71087142D01*
X55213928Y-71015714D01*
X55303214Y-70872857D01*
X55321071Y-70730000D01*
X55267500Y-70587142D01*
X55205000Y-70515714D01*
X55071071Y-70444285D01*
X54794285Y-70372857D01*
X54660357Y-70301428D01*
X54597857Y-70230000D01*
X54544285Y-70087142D01*
X54562142Y-69944285D01*
X54651428Y-69801428D01*
X54731785Y-69730000D01*
X54883571Y-69658571D01*
X55240714Y-69658571D01*
X55446071Y-69730000D01*
X56562142Y-71087142D02*
X56410357Y-71158571D01*
X56124642Y-71158571D01*
X55990714Y-71087142D01*
X55928214Y-71015714D01*
X55874642Y-70872857D01*
X55928214Y-70444285D01*
X56017500Y-70301428D01*
X56097857Y-70230000D01*
X56249642Y-70158571D01*
X56535357Y-70158571D01*
X56669285Y-70230000D01*
X57410357Y-71158571D02*
X57276428Y-71087142D01*
X57213928Y-71015714D01*
X57160357Y-70872857D01*
X57213928Y-70444285D01*
X57303214Y-70301428D01*
X57383571Y-70230000D01*
X57535357Y-70158571D01*
X57749642Y-70158571D01*
X57883571Y-70230000D01*
X57946071Y-70301428D01*
X57999642Y-70444285D01*
X57946071Y-70872857D01*
X57856785Y-71015714D01*
X57776428Y-71087142D01*
X57624642Y-71158571D01*
X57410357Y-71158571D01*
X58535357Y-70158571D02*
X59321071Y-70158571D01*
X58410357Y-71158571D01*
X59196071Y-71158571D01*
X59749642Y-70158571D02*
X60535357Y-70158571D01*
X59624642Y-71158571D01*
X60410357Y-71158571D01*
X61624642Y-71158571D02*
X61722857Y-70372857D01*
X61669285Y-70230000D01*
X61535357Y-70158571D01*
X61249642Y-70158571D01*
X61097857Y-70230000D01*
X61633571Y-71087142D02*
X61481785Y-71158571D01*
X61124642Y-71158571D01*
X60990714Y-71087142D01*
X60937142Y-70944285D01*
X60955000Y-70801428D01*
X61044285Y-70658571D01*
X61196071Y-70587142D01*
X61553214Y-70587142D01*
X61705000Y-70515714D01*
X62249642Y-70158571D02*
X62821071Y-70158571D01*
X62338928Y-71158571D02*
X62499642Y-69872857D01*
X62588928Y-69730000D01*
X62740714Y-69658571D01*
X62883571Y-69658571D01*
X63838928Y-71158571D02*
X63937142Y-70372857D01*
X63883571Y-70230000D01*
X63749642Y-70158571D01*
X63463928Y-70158571D01*
X63312142Y-70230000D01*
X63847857Y-71087142D02*
X63696071Y-71158571D01*
X63338928Y-71158571D01*
X63205000Y-71087142D01*
X63151428Y-70944285D01*
X63169285Y-70801428D01*
X63258571Y-70658571D01*
X63410357Y-70587142D01*
X63767500Y-70587142D01*
X63919285Y-70515714D01*
X64535357Y-70158571D02*
X64767500Y-71158571D01*
X65249642Y-70158571D01*
X66338928Y-71158571D02*
X66437142Y-70372857D01*
X66383571Y-70230000D01*
X66249642Y-70158571D01*
X65963928Y-70158571D01*
X65812142Y-70230000D01*
X66347857Y-71087142D02*
X66196071Y-71158571D01*
X65838928Y-71158571D01*
X65705000Y-71087142D01*
X65651428Y-70944285D01*
X65669285Y-70801428D01*
X65758571Y-70658571D01*
X65910357Y-70587142D01*
X66267500Y-70587142D01*
X66419285Y-70515714D01*
X44285357Y-73565714D02*
X44204999Y-73637142D01*
X43981785Y-73708571D01*
X43838928Y-73708571D01*
X43633571Y-73637142D01*
X43508571Y-73494285D01*
X43454999Y-73351428D01*
X43419285Y-73065714D01*
X43446071Y-72851428D01*
X43553214Y-72565714D01*
X43642499Y-72422857D01*
X43803214Y-72280000D01*
X44026428Y-72208571D01*
X44169285Y-72208571D01*
X44374642Y-72280000D01*
X44437142Y-72351428D01*
X45553214Y-73708571D02*
X45651428Y-72922857D01*
X45597857Y-72780000D01*
X45463928Y-72708571D01*
X45178214Y-72708571D01*
X45026428Y-72780000D01*
X45562142Y-73637142D02*
X45410357Y-73708571D01*
X45053214Y-73708571D01*
X44919285Y-73637142D01*
X44865714Y-73494285D01*
X44883571Y-73351428D01*
X44972857Y-73208571D01*
X45124642Y-73137142D01*
X45481785Y-73137142D01*
X45633571Y-73065714D01*
X46267499Y-73708571D02*
X46392499Y-72708571D01*
X46356785Y-72994285D02*
X46446071Y-72851428D01*
X46526428Y-72780000D01*
X46678214Y-72708571D01*
X46821071Y-72708571D01*
X47410357Y-73708571D02*
X47276428Y-73637142D01*
X47222857Y-73494285D01*
X47383571Y-72208571D01*
X48196071Y-73708571D02*
X48062142Y-73637142D01*
X47999642Y-73565714D01*
X47946071Y-73422857D01*
X47999642Y-72994285D01*
X48088928Y-72851428D01*
X48169285Y-72780000D01*
X48321071Y-72708571D01*
X48535357Y-72708571D01*
X48669285Y-72780000D01*
X48731785Y-72851428D01*
X48785357Y-72994285D01*
X48731785Y-73422857D01*
X48642499Y-73565714D01*
X48562142Y-73637142D01*
X48410357Y-73708571D01*
X48196071Y-73708571D01*
X49276428Y-73637142D02*
X49410357Y-73708571D01*
X49696071Y-73708571D01*
X49847857Y-73637142D01*
X49937142Y-73494285D01*
X49946071Y-73422857D01*
X49892499Y-73280000D01*
X49758571Y-73208571D01*
X49544285Y-73208571D01*
X49410357Y-73137142D01*
X49356785Y-72994285D01*
X49365714Y-72922857D01*
X49454999Y-72780000D01*
X49606785Y-72708571D01*
X49821071Y-72708571D01*
X49954999Y-72780000D01*
X51678214Y-73280000D02*
X52392500Y-73280000D01*
X51481785Y-73708571D02*
X52169285Y-72208571D01*
X52481785Y-73708571D01*
X52981785Y-73708571D02*
X53169285Y-72208571D01*
X53097857Y-72780000D02*
X53249642Y-72708571D01*
X53535357Y-72708571D01*
X53669285Y-72780000D01*
X53731785Y-72851428D01*
X53785357Y-72994285D01*
X53731785Y-73422857D01*
X53642500Y-73565714D01*
X53562142Y-73637142D01*
X53410357Y-73708571D01*
X53124642Y-73708571D01*
X52990714Y-73637142D01*
X54981785Y-73708571D02*
X55079999Y-72922857D01*
X55026428Y-72780000D01*
X54892499Y-72708571D01*
X54606785Y-72708571D01*
X54454999Y-72780000D01*
X54990714Y-73637142D02*
X54838928Y-73708571D01*
X54481785Y-73708571D01*
X54347857Y-73637142D01*
X54294285Y-73494285D01*
X54312142Y-73351428D01*
X54401428Y-73208571D01*
X54553214Y-73137142D01*
X54910357Y-73137142D01*
X55062142Y-73065714D01*
X56338928Y-73708571D02*
X56526428Y-72208571D01*
X56347857Y-73637142D02*
X56196071Y-73708571D01*
X55910357Y-73708571D01*
X55776428Y-73637142D01*
X55713928Y-73565714D01*
X55660357Y-73422857D01*
X55713928Y-72994285D01*
X55803214Y-72851428D01*
X55883571Y-72780000D01*
X56035357Y-72708571D01*
X56321071Y-72708571D01*
X56454999Y-72780000D01*
X58133571Y-73637142D02*
X58338928Y-73708571D01*
X58696071Y-73708571D01*
X58847857Y-73637142D01*
X58928214Y-73565714D01*
X59017499Y-73422857D01*
X59035357Y-73280000D01*
X58981785Y-73137142D01*
X58919285Y-73065714D01*
X58785357Y-72994285D01*
X58508571Y-72922857D01*
X58374642Y-72851428D01*
X58312142Y-72780000D01*
X58258571Y-72637142D01*
X58276428Y-72494285D01*
X58365714Y-72351428D01*
X58446071Y-72280000D01*
X58597857Y-72208571D01*
X58954999Y-72208571D01*
X59160357Y-72280000D01*
X60267499Y-73708571D02*
X60365714Y-72922857D01*
X60312142Y-72780000D01*
X60178214Y-72708571D01*
X59892499Y-72708571D01*
X59740714Y-72780000D01*
X60276428Y-73637142D02*
X60124642Y-73708571D01*
X59767499Y-73708571D01*
X59633571Y-73637142D01*
X59579999Y-73494285D01*
X59597857Y-73351428D01*
X59687142Y-73208571D01*
X59838928Y-73137142D01*
X60196071Y-73137142D01*
X60347857Y-73065714D01*
X60249642Y-72137142D02*
X60008571Y-72351428D01*
X61106785Y-72708571D02*
X60981785Y-73708571D01*
X61088928Y-72851428D02*
X61169285Y-72780000D01*
X61321071Y-72708571D01*
X61535357Y-72708571D01*
X61669285Y-72780000D01*
X61722857Y-72922857D01*
X61624642Y-73708571D01*
X62990714Y-73637142D02*
X62838928Y-73708571D01*
X62553214Y-73708571D01*
X62419285Y-73637142D01*
X62356785Y-73565714D01*
X62303214Y-73422857D01*
X62356785Y-72994285D01*
X62446071Y-72851428D01*
X62526428Y-72780000D01*
X62678214Y-72708571D01*
X62963928Y-72708571D01*
X63097857Y-72780000D01*
X63624642Y-73708571D02*
X63812142Y-72208571D01*
X64267500Y-73708571D02*
X64365714Y-72922857D01*
X64312142Y-72780000D01*
X64178214Y-72708571D01*
X63963928Y-72708571D01*
X63812142Y-72780000D01*
X63731785Y-72851428D01*
X65562142Y-73637142D02*
X65410357Y-73708571D01*
X65124642Y-73708571D01*
X64990714Y-73637142D01*
X64937142Y-73494285D01*
X65008571Y-72922857D01*
X65097857Y-72780000D01*
X65249642Y-72708571D01*
X65535357Y-72708571D01*
X65669285Y-72780000D01*
X65722857Y-72922857D01*
X65705000Y-73065714D01*
X64972857Y-73208571D01*
X66249642Y-72708571D02*
X67035357Y-72708571D01*
X66124642Y-73708571D01*
X66910357Y-73708571D01*
D12*
X52292619Y-31928928D02*
X52197380Y-32038452D01*
X51911666Y-32147976D01*
X51721190Y-32147976D01*
X51435476Y-32038452D01*
X51245000Y-31819404D01*
X51149761Y-31600357D01*
X51054523Y-31162261D01*
X51054523Y-30833690D01*
X51149761Y-30395595D01*
X51245000Y-30176547D01*
X51435476Y-29957500D01*
X51721190Y-29847976D01*
X51911666Y-29847976D01*
X52197380Y-29957500D01*
X52292619Y-30067023D01*
X53435476Y-32147976D02*
X53245000Y-32038452D01*
X53149761Y-31819404D01*
X53149761Y-29847976D01*
X54483095Y-32147976D02*
X54292619Y-32038452D01*
X54197380Y-31928928D01*
X54102142Y-31709880D01*
X54102142Y-31052738D01*
X54197380Y-30833690D01*
X54292619Y-30724166D01*
X54483095Y-30614642D01*
X54768809Y-30614642D01*
X54959285Y-30724166D01*
X55054523Y-30833690D01*
X55149761Y-31052738D01*
X55149761Y-31709880D01*
X55054523Y-31928928D01*
X54959285Y-32038452D01*
X54768809Y-32147976D01*
X54483095Y-32147976D01*
X55816428Y-32147976D02*
X56864047Y-30614642D01*
X55816428Y-30614642D02*
X56864047Y-32147976D01*
X57625952Y-32147976D02*
X57625952Y-30614642D01*
X57625952Y-29847976D02*
X57530714Y-29957500D01*
X57625952Y-30067023D01*
X57721190Y-29957500D01*
X57625952Y-29847976D01*
X57625952Y-30067023D01*
X59340238Y-32038452D02*
X59149761Y-32147976D01*
X58768809Y-32147976D01*
X58578333Y-32038452D01*
X58483095Y-31819404D01*
X58483095Y-30943214D01*
X58578333Y-30724166D01*
X58768809Y-30614642D01*
X59149761Y-30614642D01*
X59340238Y-30724166D01*
X59435476Y-30943214D01*
X59435476Y-31162261D01*
X58483095Y-31381309D01*
X47149761Y-33672976D02*
X48292619Y-33672976D01*
X47721190Y-35972976D02*
X47721190Y-33672976D01*
X49816428Y-34439642D02*
X49816428Y-35972976D01*
X48959285Y-34439642D02*
X48959285Y-35644404D01*
X49054523Y-35863452D01*
X49245000Y-35972976D01*
X49530714Y-35972976D01*
X49721190Y-35863452D01*
X49816428Y-35753928D01*
X50768809Y-35972976D02*
X50768809Y-33672976D01*
X50768809Y-34549166D02*
X50959285Y-34439642D01*
X51340238Y-34439642D01*
X51530714Y-34549166D01*
X51625952Y-34658690D01*
X51721190Y-34877738D01*
X51721190Y-35534880D01*
X51625952Y-35753928D01*
X51530714Y-35863452D01*
X51340238Y-35972976D01*
X50959285Y-35972976D01*
X50768809Y-35863452D01*
X53340238Y-35863452D02*
X53149761Y-35972976D01*
X52768809Y-35972976D01*
X52578333Y-35863452D01*
X52483095Y-35644404D01*
X52483095Y-34768214D01*
X52578333Y-34549166D01*
X52768809Y-34439642D01*
X53149761Y-34439642D01*
X53340238Y-34549166D01*
X53435476Y-34768214D01*
X53435476Y-34987261D01*
X52483095Y-35206309D01*
X56959285Y-35753928D02*
X56864047Y-35863452D01*
X56578333Y-35972976D01*
X56387857Y-35972976D01*
X56102142Y-35863452D01*
X55911666Y-35644404D01*
X55816428Y-35425357D01*
X55721190Y-34987261D01*
X55721190Y-34658690D01*
X55816428Y-34220595D01*
X55911666Y-34001547D01*
X56102142Y-33782500D01*
X56387857Y-33672976D01*
X56578333Y-33672976D01*
X56864047Y-33782500D01*
X56959285Y-33892023D01*
X58102142Y-35972976D02*
X57911666Y-35863452D01*
X57816428Y-35644404D01*
X57816428Y-33672976D01*
X59149761Y-35972976D02*
X58959285Y-35863452D01*
X58864047Y-35753928D01*
X58768809Y-35534880D01*
X58768809Y-34877738D01*
X58864047Y-34658690D01*
X58959285Y-34549166D01*
X59149761Y-34439642D01*
X59435476Y-34439642D01*
X59625952Y-34549166D01*
X59721190Y-34658690D01*
X59816428Y-34877738D01*
X59816428Y-35534880D01*
X59721190Y-35753928D01*
X59625952Y-35863452D01*
X59435476Y-35972976D01*
X59149761Y-35972976D01*
X61530714Y-35863452D02*
X61340238Y-35972976D01*
X60959285Y-35972976D01*
X60768809Y-35863452D01*
X60673571Y-35753928D01*
X60578333Y-35534880D01*
X60578333Y-34877738D01*
X60673571Y-34658690D01*
X60768809Y-34549166D01*
X60959285Y-34439642D01*
X61340238Y-34439642D01*
X61530714Y-34549166D01*
X62387857Y-35972976D02*
X62387857Y-33672976D01*
X62578333Y-35096785D02*
X63149761Y-35972976D01*
X63149761Y-34439642D02*
X62387857Y-35315833D01*
D13*
%TO.C,D6*%
X224950000Y-50165000D02*
X225679000Y-49326800D01*
X232250000Y-54820000D02*
X224950000Y-54820000D01*
X232250000Y-49320000D02*
X224950000Y-49320000D01*
X224950000Y-49320000D02*
X224950000Y-50470000D01*
%TO.C,D5*%
X199550000Y-50165000D02*
X200279000Y-49326800D01*
X206850000Y-54820000D02*
X199550000Y-54820000D01*
X206850000Y-49320000D02*
X199550000Y-49320000D01*
X199550000Y-49320000D02*
X199550000Y-50470000D01*
%TO.C,D4*%
X163355000Y-50165000D02*
X164084000Y-49326800D01*
X170655000Y-54820000D02*
X163355000Y-54820000D01*
X170655000Y-49320000D02*
X163355000Y-49320000D01*
X163355000Y-49320000D02*
X163355000Y-50470000D01*
%TO.C,D3*%
X137955000Y-50165000D02*
X138684000Y-49326800D01*
X145255000Y-54820000D02*
X137955000Y-54820000D01*
X145255000Y-49320000D02*
X137955000Y-49320000D01*
X137955000Y-49320000D02*
X137955000Y-50470000D01*
%TO.C,D2*%
X101760000Y-50165000D02*
X102489000Y-49326800D01*
X109060000Y-54820000D02*
X101760000Y-54820000D01*
X109060000Y-49320000D02*
X101760000Y-49320000D01*
X101760000Y-49320000D02*
X101760000Y-50470000D01*
%TO.C,D1*%
X76360000Y-50165000D02*
X77089000Y-49326800D01*
X83660000Y-54820000D02*
X76360000Y-54820000D01*
X83660000Y-49320000D02*
X76360000Y-49320000D01*
X76360000Y-49320000D02*
X76360000Y-50470000D01*
%TO.C,R6*%
X217451447Y-43967771D02*
X217218101Y-43734426D01*
X217218101Y-43734426D02*
X221842580Y-39109948D01*
X221842580Y-39109948D02*
X222075925Y-39343293D01*
X218922229Y-45438553D02*
X219155574Y-45671899D01*
X219155574Y-45671899D02*
X223780052Y-41047420D01*
X223780052Y-41047420D02*
X223546707Y-40814075D01*
%TO.C,R5*%
X212877771Y-45438553D02*
X212644426Y-45671899D01*
X212644426Y-45671899D02*
X208019948Y-41047420D01*
X208019948Y-41047420D02*
X208253293Y-40814075D01*
X214348553Y-43967771D02*
X214581899Y-43734426D01*
X214581899Y-43734426D02*
X209957420Y-39109948D01*
X209957420Y-39109948D02*
X209724075Y-39343293D01*
%TO.C,R4*%
X155856447Y-43967771D02*
X155623101Y-43734426D01*
X155623101Y-43734426D02*
X160247580Y-39109948D01*
X160247580Y-39109948D02*
X160480925Y-39343293D01*
X157327229Y-45438553D02*
X157560574Y-45671899D01*
X157560574Y-45671899D02*
X162185052Y-41047420D01*
X162185052Y-41047420D02*
X161951707Y-40814075D01*
%TO.C,R3*%
X151282771Y-45438553D02*
X151049426Y-45671899D01*
X151049426Y-45671899D02*
X146424948Y-41047420D01*
X146424948Y-41047420D02*
X146658293Y-40814075D01*
X152753553Y-43967771D02*
X152986899Y-43734426D01*
X152986899Y-43734426D02*
X148362420Y-39109948D01*
X148362420Y-39109948D02*
X148129075Y-39343293D01*
%TO.C,R2*%
X94261447Y-43967771D02*
X94028101Y-43734426D01*
X94028101Y-43734426D02*
X98652580Y-39109948D01*
X98652580Y-39109948D02*
X98885925Y-39343293D01*
X95732229Y-45438553D02*
X95965574Y-45671899D01*
X95965574Y-45671899D02*
X100590052Y-41047420D01*
X100590052Y-41047420D02*
X100356707Y-40814075D01*
%TO.C,R1*%
X89687771Y-45438553D02*
X89454426Y-45671899D01*
X89454426Y-45671899D02*
X84829948Y-41047420D01*
X84829948Y-41047420D02*
X85063293Y-40814075D01*
X91158553Y-43967771D02*
X91391899Y-43734426D01*
X91391899Y-43734426D02*
X86767420Y-39109948D01*
X86767420Y-39109948D02*
X86534075Y-39343293D01*
D14*
%TO.C,NR1*%
X187997600Y-52070000D02*
G75*
G03*
X187997600Y-52070000I-2895600J0D01*
G01*
X181292044Y-52072135D02*
G75*
G03*
X188912000Y-52070000I3809956J80875D01*
G01*
%TO.C,NL1*%
X126466600Y-52070000D02*
G75*
G03*
X126466600Y-52070000I-2895600J0D01*
G01*
X119761044Y-52072135D02*
G75*
G03*
X127381000Y-52070000I3809956J80875D01*
G01*
D15*
%TO.C,S14*%
G36*
X55446949Y-55667162D02*
G01*
X55567773Y-55803806D01*
X55638864Y-56068289D01*
X55667141Y-56477421D01*
X55668334Y-56610745D01*
X55638853Y-57042009D01*
X55555449Y-57345144D01*
X55425681Y-57510090D01*
X55257105Y-57526788D01*
X55073746Y-57402080D01*
X54979620Y-57273167D01*
X54929880Y-57093465D01*
X54914000Y-56814043D01*
X54914773Y-56663167D01*
X54931226Y-56228488D01*
X54971638Y-55935516D01*
X55045381Y-55757256D01*
X55161829Y-55666709D01*
X55269474Y-55641547D01*
X55446949Y-55667162D01*
G37*
X55446949Y-55667162D02*
X55567773Y-55803806D01*
X55638864Y-56068289D01*
X55667141Y-56477421D01*
X55668334Y-56610745D01*
X55638853Y-57042009D01*
X55555449Y-57345144D01*
X55425681Y-57510090D01*
X55257105Y-57526788D01*
X55073746Y-57402080D01*
X54979620Y-57273167D01*
X54929880Y-57093465D01*
X54914000Y-56814043D01*
X54914773Y-56663167D01*
X54931226Y-56228488D01*
X54971638Y-55935516D01*
X55045381Y-55757256D01*
X55161829Y-55666709D01*
X55269474Y-55641547D01*
X55446949Y-55667162D01*
G36*
X61740620Y-50875216D02*
G01*
X61900081Y-51046138D01*
X62007234Y-51304342D01*
X62167281Y-51625602D01*
X62424299Y-51849539D01*
X62799558Y-52126247D01*
X63030742Y-52395808D01*
X63139173Y-52687370D01*
X63153949Y-52846890D01*
X63148705Y-53073411D01*
X63094455Y-53186814D01*
X62952220Y-53243018D01*
X62865000Y-53261407D01*
X62289963Y-53339829D01*
X61647006Y-53370340D01*
X61031633Y-53349373D01*
X60889313Y-53335210D01*
X60505769Y-53287240D01*
X60262080Y-53238727D01*
X60129708Y-53171298D01*
X60080117Y-53066576D01*
X60084769Y-52906187D01*
X60095217Y-52823887D01*
X60162071Y-52549140D01*
X60300004Y-52316869D01*
X60539553Y-52086962D01*
X60805075Y-51891394D01*
X61114782Y-51606082D01*
X61258917Y-51329749D01*
X61401443Y-51017653D01*
X61568209Y-50865932D01*
X61740620Y-50875216D01*
G37*
X61740620Y-50875216D02*
X61900081Y-51046138D01*
X62007234Y-51304342D01*
X62167281Y-51625602D01*
X62424299Y-51849539D01*
X62799558Y-52126247D01*
X63030742Y-52395808D01*
X63139173Y-52687370D01*
X63153949Y-52846890D01*
X63148705Y-53073411D01*
X63094455Y-53186814D01*
X62952220Y-53243018D01*
X62865000Y-53261407D01*
X62289963Y-53339829D01*
X61647006Y-53370340D01*
X61031633Y-53349373D01*
X60889313Y-53335210D01*
X60505769Y-53287240D01*
X60262080Y-53238727D01*
X60129708Y-53171298D01*
X60080117Y-53066576D01*
X60084769Y-52906187D01*
X60095217Y-52823887D01*
X60162071Y-52549140D01*
X60300004Y-52316869D01*
X60539553Y-52086962D01*
X60805075Y-51891394D01*
X61114782Y-51606082D01*
X61258917Y-51329749D01*
X61401443Y-51017653D01*
X61568209Y-50865932D01*
X61740620Y-50875216D01*
G36*
X55456176Y-50930635D02*
G01*
X55601116Y-51152392D01*
X55656182Y-51300828D01*
X55801303Y-51599991D01*
X56061616Y-51850211D01*
X56115580Y-51888634D01*
X56451916Y-52141390D01*
X56661041Y-52360327D01*
X56769554Y-52582448D01*
X56804055Y-52844760D01*
X56804092Y-52846488D01*
X56794879Y-53077027D01*
X56736250Y-53194904D01*
X56600594Y-53255382D01*
X56599667Y-53255636D01*
X56369281Y-53297202D01*
X56030162Y-53334185D01*
X55642909Y-53362590D01*
X55268121Y-53378419D01*
X54966398Y-53377676D01*
X54864000Y-53370102D01*
X54629338Y-53342792D01*
X54318522Y-53307905D01*
X54155319Y-53290002D01*
X53700638Y-53240605D01*
X53743140Y-52863533D01*
X53803602Y-52577444D01*
X53931993Y-52340850D01*
X54158565Y-52112555D01*
X54459087Y-51888634D01*
X54743545Y-51638168D01*
X54903475Y-51347970D01*
X54917290Y-51304817D01*
X55006354Y-51069677D01*
X55102778Y-50902386D01*
X55126291Y-50877786D01*
X55288861Y-50831882D01*
X55456176Y-50930635D01*
G37*
X55456176Y-50930635D02*
X55601116Y-51152392D01*
X55656182Y-51300828D01*
X55801303Y-51599991D01*
X56061616Y-51850211D01*
X56115580Y-51888634D01*
X56451916Y-52141390D01*
X56661041Y-52360327D01*
X56769554Y-52582448D01*
X56804055Y-52844760D01*
X56804092Y-52846488D01*
X56794879Y-53077027D01*
X56736250Y-53194904D01*
X56600594Y-53255382D01*
X56599667Y-53255636D01*
X56369281Y-53297202D01*
X56030162Y-53334185D01*
X55642909Y-53362590D01*
X55268121Y-53378419D01*
X54966398Y-53377676D01*
X54864000Y-53370102D01*
X54629338Y-53342792D01*
X54318522Y-53307905D01*
X54155319Y-53290002D01*
X53700638Y-53240605D01*
X53743140Y-52863533D01*
X53803602Y-52577444D01*
X53931993Y-52340850D01*
X54158565Y-52112555D01*
X54459087Y-51888634D01*
X54743545Y-51638168D01*
X54903475Y-51347970D01*
X54917290Y-51304817D01*
X55006354Y-51069677D01*
X55102778Y-50902386D01*
X55126291Y-50877786D01*
X55288861Y-50831882D01*
X55456176Y-50930635D01*
G36*
X49039330Y-50874225D02*
G01*
X49198716Y-51043582D01*
X49307234Y-51304342D01*
X49467281Y-51625602D01*
X49724299Y-51849539D01*
X50099558Y-52126247D01*
X50330742Y-52395808D01*
X50439173Y-52687370D01*
X50453949Y-52846890D01*
X50448714Y-53073397D01*
X50394493Y-53186755D01*
X50252310Y-53242852D01*
X50165000Y-53261198D01*
X49525583Y-53345336D01*
X48819581Y-53367555D01*
X48237539Y-53335251D01*
X47840664Y-53291308D01*
X47584596Y-53245464D01*
X47441482Y-53180745D01*
X47383465Y-53080180D01*
X47382693Y-52926794D01*
X47395452Y-52822137D01*
X47505153Y-52472643D01*
X47745939Y-52159442D01*
X48136509Y-51858377D01*
X48146316Y-51852097D01*
X48438311Y-51578083D01*
X48557824Y-51333061D01*
X48700534Y-51019667D01*
X48867153Y-50866487D01*
X49039330Y-50874225D01*
G37*
X49039330Y-50874225D02*
X49198716Y-51043582D01*
X49307234Y-51304342D01*
X49467281Y-51625602D01*
X49724299Y-51849539D01*
X50099558Y-52126247D01*
X50330742Y-52395808D01*
X50439173Y-52687370D01*
X50453949Y-52846890D01*
X50448714Y-53073397D01*
X50394493Y-53186755D01*
X50252310Y-53242852D01*
X50165000Y-53261198D01*
X49525583Y-53345336D01*
X48819581Y-53367555D01*
X48237539Y-53335251D01*
X47840664Y-53291308D01*
X47584596Y-53245464D01*
X47441482Y-53180745D01*
X47383465Y-53080180D01*
X47382693Y-52926794D01*
X47395452Y-52822137D01*
X47505153Y-52472643D01*
X47745939Y-52159442D01*
X48136509Y-51858377D01*
X48146316Y-51852097D01*
X48438311Y-51578083D01*
X48557824Y-51333061D01*
X48700534Y-51019667D01*
X48867153Y-50866487D01*
X49039330Y-50874225D01*
G36*
X63203667Y-58575302D02*
G01*
X62776166Y-58666984D01*
X62421431Y-58715944D01*
X61961858Y-58742057D01*
X61458871Y-58745508D01*
X60973892Y-58726481D01*
X60568345Y-58685160D01*
X60430834Y-58659950D01*
X60071000Y-58579368D01*
X60071000Y-57526451D01*
X60788044Y-57526451D01*
X60870334Y-57712835D01*
X61045771Y-57892442D01*
X61279901Y-58037323D01*
X61538275Y-58119526D01*
X61764334Y-58116541D01*
X62004274Y-58031812D01*
X62173572Y-57942014D01*
X62338592Y-57777884D01*
X62483252Y-57543810D01*
X62498242Y-57509973D01*
X62574154Y-57288125D01*
X62572346Y-57106799D01*
X62497981Y-56881559D01*
X62422359Y-56648807D01*
X62423099Y-56463327D01*
X62500658Y-56226295D01*
X62501006Y-56225410D01*
X62577471Y-55997935D01*
X62578362Y-55828607D01*
X62499719Y-55624577D01*
X62473028Y-55569243D01*
X62241662Y-55251252D01*
X61935740Y-55053528D01*
X61592454Y-54994414D01*
X61385161Y-55032730D01*
X61104669Y-55173043D01*
X60904300Y-55364433D01*
X60813178Y-55570342D01*
X60837843Y-55719715D01*
X60989661Y-55856315D01*
X61185993Y-55859320D01*
X61344553Y-55748720D01*
X61508612Y-55656307D01*
X61672420Y-55642886D01*
X61846267Y-55707962D01*
X61915597Y-55880275D01*
X61917801Y-55897816D01*
X61909504Y-56062267D01*
X61809036Y-56172261D01*
X61642634Y-56253329D01*
X61414863Y-56407080D01*
X61339025Y-56588465D01*
X61410618Y-56760292D01*
X61625143Y-56885369D01*
X61722000Y-56909215D01*
X61851102Y-56986621D01*
X61891230Y-57178316D01*
X61891334Y-57193493D01*
X61864410Y-57379725D01*
X61753982Y-57457734D01*
X61672420Y-57471781D01*
X61463220Y-57443708D01*
X61344553Y-57365947D01*
X61154660Y-57247378D01*
X60944933Y-57272439D01*
X60833352Y-57361243D01*
X60788044Y-57526451D01*
X60071000Y-57526451D01*
X60071000Y-53842168D01*
X60515500Y-53908584D01*
X61022896Y-53957192D01*
X61615999Y-53972267D01*
X62214560Y-53953922D01*
X62716834Y-53905408D01*
X63203667Y-53835816D01*
X63203667Y-58575302D01*
G37*
X63203667Y-58575302D02*
X62776166Y-58666984D01*
X62421431Y-58715944D01*
X61961858Y-58742057D01*
X61458871Y-58745508D01*
X60973892Y-58726481D01*
X60568345Y-58685160D01*
X60430834Y-58659950D01*
X60071000Y-58579368D01*
X60071000Y-57526451D01*
X60788044Y-57526451D01*
X60870334Y-57712835D01*
X61045771Y-57892442D01*
X61279901Y-58037323D01*
X61538275Y-58119526D01*
X61764334Y-58116541D01*
X62004274Y-58031812D01*
X62173572Y-57942014D01*
X62338592Y-57777884D01*
X62483252Y-57543810D01*
X62498242Y-57509973D01*
X62574154Y-57288125D01*
X62572346Y-57106799D01*
X62497981Y-56881559D01*
X62422359Y-56648807D01*
X62423099Y-56463327D01*
X62500658Y-56226295D01*
X62501006Y-56225410D01*
X62577471Y-55997935D01*
X62578362Y-55828607D01*
X62499719Y-55624577D01*
X62473028Y-55569243D01*
X62241662Y-55251252D01*
X61935740Y-55053528D01*
X61592454Y-54994414D01*
X61385161Y-55032730D01*
X61104669Y-55173043D01*
X60904300Y-55364433D01*
X60813178Y-55570342D01*
X60837843Y-55719715D01*
X60989661Y-55856315D01*
X61185993Y-55859320D01*
X61344553Y-55748720D01*
X61508612Y-55656307D01*
X61672420Y-55642886D01*
X61846267Y-55707962D01*
X61915597Y-55880275D01*
X61917801Y-55897816D01*
X61909504Y-56062267D01*
X61809036Y-56172261D01*
X61642634Y-56253329D01*
X61414863Y-56407080D01*
X61339025Y-56588465D01*
X61410618Y-56760292D01*
X61625143Y-56885369D01*
X61722000Y-56909215D01*
X61851102Y-56986621D01*
X61891230Y-57178316D01*
X61891334Y-57193493D01*
X61864410Y-57379725D01*
X61753982Y-57457734D01*
X61672420Y-57471781D01*
X61463220Y-57443708D01*
X61344553Y-57365947D01*
X61154660Y-57247378D01*
X60944933Y-57272439D01*
X60833352Y-57361243D01*
X60788044Y-57526451D01*
X60071000Y-57526451D01*
X60071000Y-53842168D01*
X60515500Y-53908584D01*
X61022896Y-53957192D01*
X61615999Y-53972267D01*
X62214560Y-53953922D01*
X62716834Y-53905408D01*
X63203667Y-53835816D01*
X63203667Y-58575302D01*
G36*
X56853667Y-58575302D02*
G01*
X56426166Y-58666984D01*
X56071431Y-58715944D01*
X55611858Y-58742057D01*
X55108871Y-58745508D01*
X54623892Y-58726481D01*
X54218345Y-58685160D01*
X54080834Y-58659950D01*
X53721000Y-58579368D01*
X53721000Y-56548688D01*
X54313983Y-56548688D01*
X54320875Y-56961614D01*
X54345781Y-57249803D01*
X54395623Y-57457487D01*
X54477321Y-57628899D01*
X54484984Y-57641622D01*
X54754095Y-57941911D01*
X55088526Y-58095572D01*
X55458150Y-58095843D01*
X55823572Y-57942014D01*
X56035458Y-57726976D01*
X56175199Y-57394543D01*
X56247614Y-56929250D01*
X56260869Y-56538886D01*
X56233794Y-56014285D01*
X56145018Y-55624101D01*
X55982877Y-55340979D01*
X55735706Y-55137565D01*
X55641906Y-55087347D01*
X55414361Y-54991635D01*
X55238995Y-54978510D01*
X55023507Y-55042245D01*
X55008252Y-55048020D01*
X54744050Y-55205293D01*
X54520247Y-55430036D01*
X54505513Y-55451028D01*
X54413454Y-55609539D01*
X54356202Y-55782363D01*
X54325932Y-56014348D01*
X54314819Y-56350340D01*
X54313983Y-56548688D01*
X53721000Y-56548688D01*
X53721000Y-53837625D01*
X54123167Y-53906312D01*
X54534891Y-53951531D01*
X55047447Y-53971368D01*
X55594252Y-53965850D01*
X56108722Y-53935004D01*
X56366834Y-53905408D01*
X56853667Y-53835816D01*
X56853667Y-58575302D01*
G37*
X56853667Y-58575302D02*
X56426166Y-58666984D01*
X56071431Y-58715944D01*
X55611858Y-58742057D01*
X55108871Y-58745508D01*
X54623892Y-58726481D01*
X54218345Y-58685160D01*
X54080834Y-58659950D01*
X53721000Y-58579368D01*
X53721000Y-56548688D01*
X54313983Y-56548688D01*
X54320875Y-56961614D01*
X54345781Y-57249803D01*
X54395623Y-57457487D01*
X54477321Y-57628899D01*
X54484984Y-57641622D01*
X54754095Y-57941911D01*
X55088526Y-58095572D01*
X55458150Y-58095843D01*
X55823572Y-57942014D01*
X56035458Y-57726976D01*
X56175199Y-57394543D01*
X56247614Y-56929250D01*
X56260869Y-56538886D01*
X56233794Y-56014285D01*
X56145018Y-55624101D01*
X55982877Y-55340979D01*
X55735706Y-55137565D01*
X55641906Y-55087347D01*
X55414361Y-54991635D01*
X55238995Y-54978510D01*
X55023507Y-55042245D01*
X55008252Y-55048020D01*
X54744050Y-55205293D01*
X54520247Y-55430036D01*
X54505513Y-55451028D01*
X54413454Y-55609539D01*
X54356202Y-55782363D01*
X54325932Y-56014348D01*
X54314819Y-56350340D01*
X54313983Y-56548688D01*
X53721000Y-56548688D01*
X53721000Y-53837625D01*
X54123167Y-53906312D01*
X54534891Y-53951531D01*
X55047447Y-53971368D01*
X55594252Y-53965850D01*
X56108722Y-53935004D01*
X56366834Y-53905408D01*
X56853667Y-53835816D01*
X56853667Y-58575302D01*
G36*
X50503667Y-58575302D02*
G01*
X50076166Y-58666984D01*
X49721431Y-58715944D01*
X49261858Y-58742057D01*
X48758871Y-58745508D01*
X48273892Y-58726481D01*
X47868345Y-58685160D01*
X47730834Y-58659950D01*
X47371000Y-58579368D01*
X47371000Y-57493883D01*
X48083452Y-57493883D01*
X48119283Y-57632369D01*
X48372886Y-57937968D01*
X48733734Y-58114942D01*
X48979667Y-58155862D01*
X49131143Y-58120303D01*
X49342757Y-58020413D01*
X49386928Y-57994496D01*
X49615316Y-57792396D01*
X49788359Y-57532821D01*
X49796265Y-57514705D01*
X49873553Y-57290288D01*
X49872751Y-57108754D01*
X49797981Y-56881559D01*
X49722359Y-56648807D01*
X49723099Y-56463327D01*
X49800658Y-56226295D01*
X49801006Y-56225410D01*
X49877471Y-55997935D01*
X49878362Y-55828607D01*
X49799719Y-55624577D01*
X49773028Y-55569243D01*
X49521456Y-55239724D01*
X49291906Y-55087347D01*
X49063008Y-54991530D01*
X48886409Y-54978918D01*
X48670589Y-55043328D01*
X48666000Y-55045072D01*
X48394417Y-55191378D01*
X48195161Y-55379283D01*
X48095192Y-55573392D01*
X48121468Y-55738310D01*
X48129755Y-55749090D01*
X48320678Y-55867778D01*
X48531720Y-55839861D01*
X48644553Y-55748720D01*
X48808612Y-55656307D01*
X48972420Y-55642886D01*
X49146267Y-55707962D01*
X49215597Y-55880275D01*
X49217801Y-55897816D01*
X49209504Y-56062267D01*
X49109036Y-56172261D01*
X48942634Y-56253329D01*
X48714863Y-56407080D01*
X48639025Y-56588465D01*
X48710618Y-56760292D01*
X48925143Y-56885369D01*
X49022000Y-56909215D01*
X49151102Y-56986621D01*
X49191230Y-57178316D01*
X49191334Y-57193493D01*
X49164410Y-57379725D01*
X49053982Y-57457734D01*
X48972420Y-57471781D01*
X48763220Y-57443708D01*
X48644553Y-57365947D01*
X48474856Y-57253116D01*
X48292541Y-57253176D01*
X48145957Y-57341606D01*
X48083452Y-57493883D01*
X47371000Y-57493883D01*
X47371000Y-53855978D01*
X47815500Y-53915489D01*
X48329966Y-53959486D01*
X48928822Y-53972459D01*
X49530023Y-53954584D01*
X50016834Y-53910761D01*
X50503667Y-53846521D01*
X50503667Y-58575302D01*
G37*
X50503667Y-58575302D02*
X50076166Y-58666984D01*
X49721431Y-58715944D01*
X49261858Y-58742057D01*
X48758871Y-58745508D01*
X48273892Y-58726481D01*
X47868345Y-58685160D01*
X47730834Y-58659950D01*
X47371000Y-58579368D01*
X47371000Y-57493883D01*
X48083452Y-57493883D01*
X48119283Y-57632369D01*
X48372886Y-57937968D01*
X48733734Y-58114942D01*
X48979667Y-58155862D01*
X49131143Y-58120303D01*
X49342757Y-58020413D01*
X49386928Y-57994496D01*
X49615316Y-57792396D01*
X49788359Y-57532821D01*
X49796265Y-57514705D01*
X49873553Y-57290288D01*
X49872751Y-57108754D01*
X49797981Y-56881559D01*
X49722359Y-56648807D01*
X49723099Y-56463327D01*
X49800658Y-56226295D01*
X49801006Y-56225410D01*
X49877471Y-55997935D01*
X49878362Y-55828607D01*
X49799719Y-55624577D01*
X49773028Y-55569243D01*
X49521456Y-55239724D01*
X49291906Y-55087347D01*
X49063008Y-54991530D01*
X48886409Y-54978918D01*
X48670589Y-55043328D01*
X48666000Y-55045072D01*
X48394417Y-55191378D01*
X48195161Y-55379283D01*
X48095192Y-55573392D01*
X48121468Y-55738310D01*
X48129755Y-55749090D01*
X48320678Y-55867778D01*
X48531720Y-55839861D01*
X48644553Y-55748720D01*
X48808612Y-55656307D01*
X48972420Y-55642886D01*
X49146267Y-55707962D01*
X49215597Y-55880275D01*
X49217801Y-55897816D01*
X49209504Y-56062267D01*
X49109036Y-56172261D01*
X48942634Y-56253329D01*
X48714863Y-56407080D01*
X48639025Y-56588465D01*
X48710618Y-56760292D01*
X48925143Y-56885369D01*
X49022000Y-56909215D01*
X49151102Y-56986621D01*
X49191230Y-57178316D01*
X49191334Y-57193493D01*
X49164410Y-57379725D01*
X49053982Y-57457734D01*
X48972420Y-57471781D01*
X48763220Y-57443708D01*
X48644553Y-57365947D01*
X48474856Y-57253116D01*
X48292541Y-57253176D01*
X48145957Y-57341606D01*
X48083452Y-57493883D01*
X47371000Y-57493883D01*
X47371000Y-53855978D01*
X47815500Y-53915489D01*
X48329966Y-53959486D01*
X48928822Y-53972459D01*
X49530023Y-53954584D01*
X50016834Y-53910761D01*
X50503667Y-53846521D01*
X50503667Y-58575302D01*
G36*
X63807173Y-59137485D02*
G01*
X63866161Y-59244531D01*
X63880840Y-59445775D01*
X63881000Y-59634808D01*
X63881000Y-60172283D01*
X63563500Y-60313677D01*
X62905444Y-60533054D01*
X62164389Y-60656197D01*
X61400277Y-60677660D01*
X60673049Y-60591996D01*
X60621334Y-60581028D01*
X60271764Y-60492728D01*
X59925794Y-60387133D01*
X59753500Y-60324566D01*
X59393667Y-60179614D01*
X59393667Y-59638474D01*
X59395732Y-59366247D01*
X59422181Y-59198421D01*
X59503395Y-59119924D01*
X59669755Y-59115687D01*
X59951642Y-59170639D01*
X60213913Y-59231588D01*
X60752729Y-59318108D01*
X61384521Y-59358966D01*
X62041514Y-59354135D01*
X62655931Y-59303588D01*
X63060754Y-59232706D01*
X63434828Y-59146455D01*
X63673515Y-59109754D01*
X63807173Y-59137485D01*
G37*
X63807173Y-59137485D02*
X63866161Y-59244531D01*
X63880840Y-59445775D01*
X63881000Y-59634808D01*
X63881000Y-60172283D01*
X63563500Y-60313677D01*
X62905444Y-60533054D01*
X62164389Y-60656197D01*
X61400277Y-60677660D01*
X60673049Y-60591996D01*
X60621334Y-60581028D01*
X60271764Y-60492728D01*
X59925794Y-60387133D01*
X59753500Y-60324566D01*
X59393667Y-60179614D01*
X59393667Y-59638474D01*
X59395732Y-59366247D01*
X59422181Y-59198421D01*
X59503395Y-59119924D01*
X59669755Y-59115687D01*
X59951642Y-59170639D01*
X60213913Y-59231588D01*
X60752729Y-59318108D01*
X61384521Y-59358966D01*
X62041514Y-59354135D01*
X62655931Y-59303588D01*
X63060754Y-59232706D01*
X63434828Y-59146455D01*
X63673515Y-59109754D01*
X63807173Y-59137485D01*
G36*
X57461748Y-59136175D02*
G01*
X57516804Y-59245666D01*
X57522952Y-59452299D01*
X57513702Y-59665613D01*
X57488667Y-60233892D01*
X56900394Y-60435399D01*
X56269027Y-60591980D01*
X55559976Y-60670103D01*
X54847652Y-60665739D01*
X54229000Y-60580023D01*
X53883808Y-60491246D01*
X53554775Y-60388490D01*
X53361167Y-60314215D01*
X53043667Y-60172283D01*
X53043667Y-59634808D01*
X53045816Y-59364084D01*
X53072498Y-59197292D01*
X53154066Y-59119565D01*
X53320874Y-59116037D01*
X53603274Y-59171840D01*
X53863913Y-59233054D01*
X54242342Y-59298665D01*
X54712189Y-59346145D01*
X55195875Y-59368099D01*
X55287334Y-59368775D01*
X55764489Y-59352807D01*
X56243300Y-59309835D01*
X56646190Y-59247254D01*
X56710754Y-59233054D01*
X57087959Y-59145619D01*
X57328545Y-59108076D01*
X57461748Y-59136175D01*
G37*
X57461748Y-59136175D02*
X57516804Y-59245666D01*
X57522952Y-59452299D01*
X57513702Y-59665613D01*
X57488667Y-60233892D01*
X56900394Y-60435399D01*
X56269027Y-60591980D01*
X55559976Y-60670103D01*
X54847652Y-60665739D01*
X54229000Y-60580023D01*
X53883808Y-60491246D01*
X53554775Y-60388490D01*
X53361167Y-60314215D01*
X53043667Y-60172283D01*
X53043667Y-59634808D01*
X53045816Y-59364084D01*
X53072498Y-59197292D01*
X53154066Y-59119565D01*
X53320874Y-59116037D01*
X53603274Y-59171840D01*
X53863913Y-59233054D01*
X54242342Y-59298665D01*
X54712189Y-59346145D01*
X55195875Y-59368099D01*
X55287334Y-59368775D01*
X55764489Y-59352807D01*
X56243300Y-59309835D01*
X56646190Y-59247254D01*
X56710754Y-59233054D01*
X57087959Y-59145619D01*
X57328545Y-59108076D01*
X57461748Y-59136175D01*
G36*
X51098552Y-59127167D02*
G01*
X51161010Y-59240844D01*
X51171760Y-59453456D01*
X51163702Y-59665613D01*
X51138667Y-60233892D01*
X50561816Y-60431481D01*
X50013115Y-60570647D01*
X49380131Y-60653890D01*
X48729819Y-60677430D01*
X48129133Y-60637487D01*
X47836667Y-60585346D01*
X47498883Y-60495841D01*
X47174778Y-60393125D01*
X47011167Y-60331097D01*
X46693667Y-60195728D01*
X46693667Y-59646531D01*
X46696666Y-59362595D01*
X46726252Y-59191162D01*
X46813312Y-59116020D01*
X46988731Y-59120959D01*
X47283393Y-59189768D01*
X47469995Y-59239068D01*
X47953821Y-59326770D01*
X48538270Y-59371787D01*
X49160111Y-59374163D01*
X49756113Y-59333942D01*
X50263046Y-59251170D01*
X50320005Y-59237053D01*
X50706143Y-59139541D01*
X50956294Y-59098156D01*
X51098552Y-59127167D01*
G37*
X51098552Y-59127167D02*
X51161010Y-59240844D01*
X51171760Y-59453456D01*
X51163702Y-59665613D01*
X51138667Y-60233892D01*
X50561816Y-60431481D01*
X50013115Y-60570647D01*
X49380131Y-60653890D01*
X48729819Y-60677430D01*
X48129133Y-60637487D01*
X47836667Y-60585346D01*
X47498883Y-60495841D01*
X47174778Y-60393125D01*
X47011167Y-60331097D01*
X46693667Y-60195728D01*
X46693667Y-59646531D01*
X46696666Y-59362595D01*
X46726252Y-59191162D01*
X46813312Y-59116020D01*
X46988731Y-59120959D01*
X47283393Y-59189768D01*
X47469995Y-59239068D01*
X47953821Y-59326770D01*
X48538270Y-59371787D01*
X49160111Y-59374163D01*
X49756113Y-59333942D01*
X50263046Y-59251170D01*
X50320005Y-59237053D01*
X50706143Y-59139541D01*
X50956294Y-59098156D01*
X51098552Y-59127167D01*
G36*
X52437536Y-60481760D02*
G01*
X52461800Y-60508023D01*
X52631223Y-60639712D01*
X52923500Y-60794126D01*
X53297307Y-60952525D01*
X53711320Y-61096170D01*
X53848000Y-61136654D01*
X54168786Y-61196413D01*
X54623152Y-61236792D01*
X55176160Y-61254981D01*
X55329667Y-61255730D01*
X55802983Y-61251236D01*
X56158936Y-61233650D01*
X56449388Y-61195875D01*
X56726202Y-61130817D01*
X57041241Y-61031380D01*
X57089425Y-61014970D01*
X57443336Y-60879863D01*
X57762889Y-60733430D01*
X57992130Y-60601995D01*
X58032980Y-60571073D01*
X58322521Y-60403608D01*
X58597052Y-60386296D01*
X58828502Y-60520544D01*
X58838011Y-60530786D01*
X59036968Y-60678102D01*
X59359495Y-60837649D01*
X59762318Y-60992732D01*
X60202164Y-61126653D01*
X60627745Y-61221330D01*
X61184902Y-61278857D01*
X61815920Y-61280604D01*
X62455669Y-61230759D01*
X63039019Y-61133509D01*
X63360933Y-61045581D01*
X63636678Y-60959062D01*
X63841549Y-60905733D01*
X63931011Y-60897123D01*
X63961454Y-61000730D01*
X63997303Y-61229602D01*
X64034462Y-61539940D01*
X64068833Y-61887942D01*
X64096320Y-62229808D01*
X64112825Y-62521737D01*
X64114252Y-62719927D01*
X64106616Y-62774512D01*
X64086104Y-62796085D01*
X64035767Y-62815210D01*
X63946110Y-62832031D01*
X63807634Y-62846691D01*
X63610843Y-62859332D01*
X63346241Y-62870096D01*
X63004330Y-62879128D01*
X62575613Y-62886568D01*
X62050594Y-62892561D01*
X61419776Y-62897248D01*
X60673661Y-62900773D01*
X59802753Y-62903278D01*
X58797555Y-62904905D01*
X57648570Y-62905798D01*
X56346302Y-62906100D01*
X55353491Y-62906037D01*
X54062705Y-62905112D01*
X52841122Y-62902788D01*
X51698379Y-62899150D01*
X50644109Y-62894283D01*
X49687948Y-62888270D01*
X48839531Y-62881198D01*
X48108492Y-62873151D01*
X47504467Y-62864213D01*
X47037090Y-62854470D01*
X46715997Y-62844006D01*
X46550823Y-62832906D01*
X46530706Y-62828397D01*
X46478893Y-62770754D01*
X46453103Y-62659690D01*
X46452674Y-62464506D01*
X46476944Y-62154499D01*
X46509445Y-61842009D01*
X46552684Y-61469093D01*
X46592843Y-61163801D01*
X46624888Y-60962095D01*
X46641357Y-60899421D01*
X46731607Y-60907991D01*
X46936927Y-60961741D01*
X47212874Y-61049035D01*
X47212951Y-61049061D01*
X47707083Y-61172142D01*
X48301819Y-61253097D01*
X48932731Y-61287729D01*
X49535394Y-61271843D01*
X49922670Y-61225553D01*
X50342430Y-61130129D01*
X50782871Y-60993148D01*
X51196121Y-60832991D01*
X51534310Y-60668039D01*
X51736790Y-60528972D01*
X51972633Y-60396893D01*
X52227715Y-60380535D01*
X52437536Y-60481760D01*
G37*
X52437536Y-60481760D02*
X52461800Y-60508023D01*
X52631223Y-60639712D01*
X52923500Y-60794126D01*
X53297307Y-60952525D01*
X53711320Y-61096170D01*
X53848000Y-61136654D01*
X54168786Y-61196413D01*
X54623152Y-61236792D01*
X55176160Y-61254981D01*
X55329667Y-61255730D01*
X55802983Y-61251236D01*
X56158936Y-61233650D01*
X56449388Y-61195875D01*
X56726202Y-61130817D01*
X57041241Y-61031380D01*
X57089425Y-61014970D01*
X57443336Y-60879863D01*
X57762889Y-60733430D01*
X57992130Y-60601995D01*
X58032980Y-60571073D01*
X58322521Y-60403608D01*
X58597052Y-60386296D01*
X58828502Y-60520544D01*
X58838011Y-60530786D01*
X59036968Y-60678102D01*
X59359495Y-60837649D01*
X59762318Y-60992732D01*
X60202164Y-61126653D01*
X60627745Y-61221330D01*
X61184902Y-61278857D01*
X61815920Y-61280604D01*
X62455669Y-61230759D01*
X63039019Y-61133509D01*
X63360933Y-61045581D01*
X63636678Y-60959062D01*
X63841549Y-60905733D01*
X63931011Y-60897123D01*
X63961454Y-61000730D01*
X63997303Y-61229602D01*
X64034462Y-61539940D01*
X64068833Y-61887942D01*
X64096320Y-62229808D01*
X64112825Y-62521737D01*
X64114252Y-62719927D01*
X64106616Y-62774512D01*
X64086104Y-62796085D01*
X64035767Y-62815210D01*
X63946110Y-62832031D01*
X63807634Y-62846691D01*
X63610843Y-62859332D01*
X63346241Y-62870096D01*
X63004330Y-62879128D01*
X62575613Y-62886568D01*
X62050594Y-62892561D01*
X61419776Y-62897248D01*
X60673661Y-62900773D01*
X59802753Y-62903278D01*
X58797555Y-62904905D01*
X57648570Y-62905798D01*
X56346302Y-62906100D01*
X55353491Y-62906037D01*
X54062705Y-62905112D01*
X52841122Y-62902788D01*
X51698379Y-62899150D01*
X50644109Y-62894283D01*
X49687948Y-62888270D01*
X48839531Y-62881198D01*
X48108492Y-62873151D01*
X47504467Y-62864213D01*
X47037090Y-62854470D01*
X46715997Y-62844006D01*
X46550823Y-62832906D01*
X46530706Y-62828397D01*
X46478893Y-62770754D01*
X46453103Y-62659690D01*
X46452674Y-62464506D01*
X46476944Y-62154499D01*
X46509445Y-61842009D01*
X46552684Y-61469093D01*
X46592843Y-61163801D01*
X46624888Y-60962095D01*
X46641357Y-60899421D01*
X46731607Y-60907991D01*
X46936927Y-60961741D01*
X47212874Y-61049035D01*
X47212951Y-61049061D01*
X47707083Y-61172142D01*
X48301819Y-61253097D01*
X48932731Y-61287729D01*
X49535394Y-61271843D01*
X49922670Y-61225553D01*
X50342430Y-61130129D01*
X50782871Y-60993148D01*
X51196121Y-60832991D01*
X51534310Y-60668039D01*
X51736790Y-60528972D01*
X51972633Y-60396893D01*
X52227715Y-60380535D01*
X52437536Y-60481760D01*
G36*
X51265499Y-63510811D02*
G01*
X52305017Y-63512611D01*
X53490542Y-63515269D01*
X54831926Y-63518619D01*
X55366135Y-63519992D01*
X56563897Y-63523749D01*
X57714017Y-63528665D01*
X58805174Y-63534620D01*
X59826043Y-63541493D01*
X60765302Y-63549164D01*
X61611626Y-63557514D01*
X62353693Y-63566423D01*
X62980179Y-63575770D01*
X63479762Y-63585435D01*
X63841117Y-63595298D01*
X64052922Y-63605240D01*
X64106793Y-63612647D01*
X64136014Y-63720076D01*
X64164141Y-63961602D01*
X64188062Y-64302003D01*
X64204668Y-64706053D01*
X64205261Y-64727719D01*
X64214925Y-65169181D01*
X64213425Y-65474311D01*
X64196776Y-65675960D01*
X64160990Y-65806976D01*
X64102081Y-65900209D01*
X64057095Y-65948572D01*
X64026943Y-65977086D01*
X63990318Y-66002343D01*
X63937340Y-66024540D01*
X63858127Y-66043875D01*
X63742800Y-66060546D01*
X63581477Y-66074749D01*
X63364279Y-66086683D01*
X63081325Y-66096545D01*
X62722735Y-66104533D01*
X62278627Y-66110843D01*
X61739122Y-66115675D01*
X61094339Y-66119225D01*
X60334398Y-66121691D01*
X59449418Y-66123270D01*
X58429518Y-66124160D01*
X57264819Y-66124558D01*
X55945439Y-66124663D01*
X55249801Y-66124667D01*
X46618602Y-66124667D01*
X46486801Y-65936495D01*
X46424096Y-65800484D01*
X46383541Y-65586366D01*
X46361666Y-65264052D01*
X46355002Y-64803450D01*
X46355000Y-64793495D01*
X46356853Y-64548972D01*
X47061637Y-64548972D01*
X47073233Y-64596148D01*
X47185331Y-64740525D01*
X47351318Y-64770140D01*
X47511179Y-64695534D01*
X47604901Y-64527246D01*
X47608756Y-64502101D01*
X47607765Y-64492128D01*
X47986984Y-64492128D01*
X47993565Y-64597385D01*
X48082738Y-64672657D01*
X48272057Y-64722748D01*
X48579079Y-64752463D01*
X49021360Y-64766608D01*
X49572334Y-64770000D01*
X50119997Y-64767143D01*
X50521023Y-64757363D01*
X50798031Y-64738852D01*
X50973639Y-64709800D01*
X51070467Y-64668396D01*
X51091842Y-64648412D01*
X51149237Y-64497199D01*
X51099230Y-64352079D01*
X51056323Y-64288159D01*
X50989701Y-64242058D01*
X50874030Y-64210877D01*
X50683975Y-64191716D01*
X50394203Y-64181676D01*
X49979379Y-64177858D01*
X49572334Y-64177334D01*
X49047451Y-64178394D01*
X48666564Y-64183508D01*
X48404338Y-64195575D01*
X48235438Y-64217495D01*
X48134530Y-64252167D01*
X48076280Y-64302490D01*
X48045437Y-64352079D01*
X47986984Y-64492128D01*
X47607765Y-64492128D01*
X47590118Y-64314581D01*
X47456270Y-64219885D01*
X47451148Y-64218233D01*
X47239192Y-64221576D01*
X47094073Y-64347104D01*
X47061637Y-64548972D01*
X46356853Y-64548972D01*
X46358218Y-64368865D01*
X46371369Y-64078893D01*
X46399697Y-63888969D01*
X46448445Y-63764481D01*
X46522858Y-63670821D01*
X46525508Y-63668159D01*
X46555448Y-63640610D01*
X46593460Y-63616232D01*
X46649396Y-63594857D01*
X46733109Y-63576323D01*
X46854451Y-63560462D01*
X47023275Y-63547110D01*
X47249433Y-63536103D01*
X47542777Y-63527274D01*
X47913161Y-63520459D01*
X48370436Y-63515493D01*
X48924454Y-63512210D01*
X49585069Y-63510446D01*
X50362133Y-63510034D01*
X51265499Y-63510811D01*
G37*
X51265499Y-63510811D02*
X52305017Y-63512611D01*
X53490542Y-63515269D01*
X54831926Y-63518619D01*
X55366135Y-63519992D01*
X56563897Y-63523749D01*
X57714017Y-63528665D01*
X58805174Y-63534620D01*
X59826043Y-63541493D01*
X60765302Y-63549164D01*
X61611626Y-63557514D01*
X62353693Y-63566423D01*
X62980179Y-63575770D01*
X63479762Y-63585435D01*
X63841117Y-63595298D01*
X64052922Y-63605240D01*
X64106793Y-63612647D01*
X64136014Y-63720076D01*
X64164141Y-63961602D01*
X64188062Y-64302003D01*
X64204668Y-64706053D01*
X64205261Y-64727719D01*
X64214925Y-65169181D01*
X64213425Y-65474311D01*
X64196776Y-65675960D01*
X64160990Y-65806976D01*
X64102081Y-65900209D01*
X64057095Y-65948572D01*
X64026943Y-65977086D01*
X63990318Y-66002343D01*
X63937340Y-66024540D01*
X63858127Y-66043875D01*
X63742800Y-66060546D01*
X63581477Y-66074749D01*
X63364279Y-66086683D01*
X63081325Y-66096545D01*
X62722735Y-66104533D01*
X62278627Y-66110843D01*
X61739122Y-66115675D01*
X61094339Y-66119225D01*
X60334398Y-66121691D01*
X59449418Y-66123270D01*
X58429518Y-66124160D01*
X57264819Y-66124558D01*
X55945439Y-66124663D01*
X55249801Y-66124667D01*
X46618602Y-66124667D01*
X46486801Y-65936495D01*
X46424096Y-65800484D01*
X46383541Y-65586366D01*
X46361666Y-65264052D01*
X46355002Y-64803450D01*
X46355000Y-64793495D01*
X46356853Y-64548972D01*
X47061637Y-64548972D01*
X47073233Y-64596148D01*
X47185331Y-64740525D01*
X47351318Y-64770140D01*
X47511179Y-64695534D01*
X47604901Y-64527246D01*
X47608756Y-64502101D01*
X47607765Y-64492128D01*
X47986984Y-64492128D01*
X47993565Y-64597385D01*
X48082738Y-64672657D01*
X48272057Y-64722748D01*
X48579079Y-64752463D01*
X49021360Y-64766608D01*
X49572334Y-64770000D01*
X50119997Y-64767143D01*
X50521023Y-64757363D01*
X50798031Y-64738852D01*
X50973639Y-64709800D01*
X51070467Y-64668396D01*
X51091842Y-64648412D01*
X51149237Y-64497199D01*
X51099230Y-64352079D01*
X51056323Y-64288159D01*
X50989701Y-64242058D01*
X50874030Y-64210877D01*
X50683975Y-64191716D01*
X50394203Y-64181676D01*
X49979379Y-64177858D01*
X49572334Y-64177334D01*
X49047451Y-64178394D01*
X48666564Y-64183508D01*
X48404338Y-64195575D01*
X48235438Y-64217495D01*
X48134530Y-64252167D01*
X48076280Y-64302490D01*
X48045437Y-64352079D01*
X47986984Y-64492128D01*
X47607765Y-64492128D01*
X47590118Y-64314581D01*
X47456270Y-64219885D01*
X47451148Y-64218233D01*
X47239192Y-64221576D01*
X47094073Y-64347104D01*
X47061637Y-64548972D01*
X46356853Y-64548972D01*
X46358218Y-64368865D01*
X46371369Y-64078893D01*
X46399697Y-63888969D01*
X46448445Y-63764481D01*
X46522858Y-63670821D01*
X46525508Y-63668159D01*
X46555448Y-63640610D01*
X46593460Y-63616232D01*
X46649396Y-63594857D01*
X46733109Y-63576323D01*
X46854451Y-63560462D01*
X47023275Y-63547110D01*
X47249433Y-63536103D01*
X47542777Y-63527274D01*
X47913161Y-63520459D01*
X48370436Y-63515493D01*
X48924454Y-63512210D01*
X49585069Y-63510446D01*
X50362133Y-63510034D01*
X51265499Y-63510811D01*
D14*
%TO.C,N6*%
X237472220Y-52070000D02*
G75*
G03*
X237472220Y-52070000I-8872220J0D01*
G01*
X220980000Y-52070000D02*
G75*
G03*
X236220000Y-51912520I7620000J78740D01*
G01*
%TO.C,N5*%
X212072220Y-52070000D02*
G75*
G03*
X212072220Y-52070000I-8872220J0D01*
G01*
X195580000Y-52070000D02*
G75*
G03*
X210820000Y-51912520I7620000J78740D01*
G01*
%TO.C,N4*%
X175877220Y-52070000D02*
G75*
G03*
X175877220Y-52070000I-8872220J0D01*
G01*
X159385000Y-52070000D02*
G75*
G03*
X174625000Y-51912520I7620000J78740D01*
G01*
%TO.C,N3*%
X150477220Y-52070000D02*
G75*
G03*
X150477220Y-52070000I-8872220J0D01*
G01*
X133985000Y-52070000D02*
G75*
G03*
X149225000Y-51912520I7620000J78740D01*
G01*
%TO.C,N2*%
X114282220Y-52070000D02*
G75*
G03*
X114282220Y-52070000I-8872220J0D01*
G01*
X97790000Y-52070000D02*
G75*
G03*
X113030000Y-51912520I7620000J78740D01*
G01*
%TO.C,N1*%
X88882220Y-52070000D02*
G75*
G03*
X88882220Y-52070000I-8872220J0D01*
G01*
X72390000Y-52070000D02*
G75*
G03*
X87630000Y-51912520I7620000J78740D01*
G01*
%TO.C,D6*%
D16*
X227861904Y-56022380D02*
X227861904Y-55022380D01*
X228100000Y-55022380D01*
X228242857Y-55070000D01*
X228338095Y-55165238D01*
X228385714Y-55260476D01*
X228433333Y-55450952D01*
X228433333Y-55593809D01*
X228385714Y-55784285D01*
X228338095Y-55879523D01*
X228242857Y-55974761D01*
X228100000Y-56022380D01*
X227861904Y-56022380D01*
X229290476Y-55022380D02*
X229100000Y-55022380D01*
X229004761Y-55070000D01*
X228957142Y-55117619D01*
X228861904Y-55260476D01*
X228814285Y-55450952D01*
X228814285Y-55831904D01*
X228861904Y-55927142D01*
X228909523Y-55974761D01*
X229004761Y-56022380D01*
X229195238Y-56022380D01*
X229290476Y-55974761D01*
X229338095Y-55927142D01*
X229385714Y-55831904D01*
X229385714Y-55593809D01*
X229338095Y-55498571D01*
X229290476Y-55450952D01*
X229195238Y-55403333D01*
X229004761Y-55403333D01*
X228909523Y-55450952D01*
X228861904Y-55498571D01*
X228814285Y-55593809D01*
X233035714Y-54122380D02*
X232464285Y-54122380D01*
X232750000Y-54122380D02*
X232750000Y-53122380D01*
X232654761Y-53265238D01*
X232559523Y-53360476D01*
X232464285Y-53408095D01*
%TO.C,D5*%
X202461904Y-56022380D02*
X202461904Y-55022380D01*
X202700000Y-55022380D01*
X202842857Y-55070000D01*
X202938095Y-55165238D01*
X202985714Y-55260476D01*
X203033333Y-55450952D01*
X203033333Y-55593809D01*
X202985714Y-55784285D01*
X202938095Y-55879523D01*
X202842857Y-55974761D01*
X202700000Y-56022380D01*
X202461904Y-56022380D01*
X203938095Y-55022380D02*
X203461904Y-55022380D01*
X203414285Y-55498571D01*
X203461904Y-55450952D01*
X203557142Y-55403333D01*
X203795238Y-55403333D01*
X203890476Y-55450952D01*
X203938095Y-55498571D01*
X203985714Y-55593809D01*
X203985714Y-55831904D01*
X203938095Y-55927142D01*
X203890476Y-55974761D01*
X203795238Y-56022380D01*
X203557142Y-56022380D01*
X203461904Y-55974761D01*
X203414285Y-55927142D01*
X207635714Y-54122380D02*
X207064285Y-54122380D01*
X207350000Y-54122380D02*
X207350000Y-53122380D01*
X207254761Y-53265238D01*
X207159523Y-53360476D01*
X207064285Y-53408095D01*
%TO.C,D4*%
X166266904Y-56022380D02*
X166266904Y-55022380D01*
X166505000Y-55022380D01*
X166647857Y-55070000D01*
X166743095Y-55165238D01*
X166790714Y-55260476D01*
X166838333Y-55450952D01*
X166838333Y-55593809D01*
X166790714Y-55784285D01*
X166743095Y-55879523D01*
X166647857Y-55974761D01*
X166505000Y-56022380D01*
X166266904Y-56022380D01*
X167695476Y-55355714D02*
X167695476Y-56022380D01*
X167457380Y-54974761D02*
X167219285Y-55689047D01*
X167838333Y-55689047D01*
X171440714Y-54122380D02*
X170869285Y-54122380D01*
X171155000Y-54122380D02*
X171155000Y-53122380D01*
X171059761Y-53265238D01*
X170964523Y-53360476D01*
X170869285Y-53408095D01*
%TO.C,D3*%
X140866904Y-56022380D02*
X140866904Y-55022380D01*
X141105000Y-55022380D01*
X141247857Y-55070000D01*
X141343095Y-55165238D01*
X141390714Y-55260476D01*
X141438333Y-55450952D01*
X141438333Y-55593809D01*
X141390714Y-55784285D01*
X141343095Y-55879523D01*
X141247857Y-55974761D01*
X141105000Y-56022380D01*
X140866904Y-56022380D01*
X141771666Y-55022380D02*
X142390714Y-55022380D01*
X142057380Y-55403333D01*
X142200238Y-55403333D01*
X142295476Y-55450952D01*
X142343095Y-55498571D01*
X142390714Y-55593809D01*
X142390714Y-55831904D01*
X142343095Y-55927142D01*
X142295476Y-55974761D01*
X142200238Y-56022380D01*
X141914523Y-56022380D01*
X141819285Y-55974761D01*
X141771666Y-55927142D01*
X146040714Y-54122380D02*
X145469285Y-54122380D01*
X145755000Y-54122380D02*
X145755000Y-53122380D01*
X145659761Y-53265238D01*
X145564523Y-53360476D01*
X145469285Y-53408095D01*
%TO.C,D2*%
X104671904Y-56022380D02*
X104671904Y-55022380D01*
X104910000Y-55022380D01*
X105052857Y-55070000D01*
X105148095Y-55165238D01*
X105195714Y-55260476D01*
X105243333Y-55450952D01*
X105243333Y-55593809D01*
X105195714Y-55784285D01*
X105148095Y-55879523D01*
X105052857Y-55974761D01*
X104910000Y-56022380D01*
X104671904Y-56022380D01*
X105624285Y-55117619D02*
X105671904Y-55070000D01*
X105767142Y-55022380D01*
X106005238Y-55022380D01*
X106100476Y-55070000D01*
X106148095Y-55117619D01*
X106195714Y-55212857D01*
X106195714Y-55308095D01*
X106148095Y-55450952D01*
X105576666Y-56022380D01*
X106195714Y-56022380D01*
X109845714Y-54122380D02*
X109274285Y-54122380D01*
X109560000Y-54122380D02*
X109560000Y-53122380D01*
X109464761Y-53265238D01*
X109369523Y-53360476D01*
X109274285Y-53408095D01*
%TO.C,D1*%
X79271904Y-56022380D02*
X79271904Y-55022380D01*
X79510000Y-55022380D01*
X79652857Y-55070000D01*
X79748095Y-55165238D01*
X79795714Y-55260476D01*
X79843333Y-55450952D01*
X79843333Y-55593809D01*
X79795714Y-55784285D01*
X79748095Y-55879523D01*
X79652857Y-55974761D01*
X79510000Y-56022380D01*
X79271904Y-56022380D01*
X80795714Y-56022380D02*
X80224285Y-56022380D01*
X80510000Y-56022380D02*
X80510000Y-55022380D01*
X80414761Y-55165238D01*
X80319523Y-55260476D01*
X80224285Y-55308095D01*
X84445714Y-54122380D02*
X83874285Y-54122380D01*
X84160000Y-54122380D02*
X84160000Y-53122380D01*
X84064761Y-53265238D01*
X83969523Y-53360476D01*
X83874285Y-53408095D01*
%TO.C,R6*%
X219025264Y-41152812D02*
X218452844Y-41051797D01*
X218621203Y-41556873D02*
X217914096Y-40849767D01*
X218183470Y-40580392D01*
X218284485Y-40546721D01*
X218351829Y-40546721D01*
X218452844Y-40580392D01*
X218553859Y-40681408D01*
X218587531Y-40782423D01*
X218587531Y-40849767D01*
X218553859Y-40950782D01*
X218284485Y-41220156D01*
X218924249Y-39839614D02*
X218789562Y-39974301D01*
X218755890Y-40075316D01*
X218755890Y-40142660D01*
X218789562Y-40311018D01*
X218890577Y-40479377D01*
X219159951Y-40748751D01*
X219260966Y-40782423D01*
X219328310Y-40782423D01*
X219429325Y-40748751D01*
X219564012Y-40614064D01*
X219597684Y-40513049D01*
X219597684Y-40445705D01*
X219564012Y-40344690D01*
X219395653Y-40176331D01*
X219294638Y-40142660D01*
X219227295Y-40142660D01*
X219126279Y-40176331D01*
X218991592Y-40311018D01*
X218957921Y-40412034D01*
X218957921Y-40479377D01*
X218991592Y-40580392D01*
X220330718Y-43199045D02*
X219926657Y-43603106D01*
X220128687Y-43401075D02*
X219421580Y-42693968D01*
X219455252Y-42862327D01*
X219455252Y-42997014D01*
X219421580Y-43098029D01*
X220061344Y-42054205D02*
X220128687Y-41986861D01*
X220229702Y-41953190D01*
X220297046Y-41953190D01*
X220398061Y-41986861D01*
X220566420Y-42087877D01*
X220734779Y-42256235D01*
X220835794Y-42424594D01*
X220869466Y-42525610D01*
X220869466Y-42592953D01*
X220835794Y-42693968D01*
X220768451Y-42761312D01*
X220667435Y-42794984D01*
X220600092Y-42794984D01*
X220499077Y-42761312D01*
X220330718Y-42660297D01*
X220162359Y-42491938D01*
X220061344Y-42323579D01*
X220027672Y-42222564D01*
X220027672Y-42155220D01*
X220061344Y-42054205D01*
X221307199Y-42222564D02*
X220600092Y-41515457D01*
X221711260Y-41818503D02*
X221004153Y-41717487D01*
X221004153Y-41111396D02*
X221004153Y-41919518D01*
%TO.C,R5*%
X209187347Y-44268796D02*
X209288362Y-43696376D01*
X208783286Y-43864735D02*
X209490392Y-43157628D01*
X209759767Y-43427002D01*
X209793438Y-43528017D01*
X209793438Y-43595361D01*
X209759767Y-43696376D01*
X209658751Y-43797391D01*
X209557736Y-43831063D01*
X209490392Y-43831063D01*
X209389377Y-43797391D01*
X209120003Y-43528017D01*
X210534217Y-44201453D02*
X210197499Y-43864735D01*
X209827110Y-44167781D01*
X209894454Y-44167781D01*
X209995469Y-44201453D01*
X210163828Y-44369811D01*
X210197499Y-44470827D01*
X210197499Y-44538170D01*
X210163828Y-44639185D01*
X209995469Y-44807544D01*
X209894454Y-44841216D01*
X209827110Y-44841216D01*
X209726095Y-44807544D01*
X209557736Y-44639185D01*
X209524064Y-44538170D01*
X209524064Y-44470827D01*
X210492800Y-42222564D02*
X210088739Y-41818503D01*
X210290770Y-42020533D02*
X210997877Y-41313426D01*
X210829518Y-41347098D01*
X210694831Y-41347098D01*
X210593816Y-41313426D01*
X211637640Y-41953190D02*
X211704984Y-42020533D01*
X211738655Y-42121548D01*
X211738655Y-42188892D01*
X211704984Y-42289907D01*
X211603968Y-42458266D01*
X211435610Y-42626625D01*
X211267251Y-42727640D01*
X211166235Y-42761312D01*
X211098892Y-42761312D01*
X210997877Y-42727640D01*
X210930533Y-42660297D01*
X210896861Y-42559281D01*
X210896861Y-42491938D01*
X210930533Y-42390922D01*
X211031548Y-42222564D01*
X211199907Y-42054205D01*
X211368266Y-41953190D01*
X211469281Y-41919518D01*
X211536625Y-41919518D01*
X211637640Y-41953190D01*
X211469281Y-43199045D02*
X212176388Y-42491938D01*
X211873342Y-43603106D02*
X211974358Y-42895999D01*
X212580449Y-42895999D02*
X211772327Y-42895999D01*
%TO.C,R4*%
X157430264Y-41152812D02*
X156857844Y-41051797D01*
X157026203Y-41556873D02*
X156319096Y-40849767D01*
X156588470Y-40580392D01*
X156689485Y-40546721D01*
X156756829Y-40546721D01*
X156857844Y-40580392D01*
X156958859Y-40681408D01*
X156992531Y-40782423D01*
X156992531Y-40849767D01*
X156958859Y-40950782D01*
X156689485Y-41220156D01*
X157564951Y-40075316D02*
X158036356Y-40546721D01*
X157127218Y-39974301D02*
X157463936Y-40647736D01*
X157901669Y-40210003D01*
X158735718Y-43199045D02*
X158331657Y-43603106D01*
X158533687Y-43401075D02*
X157826580Y-42693968D01*
X157860252Y-42862327D01*
X157860252Y-42997014D01*
X157826580Y-43098029D01*
X158466344Y-42054205D02*
X158533687Y-41986861D01*
X158634702Y-41953190D01*
X158702046Y-41953190D01*
X158803061Y-41986861D01*
X158971420Y-42087877D01*
X159139779Y-42256235D01*
X159240794Y-42424594D01*
X159274466Y-42525610D01*
X159274466Y-42592953D01*
X159240794Y-42693968D01*
X159173451Y-42761312D01*
X159072435Y-42794984D01*
X159005092Y-42794984D01*
X158904077Y-42761312D01*
X158735718Y-42660297D01*
X158567359Y-42491938D01*
X158466344Y-42323579D01*
X158432672Y-42222564D01*
X158432672Y-42155220D01*
X158466344Y-42054205D01*
X159712199Y-42222564D02*
X159005092Y-41515457D01*
X160116260Y-41818503D02*
X159409153Y-41717487D01*
X159409153Y-41111396D02*
X159409153Y-41919518D01*
%TO.C,R3*%
X147592347Y-44268796D02*
X147693362Y-43696376D01*
X147188286Y-43864735D02*
X147895392Y-43157628D01*
X148164767Y-43427002D01*
X148198438Y-43528017D01*
X148198438Y-43595361D01*
X148164767Y-43696376D01*
X148063751Y-43797391D01*
X147962736Y-43831063D01*
X147895392Y-43831063D01*
X147794377Y-43797391D01*
X147525003Y-43528017D01*
X148535156Y-43797391D02*
X148972889Y-44235124D01*
X148467812Y-44268796D01*
X148568828Y-44369811D01*
X148602499Y-44470827D01*
X148602499Y-44538170D01*
X148568828Y-44639185D01*
X148400469Y-44807544D01*
X148299454Y-44841216D01*
X148232110Y-44841216D01*
X148131095Y-44807544D01*
X147929064Y-44605514D01*
X147895392Y-44504498D01*
X147895392Y-44437155D01*
X148897800Y-42222564D02*
X148493739Y-41818503D01*
X148695770Y-42020533D02*
X149402877Y-41313426D01*
X149234518Y-41347098D01*
X149099831Y-41347098D01*
X148998816Y-41313426D01*
X150042640Y-41953190D02*
X150109984Y-42020533D01*
X150143655Y-42121548D01*
X150143655Y-42188892D01*
X150109984Y-42289907D01*
X150008968Y-42458266D01*
X149840610Y-42626625D01*
X149672251Y-42727640D01*
X149571235Y-42761312D01*
X149503892Y-42761312D01*
X149402877Y-42727640D01*
X149335533Y-42660297D01*
X149301861Y-42559281D01*
X149301861Y-42491938D01*
X149335533Y-42390922D01*
X149436548Y-42222564D01*
X149604907Y-42054205D01*
X149773266Y-41953190D01*
X149874281Y-41919518D01*
X149941625Y-41919518D01*
X150042640Y-41953190D01*
X149874281Y-43199045D02*
X150581388Y-42491938D01*
X150278342Y-43603106D02*
X150379358Y-42895999D01*
X150985449Y-42895999D02*
X150177327Y-42895999D01*
%TO.C,R2*%
X95835264Y-41152812D02*
X95262844Y-41051797D01*
X95431203Y-41556873D02*
X94724096Y-40849767D01*
X94993470Y-40580392D01*
X95094485Y-40546721D01*
X95161829Y-40546721D01*
X95262844Y-40580392D01*
X95363859Y-40681408D01*
X95397531Y-40782423D01*
X95397531Y-40849767D01*
X95363859Y-40950782D01*
X95094485Y-41220156D01*
X95464875Y-40243675D02*
X95464875Y-40176331D01*
X95498546Y-40075316D01*
X95666905Y-39906957D01*
X95767921Y-39873286D01*
X95835264Y-39873286D01*
X95936279Y-39906957D01*
X96003623Y-39974301D01*
X96070966Y-40108988D01*
X96070966Y-40917110D01*
X96508699Y-40479377D01*
X97140718Y-43199045D02*
X96736657Y-43603106D01*
X96938687Y-43401075D02*
X96231580Y-42693968D01*
X96265252Y-42862327D01*
X96265252Y-42997014D01*
X96231580Y-43098029D01*
X96871344Y-42054205D02*
X96938687Y-41986861D01*
X97039702Y-41953190D01*
X97107046Y-41953190D01*
X97208061Y-41986861D01*
X97376420Y-42087877D01*
X97544779Y-42256235D01*
X97645794Y-42424594D01*
X97679466Y-42525610D01*
X97679466Y-42592953D01*
X97645794Y-42693968D01*
X97578451Y-42761312D01*
X97477435Y-42794984D01*
X97410092Y-42794984D01*
X97309077Y-42761312D01*
X97140718Y-42660297D01*
X96972359Y-42491938D01*
X96871344Y-42323579D01*
X96837672Y-42222564D01*
X96837672Y-42155220D01*
X96871344Y-42054205D01*
X98117199Y-42222564D02*
X97410092Y-41515457D01*
X98521260Y-41818503D02*
X97814153Y-41717487D01*
X97814153Y-41111396D02*
X97814153Y-41919518D01*
%TO.C,R1*%
X85997347Y-44268796D02*
X86098362Y-43696376D01*
X85593286Y-43864735D02*
X86300392Y-43157628D01*
X86569767Y-43427002D01*
X86603438Y-43528017D01*
X86603438Y-43595361D01*
X86569767Y-43696376D01*
X86468751Y-43797391D01*
X86367736Y-43831063D01*
X86300392Y-43831063D01*
X86199377Y-43797391D01*
X85930003Y-43528017D01*
X86670782Y-44942231D02*
X86266721Y-44538170D01*
X86468751Y-44740201D02*
X87175858Y-44033094D01*
X87007499Y-44066766D01*
X86872812Y-44066766D01*
X86771797Y-44033094D01*
X87302800Y-42222564D02*
X86898739Y-41818503D01*
X87100770Y-42020533D02*
X87807877Y-41313426D01*
X87639518Y-41347098D01*
X87504831Y-41347098D01*
X87403816Y-41313426D01*
X88447640Y-41953190D02*
X88514984Y-42020533D01*
X88548655Y-42121548D01*
X88548655Y-42188892D01*
X88514984Y-42289907D01*
X88413968Y-42458266D01*
X88245610Y-42626625D01*
X88077251Y-42727640D01*
X87976235Y-42761312D01*
X87908892Y-42761312D01*
X87807877Y-42727640D01*
X87740533Y-42660297D01*
X87706861Y-42559281D01*
X87706861Y-42491938D01*
X87740533Y-42390923D01*
X87841548Y-42222564D01*
X88009907Y-42054205D01*
X88178266Y-41953190D01*
X88279281Y-41919518D01*
X88346625Y-41919518D01*
X88447640Y-41953190D01*
X88279281Y-43199045D02*
X88986388Y-42491938D01*
X88683342Y-43603106D02*
X88784358Y-42895999D01*
X89390449Y-42895999D02*
X88582327Y-42895999D01*
%TO.C,NR1*%
D17*
X183816880Y-48517023D02*
X183816880Y-47247023D01*
X184542595Y-48517023D01*
X184542595Y-47247023D01*
X185873071Y-48517023D02*
X185449738Y-47912261D01*
X185147357Y-48517023D02*
X185147357Y-47247023D01*
X185631166Y-47247023D01*
X185752119Y-47307500D01*
X185812595Y-47367976D01*
X185873071Y-47488928D01*
X185873071Y-47670357D01*
X185812595Y-47791309D01*
X185752119Y-47851785D01*
X185631166Y-47912261D01*
X185147357Y-47912261D01*
X187082595Y-48517023D02*
X186356880Y-48517023D01*
X186719738Y-48517023D02*
X186719738Y-47247023D01*
X186598785Y-47428452D01*
X186477833Y-47549404D01*
X186356880Y-47609880D01*
D16*
X183045809Y-57724523D02*
X183045809Y-56454523D01*
X183650571Y-57724523D02*
X183650571Y-56454523D01*
X184376285Y-57724523D01*
X184376285Y-56454523D01*
X184981047Y-57240714D02*
X185948666Y-57240714D01*
X186432476Y-56454523D02*
X187218666Y-56454523D01*
X186795333Y-56938333D01*
X186976761Y-56938333D01*
X187097714Y-56998809D01*
X187158190Y-57059285D01*
X187218666Y-57180238D01*
X187218666Y-57482619D01*
X187158190Y-57603571D01*
X187097714Y-57664047D01*
X186976761Y-57724523D01*
X186613904Y-57724523D01*
X186492952Y-57664047D01*
X186432476Y-57603571D01*
%TO.C,NL1*%
D17*
X122406833Y-48517023D02*
X122406833Y-47247023D01*
X123132547Y-48517023D01*
X123132547Y-47247023D01*
X124342071Y-48517023D02*
X123737309Y-48517023D01*
X123737309Y-47247023D01*
X125430642Y-48517023D02*
X124704928Y-48517023D01*
X125067785Y-48517023D02*
X125067785Y-47247023D01*
X124946833Y-47428452D01*
X124825880Y-47549404D01*
X124704928Y-47609880D01*
D16*
X121514809Y-57724523D02*
X121514809Y-56454523D01*
X122119571Y-57724523D02*
X122119571Y-56454523D01*
X122845285Y-57724523D01*
X122845285Y-56454523D01*
X123450047Y-57240714D02*
X124417666Y-57240714D01*
X124901476Y-56454523D02*
X125687666Y-56454523D01*
X125264333Y-56938333D01*
X125445761Y-56938333D01*
X125566714Y-56998809D01*
X125627190Y-57059285D01*
X125687666Y-57180238D01*
X125687666Y-57482619D01*
X125627190Y-57603571D01*
X125566714Y-57664047D01*
X125445761Y-57724523D01*
X125082904Y-57724523D01*
X124961952Y-57664047D01*
X124901476Y-57603571D01*
%TO.C,N6*%
D17*
X239334523Y-53672619D02*
X238064523Y-53672619D01*
X239334523Y-52946904D01*
X238064523Y-52946904D01*
X238064523Y-51797857D02*
X238064523Y-52039761D01*
X238125000Y-52160714D01*
X238185476Y-52221190D01*
X238366904Y-52342142D01*
X238608809Y-52402619D01*
X239092619Y-52402619D01*
X239213571Y-52342142D01*
X239274047Y-52281666D01*
X239334523Y-52160714D01*
X239334523Y-51918809D01*
X239274047Y-51797857D01*
X239213571Y-51737380D01*
X239092619Y-51676904D01*
X238790238Y-51676904D01*
X238669285Y-51737380D01*
X238608809Y-51797857D01*
X238548333Y-51918809D01*
X238548333Y-52160714D01*
X238608809Y-52281666D01*
X238669285Y-52342142D01*
X238790238Y-52402619D01*
D16*
X225939047Y-52644523D02*
X225939047Y-51374523D01*
X226543809Y-52644523D02*
X226543809Y-51374523D01*
X227269523Y-52644523D01*
X227269523Y-51374523D01*
X227874285Y-52160714D02*
X228841904Y-52160714D01*
X230111904Y-52644523D02*
X229386190Y-52644523D01*
X229749047Y-52644523D02*
X229749047Y-51374523D01*
X229628095Y-51555952D01*
X229507142Y-51676904D01*
X229386190Y-51737380D01*
X231200476Y-51797857D02*
X231200476Y-52644523D01*
X230898095Y-51314047D02*
X230595714Y-52221190D01*
X231381904Y-52221190D01*
%TO.C,N5*%
D17*
X193139543Y-53672619D02*
X191869543Y-53672619D01*
X193139543Y-52946904D01*
X191869543Y-52946904D01*
X191869543Y-51737380D02*
X191869543Y-52342142D01*
X192474305Y-52402619D01*
X192413829Y-52342142D01*
X192353353Y-52221190D01*
X192353353Y-51918809D01*
X192413829Y-51797857D01*
X192474305Y-51737380D01*
X192595258Y-51676904D01*
X192897639Y-51676904D01*
X193018591Y-51737380D01*
X193079067Y-51797857D01*
X193139543Y-51918809D01*
X193139543Y-52221190D01*
X193079067Y-52342142D01*
X193018591Y-52402619D01*
D16*
X200539047Y-52644523D02*
X200539047Y-51374523D01*
X201143809Y-52644523D02*
X201143809Y-51374523D01*
X201869523Y-52644523D01*
X201869523Y-51374523D01*
X202474285Y-52160714D02*
X203441904Y-52160714D01*
X204711904Y-52644523D02*
X203986190Y-52644523D01*
X204349047Y-52644523D02*
X204349047Y-51374523D01*
X204228095Y-51555952D01*
X204107142Y-51676904D01*
X203986190Y-51737380D01*
X205800476Y-51797857D02*
X205800476Y-52644523D01*
X205498095Y-51314047D02*
X205195714Y-52221190D01*
X205981904Y-52221190D01*
%TO.C,N4*%
D17*
X156944543Y-53672619D02*
X155674543Y-53672619D01*
X156944543Y-52946904D01*
X155674543Y-52946904D01*
X156097877Y-51797857D02*
X156944543Y-51797857D01*
X155614067Y-52100238D02*
X156521210Y-52402619D01*
X156521210Y-51616428D01*
D16*
X164344047Y-52644523D02*
X164344047Y-51374523D01*
X164948809Y-52644523D02*
X164948809Y-51374523D01*
X165674523Y-52644523D01*
X165674523Y-51374523D01*
X166279285Y-52160714D02*
X167246904Y-52160714D01*
X168516904Y-52644523D02*
X167791190Y-52644523D01*
X168154047Y-52644523D02*
X168154047Y-51374523D01*
X168033095Y-51555952D01*
X167912142Y-51676904D01*
X167791190Y-51737380D01*
X169605476Y-51797857D02*
X169605476Y-52644523D01*
X169303095Y-51314047D02*
X169000714Y-52221190D01*
X169786904Y-52221190D01*
%TO.C,N3*%
D17*
X131544543Y-53672619D02*
X130274543Y-53672619D01*
X131544543Y-52946904D01*
X130274543Y-52946904D01*
X130274543Y-52463095D02*
X130274543Y-51676904D01*
X130758353Y-52100238D01*
X130758353Y-51918809D01*
X130818829Y-51797857D01*
X130879305Y-51737380D01*
X131000258Y-51676904D01*
X131302639Y-51676904D01*
X131423591Y-51737380D01*
X131484067Y-51797857D01*
X131544543Y-51918809D01*
X131544543Y-52281666D01*
X131484067Y-52402619D01*
X131423591Y-52463095D01*
D16*
X138944047Y-52644523D02*
X138944047Y-51374523D01*
X139548809Y-52644523D02*
X139548809Y-51374523D01*
X140274523Y-52644523D01*
X140274523Y-51374523D01*
X140879285Y-52160714D02*
X141846904Y-52160714D01*
X143116904Y-52644523D02*
X142391190Y-52644523D01*
X142754047Y-52644523D02*
X142754047Y-51374523D01*
X142633095Y-51555952D01*
X142512142Y-51676904D01*
X142391190Y-51737380D01*
X144205476Y-51797857D02*
X144205476Y-52644523D01*
X143903095Y-51314047D02*
X143600714Y-52221190D01*
X144386904Y-52221190D01*
%TO.C,N2*%
D17*
X95349543Y-53672619D02*
X94079543Y-53672619D01*
X95349543Y-52946904D01*
X94079543Y-52946904D01*
X94200496Y-52402619D02*
X94140020Y-52342142D01*
X94079543Y-52221190D01*
X94079543Y-51918809D01*
X94140020Y-51797857D01*
X94200496Y-51737380D01*
X94321448Y-51676904D01*
X94442400Y-51676904D01*
X94623829Y-51737380D01*
X95349543Y-52463095D01*
X95349543Y-51676904D01*
D16*
X102749047Y-52644523D02*
X102749047Y-51374523D01*
X103353809Y-52644523D02*
X103353809Y-51374523D01*
X104079523Y-52644523D01*
X104079523Y-51374523D01*
X104684285Y-52160714D02*
X105651904Y-52160714D01*
X106921904Y-52644523D02*
X106196190Y-52644523D01*
X106559047Y-52644523D02*
X106559047Y-51374523D01*
X106438095Y-51555952D01*
X106317142Y-51676904D01*
X106196190Y-51737380D01*
X108010476Y-51797857D02*
X108010476Y-52644523D01*
X107708095Y-51314047D02*
X107405714Y-52221190D01*
X108191904Y-52221190D01*
%TO.C,N1*%
D17*
X69949543Y-53672619D02*
X68679543Y-53672619D01*
X69949543Y-52946904D01*
X68679543Y-52946904D01*
X69949543Y-51676904D02*
X69949543Y-52402619D01*
X69949543Y-52039761D02*
X68679543Y-52039761D01*
X68860972Y-52160714D01*
X68981924Y-52281666D01*
X69042400Y-52402619D01*
D16*
X77349047Y-52644523D02*
X77349047Y-51374523D01*
X77953809Y-52644523D02*
X77953809Y-51374523D01*
X78679523Y-52644523D01*
X78679523Y-51374523D01*
X79284285Y-52160714D02*
X80251904Y-52160714D01*
X81521904Y-52644523D02*
X80796190Y-52644523D01*
X81159047Y-52644523D02*
X81159047Y-51374523D01*
X81038095Y-51555952D01*
X80917142Y-51676904D01*
X80796190Y-51737380D01*
X82610476Y-51797857D02*
X82610476Y-52644523D01*
X82308095Y-51314047D02*
X82005714Y-52221190D01*
X82791904Y-52221190D01*
%TD*%
M02*
