M48
; DRILL file {KiCad (5.1.7-0-10_14)} date Monday, October 12, 2020 at 09:23:22 PM
; FORMAT={-:-/ absolute / inch / decimal}
; #@! TF.CreationDate,2020-10-12T21:23:22+02:00
; #@! TF.GenerationSoftware,Kicad,Pcbnew,(5.1.7-0-10_14)
FMAT,2
INCH
T1C0.0157
T2C0.0236
T3C0.0315
T4C0.0330
T5C0.0394
T6C0.0394
T7C0.0433
T8C0.1260
T9C0.1378
%
G90
G05
T1
X3.5766Y-2.2967
X3.7498Y-2.72
X5.0203Y-1.7734
X5.599Y-1.0778
X7.4745Y-3.1467
X7.9678Y-2.5671
X8.0878Y-2.4682
T2
X4.8025Y-2.05
X4.9275Y-2.05
X7.225Y-2.05
X7.35Y-2.05
T3
X10.3016Y-1.4
X10.4Y-1.4
X8.5Y-2.3281
X8.5Y-2.525
X7.15Y-1.75
X7.25Y-1.65
X7.35Y-1.75
X7.475Y-2.775
X7.475Y-3.075
X7.575Y-2.775
X7.575Y-3.075
X7.675Y-2.775
X7.675Y-3.075
X7.775Y-2.775
X7.775Y-3.075
X7.875Y-2.775
X7.875Y-3.075
X7.975Y-2.775
X7.975Y-3.075
X8.075Y-2.775
X8.075Y-3.075
X8.175Y-2.775
X8.175Y-3.075
X8.4Y-2.8281
X8.4Y-3.025
X6.15Y-1.775
X6.3621Y-1.5629
X2.85Y-1.0
X2.85Y-1.3
X2.95Y-1.0
X2.95Y-1.3
X3.05Y-1.0
X3.05Y-1.3
X3.15Y-1.0
X3.15Y-1.3
X3.25Y-1.0
X3.25Y-1.3
X3.35Y-1.0
X3.35Y-1.3
X3.45Y-1.0
X3.45Y-1.3
X4.725Y-1.75
X4.825Y-1.65
X4.925Y-1.75
X5.15Y-2.8
X5.15Y-3.1
X5.25Y-2.8
X5.25Y-3.1
X5.35Y-2.8
X5.35Y-3.1
X5.45Y-2.8
X5.45Y-3.1
X5.55Y-2.8
X5.55Y-3.1
X5.65Y-2.8
X5.65Y-3.1
X5.75Y-2.8
X5.75Y-3.1
X5.85Y-2.8
X5.85Y-3.1
X4.575Y-1.6281
X4.575Y-1.825
X3.3629Y-1.5629
X3.575Y-1.775
X9.8Y-1.9
X10.1Y-1.9
X9.55Y-1.8
X9.55Y-2.1
X9.545Y-2.8381
X9.545Y-3.035
X9.55Y-2.5213
X9.55Y-2.6
X9.25Y-1.4531
X9.25Y-1.65
X3.725Y-1.775
X3.9371Y-1.5629
X2.1161Y-3.05
X2.25Y-3.05
X5.7879Y-1.5629
X6.0Y-1.775
X3.775Y-2.85
X3.775Y-3.0469
X4.8213Y-2.45
X4.9Y-2.45
X2.5213Y-1.05
X2.6Y-1.05
X7.525Y-1.65
X7.525Y-1.95
X6.075Y-2.8531
X6.075Y-3.05
X2.85Y-2.8
X2.85Y-3.1
X2.95Y-2.8
X2.95Y-3.1
X3.05Y-2.8
X3.05Y-3.1
X3.15Y-2.8
X3.15Y-3.1
X3.25Y-2.8
X3.25Y-3.1
X3.35Y-2.8
X3.35Y-3.1
X3.45Y-2.8
X3.45Y-3.1
X3.55Y-2.8
X3.55Y-3.1
X6.05Y-2.325
X6.05Y-2.5219
X3.975Y-2.8
X3.975Y-3.1
X4.075Y-2.8
X4.075Y-3.1
X4.175Y-2.8
X4.175Y-3.1
X4.275Y-2.8
X4.275Y-3.1
X4.375Y-2.8
X4.375Y-3.1
X4.475Y-2.8
X4.475Y-3.1
X4.575Y-2.8
X4.575Y-3.1
X4.675Y-2.8
X4.675Y-3.1
X5.15Y-1.0
X5.15Y-1.3
X5.25Y-1.0
X5.25Y-1.3
X5.35Y-1.0
X5.35Y-1.3
X5.45Y-1.0
X5.45Y-1.3
X5.55Y-1.0
X5.55Y-1.3
X5.65Y-1.0
X5.65Y-1.3
X5.75Y-1.0
X5.75Y-1.3
X3.65Y-2.325
X3.65Y-2.5219
X8.2129Y-1.5629
X8.425Y-1.775
X7.2Y-1.0
X7.2Y-1.3
X7.2213Y-2.45
X7.3Y-2.45
X7.225Y-2.8531
X7.225Y-3.05
X9.8Y-1.55
X9.8Y-1.75
X9.9Y-1.65
X2.025Y-1.05
X2.125Y-1.05
X2.225Y-1.05
X10.1Y-1.55
X10.1Y-1.75
X10.2Y-1.65
X5.1Y-1.65
X5.1Y-1.95
X2.025Y-1.75
X2.325Y-1.75
X7.0Y-1.6281
X7.0Y-1.825
X4.9Y-2.8531
X4.9Y-3.05
X6.3Y-2.775
X6.3Y-3.075
X6.4Y-2.775
X6.4Y-3.075
X6.5Y-2.775
X6.5Y-3.075
X6.6Y-2.775
X6.6Y-3.075
X6.7Y-2.775
X6.7Y-3.075
X6.8Y-2.775
X6.8Y-3.075
X6.9Y-2.775
X6.9Y-3.075
X7.0Y-2.775
X7.0Y-3.075
X2.025Y-1.55
X2.325Y-1.55
X7.45Y-1.0
X7.45Y-1.3
X7.55Y-1.0
X7.55Y-1.3
X7.65Y-1.0
X7.65Y-1.3
X7.75Y-1.0
X7.75Y-1.3
X7.85Y-1.0
X7.85Y-1.3
X7.95Y-1.0
X7.95Y-1.3
X8.05Y-1.0
X8.05Y-1.3
X4.0Y-1.0
X4.0Y-1.3
X4.1Y-1.0
X4.1Y-1.3
X4.2Y-1.0
X4.2Y-1.3
X4.3Y-1.0
X4.3Y-1.3
X4.4Y-1.0
X4.4Y-1.3
X4.5Y-1.0
X4.5Y-1.3
X4.6Y-1.0
X4.6Y-1.3
X4.7Y-1.0
X4.7Y-1.3
X6.3Y-1.0
X6.3Y-1.3
X6.4Y-1.0
X6.4Y-1.3
X6.5Y-1.0
X6.5Y-1.3
X6.6Y-1.0
X6.6Y-1.3
X6.7Y-1.0
X6.7Y-1.3
X6.8Y-1.0
X6.8Y-1.3
X6.9Y-1.0
X6.9Y-1.3
X7.0Y-1.0
X7.0Y-1.3
X8.625Y-2.775
X8.625Y-3.075
X8.725Y-2.775
X8.725Y-3.075
X8.825Y-2.775
X8.825Y-3.075
X8.925Y-2.775
X8.925Y-3.075
X9.025Y-2.775
X9.025Y-3.075
X9.125Y-2.775
X9.125Y-3.075
X9.225Y-2.775
X9.225Y-3.075
X9.325Y-2.775
X9.325Y-3.075
X8.6Y-1.0
X8.6Y-1.3
X8.7Y-1.0
X8.7Y-1.3
X8.8Y-1.0
X8.8Y-1.3
X8.9Y-1.0
X8.9Y-1.3
X9.0Y-1.0
X9.0Y-1.3
X9.1Y-1.0
X9.1Y-1.3
X9.2Y-1.0
X9.2Y-1.3
X9.3Y-1.0
X9.3Y-1.3
X4.9Y-1.0
X4.9Y-1.3
X8.575Y-1.775
X8.7871Y-1.5629
T4
X8.7581Y-2.0207
X8.7722Y-2.1364
X8.7995Y-1.9116
X8.8384Y-2.2324
X8.8868Y-1.8343
X8.9417Y-2.2866
X9.0Y-1.8064
X9.0583Y-2.2866
X9.1132Y-1.8343
X9.1616Y-2.2324
X9.2005Y-1.9116
X9.2278Y-2.1364
X9.2419Y-2.0207
X6.3331Y-2.0207
X6.3472Y-2.1364
X6.3745Y-1.9116
X6.4134Y-2.2324
X6.4618Y-1.8343
X6.5167Y-2.2866
X6.575Y-1.8064
X6.6333Y-2.2866
X6.6882Y-1.8343
X6.7366Y-2.2324
X6.7755Y-1.9116
X6.8028Y-2.1364
X6.8169Y-2.0207
X5.3331Y-2.0207
X5.3472Y-2.1364
X5.3745Y-1.9116
X5.4134Y-2.2324
X5.4618Y-1.8343
X5.5167Y-2.2866
X5.575Y-1.8064
X5.6333Y-2.2866
X5.6882Y-1.8343
X5.7366Y-2.2324
X5.7755Y-1.9116
X5.8028Y-2.1364
X5.8169Y-2.0207
X7.7581Y-2.0207
X7.7722Y-2.1364
X7.7995Y-1.9116
X7.8384Y-2.2324
X7.8868Y-1.8343
X7.9417Y-2.2866
X8.0Y-1.8064
X8.0583Y-2.2866
X8.1132Y-1.8343
X8.1616Y-2.2324
X8.2005Y-1.9116
X8.2278Y-2.1364
X8.2419Y-2.0207
X2.9081Y-2.0207
X2.9222Y-2.1364
X2.9495Y-1.9116
X2.9884Y-2.2324
X3.0368Y-1.8343
X3.0917Y-2.2866
X3.15Y-1.8064
X3.2083Y-2.2866
X3.2632Y-1.8343
X3.3116Y-2.2324
X3.3505Y-1.9116
X3.3778Y-2.1364
X3.3919Y-2.0207
X3.9081Y-2.0207
X3.9222Y-2.1364
X3.9495Y-1.9116
X3.9884Y-2.2324
X4.0368Y-1.8343
X4.0917Y-2.2866
X4.15Y-1.8064
X4.2083Y-2.2866
X4.2632Y-1.8343
X4.3116Y-2.2324
X4.3505Y-1.9116
X4.3778Y-2.1364
X4.3919Y-2.0207
T5
X1.725Y-1.55
X1.725Y-1.65
X1.725Y-1.75
X1.725Y-1.85
X1.725Y-1.95
X1.725Y-2.05
X1.725Y-2.15
X1.725Y-2.25
X2.625Y-1.55
X2.625Y-1.65
X2.625Y-1.75
X2.625Y-1.85
X2.625Y-1.95
X2.625Y-2.05
X2.625Y-2.15
X2.625Y-2.25
T6
X9.55Y-1.35
X9.55Y-1.475
X9.55Y-1.6
X10.4Y-2.25
X10.4Y-2.05
X10.4Y-2.45
X10.4Y-1.85
T7
X9.85Y-2.35
X9.95Y-2.35
X10.05Y-2.35
T8
X10.4Y-3.1
X1.75Y-1.0
X10.4Y-1.0
X1.75Y-3.1
T9
X9.95Y-3.0059
T5
G00X9.9394Y-1.1638
M15
G01X9.8606Y-1.1638
M16
G05
G00X9.9394Y-1.4
M15
G01X9.8606Y-1.4
M16
G05
G00X10.085Y-1.2425
M15
G01X10.085Y-1.3213
M16
G05
T0
M30
