%TF.GenerationSoftware,KiCad,Pcbnew,(5.1.7-0-10_14)*%
%TF.CreationDate,2020-10-11T18:19:48+02:00*%
%TF.ProjectId,nixie_board,6e697869-655f-4626-9f61-72642e6b6963,rev?*%
%TF.SameCoordinates,Original*%
%TF.FileFunction,Soldermask,Top*%
%TF.FilePolarity,Negative*%
%FSLAX46Y46*%
G04 Gerber Fmt 4.6, Leading zero omitted, Abs format (unit mm)*
G04 Created by KiCad (PCBNEW (5.1.7-0-10_14)) date 2020-10-11 18:19:48*
%MOMM*%
%LPD*%
G01*
G04 APERTURE LIST*
%ADD10R,1.500000X1.000000*%
%ADD11O,2.000000X1.600000*%
%ADD12R,2.000000X2.000000*%
%ADD13R,3.500000X3.500000*%
%ADD14C,1.600000*%
%ADD15R,1.600000X1.600000*%
%ADD16C,3.200000*%
%ADD17O,1.600000X1.600000*%
%ADD18C,2.499360*%
%ADD19C,1.346200*%
%ADD20R,1.050000X1.500000*%
%ADD21O,1.050000X1.500000*%
%ADD22C,1.500000*%
%ADD23O,1.905000X2.000000*%
%ADD24R,1.905000X2.000000*%
%ADD25O,3.500000X3.500000*%
G04 APERTURE END LIST*
D10*
%TO.C,D6*%
X231050000Y-58750000D03*
X231050000Y-55550000D03*
X226150000Y-58750000D03*
X226150000Y-55550000D03*
%TD*%
%TO.C,D5*%
X205650000Y-58750000D03*
X205650000Y-55550000D03*
X200750000Y-58750000D03*
X200750000Y-55550000D03*
%TD*%
%TO.C,D4*%
X169455000Y-58750000D03*
X169455000Y-55550000D03*
X164555000Y-58750000D03*
X164555000Y-55550000D03*
%TD*%
%TO.C,D3*%
X144055000Y-58750000D03*
X144055000Y-55550000D03*
X139155000Y-58750000D03*
X139155000Y-55550000D03*
%TD*%
%TO.C,D2*%
X107860000Y-58750000D03*
X107860000Y-55550000D03*
X102960000Y-58750000D03*
X102960000Y-55550000D03*
%TD*%
%TO.C,D1*%
X82460000Y-58750000D03*
X82460000Y-55550000D03*
X77560000Y-58750000D03*
X77560000Y-55550000D03*
%TD*%
D11*
%TO.C,U3*%
X66675000Y-57150000D03*
X66675000Y-54610000D03*
X66675000Y-52070000D03*
X66675000Y-49530000D03*
X66675000Y-46990000D03*
X66675000Y-44450000D03*
X66675000Y-41910000D03*
X66675000Y-39370000D03*
X43815000Y-39370000D03*
X43815000Y-41910000D03*
X43815000Y-44450000D03*
X43815000Y-46990000D03*
X43815000Y-49530000D03*
X43815000Y-52070000D03*
D12*
X43815000Y-57150000D03*
D11*
X43815000Y-54610000D03*
%TD*%
%TO.C,J5*%
G36*
G01*
X255285000Y-30810000D02*
X257035000Y-30810000D01*
G75*
G02*
X257910000Y-31685000I0J-875000D01*
G01*
X257910000Y-33435000D01*
G75*
G02*
X257035000Y-34310000I-875000J0D01*
G01*
X255285000Y-34310000D01*
G75*
G02*
X254410000Y-33435000I0J875000D01*
G01*
X254410000Y-31685000D01*
G75*
G02*
X255285000Y-30810000I875000J0D01*
G01*
G37*
G36*
G01*
X250460000Y-28060000D02*
X252460000Y-28060000D01*
G75*
G02*
X253210000Y-28810000I0J-750000D01*
G01*
X253210000Y-30310000D01*
G75*
G02*
X252460000Y-31060000I-750000J0D01*
G01*
X250460000Y-31060000D01*
G75*
G02*
X249710000Y-30310000I0J750000D01*
G01*
X249710000Y-28810000D01*
G75*
G02*
X250460000Y-28060000I750000J0D01*
G01*
G37*
D13*
X251460000Y-35560000D03*
%TD*%
D14*
%TO.C,C17*%
X250920000Y-66040000D03*
D15*
X248920000Y-66040000D03*
%TD*%
D14*
%TO.C,C16*%
X64040000Y-26670000D03*
D15*
X66040000Y-26670000D03*
%TD*%
D16*
%TO.C,M4*%
X44450000Y-68580000D03*
%TD*%
%TO.C,M2*%
X264160000Y-25400000D03*
%TD*%
%TO.C,M3*%
X264160000Y-68580000D03*
%TD*%
%TO.C,M1*%
X44450000Y-25400000D03*
%TD*%
D15*
%TO.C,C15*%
X184150000Y-66040000D03*
D14*
X186150000Y-66040000D03*
%TD*%
D17*
%TO.C,R9*%
X59055000Y-39370000D03*
D14*
X51435000Y-39370000D03*
%TD*%
D18*
%TO.C,J4*%
X264160000Y-57150000D03*
%TD*%
D17*
%TO.C,R8*%
X59055000Y-57150000D03*
D14*
X51435000Y-57150000D03*
%TD*%
%TO.C,C7*%
X264160000Y-35560000D03*
D15*
X261660000Y-35560000D03*
%TD*%
D19*
%TO.C,N6*%
X225724720Y-62628780D03*
X231475280Y-62628780D03*
X228600000Y-63337440D03*
X234744260Y-57894220D03*
X234386120Y-54955440D03*
X232704640Y-52517040D03*
X230080820Y-51140360D03*
X227119180Y-51140360D03*
X224495360Y-52517040D03*
X222813880Y-54955440D03*
X222455740Y-57894220D03*
X223507300Y-60665360D03*
X233692700Y-60665360D03*
%TD*%
%TO.C,N5*%
X200324720Y-62628780D03*
X206075280Y-62628780D03*
X203200000Y-63337440D03*
X209344260Y-57894220D03*
X208986120Y-54955440D03*
X207304640Y-52517040D03*
X204680820Y-51140360D03*
X201719180Y-51140360D03*
X199095360Y-52517040D03*
X197413880Y-54955440D03*
X197055740Y-57894220D03*
X198107300Y-60665360D03*
X208292700Y-60665360D03*
%TD*%
%TO.C,N4*%
X164129720Y-62628780D03*
X169880280Y-62628780D03*
X167005000Y-63337440D03*
X173149260Y-57894220D03*
X172791120Y-54955440D03*
X171109640Y-52517040D03*
X168485820Y-51140360D03*
X165524180Y-51140360D03*
X162900360Y-52517040D03*
X161218880Y-54955440D03*
X160860740Y-57894220D03*
X161912300Y-60665360D03*
X172097700Y-60665360D03*
%TD*%
%TO.C,N3*%
X138729720Y-62628780D03*
X144480280Y-62628780D03*
X141605000Y-63337440D03*
X147749260Y-57894220D03*
X147391120Y-54955440D03*
X145709640Y-52517040D03*
X143085820Y-51140360D03*
X140124180Y-51140360D03*
X137500360Y-52517040D03*
X135818880Y-54955440D03*
X135460740Y-57894220D03*
X136512300Y-60665360D03*
X146697700Y-60665360D03*
%TD*%
%TO.C,N2*%
X102534720Y-62628780D03*
X108285280Y-62628780D03*
X105410000Y-63337440D03*
X111554260Y-57894220D03*
X111196120Y-54955440D03*
X109514640Y-52517040D03*
X106890820Y-51140360D03*
X103929180Y-51140360D03*
X101305360Y-52517040D03*
X99623880Y-54955440D03*
X99265740Y-57894220D03*
X100317300Y-60665360D03*
X110502700Y-60665360D03*
%TD*%
%TO.C,N1*%
X77134720Y-62628780D03*
X82885280Y-62628780D03*
X80010000Y-63337440D03*
X86154260Y-57894220D03*
X85796120Y-54955440D03*
X84114640Y-52517040D03*
X81490820Y-51140360D03*
X78529180Y-51140360D03*
X75905360Y-52517040D03*
X74223880Y-54955440D03*
X73865740Y-57894220D03*
X74917300Y-60665360D03*
X85102700Y-60665360D03*
%TD*%
D20*
%TO.C,U15*%
X56515000Y-26670000D03*
D21*
X53975000Y-26670000D03*
X55245000Y-26670000D03*
%TD*%
D22*
%TO.C,R7*%
X53559500Y-69215000D03*
X56959500Y-69215000D03*
%TD*%
D14*
%TO.C,C14*%
X242570000Y-54690000D03*
X242570000Y-59690000D03*
%TD*%
%TO.C,C13*%
X180340000Y-54690000D03*
X180340000Y-59690000D03*
%TD*%
%TO.C,C12*%
X215900000Y-54690000D03*
X215900000Y-59690000D03*
%TD*%
%TO.C,C11*%
X118110000Y-54690000D03*
X118110000Y-59690000D03*
%TD*%
%TO.C,C10*%
X154305000Y-54690000D03*
X154305000Y-59690000D03*
%TD*%
%TO.C,C9*%
X92710000Y-54690000D03*
X92710000Y-59690000D03*
%TD*%
%TO.C,C8*%
X124555000Y-66040000D03*
D15*
X122555000Y-66040000D03*
%TD*%
D17*
%TO.C,U14*%
X218440000Y-45720000D03*
X236220000Y-38100000D03*
X220980000Y-45720000D03*
X233680000Y-38100000D03*
X223520000Y-45720000D03*
X231140000Y-38100000D03*
X226060000Y-45720000D03*
X228600000Y-38100000D03*
X228600000Y-45720000D03*
X226060000Y-38100000D03*
X231140000Y-45720000D03*
X223520000Y-38100000D03*
X233680000Y-45720000D03*
X220980000Y-38100000D03*
X236220000Y-45720000D03*
D15*
X218440000Y-38100000D03*
%TD*%
D17*
%TO.C,U13*%
X218440000Y-31750000D03*
X236220000Y-24130000D03*
X220980000Y-31750000D03*
X233680000Y-24130000D03*
X223520000Y-31750000D03*
X231140000Y-24130000D03*
X226060000Y-31750000D03*
X228600000Y-24130000D03*
X228600000Y-31750000D03*
X226060000Y-24130000D03*
X231140000Y-31750000D03*
X223520000Y-24130000D03*
X233680000Y-31750000D03*
X220980000Y-24130000D03*
X236220000Y-31750000D03*
D15*
X218440000Y-24130000D03*
%TD*%
D23*
%TO.C,U12*%
X248920000Y-59690000D03*
X251460000Y-59690000D03*
D24*
X254000000Y-59690000D03*
D25*
X251460000Y-43030000D03*
%TD*%
D17*
%TO.C,U11*%
X189230000Y-45720000D03*
X207010000Y-38100000D03*
X191770000Y-45720000D03*
X204470000Y-38100000D03*
X194310000Y-45720000D03*
X201930000Y-38100000D03*
X196850000Y-45720000D03*
X199390000Y-38100000D03*
X199390000Y-45720000D03*
X196850000Y-38100000D03*
X201930000Y-45720000D03*
X194310000Y-38100000D03*
X204470000Y-45720000D03*
X191770000Y-38100000D03*
X207010000Y-45720000D03*
D15*
X189230000Y-38100000D03*
%TD*%
D17*
%TO.C,U10*%
X204470000Y-24130000D03*
X189230000Y-31750000D03*
X201930000Y-24130000D03*
X191770000Y-31750000D03*
X199390000Y-24130000D03*
X194310000Y-31750000D03*
X196850000Y-24130000D03*
X196850000Y-31750000D03*
X194310000Y-24130000D03*
X199390000Y-31750000D03*
X191770000Y-24130000D03*
X201930000Y-31750000D03*
X189230000Y-24130000D03*
D15*
X204470000Y-31750000D03*
%TD*%
D17*
%TO.C,U9*%
X160020000Y-45720000D03*
X177800000Y-38100000D03*
X162560000Y-45720000D03*
X175260000Y-38100000D03*
X165100000Y-45720000D03*
X172720000Y-38100000D03*
X167640000Y-45720000D03*
X170180000Y-38100000D03*
X170180000Y-45720000D03*
X167640000Y-38100000D03*
X172720000Y-45720000D03*
X165100000Y-38100000D03*
X175260000Y-45720000D03*
X162560000Y-38100000D03*
X177800000Y-45720000D03*
D15*
X160020000Y-38100000D03*
%TD*%
D17*
%TO.C,U8*%
X160020000Y-31750000D03*
X177800000Y-24130000D03*
X162560000Y-31750000D03*
X175260000Y-24130000D03*
X165100000Y-31750000D03*
X172720000Y-24130000D03*
X167640000Y-31750000D03*
X170180000Y-24130000D03*
X170180000Y-31750000D03*
X167640000Y-24130000D03*
X172720000Y-31750000D03*
X165100000Y-24130000D03*
X175260000Y-31750000D03*
X162560000Y-24130000D03*
X177800000Y-31750000D03*
D15*
X160020000Y-24130000D03*
%TD*%
D17*
%TO.C,U7*%
X130810000Y-45720000D03*
X148590000Y-38100000D03*
X133350000Y-45720000D03*
X146050000Y-38100000D03*
X135890000Y-45720000D03*
X143510000Y-38100000D03*
X138430000Y-45720000D03*
X140970000Y-38100000D03*
X140970000Y-45720000D03*
X138430000Y-38100000D03*
X143510000Y-45720000D03*
X135890000Y-38100000D03*
X146050000Y-45720000D03*
X133350000Y-38100000D03*
X148590000Y-45720000D03*
D15*
X130810000Y-38100000D03*
%TD*%
D17*
%TO.C,U6*%
X146050000Y-24130000D03*
X130810000Y-31750000D03*
X143510000Y-24130000D03*
X133350000Y-31750000D03*
X140970000Y-24130000D03*
X135890000Y-31750000D03*
X138430000Y-24130000D03*
X138430000Y-31750000D03*
X135890000Y-24130000D03*
X140970000Y-31750000D03*
X133350000Y-24130000D03*
X143510000Y-31750000D03*
X130810000Y-24130000D03*
D15*
X146050000Y-31750000D03*
%TD*%
D17*
%TO.C,U5*%
X101600000Y-45720000D03*
X119380000Y-38100000D03*
X104140000Y-45720000D03*
X116840000Y-38100000D03*
X106680000Y-45720000D03*
X114300000Y-38100000D03*
X109220000Y-45720000D03*
X111760000Y-38100000D03*
X111760000Y-45720000D03*
X109220000Y-38100000D03*
X114300000Y-45720000D03*
X106680000Y-38100000D03*
X116840000Y-45720000D03*
X104140000Y-38100000D03*
X119380000Y-45720000D03*
D15*
X101600000Y-38100000D03*
%TD*%
D17*
%TO.C,U4*%
X101600000Y-31750000D03*
X119380000Y-24130000D03*
X104140000Y-31750000D03*
X116840000Y-24130000D03*
X106680000Y-31750000D03*
X114300000Y-24130000D03*
X109220000Y-31750000D03*
X111760000Y-24130000D03*
X111760000Y-31750000D03*
X109220000Y-24130000D03*
X114300000Y-31750000D03*
X106680000Y-24130000D03*
X116840000Y-31750000D03*
X104140000Y-24130000D03*
X119380000Y-31750000D03*
D15*
X101600000Y-24130000D03*
%TD*%
D17*
%TO.C,U2*%
X72390000Y-45720000D03*
X90170000Y-38100000D03*
X74930000Y-45720000D03*
X87630000Y-38100000D03*
X77470000Y-45720000D03*
X85090000Y-38100000D03*
X80010000Y-45720000D03*
X82550000Y-38100000D03*
X82550000Y-45720000D03*
X80010000Y-38100000D03*
X85090000Y-45720000D03*
X77470000Y-38100000D03*
X87630000Y-45720000D03*
X74930000Y-38100000D03*
X90170000Y-45720000D03*
D15*
X72390000Y-38100000D03*
%TD*%
D17*
%TO.C,U1*%
X87630000Y-24130000D03*
X72390000Y-31750000D03*
X85090000Y-24130000D03*
X74930000Y-31750000D03*
X82550000Y-24130000D03*
X77470000Y-31750000D03*
X80010000Y-24130000D03*
X80010000Y-31750000D03*
X77470000Y-24130000D03*
X82550000Y-31750000D03*
X74930000Y-24130000D03*
X85090000Y-31750000D03*
X72390000Y-24130000D03*
D15*
X87630000Y-31750000D03*
%TD*%
D14*
%TO.C,R6*%
X224790000Y-70158200D03*
G36*
G01*
X219967531Y-65335731D02*
X219967531Y-65335731D01*
G75*
G02*
X218836161Y-65335731I-565685J565685D01*
G01*
X218836161Y-65335731D01*
G75*
G02*
X218836161Y-64204361I565685J565685D01*
G01*
X218836161Y-64204361D01*
G75*
G02*
X219967531Y-64204361I565685J-565685D01*
G01*
X219967531Y-64204361D01*
G75*
G02*
X219967531Y-65335731I-565685J-565685D01*
G01*
G37*
%TD*%
%TO.C,R5*%
X206702000Y-70158200D03*
G36*
G01*
X211524469Y-65335731D02*
X211524469Y-65335731D01*
G75*
G02*
X211524469Y-64204361I565685J565685D01*
G01*
X211524469Y-64204361D01*
G75*
G02*
X212655839Y-64204361I565685J-565685D01*
G01*
X212655839Y-64204361D01*
G75*
G02*
X212655839Y-65335731I-565685J-565685D01*
G01*
X212655839Y-65335731D01*
G75*
G02*
X211524469Y-65335731I-565685J565685D01*
G01*
G37*
%TD*%
%TO.C,R4*%
G36*
G01*
X158680531Y-65335731D02*
X158680531Y-65335731D01*
G75*
G02*
X157549161Y-65335731I-565685J565685D01*
G01*
X157549161Y-65335731D01*
G75*
G02*
X157549161Y-64204361I565685J565685D01*
G01*
X157549161Y-64204361D01*
G75*
G02*
X158680531Y-64204361I565685J-565685D01*
G01*
X158680531Y-64204361D01*
G75*
G02*
X158680531Y-65335731I-565685J-565685D01*
G01*
G37*
X163503000Y-70158200D03*
%TD*%
%TO.C,R3*%
G36*
G01*
X150237469Y-65335731D02*
X150237469Y-65335731D01*
G75*
G02*
X150237469Y-64204361I565685J565685D01*
G01*
X150237469Y-64204361D01*
G75*
G02*
X151368839Y-64204361I565685J-565685D01*
G01*
X151368839Y-64204361D01*
G75*
G02*
X151368839Y-65335731I-565685J-565685D01*
G01*
X151368839Y-65335731D01*
G75*
G02*
X150237469Y-65335731I-565685J565685D01*
G01*
G37*
X145415000Y-70158200D03*
%TD*%
%TO.C,R2*%
X101600000Y-70158200D03*
G36*
G01*
X96777531Y-65335731D02*
X96777531Y-65335731D01*
G75*
G02*
X95646161Y-65335731I-565685J565685D01*
G01*
X95646161Y-65335731D01*
G75*
G02*
X95646161Y-64204361I565685J565685D01*
G01*
X95646161Y-64204361D01*
G75*
G02*
X96777531Y-64204361I565685J-565685D01*
G01*
X96777531Y-64204361D01*
G75*
G02*
X96777531Y-65335731I-565685J-565685D01*
G01*
G37*
%TD*%
%TO.C,R1*%
G36*
G01*
X88642469Y-65335731D02*
X88642469Y-65335731D01*
G75*
G02*
X88642469Y-64204361I565685J565685D01*
G01*
X88642469Y-64204361D01*
G75*
G02*
X89773839Y-64204361I565685J-565685D01*
G01*
X89773839Y-64204361D01*
G75*
G02*
X89773839Y-65335731I-565685J-565685D01*
G01*
X89773839Y-65335731D01*
G75*
G02*
X88642469Y-65335731I-565685J565685D01*
G01*
G37*
X83820000Y-70158200D03*
%TD*%
D18*
%TO.C,J3*%
X264160000Y-52070000D03*
%TD*%
%TO.C,J2*%
X264160000Y-62230000D03*
%TD*%
%TO.C,J1*%
X264160000Y-46990000D03*
%TD*%
D14*
%TO.C,C6*%
X95885000Y-44450000D03*
X95885000Y-39450000D03*
%TD*%
%TO.C,C5*%
X183515000Y-44370000D03*
X183515000Y-39370000D03*
%TD*%
%TO.C,C4*%
X154305000Y-44370000D03*
X154305000Y-39370000D03*
%TD*%
%TO.C,C3*%
X125095000Y-44370000D03*
X125095000Y-39370000D03*
%TD*%
%TO.C,C2*%
X212725000Y-44370000D03*
X212725000Y-39370000D03*
%TD*%
%TO.C,C1*%
X242570000Y-44450000D03*
X242570000Y-39450000D03*
%TD*%
M02*
